<?xml version="1.0" encoding="ISO-8859-1" standalone="no"?>
<!DOCTYPE svg PUBLIC "-//W3C//DTD SVG 20010904//EN"
"http://www.w3.org/TR/2001/REC-SVG-20010904/DTD/svg10.dtd">
<svg xmlns="http://www.w3.org/2000/svg" width="300mm" height="300mm" viewBox="0 0 300 300" xmlns:xlink="http://www.w3.org/1999/xlink">
<title>CncControl SerialEmulatorSVG output</title>
<desc>Reconstructed move commands</desc>
<defs>
<symbol id="Path_1_Crossing_1">
<path class="CncPath" d="M 13.6665 153.125 l 19.17 -16.815 14.58 -50.655 43.0425 5.925 9.5175 -8.5425 -0.4875 -33.0225 -1.4925 -4.0125 4.005 -2.0025 29.0025 6.9975 -1.5 3 0 5.0025 39.1275 9 33.1875 -9 11.0925 24.5025 28.545 18.9975 38.55 53.4975 0 2.0025 -4.875 -0.2475 -6.81 51.2475 -4.155 0.75 -1.95 -0.6225 6.5475 -50.1225 -3.2475 0 2.25 3.6225 -0.75 2.31 -3 -0.345 -6.2475 50.4525 -34.2525 6.7275 -1.2525 4.2375 -82.2525 13.245 -80.25 -19.5 -5.415 -49.4175 -10.665 -0.6675 5.3325 44.6625 -3.9975 1.665 -5.67 -0.8325 -7.665 -60.165 -18.165 0 0.165 -1.875 0 0" stroke="black" fill="none" stroke-dasharray="2,1" stroke-width="0.25"/>
</symbol>
<symbol id="Path_2_Crossing_1">
<path class="CncPath" d="M 264 164.5 l -33.9975 0.165 0 0" stroke="black" fill="none" stroke-dasharray="2,1" stroke-width="0.25"/>
</symbol>
<symbol id="Path_3_Crossing_1">
<path class="CncPath" d="M 280.75 156 l -16.7475 -0.33 1.5 2.58 0 0" stroke="black" fill="none" stroke-dasharray="2,1" stroke-width="0.25"/>
</symbol>
<symbol id="Path_4_Crossing_1">
<path class="CncPath" d="M 267.75 162.25 l -37.7475 -0.585 0 0" stroke="black" fill="none" stroke-dasharray="2,1" stroke-width="0.25"/>
</symbol>
<symbol id="Path_5_Crossing_1">
<path class="CncPath" d="M 31.6665 154.25 l 100.83 -1.2525 69.5025 -86.4975 42 93.5025 2.0025 -3.9975 -33 -72.5025 0 0" stroke="black" fill="none" stroke-dasharray="2,1" stroke-width="0.25"/>
</symbol>
<symbol id="Path_6_Crossing_1">
<path class="CncPath" d="M 137.917 61.5835 l -7.4175 18.42 37.5 -11.25 -30.0825 -7.17 0 0" stroke="black" fill="none" stroke-dasharray="2,1" stroke-width="0.25"/>
</symbol>
<symbol id="Path_7_Crossing_1">
<path class="CncPath" d="M 15.5 152 l 115.5 -3.5025 71.0025 -89.4975 0 0" stroke="black" fill="none" stroke-dasharray="2,1" stroke-width="0.25"/>
</symbol>
<symbol id="Path_8_Crossing_1">
<path class="CncPath" d="M 130.25 59 l 0.75 7.5 -26.0025 33.5025 -3.9975 0.5025 -1.02 -17.4825 0 0" stroke="black" fill="none" stroke-dasharray="2,1" stroke-width="0.25"/>
</symbol>
<symbol id="Path_9_Crossing_1">
<path class="CncPath" d="M 105 100 l -2.0025 -51.9975 -1.005 -3.9975 0 0" stroke="black" fill="none" stroke-dasharray="2,1" stroke-width="0.25"/>
</symbol>
<symbol id="Path_10_Crossing_1">
<path class="CncPath" d="M 99.4895 50.008 l 3.51 -2.01 27.2475 6 0 0" stroke="black" fill="none" stroke-dasharray="2,1" stroke-width="0.25"/>
</symbol>
<symbol id="Path_11_Crossing_1">
<path class="CncPath" d="M 47.4165 85.6875 l 37.5825 56.3775 -3.9975 0.9675 -31.5 -48.2625 -17.0025 51.2325 -3.5025 0 3.8325 -9.75 0 0" stroke="black" fill="none" stroke-dasharray="2,1" stroke-width="0.25"/>
</symbol>
<symbol id="Path_12_Crossing_1">
<path class="CncPath" d="M 33.5 144 l 9 -5.4975 33.9975 -1.5 0 0" stroke="black" fill="none" stroke-dasharray="2,1" stroke-width="0.25"/>
</symbol>
<symbol id="Path_13_Crossing_1">
<path class="CncPath" d="M 90.4585 91.5315 l -5.46 50.5275 0 0" stroke="black" fill="none" stroke-dasharray="2,1" stroke-width="0.25"/>
</symbol>
<symbol id="Path_14_Crossing_1">
<path class="CncPath" d="M 136.5 147.5 l 3.5025 91.7475 0 0" stroke="black" fill="none" stroke-dasharray="2,1" stroke-width="0.25"/>
</symbol>
<symbol id="Path_15_Crossing_1">
<path class="CncPath" d="M 38.5 208.5 l 5.4975 1.5 3.9975 -0.9975 0 0" stroke="black" fill="none" stroke-dasharray="2,1" stroke-width="0.25"/>
</symbol>
<symbol id="Path_16_Crossing_1">
<path class="CncPath" d="M 58 212.5 l 80.4975 15 84.9975 -10.5 0 0" stroke="black" fill="none" stroke-dasharray="2,1" stroke-width="0.25"/>
</symbol>
<symbol id="Path_17_Crossing_1">
<path class="CncPath" d="M 224.5 214 l 33.5025 -5.4975 0 0" stroke="black" fill="none" stroke-dasharray="2,1" stroke-width="0.25"/>
</symbol>
<symbol id="Path_18_Crossing_1">
<path class="CncPath" d="M 263 204.5 l 1.665 0.6675 4.5 -0.33 0 0" stroke="black" fill="none" stroke-dasharray="2,1" stroke-width="0.25"/>
</symbol>
<symbol id="Path_19_Crossing_1">
<path class="CncPath" d="M 229.5 171.5 l 33.0825 -1.83 0.585 -4.83 -33.165 0.165 -0.5025 6.5025 0 0" stroke="black" fill="none" stroke-dasharray="2,1" stroke-width="0.25"/>
</symbol>
<symbol id="Path_20_Crossing_1">
<path class="CncPath" d="M 268.75 158.25 l 6.75 -0.5025 0 0" stroke="black" fill="none" stroke-dasharray="2,1" stroke-width="0.25"/>
</symbol>
<symbol id="Path_21_Crossing_1">
<path class="CncPath" d="M 268.334 160.833 l 2.67 -0.33 3.8325 0.33 0 0" stroke="black" fill="none" stroke-dasharray="2,1" stroke-width="0.25"/>
</symbol>
<symbol id="Path_22_Crossing_1">
<path class="CncPath" d="M 271 158.333 l -6.75 51.42 0 0" stroke="black" fill="none" stroke-dasharray="2,1" stroke-width="0.25"/>
</symbol>
<symbol id="Path_23_Crossing_1">
<path class="CncPath" d="M 43.5 170 l -3.5025 0 5.0025 46.2525 0 0" stroke="black" fill="none" stroke-dasharray="2,1" stroke-width="0.25"/>
</symbol>
<symbol id="Path_24_Crossing_1">
<path class="CncPath" d="M 69.875 173.125 l 2.79 27.54 12.33 0.705 -0.8775 -29.0025 -14.25 0.75 0 0" stroke="black" fill="none" stroke-dasharray="2,1" stroke-width="0.25"/>
</symbol>
<symbol id="Path_25_Crossing_1">
<path class="CncPath" d="M 71.75 174.375 l 2.25 25.2525 3.75 0.1275 -2.0025 -25.2525 -3.9975 -0.1275 0 0" stroke="black" fill="none" stroke-dasharray="2,1" stroke-width="0.25"/>
</symbol>
<symbol id="Path_26_Crossing_1">
<path class="CncPath" d="M 77.125 174.5 l 2.25 25.6275 3.9975 -0.1275 -0.75 -25.7475 -5.4975 0.2475 0 0" stroke="black" fill="none" stroke-dasharray="2,1" stroke-width="0.25"/>
</symbol>
<symbol id="Path_27_Crossing_1">
<path class="CncPath" d="M 84.375 173 l 0.6225 0.1275 0.6225 28.3725 -0.6225 -0.1275 0 0" stroke="black" fill="none" stroke-dasharray="2,1" stroke-width="0.25"/>
</symbol>
<symbol id="Path_28_Crossing_1">
<path class="CncPath" d="M 97.25 172.692 l 2.925 30.0225 12.9225 0.7725 -0.915 -31.6125 -14.925 0.8175 0 0" stroke="black" fill="none" stroke-dasharray="2,1" stroke-width="0.25"/>
</symbol>
<symbol id="Path_29_Crossing_1">
<path class="CncPath" d="M 99.2145 174.055 l 2.355 27.525 3.93 0.135 -2.0925 -27.525 -4.1925 -0.135 0 0" stroke="black" fill="none" stroke-dasharray="2,1" stroke-width="0.25"/>
</symbol>
<symbol id="Path_30_Crossing_1">
<path class="CncPath" d="M 104.845 174.191 l 2.355 27.9375 4.1925 -0.135 -0.7875 -28.0725 -5.76 0.27 0 0" stroke="black" fill="none" stroke-dasharray="2,1" stroke-width="0.25"/>
</symbol>
<symbol id="Path_31_Crossing_1">
<path class="CncPath" d="M 112.441 172.556 l 0.6525 0.135 0.6525 30.93 -0.6525 -0.135 0 0" stroke="black" fill="none" stroke-dasharray="2,1" stroke-width="0.25"/>
</symbol>
<symbol id="Path_32_Crossing_1">
<path class="CncPath" d="M 164.667 168.667 l 1.83 43.83 40.17 -3.8325 3.9975 -40.17 -45.9975 0.165 0 0" stroke="black" fill="none" stroke-dasharray="2,1" stroke-width="0.25"/>
</symbol>
<symbol id="Path_33_Crossing_1">
<path class="CncPath" d="M 168.167 171.25 l 0.8325 39.1425 36 -4.2825 3.33 -35.055 -10.665 -0.0675 -1.5 35.265 -2.1675 0 1.335 -35.0025 -13.335 0 0.5025 36.5025 -2.4975 0 -0.5025 -36.5025 -11.3325 0 0 0" stroke="black" fill="none" stroke-dasharray="2,1" stroke-width="0.25"/>
</symbol>
<symbol id="Path_34_Crossing_1">
<path class="CncPath" d="M 204.833 171.5 l -2.4975 33 2.67 1.6125 0 0" stroke="black" fill="none" stroke-dasharray="2,1" stroke-width="0.25"/>
</symbol>
<symbol id="Path_35_Crossing_1">
<path class="CncPath" d="M 202.333 204.5 l -6 0.5025 0 0" stroke="black" fill="none" stroke-dasharray="2,1" stroke-width="0.25"/>
</symbol>
<symbol id="Path_36_Crossing_1">
<path class="CncPath" d="M 193.667 205.167 l -11.3325 1.17 0 0" stroke="black" fill="none" stroke-dasharray="2,1" stroke-width="0.25"/>
</symbol>
<symbol id="Path_37_Crossing_1">
<path class="CncPath" d="M 179.667 206.5 l -10.335 0.6675 0 0" stroke="black" fill="none" stroke-dasharray="2,1" stroke-width="0.25"/>
</symbol>
<symbol id="Path_38_Crossing_1">
<path class="CncPath" d="M 164.667 169.042 l -1.5 0.3525 1.7475 43.2675 1.5825 -0.165 0 0" stroke="black" fill="none" stroke-dasharray="2,1" stroke-width="0.25"/>
</symbol>
<symbol id="Path_39_Crossing_1">
<path class="CncPath" d="M 244 160 l -13.5 -1.5 -6.9975 63.2475 0 0" stroke="black" fill="none" stroke-dasharray="2,1" stroke-width="0.25"/>
</symbol>
<symbol id="Path_40_Crossing_1">
<path class="CncPath" d="M 230.5 158.5 l -36 -82.5 0 0" stroke="black" fill="none" stroke-dasharray="2,1" stroke-width="0.25"/>
</symbol>
<symbol id="Path_41_Crossing_1">
<path class="CncPath" d="M 33.5 161.25 l 103.5 0.75 60.33 -78.8325 2.1675 -12.165 -66.5025 81.9975 -100.5 2.0025 0.9975 6.2475 0 0" stroke="black" fill="none" stroke-dasharray="2,1" stroke-width="0.25"/>
</symbol>
<symbol id="Path_42_Crossing_1">
<path class="CncPath" d="M 199.185 111.281 l 0.03 0.0375 0.03 0.0375 0.03 0.0375 0.03 0.0375 0.03 0.0375 0.03 0.0375 0.03 0.0375 0.03 0.0375 0.03 0.0375 0.03 0.0375 0.03 0.0375 0.03 0.0375 0.03 0.0375 0.03 0.0375 0.03 0.0375 0.0225 0.0375 0.0225 0.0375 0.0225 0.0375 0.0225 0.0375 0.0225 0.0375 0.0225 0.0375 0.0225 0.0375 0.0225 0.0375 0.0225 0.0375 0.0225 0.0375 0.0225 0.0375 0.0225 0.0375 0.0225 0.0375 0.0225 0.0375 0.0225 0.0375 0.0225 0.0375 0.0225 0.0375 0.0225 0.0375 0.0225 0.0375 0.0225 0.0375 0.0225 0.0375 0.0225 0.0375 0.0225 0.0375 0.0225 0.0375 0.0225 0.0375 0.0225 0.0375 0.0225 0.0375 0.0225 0.0375 0.0225 0.0375 0.0225 0.0375 0.0225 0.0375 0.0225 0.0375 0.0225 0.0375 0.0225 0.0375 0.0225 0.0375 0.0225 0.0375 0.0225 0.0375 0.0225 0.0375 0.0225 0.0375 0.015 0.0375 0.015 0.0375 0.015 0.0375 0.015 0.0375 0.015 0.0375 0.015 0.0375 0.015 0.0375 0.015 0.0375 0.015 0.0375 0.015 0.0375 0.015 0.0375 0.015 0.0375 0.015 0.0375 0.015 0.0375 0.015 0.0375 0.015 0.0375 0.015 0.0375 0.015 0.0375 0.015 0.0375 0.015 0.0375 0.015 0.0375 0.015 0.03 0.015 0.03 0.015 0.03 0.015 0.03 0.015 0.03 0.015 0.03 0.015 0.03 0.015 0.03 0.015 0.03 0.015 0.03 0.015 0.03 0.015 0.03 0.015 0.03 0.015 0.03 0.015 0.03 0.015 0.03 0.015 0.03 0.015 0.03 0.015 0.03 0.015 0.03 0.015 0.03 0.015 0.03 0.015 0.03 0.015 0.03 0.015 0.03 0.0075 0.03 0.0075 0.03 0.0075 0.03 0.0075 0.03 0.0075 0.03 0.0075 0.03 0.0075 0.03 0.0075 0.03 0.0075 0.03 0.0075 0.03 0.0075 0.03 0.0075 0.03 0.0075 0.03 0.0075 0.03 0.0075 0.03 0.0075 0.03 0.0075 0.0225 0.0075 0.0225 0.0075 0.0225 0.0075 0.0225 0.0075 0.0225 0.0075 0.0225 0.0075 0.0225 0.0075 0.0225 0.0075 0.0225 0.0075 0.0225 0.0075 0.0225 0.0075 0.0225 0.0075 0.0225 0.0075 0.0225 0.0075 0.0225 0.0075 0.0225 0.0075 0.0225 0.0075 0.0225 0.0075 0.0225 0.0075 0.0225 0.0075 0.0225 0.0075 0.0225 0.0075 0.0225 0.0075 0.0225 0.0075 0.0225 0.0075 0.0225 0.0075 0.0225 0.0075 0.0225 0.0075 0.0225 0.0075 0.015 0.0075 0.015 0.0075 0.015 0.0075 0.015 0.0075 0.015 0.0075 0.015 0.0075 0.015 0.0075 0.015 0.0075 0.015 0.0075 0.015 0.0075 0.015 0.0075 0.015 0.0075 0.015 0.0075 0.015 0 0.015 0 0.015 0 0.015 0 0.015 0 0.015 0 0.015 0 0.015 0 0.015 0 0.015 0 0.015 0 0.0075 0 0.0075 0 0.0075 0 0.0075 0 0.0075 0 0.0075 0 0.0075 0 0.0075 0 0.0075 0 0.0075 0 0.0075 0 0.0075 0 0.0075 0 0.0075 0 0.0075 0 0.0075 0 0.0075 0 0.0075 0 0.0075 0 0.0075 0 0.0075 -0.33 35.67 -22.665 0.165 -0.5025 -37.665 0 -0.0075 0 -0.0075 0.0075 -0.0075 0.0075 -0.0075 0.0075 -0.0075 0.0075 -0.015 0.0075 -0.015 0.0075 -0.015 0.0075 -0.015 0.0075 -0.015 0.0075 -0.0225 0.015 -0.0225 0.015 -0.0225 0.015 -0.0225 0.015 -0.0225 0.015 -0.0225 0.015 -0.03 0.015 -0.03 0.015 -0.03 0.015 -0.03 0.0225 -0.03 0.0225 -0.03 0.0225 -0.0375 0.0225 -0.0375 0.0225 -0.0375 0.0225 -0.0375 0.0225 -0.0375 0.0225 -0.0375 0.03 -0.0375 0.03 -0.045 0.03 -0.045 0.03 -0.045 0.03 -0.045 0.03 -0.045 0.03 -0.045 0.03 -0.045 0.03 -0.0525 0.0375 -0.0525 0.0375 -0.0525 0.0375 -0.0525 0.0375 -0.0525 0.0375 -0.0525 0.0375 -0.0525 0.0375 -0.0525 0.0375 -0.0525 0.0375 -0.0525 0.045 -0.06 0.045 -0.06 0.045 -0.06 0.045 -0.06 0.045 -0.06 0.045 -0.06 0.045 -0.06 0.045 -0.06 0.045 -0.06 0.0525 -0.06 0.0525 -0.06 0.0525 -0.06 0.0525 -0.0675 0.0525 -0.0675 0.0525 -0.0675 0.0525 -0.0675 0.0525 -0.0675 0.0525 -0.0675 0.06 -0.0675 0.06 -0.0675 0.06 -0.0675 0.06 -0.0675 0.06 -0.0675 0.06 -0.0675 0.06 -0.0675 0.06 -0.0675 0.0675 -0.0675 0.0675 -0.0675 0.0675 -0.0675 0.0675 -0.0675 0.0675 -0.0675 0.0675 -0.0675 0.0675 -0.0675 0.0675 -0.0675 0.0675 -0.0675 0.075 -0.0675 0.075 -0.0675 0.075 -0.0675 0.075 -0.0675 0.075 -0.0675 0.075 -0.0675 0.075 -0.0675 0.075 -0.0675 0.075 -0.0675 0.0825 -0.0675 0.0825 -0.0675 0.0825 -0.0675 0.0825 -0.0675 0.0825 -0.0675 0.0825 -0.0675 0.0825 -0.0675 0.0825 -0.0675 0.0825 -0.0675 0.0825 -0.0675 0.09 -0.0675 0.09 -0.0675 0.09 -0.0675 0.09 -0.0675 0.09 -0.0675 0.09 -0.0675 0.09 -0.06 0.09 -0.06 0.09 -0.06 0.0975 -0.06 0.0975 -0.06 0.0975 -0.06 0.0975 -0.06 0.0975 -0.06 0.0975 -0.06 0.0975 -0.06 0.0975 -0.06 0.0975 -0.06 0.105 -0.06 0.105 -0.0525 0.105 -0.0525 0.105 -0.0525 0.105 -0.0525 0.105 -0.0525 0.105 -0.0525 0.105 -0.0525 0.105 -0.0525 0.1125 -0.0525 0.1125 -0.045 0.1125 -0.045 0.1125 -0.045 0.1125 -0.045 0.1125 -0.045 0.1125 -0.045 0.1125 -0.045 0.1125 -0.045 0.12 -0.0375 0.12 -0.0375 0.12 -0.0375 0.12 -0.0375 0.12 -0.0375 0.12 -0.0375 0.12 -0.03 0.12 -0.03 0.12 -0.03 0.12 -0.03 0.1275 -0.03 0.1275 -0.03 0.1275 -0.0225 0.1275 -0.0225 0.1275 -0.0225 0.1275 -0.0225 0.1275 -0.0225 0.1275 -0.0225 0.1275 -0.015 0.135 -0.015 0.135 -0.015 0.135 -0.015 0.135 -0.015 0.135 -0.0075 0.135 -0.0075 0.135 -0.0075 0.135 -0.0075 0.135 -0.0075 0.135 0 0.1425 0 0.1425 0 0.1425 0 0.1425 0.0075 0.1425 0.0075 0.1425 0.0075 0.1425 0.0075 0.1425 0.0075 0.1425 0.015 0.15 0.015 0.15 0.015 0.15 0.015 0.15 0.0225 0.15 0.0225 0.15 0.0225 0.15 0.0225 0.15 0.03 0.15 0.03 0.15 0.03 0.1575 0.03 0.1575 0.0375 0.1575 0.0375 0.1575 0.0375 0.1575 0.045 0.1575 0.045 0.1575 0.045 0.1575 0.045 0.1575 0.0525 0.165 0.0525 0.165 0.0525 0.165 0.06 0.165 0.06 0.165 0.06 0.03 0.015 0.03 0.015 0.03 0.015 0.03 0.015 0.03 0.015 0.03 0.015 0.03 0.015 0.03 0.015 0.03 0.015 0.03 0.015 0.03 0.015 0.03 0.015 0.03 0.015 0.03 0.015 0.03 0.015 0.03 0.015 0.03 0.015 0.03 0.015 0.03 0.015 0.0225 0.015 0.0225 0.015 0.0225 0.015 0.0225 0.015 0.0225 0.015 0.0225 0.015 0.0225 0.015 0.0225 0.015 0.0225 0.015 0.0225 0.015 0.0225 0.015 0.0225 0.015 0.0225 0.015 0.0225 0.015 0.0225 0.015 0.0225 0.015 0.0225 0.015 0.0225 0.015 0.0225 0.015 0.0225 0.015 0.0225 0.015 0.0225 0.015 0.0225 0.015 0.0225 0.015 0.0225 0.015 0.0225 0.015 0.0225 0.015 0.0225 0.015 0.0225 0.015 0.0225 0.015 0.0225 0.015 0.0225 0.015 0.0225 0.015 0.0225 0.015 0.0225 0.015 0.0225 0.015 0.0225 0.015 0.0225 0.015 0.0225 0.015 0.0225 0.015 0.0225 0.015 0.0225 0.015 0.0225 0.015 0.0225 0.015 0.0225 0.015 0.0225 0.015 0.0225 0.015 0.0225 0.015 0.0225 0.015 0.0225 0.015 0.0225 0.015 0.0225 0.015 0.0225 0.015 0.0225 0.015 0.0225 0.015 0.0225 0.015 0.0225 0.015 0.0225 0.015 0.0225 0.015 0.0225 0.015 0.0225 0.015 0.0225 0.015 0.0225 0.015 0.0225 0.015 0.0225 0.015 0.0225 0.015 0.0225 0.015 0.0225 0.015 0.0225 0.015 0.0225 0.015 0.0225 0.015 0.0225 0.015 0.0225 0.015 0.0225 0.015 0.0225 0.015 0.0225 0.015 0.0225 0.015 0.0225 0.015 0.0225 0.015 0.0225 0.015 0.0225 0.015 0.0225 0.015 0.0225 0.015 0.0225 0.015 0.0225 0.015 0.0225 0.015 0.0225 0.015 0.0225 0.015 0.0225 0.015 0.0225 0.015 0.0225 0.015 0.0225 0.015 0.0225 0.015 0.0225 0.015 0.0225 0.015 0.0225 0.015 0.0225 0.015 0.0225 0.015 0.0225 0.015 0.0225 0.015 0.0225 0.015 0.0225 0.015 0.0225 0.015 0.0225 0.015 0.0225 0.015 0.0225 0.015 0.0225 0.015 0.0225 0.015 0.0225 0.015 0.0225 0.015 0.0225 0.015 0.0225 0.015 0.0225 0.015 0.015 0.015 0.015 0.015 0.015 0.015 0.015 0.015 0.015 0.015 0.015 0.015 0.015 0.015 0.015 0.015 0.015 0.015 0.015 0.015 0.015 0.015 0.015 0.015 0.015 0.015 0.015 0.0225 0.015 0.0225 0.015 0.0225 0.015 0.0225 0.015 0.0225 0.015 0.0225 0.015 0.0225 0.015 0.0225 0.015 0.0225 0.015 0.0225 0.015 0.0225 0.015 0.0225 0.015 0.0225 0.015 0.0225 0.015 0.0225 0.015 0.0225 0.015 0.0225 0.015 0.0225 0.015 0.0225 0.015 0.0225 0.015 0.0225 0.015 0.0225 0.015 0.0225 0.015 0.0225 0.015 0.0225 0.015 0.0225 0.015 0.0225 0.015 0.0225 0.015 0.0225 0.015 0.0225 0.015 0.0225 0.015 0.0225 0.015 0.0225 0.015 0.0225 0.015 0.0225 0.015 0.0225 0.015 0.0225 0.015 0.0225 0.015 0.0225 0.015 0.0225 0.015 0.0225 0.015 0.0225 0.015 0.0225 0.015 0.0225 0.015 0.0225 0.015 0.0225 0.015 0.0225 0.015 0.0225 0.015 0.0225 0.015 0.0225 0.015 0.0225 0.015 0.0225 0.015 0.0225 0.015 0.0225 0.015 0.0225 0 0" stroke="black" fill="none" stroke-dasharray="2,1" stroke-width="0.25"/>
</symbol>
<symbol id="Path_43_Crossing_1">
<path class="CncPath" d="M 197.678 113.388 l 0.0225 0.03 0.0225 0.03 0.0225 0.03 0.0225 0.03 0.0225 0.03 0.0225 0.03 0.0225 0.03 0.0225 0.03 0.0225 0.03 0.0225 0.03 0.0225 0.03 0.0225 0.03 0.0225 0.03 0.0225 0.03 0.0225 0.03 0.0225 0.03 0.0225 0.03 0.0225 0.03 0.0225 0.03 0.0225 0.03 0.0225 0.03 0.0225 0.03 0.0225 0.03 0.0225 0.03 0.0225 0.03 0.0225 0.03 0.0225 0.03 0.0225 0.03 0.0225 0.03 0.015 0.03 0.015 0.03 0.015 0.03 0.015 0.03 0.015 0.03 0.015 0.03 0.015 0.03 0.015 0.03 0.015 0.03 0.015 0.03 0.015 0.03 0.015 0.03 0.015 0.03 0.015 0.03 0.015 0.03 0.015 0.03 0.015 0.03 0.015 0.03 0.015 0.03 0.015 0.03 0.015 0.03 0.015 0.03 0.015 0.03 0.015 0.03 0.015 0.03 0.015 0.03 0.015 0.03 0.015 0.03 0.015 0.03 0.015 0.03 0.015 0.03 0.015 0.03 0.015 0.03 0.015 0.03 0.015 0.03 0.015 0.03 0.015 0.03 0.015 0.03 0.015 0.03 0.015 0.03 0.015 0.03 0.015 0.03 0.015 0.03 0.015 0.03 0.015 0.03 0.015 0.03 0.015 0.03 0.015 0.03 0.015 0.03 0.015 0.03 0.015 0.03 0.015 0.03 0.015 0.03 0.0075 0.03 0.0075 0.03 0.0075 0.03 0.0075 0.03 0.0075 0.03 0.0075 0.03 0.0075 0.03 0.0075 0.03 0.0075 0.03 0.0075 0.03 0.0075 0.03 0.0075 0.03 0.0075 0.03 0.0075 0.0225 0.0075 0.0225 0.0075 0.0225 0.0075 0.0225 0.0075 0.0225 0.0075 0.0225 0.0075 0.0225 0.0075 0.0225 0.0075 0.0225 0.0075 0.0225 0.0075 0.0225 0.0075 0.0225 0.0075 0.0225 0.0075 0.0225 0.0075 0.0225 0.0075 0.0225 0.0075 0.0225 0.0075 0.0225 0.0075 0.0225 0.0075 0.0225 0.0075 0.0225 0.0075 0.0225 0.0075 0.0225 0.0075 0.0225 0.0075 0.0225 0.0075 0.0225 0.0075 0.0225 0.0075 0.0225 0.0075 0.0225 0.0075 0.0225 0.0075 0.0225 0.0075 0.0225 0.0075 0.0225 0.0075 0.0225 0.0075 0.0225 0.0075 0.0225 0.0075 0.0225 0.0075 0.0225 0.0075 0.0225 0.0075 0.015 0.0075 0.015 0.0075 0.015 0.0075 0.015 0.0075 0.015 0.0075 0.015 0.0075 0.015 0.0075 0.015 0.0075 0.015 0.0075 0.015 0.0075 0.015 0.0075 0.015 0.0075 0.015 0.0075 0.015 0.0075 0.015 0.0075 0.015 0.0075 0.015 0 0.015 0 0.015 0 0.015 0 0.015 0 0.015 0 0.015 0 0.015 0 0.015 0 0.015 0 0.015 0 0.015 0 0.015 0 0.015 0 0.0075 0 0.0075 0 0.0075 0 0.0075 0 0.0075 0 0.0075 0 0.0075 0 0.0075 0 0.0075 0 0.0075 0 0.0075 0 0.0075 0 0.0075 0 0.0075 0 0.0075 0 0.0075 0 0.0075 0 0.0075 0 0.0075 0 0.0075 0 0.0075 0 0.0075 0 0.0075 0 0.0075 0 0.0075 -0.27 30.7575 -18.165 0.1425 -0.3975 -32.4825 0 -0.0075 0 -0.0075 0.0075 -0.0075 0.0075 -0.0075 0.0075 -0.0075 0.0075 -0.015 0.0075 -0.015 0.0075 -0.015 0.0075 -0.015 0.0075 -0.015 0.0075 -0.015 0.0075 -0.0225 0.0075 -0.0225 0.015 -0.0225 0.015 -0.0225 0.015 -0.0225 0.015 -0.0225 0.015 -0.0225 0.015 -0.03 0.015 -0.03 0.015 -0.03 0.015 -0.03 0.015 -0.03 0.015 -0.03 0.0225 -0.03 0.0225 -0.03 0.0225 -0.0375 0.0225 -0.0375 0.0225 -0.0375 0.0225 -0.0375 0.0225 -0.0375 0.0225 -0.0375 0.0225 -0.0375 0.0225 -0.0375 0.0225 -0.045 0.03 -0.045 0.03 -0.045 0.03 -0.045 0.03 -0.045 0.03 -0.045 0.03 -0.045 0.03 -0.045 0.03 -0.045 0.03 -0.045 0.03 -0.045 0.03 -0.0525 0.0375 -0.0525 0.0375 -0.0525 0.0375 -0.0525 0.0375 -0.0525 0.0375 -0.0525 0.0375 -0.0525 0.0375 -0.0525 0.0375 -0.0525 0.0375 -0.0525 0.0375 -0.0525 0.0375 -0.0525 0.045 -0.0525 0.045 -0.0525 0.045 -0.0525 0.045 -0.0525 0.045 -0.06 0.045 -0.06 0.045 -0.06 0.045 -0.06 0.045 -0.06 0.045 -0.06 0.045 -0.06 0.0525 -0.06 0.0525 -0.06 0.0525 -0.06 0.0525 -0.06 0.0525 -0.06 0.0525 -0.06 0.0525 -0.06 0.0525 -0.06 0.0525 -0.06 0.0525 -0.06 0.0525 -0.06 0.06 -0.06 0.06 -0.06 0.06 -0.06 0.06 -0.06 0.06 -0.06 0.06 -0.06 0.06 -0.06 0.06 -0.06 0.06 -0.06 0.06 -0.06 0.06 -0.06 0.0675 -0.06 0.0675 -0.06 0.0675 -0.06 0.0675 -0.06 0.0675 -0.06 0.0675 -0.06 0.0675 -0.06 0.0675 -0.06 0.0675 -0.06 0.0675 -0.06 0.0675 -0.06 0.0675 -0.06 0.075 -0.0525 0.075 -0.0525 0.075 -0.0525 0.075 -0.0525 0.075 -0.0525 0.075 -0.0525 0.075 -0.0525 0.075 -0.0525 0.075 -0.0525 0.075 -0.0525 0.075 -0.0525 0.0825 -0.0525 0.0825 -0.0525 0.0825 -0.0525 0.0825 -0.0525 0.0825 -0.045 0.0825 -0.045 0.0825 -0.045 0.0825 -0.045 0.0825 -0.045 0.0825 -0.045 0.0825 -0.045 0.0825 -0.045 0.09 -0.045 0.09 -0.045 0.09 -0.045 0.09 -0.0375 0.09 -0.0375 0.09 -0.0375 0.09 -0.0375 0.09 -0.0375 0.09 -0.0375 0.09 -0.0375 0.09 -0.0375 0.0975 -0.0375 0.0975 -0.03 0.0975 -0.03 0.0975 -0.03 0.0975 -0.03 0.0975 -0.03 0.0975 -0.03 0.0975 -0.03 0.0975 -0.0225 0.0975 -0.0225 0.0975 -0.0225 0.0975 -0.0225 0.105 -0.0225 0.105 -0.0225 0.105 -0.0225 0.105 -0.015 0.105 -0.015 0.105 -0.015 0.105 -0.015 0.105 -0.015 0.105 -0.015 0.105 -0.0075 0.105 -0.0075 0.105 -0.0075 0.1125 -0.0075 0.1125 -0.0075 0.1125 0 0.1125 0 0.1125 0 0.1125 0 0.1125 0 0.1125 0 0.1125 0.0075 0.1125 0.0075 0.1125 0.0075 0.12 0.0075 0.12 0.0075 0.12 0.015 0.12 0.015 0.12 0.015 0.12 0.015 0.12 0.0225 0.12 0.0225 0.12 0.0225 0.12 0.0225 0.12 0.0225 0.12 0.03 0.1275 0.03 0.1275 0.03 0.1275 0.03 0.1275 0.0375 0.1275 0.0375 0.1275 0.0375 0.1275 0.0375 0.1275 0.045 0.1275 0.045 0.1275 0.045 0.1275 0.045 0.1275 0.0525 0.135 0.0525 0.135 0.0525 0.0225 0.015 0.0225 0.015 0.0225 0.015 0.0225 0.015 0.0225 0.015 0.0225 0.015 0.0225 0.015 0.0225 0.015 0.0225 0.015 0.0225 0.015 0.0225 0.015 0.0225 0.015 0.0225 0.015 0.0225 0.015 0.0225 0.015 0.0225 0.015 0.0225 0.015 0.0225 0.015 0.0225 0.015 0.0225 0.015 0.0225 0.015 0.0225 0.015 0.0225 0.015 0.0225 0.015 0.0225 0.015 0.0225 0.015 0.0225 0.015 0.0225 0.015 0.0225 0.015 0.0225 0.015 0.0225 0.015 0.0225 0.015 0.0225 0.015 0.0225 0.015 0.0225 0.015 0.0225 0.015 0.0225 0.015 0.0225 0.015 0.0225 0.015 0.0225 0.015 0.0225 0.015 0.0225 0.015 0.0225 0.015 0.0225 0.015 0.0225 0.015 0.0225 0.015 0.0225 0.015 0.0225 0.015 0.0225 0.015 0.0225 0.015 0.0225 0.015 0.0225 0.015 0.0225 0.015 0.0225 0.015 0.0225 0.015 0.0225 0.015 0.0225 0.015 0.0225 0.015 0.0225 0.015 0.0225 0.015 0.015 0.015 0.015 0.015 0.015 0.015 0.015 0.015 0.015 0.015 0.015 0.015 0.015 0.015 0.015 0.015 0.015 0.015 0.015 0.015 0.015 0.015 0.015 0.015 0.015 0.015 0.015 0.015 0.015 0.015 0.015 0.015 0.015 0.015 0.015 0.015 0.015 0.015 0.015 0.015 0.015 0.015 0.015 0.015 0.015 0.015 0.015 0.015 0.015 0.015 0.015 0.015 0.015 0.015 0.015 0.015 0.015 0.015 0.015 0.015 0.015 0.015 0.015 0.015 0.015 0.015 0.015 0.015 0.015 0.015 0.015 0.015 0.015 0.015 0.015 0.015 0.015 0.015 0.015 0.015 0.015 0.015 0.015 0.015 0.015 0.015 0.015 0.015 0.015 0.015 0.015 0.015 0.015 0.015 0.015 0.015 0.015 0.015 0.015 0.015 0.015 0.015 0.015 0.015 0.015 0.015 0.015 0.015 0.015 0.015 0.015 0.015 0.015 0.015 0.015 0.015 0.015 0.015 0.015 0.015 0.015 0.015 0.015 0.015 0.015 0.015 0.015 0.015 0.015 0.015 0.015 0.015 0.015 0.015 0.015 0.015 0.015 0.015 0.015 0.015 0.015 0.015 0.015 0.015 0.015 0.015 0.015 0.015 0.015 0.015 0.015 0.015 0.015 0.015 0.015 0.015 0.015 0.015 0.015 0.015 0.015 0.015 0.015 0.015 0.015 0.015 0.015 0.015 0.015 0.015 0.015 0.015 0.015 0.015 0.015 0.015 0.015 0.015 0.015 0.015 0.015 0.015 0.015 0.015 0.015 0.015 0.015 0.015 0.015 0.015 0.015 0.015 0.015 0.015 0.015 0.015 0.015 0.015 0.015 0.015 0.015 0.015 0.015 0.015 0.015 0.015 0.015 0.015 0.015 0.015 0.015 0.015 0.015 0.015 0.015 0.015 0.015 0.015 0.015 0.015 0.015 0.015 0.015 0.015 0.015 0.015 0.015 0.015 0.015 0.015 0.015 0.015 0.015 0.015 0.015 0.015 0.015 0.015 0.015 0.015 0.015 0.015 0.015 0.015 0.015 0.015 0.015 0.015 0.015 0.015 0.015 0.015 0.015 0.015 0.015 0.015 0.015 0.015 0.015 0.015 0.015 0.015 0.015 0.015 0.015 0.015 0.015 0.015 0.015 0.015 0.015 0.015 0.015 0.015 0.015 0.015 0.015 0.015 0.015 0.015 0 0" stroke="black" fill="none" stroke-dasharray="2,1" stroke-width="0.25"/>
</symbol>
<symbol id="Path_44_Crossing_1">
<path class="CncPath" d="M 180.938 120.5 l 16.815 2.0025 -0.06 1.44 -16.6875 -1.44 0 0" stroke="black" fill="none" stroke-dasharray="2,1" stroke-width="0.25"/>
</symbol>
<symbol id="Path_45_Crossing_1">
<path class="CncPath" d="M 180.938 130.375 l 17.4075 0.975 -0.03 1.5825 -17.2875 -0.66 0 0" stroke="black" fill="none" stroke-dasharray="2,1" stroke-width="0.25"/>
</symbol>
<symbol id="Path_46_Crossing_1">
<path class="CncPath" d="M 181.188 139.562 l 17.3775 0.5625 -0.06 1.815 -17.31 -0.69 0 0" stroke="black" fill="none" stroke-dasharray="2,1" stroke-width="0.25"/>
</symbol>
<symbol id="Path_47_Crossing_1">
<path class="CncPath" d="M 182.75 113.875 l 0.0075 0 0.0075 -0.0075 0.0075 -0.0075 0.0075 -0.0075 0.0075 -0.0075 0.0075 -0.0075 0.015 -0.0075 0.015 -0.0075 0.015 -0.0075 0.015 -0.0075 0.015 -0.0075 0.015 -0.0075 0.015 -0.015 0.0225 -0.015 0.0225 -0.015 0.0225 -0.015 0.0225 -0.015 0.0225 -0.015 0.0225 -0.015 0.03 -0.015 0.03 -0.015 0.03 -0.015 0.03 -0.015 0.03 -0.015 0.03 -0.015 0.03 -0.0225 0.03 -0.0225 0.0375 -0.0225 0.0375 -0.0225 0.0375 -0.0225 0.0375 -0.0225 0.0375 -0.0225 0.0375 -0.0225 0.0375 -0.0225 0.045 -0.0225 0.045 -0.0225 0.045 -0.0225 0.045 -0.0225 0.045 -0.0225 0.045 -0.0225 0.045 -0.0225 0.045 -0.0225 0.0525 -0.0225 0.0525 -0.0225 0.0525 -0.0225 0.0525 -0.0225 0.0525 -0.0225 0.0525 -0.0225 0.0525 -0.0225 0.0525 -0.0225 0.0525 -0.0225 0.06 -0.0225 0.06 -0.0225 0.06 -0.0225 0.06 -0.0225 0.06 -0.0225 0.06 -0.0225 0.06 -0.0225 0.06 -0.0225 0.06 -0.0225 0.06 -0.0225 0.06 -0.0225 0.0675 -0.0225 0.0675 -0.0225 0.0675 -0.0225 0.0675 -0.0225 0.0675 -0.0225 0.0675 -0.0225 0.0675 -0.0225 0.0675 -0.0225 0.0675 -0.0225 0.0675 -0.0225 0.0675 -0.0225 0.075 -0.0225 0.075 -0.0225 0.075 -0.0225 0.075 -0.0225 0.075 -0.0225 0.075 -0.0225 0.075 -0.0225 0.075 -0.0225 0.075 -0.0225 0.075 -0.0225 0.075 -0.015 0.075 -0.015 0.075 -0.015 0.075 -0.015 0.0825 -0.015 0.0825 -0.015 0.0825 -0.015 0.0825 -0.015 0.0825 -0.015 0.0825 -0.015 0.0825 -0.015 0.0825 -0.015 0.0825 -0.015 0.0825 -0.015 0.0825 -0.0075 0.0825 -0.0075 0.0825 -0.0075 0.0825 -0.0075 0.0825 -0.0075 0.0825 -0.0075 0.0825 -0.0075 0.0825 -0.0075 0.0825 -0.0075 0.0825 -0.0075 0.09 0 0.09 0 0.09 0 0.09 0 0.09 0 0.09 0 0.09 0 0.09 0 0.09 0 0.09 0.0075 0.09 0.0075 0.09 0.0075 0.09 0.0075 0.09 0.0075 0.09 0.0075 0.09 0.0075 0.09 0.015 0.09 0.015 0.09 0.015 0.09 0.015 0.09 0.015 0.09 0.015 0.09 0.015 0.09 0.0225 0.09 0.0225 0.09 0.0225 0.09 0.0225 0.09 0.0225 0.09 0.0225 0.09 0.03 0.09 0.03 0.09 0.03 0.09 0.03 0.09 0.03 0.09 0.03 0.09 0.0375 0.09 0.0375 0.09 0.0375 0.09 0.0375 0.09 0.0375 0.09 0.045 0.09 0.045 0.09 0.045 0.09 0.045 0.09 0.045 0.09 0.0525 0.09 0.0525 0.09 0.0525 0.09 0.0525 0.09 0.0525 0.09 0.06 0.09 0.06 0.09 0.06 0.09 0.06 0.09 0.06 0.09 0.0675 0.09 0.0675 0.09 0.0675 0.09 0.0675 0.09 0.075 0.09 0.075 0.09 0.075 0.09 0.075 0.09 0.075 0.09 0.0825 0.09 0.0825 0.09 0.0825 0.0825 0.0825 0.0825 0.09 0.0825 0.09 0.0825 0.09 0.0825 0.09 0.0825 0.0975 0.0825 0.0975 0.0825 0.0975 0.0825 0.0975 0.0825 0.105 0.0825 0.105 0.0825 0.105 0.0825 0.1125 0.0825 0.1125 0.0825 0.1125 0.0825 0.1125 0.0825 0.12 0.0825 0.12 0.0825 0.12 0.075 0.12 0.075 0.1275 0.075 0.1275 0.075 0.1275 -0.1275 5.3775 0 0" stroke="black" fill="none" stroke-dasharray="2,1" stroke-width="0.25"/>
</symbol>
<symbol id="Path_48_Crossing_1">
<path class="CncPath" d="M 196 123.875 l 0.1275 7.125 0 0" stroke="black" fill="none" stroke-dasharray="2,1" stroke-width="0.25"/>
</symbol>
<symbol id="Path_49_Crossing_1">
<path class="CncPath" d="M 196.25 133 l 0 6.9975 0 0" stroke="black" fill="none" stroke-dasharray="2,1" stroke-width="0.25"/>
</symbol>
<symbol id="Path_50_Crossing_1">
<path class="CncPath" d="M 196.125 142 l 0.1275 6.6225 0 0" stroke="black" fill="none" stroke-dasharray="2,1" stroke-width="0.25"/>
</symbol>
<symbol id="Path_51_Crossing_1">
<path class="CncPath" d="M 124.666 108.666 l -12.165 18.165 13.335 0.165 11.67 -19.335 -12.8325 0.9975 0 0" stroke="black" fill="none" stroke-dasharray="2,1" stroke-width="0.25"/>
</symbol>
<symbol id="Path_52_Crossing_1">
<path class="CncPath" d="M 114.5 125.75 l 10.665 -15.705 9 -0.315 -9.5025 16.02 -10.17 0 0 0" stroke="black" fill="none" stroke-dasharray="2,1" stroke-width="0.25"/>
</symbol>
<symbol id="Path_53_Crossing_1">
<path class="CncPath" d="M 112.5 126.834 l 0.5025 0.8325 13.17 0.6675 -0.33 -1.335 0 0" stroke="black" fill="none" stroke-dasharray="2,1" stroke-width="0.25"/>
</symbol>
<symbol id="Path_54_Crossing_1">
<path class="CncPath" d="M 126.166 128.333 l 11.67 -18.6675 -0.33 -2.0025 0 0" stroke="black" fill="none" stroke-dasharray="2,1" stroke-width="0.25"/>
</symbol>
<symbol id="Path_55_Crossing_1">
<path class="CncPath" d="M 55.5 137.5 l -1.7475 -23.0025 7.7475 -0.9975 0 0" stroke="black" fill="none" stroke-dasharray="2,1" stroke-width="0.25"/>
</symbol>
<symbol id="Path_56_Crossing_1">
<path class="CncPath" d="M 63.75 116.75 l 0.9975 20.7525 0 0" stroke="black" fill="none" stroke-dasharray="2,1" stroke-width="0.25"/>
</symbol>
<symbol id="Path_57_Crossing_1">
<path class="CncPath" d="M 56.75 136.25 l -2.0025 -20.625 6.9975 -0.9375 1.2525 21.5625 -6.2475 0 0 0" stroke="black" fill="none" stroke-dasharray="2,1" stroke-width="0.25"/>
</symbol>
</defs>
<use xlink:href="#Path_1_Crossing_1"/>
<use xlink:href="#Path_2_Crossing_1"/>
<use xlink:href="#Path_3_Crossing_1"/>
<use xlink:href="#Path_4_Crossing_1"/>
<use xlink:href="#Path_5_Crossing_1"/>
<use xlink:href="#Path_6_Crossing_1"/>
<use xlink:href="#Path_7_Crossing_1"/>
<use xlink:href="#Path_8_Crossing_1"/>
<use xlink:href="#Path_9_Crossing_1"/>
<use xlink:href="#Path_10_Crossing_1"/>
<use xlink:href="#Path_11_Crossing_1"/>
<use xlink:href="#Path_12_Crossing_1"/>
<use xlink:href="#Path_13_Crossing_1"/>
<use xlink:href="#Path_14_Crossing_1"/>
<use xlink:href="#Path_15_Crossing_1"/>
<use xlink:href="#Path_16_Crossing_1"/>
<use xlink:href="#Path_17_Crossing_1"/>
<use xlink:href="#Path_18_Crossing_1"/>
<use xlink:href="#Path_19_Crossing_1"/>
<use xlink:href="#Path_20_Crossing_1"/>
<use xlink:href="#Path_21_Crossing_1"/>
<use xlink:href="#Path_22_Crossing_1"/>
<use xlink:href="#Path_23_Crossing_1"/>
<use xlink:href="#Path_24_Crossing_1"/>
<use xlink:href="#Path_25_Crossing_1"/>
<use xlink:href="#Path_26_Crossing_1"/>
<use xlink:href="#Path_27_Crossing_1"/>
<use xlink:href="#Path_28_Crossing_1"/>
<use xlink:href="#Path_29_Crossing_1"/>
<use xlink:href="#Path_30_Crossing_1"/>
<use xlink:href="#Path_31_Crossing_1"/>
<use xlink:href="#Path_32_Crossing_1"/>
<use xlink:href="#Path_33_Crossing_1"/>
<use xlink:href="#Path_34_Crossing_1"/>
<use xlink:href="#Path_35_Crossing_1"/>
<use xlink:href="#Path_36_Crossing_1"/>
<use xlink:href="#Path_37_Crossing_1"/>
<use xlink:href="#Path_38_Crossing_1"/>
<use xlink:href="#Path_39_Crossing_1"/>
<use xlink:href="#Path_40_Crossing_1"/>
<use xlink:href="#Path_41_Crossing_1"/>
<use xlink:href="#Path_42_Crossing_1"/>
<use xlink:href="#Path_43_Crossing_1"/>
<use xlink:href="#Path_44_Crossing_1"/>
<use xlink:href="#Path_45_Crossing_1"/>
<use xlink:href="#Path_46_Crossing_1"/>
<use xlink:href="#Path_47_Crossing_1"/>
<use xlink:href="#Path_48_Crossing_1"/>
<use xlink:href="#Path_49_Crossing_1"/>
<use xlink:href="#Path_50_Crossing_1"/>
<use xlink:href="#Path_51_Crossing_1"/>
<use xlink:href="#Path_52_Crossing_1"/>
<use xlink:href="#Path_53_Crossing_1"/>
<use xlink:href="#Path_54_Crossing_1"/>
<use xlink:href="#Path_55_Crossing_1"/>
<use xlink:href="#Path_56_Crossing_1"/>
<use xlink:href="#Path_57_Crossing_1"/>
</svg>
