<?xml version="1.0" encoding="UTF-8" standalone="no"?>
<svg
   xmlns:dc="http://purl.org/dc/elements/1.1/"
   xmlns:cc="http://creativecommons.org/ns#"
   xmlns:rdf="http://www.w3.org/1999/02/22-rdf-syntax-ns#"
   xmlns:svg="http://www.w3.org/2000/svg"
   xmlns="http://www.w3.org/2000/svg"
   xmlns:xlink="http://www.w3.org/1999/xlink"
   xmlns:sodipodi="http://sodipodi.sourceforge.net/DTD/sodipodi-0.dtd"
   xmlns:inkscape="http://www.inkscape.org/namespaces/inkscape"
   width="300mm"
   height="300mm"
   id="svg2"
   version="1.1"
   inkscape:version="0.91 r13725"
   sodipodi:docname="method-draw-image.svg">
  <metadata
     id="metadata91">
    <rdf:RDF>
      <cc:Work
         rdf:about="">
        <dc:format>image/svg+xml</dc:format>
        <dc:type
           rdf:resource="http://purl.org/dc/dcmitype/StillImage" />
        <dc:title>das symbol-Element</dc:title>
      </cc:Work>
    </rdf:RDF>
  </metadata>
  <sodipodi:namedview
     pagecolor="#ffffff"
     bordercolor="#666666"
     borderopacity="1"
     objecttolerance="10"
     gridtolerance="10"
     guidetolerance="10"
     inkscape:pageopacity="0"
     inkscape:pageshadow="2"
     inkscape:window-width="1600"
     inkscape:window-height="837"
     id="namedview89"
     showgrid="false"
     inkscape:zoom="0.78666667"
     inkscape:cx="10.169492"
     inkscape:cy="150"
     inkscape:window-x="-8"
     inkscape:window-y="-8"
     inkscape:window-maximized="1"
     inkscape:current-layer="svg2" />
  <title
     id="title4">das symbol-Element</title>
  <desc
     id="desc6">Referenzen - besondere Objekte: Symbole 20.2 0 0 20.2 -20.2 0 z</desc>
  <defs
     id="defs8">
    <symbol
       id="grid">
      <line
         x1="10"
         y1="0"
         x2="10"
         y2="300"
         stroke="green"
         stroke-width="0.4"
         id="svg_1" />
      <line
         x1="20"
         y1="0"
         x2="20"
         y2="300"
         stroke="gray"
         stroke-width="0.4"
         id="svg_2" />
      <line
         x1="30"
         y1="0"
         x2="30"
         y2="300"
         stroke="green"
         stroke-width="0.4"
         id="svg_3" />
      <line
         x1="40"
         y1="0"
         x2="40"
         y2="300"
         stroke="gray"
         stroke-width="0.4"
         id="svg_4" />
      <line
         x1="50"
         y1="0"
         x2="50"
         y2="300"
         stroke="red"
         stroke-width="0.4"
         id="svg_5" />
      <line
         x1="60"
         y1="0"
         x2="60"
         y2="300"
         stroke="gray"
         stroke-width="0.4"
         id="svg_6" />
      <line
         x1="70"
         y1="0"
         x2="70"
         y2="300"
         stroke="green"
         stroke-width="0.4"
         id="svg_7" />
      <line
         x1="80"
         y1="0"
         x2="80"
         y2="300"
         stroke="gray"
         stroke-width="0.4"
         id="svg_8" />
      <line
         x1="90"
         y1="0"
         x2="90"
         y2="300"
         stroke="green"
         stroke-width="0.4"
         id="svg_9" />
      <line
         x1="100"
         y1="0"
         x2="100"
         y2="300"
         stroke="red"
         stroke-width="0.4"
         id="svg_10" />
      <line
         x1="110"
         y1="0"
         x2="110"
         y2="300"
         stroke="green"
         stroke-width="0.4"
         id="svg_11" />
      <line
         x1="120"
         y1="0"
         x2="120"
         y2="300"
         stroke="gray"
         stroke-width="0.4"
         id="svg_12" />
      <line
         x1="130"
         y1="0"
         x2="130"
         y2="300"
         stroke="green"
         stroke-width="0.4"
         id="svg_13" />
      <line
         x1="140"
         y1="0"
         x2="140"
         y2="300"
         stroke="gray"
         stroke-width="0.4"
         id="svg_14" />
      <line
         x1="150"
         y1="0"
         x2="150"
         y2="300"
         stroke="red"
         stroke-width="0.4"
         id="svg_15" />
      <line
         x1="160"
         y1="0"
         x2="160"
         y2="300"
         stroke="gray"
         stroke-width="0.4"
         id="svg_16" />
      <line
         x1="170"
         y1="0"
         x2="170"
         y2="300"
         stroke="green"
         stroke-width="0.4"
         id="svg_17" />
      <line
         x1="180"
         y1="0"
         x2="180"
         y2="300"
         stroke="gray"
         stroke-width="0.4"
         id="svg_18" />
      <line
         x1="190"
         y1="0"
         x2="190"
         y2="300"
         stroke="green"
         stroke-width="0.4"
         id="svg_19" />
      <line
         x1="200"
         y1="0"
         x2="200"
         y2="300"
         stroke="red"
         stroke-width="0.4"
         id="svg_20" />
      <line
         x1="210"
         y1="0"
         x2="210"
         y2="300"
         stroke="green"
         stroke-width="0.4"
         id="svg_21" />
      <line
         x1="220"
         y1="0"
         x2="220"
         y2="300"
         stroke="gray"
         stroke-width="0.4"
         id="svg_22" />
      <line
         x1="230"
         y1="0"
         x2="230"
         y2="300"
         stroke="green"
         stroke-width="0.4"
         id="svg_23" />
      <line
         x1="240"
         y1="0"
         x2="240"
         y2="300"
         stroke="gray"
         stroke-width="0.4"
         id="svg_24" />
      <line
         x1="250"
         y1="0"
         x2="250"
         y2="300"
         stroke="red"
         stroke-width="0.4"
         id="svg_25" />
      <line
         x1="260"
         y1="0"
         x2="260"
         y2="300"
         stroke="gray"
         stroke-width="0.4"
         id="svg_26" />
      <line
         x1="270"
         y1="0"
         x2="270"
         y2="300"
         stroke="green"
         stroke-width="0.4"
         id="svg_27" />
      <line
         x1="280"
         y1="0"
         x2="280"
         y2="300"
         stroke="gray"
         stroke-width="0.4"
         id="svg_28" />
      <line
         x1="290"
         y1="0"
         x2="290"
         y2="300"
         stroke="green"
         stroke-width="0.4"
         id="svg_29" />
      <line
         x1="300"
         y1="0"
         x2="300"
         y2="300"
         stroke="red"
         stroke-width="0.4"
         id="svg_30" />
      <line
         x1="0"
         y1="10"
         x2="300"
         y2="10"
         stroke="green"
         stroke-width="0.4"
         id="svg_31" />
      <line
         x1="0"
         y1="20"
         x2="300"
         y2="20"
         stroke="gray"
         stroke-width="0.4"
         id="svg_32" />
      <line
         x1="0"
         y1="30"
         x2="300"
         y2="30"
         stroke="green"
         stroke-width="0.4"
         id="svg_33" />
      <line
         x1="0"
         y1="40"
         x2="300"
         y2="40"
         stroke="gray"
         stroke-width="0.4"
         id="svg_34" />
      <line
         x1="0"
         y1="50"
         x2="300"
         y2="50"
         stroke="red"
         stroke-width="0.4"
         id="svg_35" />
      <line
         x1="0"
         y1="60"
         x2="300"
         y2="60"
         stroke="gray"
         stroke-width="0.4"
         id="svg_36" />
      <line
         x1="0"
         y1="70"
         x2="300"
         y2="70"
         stroke="green"
         stroke-width="0.4"
         id="svg_37" />
      <line
         x1="0"
         y1="80"
         x2="300"
         y2="80"
         stroke="gray"
         stroke-width="0.4"
         id="svg_38" />
      <line
         x1="0"
         y1="90"
         x2="300"
         y2="90"
         stroke="green"
         stroke-width="0.4"
         id="svg_39" />
      <line
         x1="0"
         y1="100"
         x2="300"
         y2="100"
         stroke="red"
         stroke-width="0.4"
         id="svg_40" />
      <line
         x1="0"
         y1="110"
         x2="300"
         y2="110"
         stroke="green"
         stroke-width="0.4"
         id="svg_41" />
      <line
         x1="0"
         y1="120"
         x2="300"
         y2="120"
         stroke="gray"
         stroke-width="0.4"
         id="svg_42" />
      <line
         x1="0"
         y1="130"
         x2="300"
         y2="130"
         stroke="green"
         stroke-width="0.4"
         id="svg_43" />
      <line
         x1="0"
         y1="140"
         x2="300"
         y2="140"
         stroke="gray"
         stroke-width="0.4"
         id="svg_44" />
      <line
         x1="0"
         y1="150"
         x2="300"
         y2="150"
         stroke="red"
         stroke-width="0.4"
         id="svg_45" />
      <line
         x1="0"
         y1="160"
         x2="300"
         y2="160"
         stroke="gray"
         stroke-width="0.4"
         id="svg_46" />
      <line
         x1="0"
         y1="170"
         x2="300"
         y2="170"
         stroke="green"
         stroke-width="0.4"
         id="svg_47" />
      <line
         x1="0"
         y1="180"
         x2="300"
         y2="180"
         stroke="gray"
         stroke-width="0.4"
         id="svg_48" />
      <line
         x1="0"
         y1="190"
         x2="300"
         y2="190"
         stroke="green"
         stroke-width="0.4"
         id="svg_49" />
      <line
         x1="0"
         y1="200"
         x2="300"
         y2="200"
         stroke="red"
         stroke-width="0.4"
         id="svg_50" />
      <line
         x1="0"
         y1="210"
         x2="300"
         y2="210"
         stroke="green"
         stroke-width="0.4"
         id="svg_51" />
      <line
         x1="0"
         y1="220"
         x2="300"
         y2="220"
         stroke="gray"
         stroke-width="0.4"
         id="svg_52" />
      <line
         x1="0"
         y1="230"
         x2="300"
         y2="230"
         stroke="green"
         stroke-width="0.4"
         id="svg_53" />
      <line
         x1="0"
         y1="240"
         x2="300"
         y2="240"
         stroke="gray"
         stroke-width="0.4"
         id="svg_54" />
      <line
         x1="0"
         y1="250"
         x2="300"
         y2="250"
         stroke="red"
         stroke-width="0.4"
         id="svg_55" />
      <line
         x1="0"
         y1="260"
         x2="300"
         y2="260"
         stroke="gray"
         stroke-width="0.4"
         id="svg_56" />
      <line
         x1="0"
         y1="270"
         x2="300"
         y2="270"
         stroke="green"
         stroke-width="0.4"
         id="svg_57" />
      <line
         x1="0"
         y1="280"
         x2="300"
         y2="280"
         stroke="gray"
         stroke-width="0.4"
         id="svg_58" />
      <line
         x1="0"
         y1="290"
         x2="300"
         y2="290"
         stroke="green"
         stroke-width="0.4"
         id="svg_59" />
      <line
         x1="0"
         y1="300"
         x2="300"
         y2="300"
         stroke="red"
         stroke-width="0.4"
         id="svg_60" />
    </symbol>
    <filter
       id="svg_66_blur">
      <feGaussianBlur
         stdDeviation="0"
         id="feGaussianBlur72" />
    </filter>
  </defs>
  <!--rect x="10" y="10" rx="5" ry="5" width="30" height="30" fill="none" stroke="blue" stroke-width="1"/-->
  <g
     id="g74">
    <title
       id="title76">background</title>
    <rect
       x="-1"
       y="-1"
       width="302"
       height="302"
       id="canvas_background"
       fill="none" />
  </g>
  <g
     id="g79">
    <title
       id="title81">Layer 1</title>
    <line
       x1="52"
       y1="48"
       x2="52"
       y2="56"
       stroke="black"
       stroke-width="0.4"
       id="svg_62" />
    <line
       x1="48"
       y1="52"
       x2="56"
       y2="52"
       stroke="black"
       stroke-width="0.4"
       id="svg_63" />
    <use
       xlink:href="#c"
       y="2"
       x="12"
       id="svg_64" />
    <use
       x="1"
       y="1"
       xlink:href="#grid"
       id="svg_65" />
    <path
       fill="none"
       fill-opacity="null"
       stroke="blue"
       stroke-width="null"
       stroke-linejoin="null"
       stroke-linecap="null"
       stroke-opacity="null"
       d="m111.30201,120.987808c-11.042976,-0.385628 -19.675453,-9.642807 -19.289833,-20.685791c0.385643,-11.042976 9.642815,-19.675468 20.685814,-19.289825c11.042976,0.385635 19.675453,9.642807 19.289833,20.685806c-0.38562,11.042992 -9.642815,19.675461 -20.685814,19.289833l0.000023,-0.000023l-0.000023,0.000023l0,-0.000023l-0.000008,0l0.000008,0z"
       id="svg_61" />
    <path
       id="svg_66"
       d="m183.265411,79.294243c-1.596954,-2.198021 -1.091858,-5.38707 1.106155,-6.984024l52.586121,-38.206039c2.197998,-1.596951 5.387039,-1.091858 6.984009,1.106159l38.793808,53.395123c1.596954,2.198021 1.091858,5.387062 -1.10614,6.984009l-52.586121,38.206047c-2.197998,1.596939 -5.387039,1.091858 -6.984009,-1.106171l-38.793808,-53.395103l-0.000015,0z"
       filter="url(#svg_66_blur)"
       stroke-opacity="null"
       stroke-linecap="null"
       stroke-linejoin="null"
       stroke-width="NaN"
       stroke="blue"
       fill-opacity="null"
       fill="none" />
  </g>
</svg>


