<svg xmlns:svg="http://www.w3.org/2000/svg" xmlns="http://www.w3.org/2000/svg" xml:space="preserve" enable-background="new 0 0 600 600" viewBox="0 0 219 297" height="297mm" width="219mm" y="0px" x="0px" id="Layer_3" version="1.1"><metadata id="metadata3465"/><defs id="defs3463"/><cnc reverse="no"/><path id="polygon3337" d="m28.0685 2.5534647-1.597144 1.3085647 0.963049 1.782389 2.698221 14.2030026-2.930714 4.211657-17.23997 0.370169-1.781788 23.173-6.1618103 8.648098 0.1108189 1.155988 7.0921804-1.250542 7.586154 25.639479 2.467881-0.02753 1.594347-1.118295-5.471009-18.983359 3.790836-0.397562 5.887156 21.110715 32.823097 3.013521 31.062051-11.451147 0.160183-1.935297 12.799181-5.281136-1.44284-22.330463 1.15661-0.05448 0.0126-0.11705 1.15311 19.656623 1.01929 0.175295 1.73544-0.681632-1.28701-22.732256 1.93697-0.22802-0.20628-1.169839L86.858413 18.51433 86.825341 18.497802 74.339307 12.207305 68.088162 2.1981289 55.791137 8.4408914 40.121425 7.2170794 39.777311 5.2655074 40.182335 3.6438114 28.068422 2.5534724Zm0.127872 0.4525737 11.472841 1.032001-0.298099 1.193027 0.423417 2.401316 16.083409 1.256057 12.083871-6.1350492 6.12151 9.8014868 12.557199 6.326163 18.99517 20.571034 0.10073 0.571316-1.88572 0.22161 1.29185 22.817314-1.37542 0.540135-0.59319-0.101416-1.31021-22.334129-1.83113 0.322878 1.33146 1.646426-0.0838 0.779183-1.22489 0.05731 1.45026 22.447938-12.75549 5.262914-0.159556 1.92555-30.75309 11.337064-32.466384-2.980878-5.903485-21.170072-4.592088 0.481422 5.525737 19.171829-1.254913 0.880043-2.058726 0.02289-7.601515-25.691122-7.009928 1.23604-0.047759-0.499135 6.1361244-8.612011 1.7625836-22.922846 17.081125-0.366706 3.14897-4.525396-2.750207-14.4756636-0.812711-1.50384 1.202071-0.984686zm72.610408 38.7960576 0.69175-0.121974 0.0614 1.053363-0.7532-0.931389zM100.23211 43.988954l-13.184097 2.399042 0.0564 0.308371 13.182957-2.399857-0.0553-0.307579zM99.39116 40.214776l0.89687 1.174301 0.1482-0.139209-0.66458-0.869878 6.35413-0.974452-0.0344-0.218337-6.70003 1.027549zM86.829776 45.133438l0.03218 0.205545 14.696664-2.329631-0.0322-0.205545-14.696675 2.329633zM68.647596 5.3061164 48.205064 47.936758 9.255316 55.364363 9.336996 55.798779 48.469373 48.336342 68.699383 6.1494854 92.231559 44.061885 92.836463 41.64098 74.408482 12.253408 74.087002 12.495933 92.405135 41.708272 92.071516 43.043439 68.647597 5.3061174Z" style="baseline-shift:baseline;block-progression:tb;color-interpolation-filters:linearRGB;color-interpolation:sRGB;color-rendering:auto;direction:ltr;fill:#070707;font-family:sans-serif;font-size:medium;image-rendering:auto;isolation:auto;letter-spacing:normal;line-height:normal;mix-blend-mode:normal;shape-rendering:auto;solid-color:#000000;solid-opacity:1;text-align:start;text-anchor:start;text-decoration-color:#000000;text-decoration-line:none;text-decoration-style:solid;text-decoration:none;text-indent:0;text-rendering:auto;text-transform:none;white-space:normal;word-spacing:normal;writing-mode:lr-tb"/><path id="polygon3347" d="M43.341584 7.8559344 41.82254 16.695674 56.021186 8.9561014 55.653261 8.9241144 43.341584 7.8559364Zm0.162928 0.234691 11.773796 1.021012-13.184911 7.1873896 1.411115-8.2084016z" style="baseline-shift:baseline;block-progression:tb;color-interpolation-filters:linearRGB;color-interpolation:sRGB;color-rendering:auto;direction:ltr;font-family:sans-serif;font-size:medium;image-rendering:auto;isolation:auto;letter-spacing:normal;line-height:normal;mix-blend-mode:normal;opacity:0.6;shape-rendering:auto;solid-color:#000000;solid-opacity:1;text-align:start;text-anchor:start;text-decoration-color:#000000;text-decoration-line:none;text-decoration-style:solid;text-decoration:none;text-indent:0;text-rendering:auto;text-transform:none;white-space:normal;word-spacing:normal;writing-mode:lr-tb"/><path id="polyline3349" d="M68.009695 2.4087676 47.342599 46.181774 2.8264561 55.600297 2.8709381 55.816863 47.476694 46.379036 68.185952 2.5170714 68.009737 2.4087603ZM40.3439 7.3457274l-0.189562 0.05535 0.855389 3.1710696-7.484129 16.282883-1.374788 0.446223-1.711928-7.425863-0.19144 0.04691 1.764603 7.655887 1.653538-0.536576 7.556428-16.44027-0.87811-3.2556026zM28.221755 2.7355131l-0.179087 0.085923 0.691531 1.6610818 4.765105 22.4871491 0.192575-0.04269L28.922118 4.4178539 28.221759 2.7355372ZM28.792303 4.3377174l-1.23746 1.140825 0.129555 0.171763 1.179612-1.087672 10.999234 0.744268 0.0042-0.219893-11.075157-0.74929zM10.287266 24.509949l-0.280745 0.29846 18.715004 21.735035-1.094531 0.515149L11.507111 27.981425 8.807831 51.74048 7.87426 51.905093 8.562177 47.71415 8.172922 47.61886 7.381698 52.440765 9.165072 52.126308 11.797202 28.955023 27.539276 47.585117 29.40104 46.70896 10.287266 24.509946ZM25.350253 44.896408l-13.106251 2.985535-3.089674 3.028656 0.133503 0.167559 3.05247-2.991415 13.056666-2.97416-0.04675-0.216169zM27.197548 24.26518l1.759743 22.369224 0.208409-0.01592-1.759742-22.369224-0.20841 0.01592zM49.570139 45.447139l-0.204628 0.04299 8.400998 39.697996 0.203631-0.04301-8.400036-39.698168zM16.119214 78.618832l-0.01376 0.218955 2.275479 0.27989 1.499151-0.720613-0.08417-0.202561-1.452423 0.697477-2.224265-0.27315zM23.986903 79.024647l0.0021 0.220528L56.40052 80.265564 88.600489 69.873012 88.538876 69.661223 56.367722 80.044308 23.98687 79.024653ZM101.27197 63.608408l-12.580455 4.686431 0.07215 0.195522 12.580455-4.686441-0.0722-0.195512zM102.95979 61.515152l-0.0363 0.215042 0.72025 0.181558 1.74311-0.458565-0.0523-0.214753-1.69899 0.447282-0.67572-0.170575z" style="baseline-shift:baseline;block-progression:tb;color-interpolation-filters:linearRGB;color-interpolation:sRGB;color-rendering:auto;direction:ltr;fill:#070707;font-family:sans-serif;font-size:medium;image-rendering:auto;isolation:auto;letter-spacing:normal;line-height:normal;mix-blend-mode:normal;shape-rendering:auto;solid-color:#000000;solid-opacity:1;text-align:start;text-anchor:start;text-decoration-color:#000000;text-decoration-line:none;text-decoration-style:solid;text-decoration:none;text-indent:0;text-rendering:auto;text-transform:none;white-space:normal;word-spacing:normal;writing-mode:lr-tb"/><path id="polygon3373" d="m100.05177 44.216153-0.10974 0.02037-12.949538 2.35829 0.32879 3.090356 12.889978-3.108253-0.15947-2.360631zm-0.18048 0.257553 0.13023 1.926605-12.51067 3.01639-0.280493-2.636893 12.660933-2.306083z" style="baseline-shift:baseline;block-progression:tb;color-interpolation-filters:linearRGB;color-interpolation:sRGB;color-rendering:auto;direction:ltr;font-family:sans-serif;font-size:medium;image-rendering:auto;isolation:auto;letter-spacing:normal;line-height:normal;mix-blend-mode:normal;opacity:0.6;shape-rendering:auto;solid-color:#000000;solid-opacity:1;text-align:start;text-anchor:start;text-decoration-color:#000000;text-decoration-line:none;text-decoration-style:solid;text-decoration:none;text-indent:0;text-rendering:auto;text-transform:none;white-space:normal;word-spacing:normal;writing-mode:lr-tb"/><path id="line3375" d="m104.17871 40.316197-2.58125 0.680244 0.0525 0.201963 2.58125-0.680245-0.0525-0.201962zM102.64841 41.813545l-1.01923 0.330493 0.062 0.212165 0.99951-0.324823 1.50297-0.115991-0.0213-0.220223-1.52404 0.118391zM102.39868 40.985068l1.32668 22.843225 0.20813-0.01192-1.32572-22.843393-0.20909 0.01209zM13.485111 61.687484l5.556128 20.026861 0.377613-0.114816-5.424888-19.552961 1.142421-0.20144-0.07675-0.435295-1.574523 0.277631z" style="baseline-shift:baseline;block-progression:tb;color-interpolation-filters:linearRGB;color-interpolation:sRGB;color-rendering:auto;direction:ltr;fill:#070707;font-family:sans-serif;font-size:medium;image-rendering:auto;isolation:auto;letter-spacing:normal;line-height:normal;mix-blend-mode:normal;shape-rendering:auto;solid-color:#000000;solid-opacity:1;text-align:start;text-anchor:start;text-decoration-color:#000000;text-decoration-line:none;text-decoration-style:solid;text-decoration:none;text-indent:0;text-rendering:auto;text-transform:none;white-space:normal;word-spacing:normal;writing-mode:lr-tb"/><path d="M33.613739 72.444479 31.04828 59.88099l-5.473358 1.301717 3.197376 11.797458z" id="polygon3385" style="fill:none;stroke-width:0.31303284;stroke:#070707"/><path d="m30.675037 72.233315-2.714286-10.854163-1.562134 0.219343 2.81132 10.837054zM32.877485 71.957169 30.60999 60.799814 28.494436 61.285049 31.334539 72.285335Z" id="polygon3387" style="fill:none;stroke-width:0.20868856;stroke:#070707"/><path d="m31.193285 60.135935 0.252178 0.01164 2.420455 12.308544-0.252179-0.01164M44.680608 71.441677l-2.782161-13.698276-5.731526 1.377535 3.439536 12.86896z" id="polyline3391" style="fill:none;stroke-width:0.31303284;stroke:#070707"/><path d="m41.596794 71.190572-2.92585-11.838378-1.636918 0.227593 3.027503 11.82023zM43.904988 70.90588l-2.459611-12.165197-2.215519 0.512959 3.059089 11.998229z" id="polygon3397" style="fill:none;stroke-width:0.20868856;stroke:#070707"/><path d="m42.052446 58.02212 0.264473 0.01441 2.628395 13.419741-0.264706-0.01459M81.272385 67.4754c-0.3999-5.927727-0.799801-11.855452-1.199701-17.783179-5.966088 0.962714-11.932174 1.925427-17.898263 2.888141 1.240876 6.342434 2.481754 12.684869 3.722629 19.027303 5.125112-1.377422 10.250223-2.754842 15.375335-4.132265z" id="polyline3401" style="fill:none;stroke-width:0.31303284;stroke:#070707"/><path d="M80.448377 66.46309C80.078884 61.292635 79.709393 56.122178 79.3399 50.951723c-1.385979 0.207365-2.771961 0.414729-4.157941 0.622093 0.612158 5.163033 1.224316 10.326063 1.836474 15.489095-0.284113-0.05232-0.892281 0.378054-0.874885-0.123388-0.617291-5.036025-1.23458-10.072053-1.851869-15.108078-1.730426 0.272026-3.460853 0.544053-5.19128 0.81608 0.900021 5.302269 1.800044 10.60454 2.700065 15.90681-0.309479 0.000549-0.752632 0.211745-0.984145 0.08944-0.896424-5.281079-1.792848-10.562157-2.689272-15.843235-1.470867 0.231223-2.941731 0.462446-4.412598 0.693669 1.003845 5.680583 2.007688 11.361168 3.011533 17.041751 4.574132-1.357622 9.148263-2.715246 13.722395-4.072868zM78.00758 51.359156c0.430599 4.85406 0.861199 9.70812 1.291798 14.56218 0.383 0.180584 0.765998 0.36117 1.148999 0.541754M79.299376 65.921336c-0.767243 0.195184-1.534484 0.390369-2.301727 0.585552M75.97071 66.742825c-1.444102 0.401065-2.888203 0.802131-4.332304 1.203196M70.611466 68.181957c-1.325771 0.30782-2.651545 0.615638-3.977316 0.923458" id="polygon3407" style="fill:none;stroke-width:0.20868856;stroke:#070707"/><path d="m62.200162 52.744103c-0.379819 0.112628-0.705564 0.258347-0.461267 0.752921 1.184354 6.09342 2.368709 12.186841 3.553062 18.28026 0.201698-0.05654 0.403395-0.113079 0.605093-0.169619" id="polyline3417" style="fill:none;stroke-width:0.31303284;stroke:#070707"/><path id="polyline3419" d="m86.689709 43.718454 2.146196 28.121348 0.196752-0.01012-2.129268-27.901239 5.256574-0.265914-0.01681-0.219695-5.453396 0.275635zM66.580707 10.32196l-0.178151 0.108757 20.304969 33.447057 0.178161-0.10876-20.304979-33.447056z" style="baseline-shift:baseline;block-progression:tb;color-interpolation-filters:linearRGB;color-interpolation:sRGB;color-rendering:auto;direction:ltr;fill:#070707;font-family:sans-serif;font-size:medium;image-rendering:auto;isolation:auto;letter-spacing:normal;line-height:normal;mix-blend-mode:normal;shape-rendering:auto;solid-color:#000000;solid-opacity:1;text-align:start;text-anchor:start;text-decoration-color:#000000;text-decoration-line:none;text-decoration-style:solid;text-decoration:none;text-indent:0;text-rendering:auto;text-transform:none;white-space:normal;word-spacing:normal;writing-mode:lr-tb"/><path stroke-miterlimit="10" d="m71.4 26.5c1 1 1.3 2 1.3 2l1.7 15.7-8.9 1.2-2.1-16.6c0 0 1.8-5.2 6.3-3.7 0.9 0.2 1.3 0.8 1.7 1.4" id="path3427" style="fill:none;stroke-width:0.313;stroke:#070707"/><path stroke-miterlimit="10" d="m71 27.5c0.9 0.7 1 1.8 1 1.8l1.5 13.5-7.3 0.9-1.5-14.2c0 0 1.3-4.4 5-3.3 0.5 0.2 1 0.8 1.3 1.3M64.9 31.2l6.7 0.2-0.1 0.7-6.5 0M65.4 35.6l6.9-0.3 0.1 0.6-6.9 0.6M65.8 39.6l6.9-0.6 0.1 0.9-6.9 0.5M65.3 28.3c0 0 3.1-3 5.5 0.7l0.2 2.2M70.9 32.1l0.4 3.1M71.6 36l0.3 3.1M71.8 40l0.5 2.8" id="path3429" style="fill:none;stroke-width:0.209;stroke:#070707"/><path id="polyline3455" d="m17.716341 35.696025-3.020318 0.994971 2.469899 9.993475 0.190461-0.05025-2.419217-9.790271 2.842266-0.936404-0.06309-0.211532zM18.972533 37.039859l-0.204282 0.04496 1.981216 8.964024 0.204282-0.04496-1.981216-8.964024zM17.931754 36.683866l-0.09854 0.03186-2.664457 0.869656 2.350313 8.568635 2.548659-0.437275-2.135979-9.032879zm-0.134802 0.26449 2.032917 8.596503-2.176866 0.373486-2.245954-8.190227 2.389903-0.779762z" style="baseline-shift:baseline;block-progression:tb;color-interpolation-filters:linearRGB;color-interpolation:sRGB;color-rendering:auto;direction:ltr;fill:#070707;font-family:sans-serif;font-size:medium;image-rendering:auto;isolation:auto;letter-spacing:normal;line-height:normal;mix-blend-mode:normal;shape-rendering:auto;solid-color:#000000;solid-opacity:1;text-align:start;text-anchor:start;text-decoration-color:#000000;text-decoration-line:none;text-decoration-style:solid;text-decoration:none;text-indent:0;text-rendering:auto;text-transform:none;white-space:normal;word-spacing:normal;writing-mode:lr-tb"/></svg>