<?xml version="1.0" encoding="UTF-8" standalone="no"?>
<!-- Created with Inkscape (http://www.inkscape.org/) -->

<svg
   xmlns:dc="http://purl.org/dc/elements/1.1/"
   xmlns:cc="http://creativecommons.org/ns#"
   xmlns:rdf="http://www.w3.org/1999/02/22-rdf-syntax-ns#"
   xmlns:svg="http://www.w3.org/2000/svg"
   xmlns="http://www.w3.org/2000/svg"
   xmlns:sodipodi="http://sodipodi.sourceforge.net/DTD/sodipodi-0.dtd"
   xmlns:inkscape="http://www.inkscape.org/namespaces/inkscape"
   width="210mm"
   height="297mm"
   viewBox="0 0 744.09448819 1052.3622047"
   id="svg2"
   version="1.1"
   inkscape:version="0.91 r13725"
   sodipodi:docname="Zeichnung.svg">
  <defs
     id="defs4" />
  <sodipodi:namedview
     id="base"
     pagecolor="#ffffff"
     bordercolor="#666666"
     borderopacity="1.0"
     inkscape:pageopacity="0.0"
     inkscape:pageshadow="2"
     inkscape:zoom="0.35"
     inkscape:cx="375"
     inkscape:cy="520"
     inkscape:document-units="px"
     inkscape:current-layer="layer1"
     showgrid="false"
     inkscape:window-width="1600"
     inkscape:window-height="837"
     inkscape:window-x="-8"
     inkscape:window-y="-8"
     inkscape:window-maximized="1" />
  <metadata
     id="metadata7">
    <rdf:RDF>
      <cc:Work
         rdf:about="">
        <dc:format>image/svg+xml</dc:format>
        <dc:type
           rdf:resource="http://purl.org/dc/dcmitype/StillImage" />
        <dc:title></dc:title>
      </cc:Work>
    </rdf:RDF>
  </metadata>
  <g
     inkscape:label="Ebene 1"
     inkscape:groupmode="layer"
     id="layer1">
    <rect
       style="fill:#0000ff;fill-rule:evenodd;stroke:#000000;stroke-width:1px;stroke-linecap:butt;stroke-linejoin:miter;stroke-opacity:1"
       id="rect3336"
       width="0"
       height="220"
       x="134.28572"
       y="149.50507" />
    <path
       sodipodi:type="spiral"
       style="fill:none;fill-rule:evenodd;stroke:#000000;stroke-width:1px;stroke-linecap:butt;stroke-linejoin:miter;stroke-opacity:1"
       id="path3346"
       sodipodi:cx="140"
       sodipodi:cy="129.50508"
       sodipodi:expansion="1"
       sodipodi:revolution="3"
       sodipodi:radius="134.3161"
       sodipodi:argument="-16.219194"
       sodipodi:t0="0"
       d="m 140,129.50508 c -5.87335,3.29481 -7.33905,-6.29162 -5.47619,-9.7619 5.04821,-9.40425 18.3497,-7.40325 24.99999,-1.19049 11.89583,11.11317 8.2695,30.26372 -3.09522,40.2381 -16.67817,14.6378 -42.35702,9.2103 -55.47619,-7.38093 C 83.466598,129.29635 90.766568,96.893576 112.61903,80.695571 140.11812,60.312035 179.32658,69.515683 198.57141,96.647914 221.87949,129.50868 210.75621,175.56487 178.33336,197.8384 140.12415,224.08697 87.195674,211.03494 61.904784,173.31464 32.70545,129.76505 47.69194,69.948658 90.71425,41.647963 139.59893,9.4909141 206.31382,26.415639 237.61902,74.743136 272.73872,128.95928 253.87313,202.58017 200.23814,236.886 140.69313,274.97198 60.160739,254.16362 22.857176,195.21942" />
    <rect
       style="fill:#0000ff;fill-rule:evenodd;stroke:#000000;stroke-width:1px;stroke-linecap:butt;stroke-linejoin:miter;stroke-opacity:1"
       id="rect3348"
       width="74.285713"
       height="48.57143"
       x="28.571428"
       y="49.505062" />
  </g>
</svg>
