<?xml version="1.0" encoding="ISO-8859-1" standalone="no"?>
<!DOCTYPE svg PUBLIC "-//W3C//DTD SVG 20010904//EN"
"http://www.w3.org/TR/2001/REC-SVG-20010904/DTD/svg10.dtd">
<svg xmlns="http://www.w3.org/2000/svg" width="100mm" height="100mm" xmlns:xlink="http://www.w3.org/1999/xlink">
<title>CncControl SerialEmulatorSVG output</title>
<desc>....</desc>
	<g transform="translate(177.165,177.165)"
  CncSvgPattern="#ltCncSvgPattern#gt#ltTemplate name='Rotray Knob' td='3.125' tc='0' cs='8531985620'/#gt#ltRefPoint x='0.000' y='0.000'/#gt#ltTransform tlX='50.000' tlY='50.000' scX='1.000' scY='1.000' roA='0.000' roX='0.000' roY='0.000' skX='0.000' skY='0.000'/#gt#ltCncParameterBlock reverse='no' depth='z-0.000' correction='none'/#gt#ltParameter idx='0' name='Path d [px]' type='string' value='M348.000,257.000 L 364.000,148.000 362.000,148.000 326.000,241.000 295.000,219.000 258.000,88.000 440.000,129.000 370.000,196.000 372.000,275.000 z'/#gt#ltParameter idx='1' name='Inlay Mode' type='list' value='Path'/#gt#ltParameter idx='2' name='Reference Point(x/y)' type='list' value='top/left'/#gt#lt/CncSvgPattern#gt"
>
<!-- Config Block
<CncSvgPattern>
  <Template name="Rotray Knob" td="3.125" tc="0" cs="8531985620"/>
  <RefPoint x="0.000" y="0.000"/>
  <Transform tlX="50.000" tlY="50.000" scX="1.000" scY="1.000" roA="0.000" roX="0.000" roY="0.000" skX="0.000" skY="0.000"/>
  <CncParameterBlock reverse="no" depth="z-0.000" correction="none"/>
  <Parameter idx="0" name="Path d [px]" type="string" value="M348.000,257.000 L 364.000,148.000 362.000,148.000 326.000,241.000 295.000,219.000 258.000,88.000 440.000,129.000 370.000,196.000 372.000,275.000 z"/>
  <Parameter idx="1" name="Inlay Mode" type="list" value="Path"/>
  <Parameter idx="2" name="Reference Point(x/y)" type="list" value="top/left"/>
</CncSvgPattern>
 -->

 <!-- SVG Path Generator: Generated Path Result: -->
 <CncParameterBlock reverse="no" depth="z-0.000" correction="none"/>
 <path d="M-17.112,-114.536 L -15.049,-114.333 -12.999,-114.023 -10.968,-113.607 -8.961,-113.087 -6.983,-112.464 -5.041,-111.738 -3.139,-110.913 -1.282,-109.991 0.002,-109.268 1.079,-109.883 2.930,-110.816 4.828,-111.652 6.766,-112.388 8.739,-113.023 10.743,-113.555 12.772,-113.982 14.820,-114.304 16.882,-114.519 18.952,-114.627 21.026,-114.627 23.096,-114.520 25.158,-114.306 27.207,-113.986 29.236,-113.560 31.240,-113.029 33.214,-112.395 35.152,-111.659 37.050,-110.825 38.902,-109.893 40.703,-108.866 42.448,-107.747 44.133,-106.540 45.754,-105.246 47.305,-103.871 48.783,-102.417 50.183,-100.888 51.503,-99.289 52.738,-97.624 53.884,-95.896 54.635,-94.628 55.876,-94.621 57.946,-94.504 60.007,-94.279 62.053,-93.948 64.080,-93.511 66.081,-92.969 68.052,-92.325 69.987,-91.580 71.880,-90.735 73.727,-89.793 75.523,-88.757 77.262,-87.629 78.941,-86.413 80.555,-85.111 82.099,-83.727 83.569,-82.266 84.961,-80.730 86.272,-79.124 87.498,-77.452 88.636,-75.719 89.683,-73.929 90.635,-72.088 91.491,-70.199 92.247,-68.269 92.903,-66.302 93.456,-64.304 93.904,-62.280 94.247,-60.235 94.484,-58.175 94.614,-56.106 94.630,-54.632 95.701,-54.006 97.435,-52.869 99.107,-51.644 100.714,-50.334 102.251,-48.942 103.713,-47.473 105.097,-45.930 106.400,-44.317 107.617,-42.639 108.746,-40.899 109.783,-39.104 110.726,-37.258 111.572,-35.365 112.318,-33.431 112.963,-31.461 113.506,-29.460 113.944,-27.433 114.276,-25.387 114.502,-23.326 114.621,-21.256 114.632,-19.183 114.536,-17.112 114.333,-15.049 114.023,-12.999 113.607,-10.967 113.087,-8.961 112.464,-6.983 111.738,-5.041 110.913,-3.139 109.991,-1.282 109.268,0.002 109.883,1.079 110.816,2.930 111.652,4.828 112.388,6.766 113.023,8.739 113.555,10.743 113.982,12.772 114.304,14.820 114.519,16.882 114.627,18.952 114.627,21.026 114.520,23.096 114.306,25.158 113.986,27.207 113.560,29.236 113.029,31.240 112.395,33.214 111.659,35.152 110.825,37.050 109.893,38.902 108.866,40.703 107.747,42.448 106.540,44.133 105.246,45.754 103.871,47.305 102.417,48.783 100.888,50.183 99.289,51.503 97.624,52.738 95.896,53.884 94.628,54.635 94.621,55.876 94.504,57.946 94.279,60.007 93.948,62.053 93.511,64.080 92.969,66.081 92.325,68.052 91.580,69.987 90.735,71.880 89.793,73.727 88.757,75.523 87.629,77.262 86.413,78.941 85.111,80.555 83.727,82.099 82.266,83.569 80.730,84.961 79.124,86.272 77.452,87.498 75.719,88.636 73.929,89.683 72.087,90.635 70.199,91.491 68.269,92.247 66.302,92.903 64.304,93.456 62.280,93.904 60.235,94.247 58.175,94.484 56.106,94.614 54.632,94.630 54.006,95.701 52.869,97.435 51.644,99.107 50.334,100.714 48.942,102.251 47.473,103.713 45.930,105.097 44.317,106.400 42.639,107.617 40.899,108.746 39.104,109.783 37.258,110.726 35.365,111.572 33.431,112.318 31.461,112.963 29.459,113.506 27.433,113.944 25.387,114.276 23.326,114.502 21.256,114.621 19.183,114.632 17.112,114.536 15.049,114.333 12.999,114.023 10.967,113.607 8.961,113.087 6.983,112.464 5.041,111.738 3.139,110.913 1.282,109.991 -0.002,109.268 -1.079,109.883 -2.930,110.816 -4.828,111.652 -6.766,112.388 -8.739,113.023 -10.743,113.555 -12.772,113.982 -14.820,114.304 -16.882,114.519 -18.952,114.627 -21.026,114.627 -23.096,114.520 -25.158,114.306 -27.207,113.986 -29.236,113.560 -31.240,113.029 -33.214,112.395 -35.152,111.659 -37.050,110.825 -38.902,109.893 -40.703,108.866 -42.448,107.747 -44.133,106.540 -45.754,105.246 -47.305,103.871 -48.783,102.417 -50.183,100.888 -51.503,99.289 -52.738,97.624 -53.884,95.896 -54.635,94.628 -55.876,94.621 -57.946,94.504 -60.007,94.279 -62.053,93.948 -64.080,93.511 -66.081,92.969 -68.052,92.325 -69.987,91.580 -71.880,90.735 -73.727,89.793 -75.523,88.757 -77.262,87.629 -78.941,86.413 -80.555,85.111 -82.099,83.727 -83.569,82.266 -84.961,80.730 -86.272,79.124 -87.498,77.452 -88.636,75.719 -89.683,73.929 -90.635,72.087 -91.491,70.199 -92.247,68.269 -92.903,66.302 -93.456,64.304 -93.904,62.280 -94.247,60.235 -94.484,58.175 -94.614,56.106 -94.630,54.632 -95.701,54.006 -97.435,52.869 -99.107,51.644 -100.714,50.334 -102.251,48.942 -103.713,47.473 -105.098,45.930 -106.400,44.317 -107.617,42.639 -108.746,40.899 -109.783,39.104 -110.726,37.258 -111.572,35.365 -112.318,33.431 -112.963,31.461 -113.506,29.459 -113.944,27.433 -114.276,25.387 -114.502,23.326 -114.621,21.256 -114.632,19.183 -114.536,17.112 -114.333,15.049 -114.023,12.999 -113.607,10.967 -113.087,8.961 -112.463,6.983 -111.738,5.041 -110.913,3.139 -109.991,1.282 -109.268,-0.002 -109.883,-1.079 -110.816,-2.930 -111.652,-4.828 -112.388,-6.766 -113.023,-8.739 -113.555,-10.743 -113.982,-12.772 -114.304,-14.820 -114.519,-16.882 -114.627,-18.952 -114.627,-21.026 -114.520,-23.096 -114.306,-25.158 -113.986,-27.206 -113.560,-29.235 -113.029,-31.239 -112.395,-33.213 -111.659,-35.152 -110.825,-37.050 -109.893,-38.901 -108.866,-40.703 -107.747,-42.448 -106.540,-44.133 -105.246,-45.754 -103.871,-47.305 -102.417,-48.783 -100.888,-50.183 -99.289,-51.503 -97.624,-52.737 -95.896,-53.884 -94.628,-54.635 -94.621,-55.876 -94.504,-57.946 -94.279,-60.007 -93.948,-62.053 -93.511,-64.080 -92.969,-66.081 -92.325,-68.052 -91.580,-69.987 -90.735,-71.880 -89.793,-73.727 -88.757,-75.523 -87.629,-77.262 -86.413,-78.941 -85.111,-80.555 -83.727,-82.099 -82.266,-83.569 -80.730,-84.961 -79.124,-86.272 -77.452,-87.498 -75.719,-88.636 -73.929,-89.683 -72.087,-90.635 -70.199,-91.491 -68.269,-92.247 -66.302,-92.903 -64.304,-93.456 -62.280,-93.904 -60.235,-94.247 -58.175,-94.484 -56.106,-94.614 -54.632,-94.630 -54.006,-95.701 -52.869,-97.435 -51.644,-99.107 -50.334,-100.714 -48.942,-102.251 -47.473,-103.713 -45.930,-105.097 -44.317,-106.400 -42.639,-107.617 -40.900,-108.746 -39.104,-109.783 -37.258,-110.726 -35.365,-111.572 -33.431,-112.318 -31.461,-112.963 -29.460,-113.506 -27.433,-113.944 -25.387,-114.276 -23.326,-114.502 -21.256,-114.621 -19.183,-114.632 -17.112,-114.536 " 
   stroke="#000000" fill="none" stroke-width="1.0"
 />

 <!-- Help Constructs -->
 <!--path d="M 0.000 0.000 L 0.000 0.000 -1.609 -0.980 -3.171 -2.035 -4.681 -3.163 -6.136 -4.361 -7.534 -5.626 -8.870 -6.955 -10.142 -8.346 -11.347 -9.795 -12.483 -11.299 -13.546 -12.855 -14.535 -14.459 -15.448 -16.109 -16.281 -17.799 -17.034 -19.527 -17.705 -21.288 -18.292 -23.079 -18.794 -24.896 -19.210 -26.734 -19.539 -28.590 -19.780 -30.459 -19.933 -32.338 -19.997 -34.222 -19.973 -36.106 -19.859 -37.988 -19.657 -39.862 -19.367 -41.724 -18.990 -43.571 -18.526 -45.397 -17.977 -47.200 -17.343 -48.975 -16.626 -50.718 -15.828 -52.426 -14.950 -54.094 -13.995 -55.719 -12.965 -57.297 -11.861 -58.824 -10.686 -60.298 -9.443 -61.716 -8.135 -63.072 -6.765 -64.366 -5.335 -65.594 -3.849 -66.753 -2.309 -67.841 -0.721 -68.855 0.913 -69.793 2.590 -70.653 4.306 -71.433 6.057 -72.132 7.838 -72.747 9.647 -73.278 11.478 -73.722 13.329 -74.080 15.194 -74.351 17.070 -74.533 18.952 -74.627 20.837 -74.632 22.720 -74.548 24.597 -74.375 26.464 -74.115 28.316 -73.766 30.150 -73.331 31.961 -72.810 33.746 -72.204 35.500 -71.515 37.220 -70.744 38.902 -69.893 40.541 -68.963 42.135 -67.957 43.680 -66.878 45.172 -65.726 46.609 -64.506 47.986 -63.219 49.301 -61.869 50.551 -60.459 51.734 -58.991 52.845 -57.469 53.884 -55.896 54.848 -54.277 55.734 -52.613 56.541 -50.910 57.267 -49.171 57.910 -47.399 58.469 -45.599 58.943 -43.775 59.330 -41.930 59.629 -40.069 59.841 -38.196 59.964 -36.316 59.999 -34.431 59.945 -32.547 59.802 -30.668 59.570 -28.797 59.251 -26.940 58.845 -25.099 58.352 -23.280 57.775 -21.486 57.113 -19.721 56.369 -17.989 55.544 -16.294 54.640 -14.640 53.660 -13.031 52.605 -11.469 51.477 -9.959 50.279 -8.504 49.014 -7.106 47.685 -5.770 46.294 -4.498 44.845 -3.293 43.341 -2.157 41.785 -1.094 40.181 -0.105 39.999 0.000 39.999 0.000 41.082 -1.767 42.255 -3.477 43.515 -5.123 44.859 -6.702 46.282 -8.210 47.782 -9.641 49.354 -10.993 50.994 -12.261 52.697 -13.443 54.459 -14.535 56.276 -15.535 58.142 -16.438 60.052 -17.244 62.001 -17.950 63.985 -18.554 65.997 -19.054 68.032 -19.450 70.085 -19.739 72.150 -19.922 74.222 -19.997 76.295 -19.965 78.363 -19.826 80.422 -19.580 82.465 -19.227 84.487 -18.769 86.482 -18.206 88.446 -17.542 90.373 -16.776 92.257 -15.911 94.094 -14.950 95.879 -13.895 97.606 -12.750 99.272 -11.516 100.872 -10.197 102.402 -8.797 103.857 -7.320 105.233 -5.770 106.527 -4.150 107.736 -2.465 108.855 -0.721 109.883 1.079 110.816 2.930 111.652 4.828 112.388 6.766 113.023 8.739 113.555 10.743 113.982 12.772 114.304 14.820 114.519 16.882 114.627 18.952 114.627 21.026 114.520 23.096 114.306 25.158 113.986 27.207 113.560 29.236 113.029 31.240 112.395 33.214 111.659 35.152 110.825 37.050 109.893 38.902 108.866 40.703 107.747 42.448 106.540 44.133 105.246 45.754 103.871 47.305 102.417 48.783 100.888 50.183 99.289 51.503 97.624 52.738 95.896 53.884 94.112 54.940 92.276 55.902 90.392 56.768 88.465 57.534 86.502 58.200 84.507 58.764 82.485 59.223 80.442 59.577 78.384 59.824 76.315 59.964 74.243 59.998 72.171 59.923 70.105 59.742 68.052 59.453 66.017 59.059 64.005 58.560 62.021 57.957 60.071 57.252 58.161 56.447 56.294 55.544 54.477 54.546 52.715 53.455 51.011 52.274 49.370 51.006 47.797 49.655 46.297 48.224 44.873 46.718 43.528 45.140 42.267 43.494 41.094 41.785 40.010 40.018 39.019 38.196 38.124 36.326 37.327 34.412 36.631 32.460 36.036 30.474 35.545 28.459 35.160 26.422 34.880 24.368 34.707 22.302 34.641 20.230 34.640 20.000 34.640 20.000 36.462 19.010 38.333 18.116 40.247 17.320 42.200 16.624 44.187 16.031 46.201 15.541 48.238 15.156 50.293 14.877 52.359 14.706 54.431 14.641 56.504 14.684 58.572 14.834 60.629 15.091 62.670 15.455 64.689 15.923 66.682 16.496 68.642 17.171 70.565 17.947 72.445 18.821 74.277 19.792 76.056 20.856 77.778 22.011 79.437 23.254 81.030 24.581 82.552 25.988 83.999 27.473 85.367 29.031 86.653 30.657 87.853 32.348 88.963 34.099 89.981 35.905 90.905 37.761 91.730 39.663 92.457 41.605 93.081 43.581 93.603 45.588 94.019 47.619 94.330 49.669 94.535 51.732 94.632 53.803 94.621 55.876 94.504 57.946 94.279 60.007 93.948 62.053 93.511 64.080 92.969 66.081 92.325 68.052 91.580 69.987 90.735 71.880 89.793 73.727 88.757 75.523 87.629 77.262 86.413 78.941 85.111 80.555 83.727 82.099 82.266 83.569 80.730 84.961 79.124 86.272 77.452 87.498 75.719 88.636 73.929 89.683 72.087 90.635 70.199 91.491 68.269 92.247 66.302 92.903 64.304 93.456 62.280 93.904 60.235 94.247 58.175 94.484 56.106 94.614 54.033 94.636 51.962 94.551 49.897 94.358 47.846 94.059 45.813 93.654 43.803 93.144 41.823 92.531 39.877 91.816 37.970 91.001 36.109 90.089 34.297 89.081 32.540 87.980 30.842 86.791 29.208 85.514 27.643 84.155 26.150 82.717 24.733 81.203 23.397 79.617 22.145 77.965 20.980 76.250 19.906 74.477 18.924 72.651 18.039 70.776 17.252 68.858 16.566 66.901 15.982 64.912 15.502 62.895 15.126 60.856 14.857 58.801 14.695 56.734 14.641 54.661 14.693 52.589 14.853 50.522 15.120 48.466 15.493 46.426 15.971 44.409 16.553 42.419 17.238 40.462 18.022 38.543 18.906 36.668 19.885 34.840 20.000 34.640 20.000 34.640 22.072 34.694 24.139 34.855 26.195 35.123 28.234 35.497 30.251 35.976 32.241 36.560 34.197 37.245 36.116 38.031 37.991 38.915 39.818 39.895 41.591 40.969 43.307 42.133 44.960 43.384 46.546 44.719 48.061 46.135 49.500 47.627 50.860 49.192 52.137 50.825 53.328 52.522 54.429 54.279 55.438 56.090 56.352 57.951 57.167 59.857 57.883 61.803 58.498 63.783 59.009 65.792 59.415 67.825 59.715 69.877 59.908 71.941 59.995 74.012 59.973 76.085 59.845 78.155 59.609 80.214 59.267 82.259 58.820 84.283 58.268 86.282 57.613 88.249 56.858 90.180 56.003 92.069 55.052 93.911 54.006 95.701 52.869 97.435 51.644 99.107 50.334 100.714 48.942 102.251 47.473 103.713 45.930 105.097 44.317 106.400 42.639 107.617 40.899 108.746 39.104 109.783 37.258 110.726 35.365 111.572 33.431 112.318 31.461 112.963 29.459 113.506 27.433 113.944 25.387 114.276 23.326 114.502 21.256 114.621 19.183 114.632 17.112 114.536 15.049 114.333 12.999 114.023 10.967 113.607 8.961 113.087 6.983 112.464 5.041 111.738 3.139 110.913 1.282 109.991 -0.523 108.974 -2.274 107.864 -3.966 106.666 -5.593 105.381 -7.152 104.013 -8.637 102.567 -10.045 101.046 -11.373 99.454 -12.617 97.795 -13.773 96.074 -14.838 94.295 -15.809 92.463 -16.685 90.584 -17.461 88.662 -18.138 86.702 -18.711 84.710 -19.181 82.690 -19.546 80.649 -19.804 78.592 -19.955 76.525 -19.999 74.452 -19.936 72.380 -19.765 70.314 -19.487 68.259 -19.103 66.222 -18.615 64.207 -18.022 62.220 -17.328 60.267 -16.533 58.352 -15.640 56.481 -14.651 54.659 -13.569 52.890 -12.397 51.180 -11.138 49.533 -9.795 47.953 -8.372 46.445 -6.873 45.013 -5.302 43.660 -3.663 42.391 -1.960 41.208 -0.199 40.115 0.000 39.999 0.000 39.999 1.767 41.082 3.477 42.255 5.123 43.515 6.702 44.859 8.210 46.282 9.641 47.782 10.993 49.354 12.261 50.994 13.443 52.697 14.535 54.459 15.535 56.276 16.438 58.142 17.244 60.052 17.950 62.001 18.554 63.985 19.054 65.997 19.450 68.032 19.739 70.085 19.922 72.150 19.997 74.222 19.965 76.295 19.826 78.363 19.580 80.422 19.227 82.465 18.769 84.487 18.206 86.482 17.542 88.446 16.776 90.373 15.911 92.257 14.950 94.094 13.895 95.879 12.750 97.606 11.516 99.272 10.197 100.872 8.797 102.402 7.320 103.857 5.770 105.233 4.150 106.527 2.465 107.736 0.721 108.855 -1.079 109.883 -2.930 110.816 -4.828 111.652 -6.766 112.388 -8.739 113.023 -10.743 113.555 -12.772 113.982 -14.820 114.304 -16.882 114.519 -18.952 114.627 -21.026 114.627 -23.096 114.520 -25.158 114.306 -27.207 113.986 -29.236 113.560 -31.240 113.029 -33.214 112.395 -35.152 111.659 -37.050 110.825 -38.902 109.893 -40.703 108.866 -42.448 107.747 -44.133 106.540 -45.754 105.246 -47.305 103.871 -48.783 102.417 -50.183 100.888 -51.503 99.289 -52.738 97.624 -53.884 95.896 -54.940 94.112 -55.902 92.276 -56.768 90.392 -57.534 88.465 -58.200 86.502 -58.764 84.507 -59.223 82.485 -59.577 80.442 -59.824 78.384 -59.964 76.315 -59.998 74.243 -59.923 72.171 -59.742 70.105 -59.453 68.052 -59.059 66.017 -58.560 64.005 -57.957 62.021 -57.252 60.071 -56.447 58.161 -55.544 56.294 -54.546 54.477 -53.455 52.715 -52.274 51.011 -51.006 49.370 -49.655 47.798 -48.224 46.297 -46.718 44.873 -45.140 43.528 -43.494 42.267 -41.785 41.094 -40.018 40.010 -38.196 39.019 -36.326 38.124 -34.412 37.327 -32.460 36.631 -30.474 36.036 -28.459 35.545 -26.422 35.160 -24.368 34.880 -22.302 34.707 -20.230 34.641 -19.999 34.640 -19.999 34.641 -19.010 36.462 -18.116 38.333 -17.320 40.247 -16.624 42.200 -16.031 44.187 -15.541 46.201 -15.156 48.238 -14.877 50.293 -14.706 52.359 -14.641 54.431 -14.684 56.504 -14.834 58.572 -15.091 60.629 -15.455 62.670 -15.923 64.689 -16.496 66.682 -17.171 68.642 -17.947 70.565 -18.821 72.445 -19.792 74.277 -20.856 76.056 -22.011 77.778 -23.254 79.437 -24.581 81.030 -25.988 82.552 -27.473 83.999 -29.031 85.367 -30.657 86.653 -32.348 87.853 -34.099 88.963 -35.905 89.981 -37.761 90.905 -39.663 91.730 -41.605 92.457 -43.581 93.081 -45.588 93.603 -47.619 94.019 -49.669 94.330 -51.732 94.535 -53.803 94.632 -55.876 94.621 -57.946 94.504 -60.007 94.279 -62.053 93.948 -64.080 93.511 -66.081 92.969 -68.052 92.325 -69.987 91.580 -71.880 90.735 -73.727 89.793 -75.523 88.757 -77.262 87.629 -78.941 86.413 -80.555 85.111 -82.099 83.727 -83.569 82.266 -84.961 80.730 -86.272 79.124 -87.498 77.452 -88.636 75.719 -89.683 73.929 -90.635 72.087 -91.491 70.199 -92.247 68.269 -92.903 66.302 -93.456 64.304 -93.904 62.280 -94.247 60.235 -94.484 58.175 -94.614 56.106 -94.636 54.033 -94.551 51.962 -94.358 49.897 -94.059 47.846 -93.654 45.813 -93.144 43.803 -92.531 41.823 -91.816 39.877 -91.001 37.970 -90.089 36.109 -89.081 34.297 -87.981 32.540 -86.791 30.842 -85.514 29.208 -84.155 27.643 -82.717 26.150 -81.203 24.733 -79.617 23.397 -77.965 22.145 -76.250 20.980 -74.477 19.906 -72.651 18.924 -70.776 18.039 -68.858 17.252 -66.902 16.566 -64.912 15.982 -62.895 15.502 -60.856 15.126 -58.801 14.857 -56.734 14.695 -54.661 14.641 -52.589 14.693 -50.522 14.853 -48.466 15.120 -46.426 15.493 -44.409 15.971 -42.419 16.553 -40.462 17.238 -38.543 18.022 -36.668 18.906 -34.840 19.885 -34.640 20.000 -34.640 20.000 -34.694 22.072 -34.855 24.139 -35.123 26.195 -35.497 28.234 -35.976 30.251 -36.560 32.241 -37.245 34.197 -38.031 36.116 -38.915 37.991 -39.895 39.818 -40.969 41.592 -42.133 43.307 -43.384 44.960 -44.719 46.546 -46.135 48.061 -47.627 49.500 -49.192 50.860 -50.825 52.137 -52.522 53.328 -54.279 54.429 -56.090 55.438 -57.951 56.352 -59.857 57.167 -61.803 57.883 -63.783 58.498 -65.792 59.009 -67.825 59.415 -69.877 59.715 -71.941 59.908 -74.012 59.995 -76.085 59.973 -78.155 59.845 -80.214 59.609 -82.259 59.267 -84.284 58.820 -86.282 58.268 -88.249 57.613 -90.180 56.858 -92.069 56.003 -93.911 55.052 -95.701 54.006 -97.435 52.869 -99.107 51.644 -100.714 50.334 -102.251 48.942 -103.713 47.473 -105.098 45.930 -106.400 44.317 -107.617 42.639 -108.746 40.899 -109.783 39.104 -110.726 37.258 -111.572 35.365 -112.318 33.431 -112.963 31.461 -113.506 29.459 -113.944 27.433 -114.276 25.387 -114.502 23.326 -114.621 21.256 -114.632 19.183 -114.536 17.112 -114.333 15.049 -114.023 12.999 -113.607 10.967 -113.087 8.961 -112.463 6.983 -111.738 5.041 -110.913 3.139 -109.991 1.282 -108.974 -0.523 -107.864 -2.274 -106.666 -3.966 -105.381 -5.593 -104.013 -7.152 -102.567 -8.637 -101.046 -10.045 -99.454 -11.373 -97.795 -12.617 -96.074 -13.773 -94.295 -14.838 -92.463 -15.809 -90.584 -16.685 -88.662 -17.461 -86.702 -18.138 -84.710 -18.711 -82.690 -19.181 -80.650 -19.546 -78.592 -19.804 -76.525 -19.955 -74.452 -19.999 -72.380 -19.936 -70.314 -19.765 -68.259 -19.487 -66.222 -19.103 -64.207 -18.615 -62.220 -18.022 -60.267 -17.328 -58.352 -16.533 -56.481 -15.640 -54.659 -14.651 -52.890 -13.569 -51.180 -12.397 -49.533 -11.138 -47.953 -9.795 -46.445 -8.372 -45.013 -6.873 -43.660 -5.302 -42.391 -3.663 -41.208 -1.960 -40.115 -0.199 -39.999 0.000 -39.999 0.000 -41.082 1.768 -42.255 3.477 -43.515 5.123 -44.859 6.702 -46.282 8.210 -47.782 9.641 -49.354 10.993 -50.994 12.261 -52.697 13.443 -54.459 14.535 -56.276 15.535 -58.142 16.438 -60.052 17.244 -62.001 17.950 -63.985 18.554 -65.997 19.054 -68.032 19.450 -70.085 19.739 -72.150 19.922 -74.222 19.997 -76.295 19.965 -78.363 19.826 -80.422 19.580 -82.465 19.227 -84.487 18.769 -86.482 18.207 -88.446 17.542 -90.372 16.776 -92.257 15.911 -94.094 14.950 -95.879 13.896 -97.606 12.750 -99.272 11.516 -100.872 10.197 -102.402 8.797 -103.857 7.320 -105.233 5.770 -106.527 4.150 -107.735 2.466 -108.855 0.721 -109.883 -1.079 -110.816 -2.930 -111.652 -4.828 -112.388 -6.766 -113.023 -8.739 -113.555 -10.743 -113.982 -12.772 -114.304 -14.820 -114.519 -16.882 -114.627 -18.952 -114.627 -21.026 -114.520 -23.096 -114.306 -25.158 -113.986 -27.206 -113.560 -29.235 -113.029 -31.239 -112.395 -33.213 -111.659 -35.152 -110.825 -37.050 -109.893 -38.901 -108.866 -40.703 -107.747 -42.448 -106.540 -44.133 -105.246 -45.754 -103.871 -47.305 -102.417 -48.783 -100.888 -50.183 -99.289 -51.503 -97.624 -52.737 -95.896 -53.884 -94.112 -54.940 -92.276 -55.902 -90.392 -56.768 -88.466 -57.534 -86.502 -58.200 -84.507 -58.764 -82.485 -59.223 -80.442 -59.576 -78.384 -59.824 -76.316 -59.964 -74.243 -59.997 -72.171 -59.923 -70.105 -59.742 -68.052 -59.453 -66.017 -59.059 -64.005 -58.560 -62.021 -57.957 -60.071 -57.252 -58.161 -56.447 -56.295 -55.544 -54.477 -54.546 -52.715 -53.455 -51.011 -52.274 -49.370 -51.006 -47.798 -49.655 -46.297 -48.224 -44.873 -46.718 -43.528 -45.140 -42.267 -43.494 -41.094 -41.785 -40.010 -40.018 -39.019 -38.196 -38.124 -36.326 -37.327 -34.412 -36.631 -32.460 -36.036 -30.474 -35.545 -28.459 -35.160 -26.422 -34.880 -24.368 -34.707 -22.302 -34.641 -20.230 -34.640 -20.000 -34.640 -20.000 -36.462 -19.010 -38.333 -18.116 -40.247 -17.320 -42.200 -16.624 -44.187 -16.031 -46.201 -15.541 -48.238 -15.156 -50.293 -14.878 -52.359 -14.706 -54.431 -14.641 -56.504 -14.684 -58.572 -14.834 -60.629 -15.091 -62.670 -15.455 -64.689 -15.923 -66.682 -16.496 -68.642 -17.171 -70.565 -17.947 -72.445 -18.821 -74.277 -19.792 -76.056 -20.856 -77.778 -22.011 -79.437 -23.254 -81.030 -24.581 -82.552 -25.988 -83.999 -27.473 -85.367 -29.031 -86.653 -30.657 -87.853 -32.348 -88.963 -34.099 -89.981 -35.905 -90.905 -37.761 -91.730 -39.663 -92.457 -41.605 -93.081 -43.581 -93.603 -45.588 -94.019 -47.619 -94.330 -49.669 -94.535 -51.732 -94.632 -53.803 -94.621 -55.876 -94.504 -57.946 -94.279 -60.007 -93.948 -62.053 -93.511 -64.080 -92.969 -66.081 -92.325 -68.052 -91.580 -69.987 -90.735 -71.880 -89.793 -73.727 -88.757 -75.523 -87.629 -77.262 -86.413 -78.941 -85.111 -80.555 -83.727 -82.099 -82.266 -83.569 -80.730 -84.961 -79.124 -86.272 -77.452 -87.498 -75.719 -88.636 -73.929 -89.683 -72.087 -90.635 -70.199 -91.491 -68.269 -92.247 -66.302 -92.903 -64.304 -93.456 -62.280 -93.904 -60.235 -94.247 -58.175 -94.484 -56.106 -94.614 -54.033 -94.636 -51.962 -94.551 -49.897 -94.358 -47.846 -94.059 -45.813 -93.654 -43.803 -93.144 -41.823 -92.531 -39.877 -91.816 -37.970 -91.001 -36.109 -90.089 -34.297 -89.081 -32.540 -87.981 -30.842 -86.791 -29.208 -85.514 -27.643 -84.155 -26.150 -82.717 -24.733 -81.203 -23.397 -79.617 -22.145 -77.965 -20.980 -76.250 -19.906 -74.477 -18.924 -72.651 -18.039 -70.776 -17.252 -68.858 -16.566 -66.901 -15.982 -64.912 -15.502 -62.895 -15.126 -60.856 -14.857 -58.801 -14.695 -56.734 -14.641 -54.661 -14.693 -52.589 -14.853 -50.522 -15.120 -48.466 -15.493 -46.426 -15.971 -44.409 -16.553 -42.419 -17.238 -40.462 -18.022 -38.543 -18.906 -36.668 -19.885 -34.840 -20.000 -34.640 -20.000 -34.640 -22.072 -34.694 -24.139 -34.855 -26.195 -35.123 -28.234 -35.497 -30.251 -35.976 -32.241 -36.560 -34.197 -37.245 -36.116 -38.031 -37.991 -38.915 -39.818 -39.895 -41.591 -40.969 -43.307 -42.133 -44.960 -43.384 -46.546 -44.719 -48.061 -46.135 -49.500 -47.627 -50.860 -49.192 -52.137 -50.825 -53.328 -52.522 -54.429 -54.279 -55.438 -56.090 -56.352 -57.951 -57.167 -59.857 -57.883 -61.803 -58.498 -63.783 -59.009 -65.792 -59.415 -67.825 -59.715 -69.877 -59.908 -71.941 -59.995 -74.012 -59.973 -76.085 -59.845 -78.155 -59.609 -80.214 -59.267 -82.259 -58.820 -84.283 -58.268 -86.282 -57.613 -88.249 -56.858 -90.180 -56.003 -92.069 -55.052 -93.911 -54.006 -95.701 -52.869 -97.435 -51.644 -99.107 -50.334 -100.714 -48.942 -102.251 -47.473 -103.713 -45.930 -105.097 -44.317 -106.400 -42.639 -107.617 -40.900 -108.746 -39.104 -109.783 -37.258 -110.726 -35.365 -111.572 -33.431 -112.318 -31.461 -112.963 -29.460 -113.506 -27.433 -113.944 -25.387 -114.276 -23.326 -114.502 -21.256 -114.621 -19.183 -114.632 -17.112 -114.536 -15.049 -114.333 -12.999 -114.023 -10.968 -113.607 -8.961 -113.087 -6.983 -112.464 -5.041 -111.738 -3.139 -110.913 -1.282 -109.991 0.523 -108.974 2.274 -107.864 3.966 -106.666 5.593 -105.381 7.151 -104.013 8.637 -102.567 10.045 -101.046 11.373 -99.454 12.617 -97.795 13.773 -96.074 14.838 -94.295 15.809 -92.463 16.685 -90.584 17.461 -88.662 18.138 -86.702 18.711 -84.710 19.181 -82.690 19.546 -80.650 19.804 -78.592 19.955 -76.525 19.999 -74.452 19.936 -72.380 19.765 -70.314 19.487 -68.259 19.103 -66.222 18.615 -64.207 18.022 -62.220 17.328 -60.267 16.533 -58.352 15.640 -56.481 14.651 -54.659 13.569 -52.890 12.397 -51.180 11.138 -49.533 9.795 -47.953 8.372 -46.445 6.873 -45.013 5.302 -43.660 3.663 -42.391 1.960 -41.208 0.199 -40.115 0.000 -40.000 0.000 -40.000 -1.767 -41.082 -3.477 -42.255 -5.123 -43.515 -6.702 -44.859 -8.210 -46.282 -9.641 -47.782 -10.993 -49.354 -12.261 -50.994 -13.443 -52.697 -14.535 -54.459 -15.535 -56.276 -16.438 -58.142 -17.244 -60.052 -17.950 -62.001 -18.554 -63.985 -19.054 -65.997 -19.450 -68.032 -19.739 -70.085 -19.922 -72.150 -19.997 -74.222 -19.965 -76.295 -19.826 -78.363 -19.579 -80.422 -19.227 -82.465 -18.769 -84.487 -18.206 -86.482 -17.542 -88.446 -16.776 -90.373 -15.911 -92.257 -14.950 -94.094 -13.895 -95.879 -12.750 -97.606 -11.516 -99.272 -10.197 -100.872 -8.797 -102.402 -7.320 -103.857 -5.770 -105.233 -4.150 -106.527 -2.465 -107.736 -0.721 -108.855 1.079 -109.883 2.930 -110.816 4.828 -111.652 6.766 -112.388 8.739 -113.023 10.743 -113.555 12.772 -113.982 14.820 -114.304 16.882 -114.519 18.952 -114.627 21.026 -114.627 23.096 -114.520 25.158 -114.306 27.207 -113.986 29.236 -113.560 31.240 -113.029 33.214 -112.395 35.152 -111.659 37.050 -110.825 38.902 -109.893 40.703 -108.866 42.448 -107.747 44.133 -106.540 45.754 -105.246 47.305 -103.871 48.783 -102.417 50.183 -100.888 51.503 -99.289 52.738 -97.624 53.884 -95.896 54.940 -94.112 55.902 -92.276 56.768 -90.392 57.534 -88.466 58.200 -86.502 58.764 -84.507 59.223 -82.485 59.577 -80.442 59.824 -78.384 59.964 -76.315 59.998 -74.243 59.923 -72.171 59.742 -70.105 59.453 -68.052 59.059 -66.017 58.560 -64.005 57.957 -62.021 57.252 -60.071 56.447 -58.161 55.544 -56.294 54.546 -54.477 53.455 -52.715 52.274 -51.011 51.006 -49.370 49.655 -47.797 48.224 -46.297 46.718 -44.873 45.140 -43.528 43.494 -42.267 41.785 -41.094 40.018 -40.010 38.196 -39.019 36.326 -38.124 34.412 -37.327 32.460 -36.631 30.474 -36.036 28.459 -35.545 26.422 -35.160 24.368 -34.880 22.302 -34.707 20.230 -34.641 19.999 -34.640 19.999 -34.640 19.010 -36.462 18.116 -38.333 17.320 -40.247 16.624 -42.200 16.031 -44.187 15.541 -46.201 15.156 -48.238 14.877 -50.293 14.706 -52.359 14.641 -54.431 14.684 -56.504 14.834 -58.572 15.091 -60.629 15.455 -62.670 15.923 -64.689 16.496 -66.682 17.171 -68.642 17.947 -70.565 18.821 -72.445 19.792 -74.277 20.856 -76.056 22.011 -77.778 23.254 -79.437 24.581 -81.030 25.988 -82.552 27.473 -83.999 29.031 -85.367 30.657 -86.653 32.348 -87.853 34.099 -88.963 35.905 -89.981 37.761 -90.905 39.663 -91.730 41.605 -92.457 43.581 -93.081 45.588 -93.603 47.619 -94.019 49.669 -94.330 51.732 -94.535 53.803 -94.632 55.876 -94.621 57.946 -94.504 60.007 -94.279 62.053 -93.948 64.080 -93.511 66.081 -92.969 68.052 -92.325 69.987 -91.580 71.880 -90.735 73.727 -89.793 75.523 -88.757 77.262 -87.629 78.941 -86.413 80.555 -85.111 82.099 -83.727 83.569 -82.266 84.961 -80.730 86.272 -79.124 87.498 -77.452 88.636 -75.719 89.683 -73.929 90.635 -72.088 91.491 -70.199 92.247 -68.269 92.903 -66.302 93.456 -64.304 93.904 -62.280 94.247 -60.235 94.484 -58.175 94.614 -56.106 94.636 -54.033 94.551 -51.962 94.358 -49.897 94.059 -47.846 93.654 -45.813 93.144 -43.803 92.531 -41.823 91.816 -39.877 91.001 -37.970 90.089 -36.109 89.081 -34.297 87.981 -32.540 86.791 -30.842 85.514 -29.208 84.155 -27.643 82.717 -26.150 81.203 -24.733 79.617 -23.397 77.965 -22.145 76.250 -20.980 74.477 -19.906 72.651 -18.924 70.776 -18.039 68.858 -17.252 66.902 -16.566 64.912 -15.982 62.895 -15.502 60.856 -15.126 58.801 -14.857 56.734 -14.695 54.661 -14.641 52.589 -14.693 50.522 -14.853 48.466 -15.120 46.426 -15.493 44.409 -15.971 42.419 -16.553 40.462 -17.238 38.543 -18.022 36.668 -18.906 34.840 -19.885 34.640 -20.000 34.640 -20.000 34.694 -22.072 34.855 -24.139 35.123 -26.195 35.497 -28.234 35.976 -30.251 36.560 -32.241 37.245 -34.197 38.031 -36.116 38.915 -37.991 39.895 -39.818 40.969 -41.592 42.133 -43.307 43.384 -44.960 44.719 -46.546 46.135 -48.061 47.627 -49.500 49.192 -50.860 50.825 -52.137 52.522 -53.328 54.279 -54.429 56.090 -55.438 57.951 -56.352 59.857 -57.167 61.803 -57.883 63.783 -58.498 65.792 -59.009 67.825 -59.415 69.877 -59.715 71.941 -59.908 74.012 -59.995 76.085 -59.973 78.155 -59.845 80.214 -59.609 82.259 -59.267 84.284 -58.820 86.282 -58.268 88.249 -57.613 90.180 -56.858 92.069 -56.003 93.911 -55.052 95.701 -54.006 97.435 -52.869 99.107 -51.644 100.714 -50.334 102.251 -48.942 103.713 -47.473 105.097 -45.930 106.400 -44.317 107.617 -42.639 108.746 -40.899 109.783 -39.104 110.726 -37.258 111.572 -35.365 112.318 -33.431 112.963 -31.461 113.506 -29.460 113.944 -27.433 114.276 -25.387 114.502 -23.326 114.621 -21.256 114.632 -19.183 114.536 -17.112 114.333 -15.049 114.023 -12.999 113.607 -10.967 113.087 -8.961 112.464 -6.983 111.738 -5.041 110.913 -3.139 109.991 -1.282 108.974 0.523 107.864 2.274 106.666 3.966 105.381 5.593 104.013 7.151 102.567 8.637 101.046 10.045 99.454 11.373 97.795 12.617 96.074 13.773 94.295 14.838 92.463 15.809 90.584 16.685 88.662 17.461 86.702 18.138 84.710 18.711 82.690 19.181 80.650 19.546 78.592 19.804 76.525 19.955 74.452 19.999 72.380 19.936 70.314 19.765 68.259 19.487 66.222 19.103 64.207 18.615 62.220 18.022 60.267 17.328 58.352 16.533 56.481 15.640 54.659 14.651 52.890 13.569 51.180 12.397 49.533 11.138 47.953 9.795 46.445 8.372 45.013 6.873 43.660 5.302 42.391 3.663 41.208 1.960 40.115 0.199 39.999 0.000 "
   style="fill:none;stroke:gray;stroke-width:1px;stroke-dasharray:2,1"/-->

 <!-- Reference cross -->
  <!--line x1="-8.000000" y1="0.000000" x2="8.000000" y2="0.000000" stroke="#FF0000" fill="none" stroke-width="1"/-->
  <!--line x1="0.000000" y1="-8.000000" x2="0.000000" y2="8.000000" stroke="#FF0000" fill="none" stroke-width="1"/-->
</g>
</svg>



