<?xml version="1.0" encoding="UTF-8" standalone="no"?>
<!-- Generator: Adobe Illustrator 17.0.0, SVG Export Plug-In . SVG Version: 6.00 Build 0)  -->

<svg
   xmlns:dc="http://purl.org/dc/elements/1.1/"
   xmlns:cc="http://creativecommons.org/ns#"
   xmlns:rdf="http://www.w3.org/1999/02/22-rdf-syntax-ns#"
   xmlns:svg="http://www.w3.org/2000/svg"
   xmlns="http://www.w3.org/2000/svg"
   xmlns:sodipodi="http://sodipodi.sourceforge.net/DTD/sodipodi-0.dtd"
   xmlns:inkscape="http://www.inkscape.org/namespaces/inkscape"
   version="1.1"
   id="Layer_3"
   x="0px"
   y="0px"
   width="264.43048"
   height="193.26804"
   viewBoxx="0 0 472 396"
   enable-background="new 0 0 600 600"
   xml:space="preserve"
   inkscape:version="0.92.2 (5c3e80d, 2017-08-06)"
   sodipodi:docname="@house42.svg"><sodipodi:namedview
     pagecolor="#ffffff"
     bordercolor="#666666"
     borderopacity="1"
     objecttolerance="10"
     gridtolerance="10"
     guidetolerance="10"
     inkscape:pageopacity="0"
     inkscape:pageshadow="2"
     inkscape:window-width="2560"
     inkscape:window-height="1387"
     id="namedview9182"
     showgrid="false"
     inkscape:zoom="2.4893106"
     inkscape:cx="52.016387"
     inkscape:cy="55.341018"
     inkscape:window-x="2552"
     inkscape:window-y="1"
     inkscape:window-maximized="1"
     inkscape:current-layer="Layer_3"
     inkscape:document-units="mm"
     fit-margin-top="0"
     fit-margin-left="0"
     fit-margin-right="0"
     fit-margin-bottom="0" /><metadata
     id="metadata9186"><rdf:RDF><cc:Work
         rdf:about=""><dc:format>image/svg+xml</dc:format><dc:type
           rdf:resource="http://purl.org/dc/dcmitype/StillImage" /><dc:title></dc:title></cc:Work></rdf:RDF></metadata><defs
     id="defs9184" /><wwwCncParameterBlock
     depth="z-0.0"
     reverse="no"
     correction="none" /><path
     id="polygon9180"
     d="M 0.68598735,110.12961 21.583664,93.092966 41.867069,42.606192 83.739072,47.632386 94.14101,38.983749 97.47977,6.2701413 l -1.01348,-3.944304 4.18955,-2.06530296 27.86445,6.36728696 -1.82864,2.999917 -0.57888,4.9551207 37.64267,8.153743 33.85591,-9.568598 8.1327,24.063093 26.02553,18.270958 31.91927,52.265685 -0.23155,1.98207 -4.79116,-0.1524 -12.66918,50.92341 -4.19604,0.82456 -1.85917,-0.58118 12.27641,-49.80328 -3.2134,0.0636 1.80499,3.54846 -1.00929,2.30641 -2.92646,-0.28172 -12.02073,50.12254 -34.64322,7.33625 -1.7266,4.22443 -82.85753,14.73495 -77.088859,-17.75783 0.365713,-48.86854 -10.469638,-0.45281 0.102381,44.16082 -4.147927,1.72981 -5.506281,-0.71466 -0.615009,-59.47704 -17.96203565,0.35543 z"
     style="fill:none;stroke:#070707;stroke-width:0.49436989;stroke-miterlimit:10"
     inkscape:connector-curvature="0" /><path
     id="path3594"
     d="M 2.6290844,108.97877 117.23426,103.25032 197.79673,13.164277"
     style="fill:none;stroke:#070707;stroke-width:0.49436989;stroke-miterlimit:10"
     inkscape:connector-curvature="0" /><path
     id="path3602"
     d="M 41.863501,42.636862 72.497316,97.770596 68.430132,98.809176 42.872586,51.592615 20.132375,102.7 l -3.460596,0.0685 4.919133,-9.737514"
     style="fill:none;stroke:#070707;stroke-width:0.49436989;stroke-miterlimit:10"
     inkscape:connector-curvature="0" /><path
     id="path3590"
     d="m 18.353134,110.89227 99.843266,-3.21169 78.73204,-87.083596 30.70253,91.839196 2.44058,-4.00324 -24.23504,-71.203717"
     style="fill:none;stroke:#070707;stroke-width:0.49436989;stroke-miterlimit:10"
     inkscape:connector-curvature="0" /><path
     id="path3632"
     d="m 19.355613,117.79356 102.248207,-1.28178 68.78117,-79.306553 3.55064,-12.099717 -75.24483,82.56528 -99.600359,3.94843 z"
     style="fill:none;stroke:#070707;stroke-width:0.49436989;stroke-miterlimit:10"
     inkscape:connector-curvature="0" /><path
     id="path3604"
     d="m 21.352662,100.69838 9.535431,-5.626754 33.790988,-2.15178"
     style="fill:none;stroke:#070707;stroke-width:0.49436989;stroke-miterlimit:10"
     inkscape:connector-curvature="0" /><path
     id="path3610"
     d="m 18.829086,164.52174 5.26444,1.3789 4.07074,-1.06928"
     style="fill:none;stroke:#070707;stroke-width:0.49436989;stroke-miterlimit:10"
     inkscape:connector-curvature="0" /><path
     id="path3626"
     d="m 28.230039,126.26937 -3.460608,0.0685 -0.410757,45.73715"
     style="fill:none;stroke:#070707;stroke-width:0.49436989;stroke-miterlimit:10"
     inkscape:connector-curvature="0" /><path
     id="path3690"
     d="m 43.857501,93.826486 0.932481,-22.759361 7.778543,-1.142667"
     style="fill:none;stroke:#070707;stroke-width:0.49436989;stroke-miterlimit:10"
     inkscape:connector-curvature="0" /><path
     id="path3694"
     d="M 45.238157,92.563236 45.648466,72.162465 52.67822,71.096412 51.4178,92.440966 Z"
     style="fill:none;stroke:#070707;stroke-width:0.49436989;stroke-miterlimit:10"
     inkscape:connector-curvature="0" /><path
     id="path3612"
     d="m 37.646505,168.10431 77.857345,13.29032 85.25887,-12.06887"
     style="fill:none;stroke:#070707;stroke-width:0.49436989;stroke-miterlimit:10"
     inkscape:connector-curvature="0" /><path
     id="path3692"
     d="M 54.416932,73.101264 53.003398,93.645516"
     style="fill:none;stroke:#070707;stroke-width:0.49436989;stroke-miterlimit:10"
     inkscape:connector-curvature="0" /><path
     id="path3634"
     d="m 53.946384,128.85032 -0.42846,27.2397 12.112657,0.46084 2.492238,-28.72265 z"
     style="fill:none;stroke:#070707;stroke-width:0.49436989;stroke-miterlimit:10"
     inkscape:connector-curvature="0" /><path
     id="path3636"
     d="m 55.655575,130.05239 -0.69859,24.97937 3.693324,0.0506 0.945745,-24.98428 z"
     style="fill:none;stroke:#070707;stroke-width:0.49436989;stroke-miterlimit:10"
     inkscape:connector-curvature="0" /><path
     id="path3638"
     d="m 60.955589,130.07117 -0.742001,25.351 3.969475,-0.20219 2.239555,-25.50425 z"
     style="fill:none;stroke:#070707;stroke-width:0.49436989;stroke-miterlimit:10"
     inkscape:connector-curvature="0" /><path
     id="path3640"
     d="m 68.297645,128.44277 0.603477,0.11172 -2.667066,28.10813 -0.603487,-0.1117"
     style="fill:none;stroke:#070707;stroke-width:0.49436989;stroke-miterlimit:10"
     inkscape:connector-curvature="0" /><path
     id="path3606"
     d="M 83.744484,47.586261 72.497316,97.770596"
     style="fill:none;stroke:#070707;stroke-width:0.49436989;stroke-miterlimit:10"
     inkscape:connector-curvature="0" /><path
     id="path3642"
     d="m 81.063321,127.88614 -0.584367,29.69735 12.685696,0.51226 2.75379,-31.31188 z"
     style="fill:none;stroke:#070707;stroke-width:0.49436989;stroke-miterlimit:10"
     inkscape:connector-curvature="0" /><path
     id="path3644"
     d="m 82.847934,129.19849 -0.856222,27.23235 3.868457,0.0584 1.115341,-27.23798 z"
     style="fill:none;stroke:#070707;stroke-width:0.49436989;stroke-miterlimit:10"
     inkscape:connector-curvature="0" /><path
     id="path3600"
     d="m 97.48111,6.2586813 3.70345,-2.058673 26.24864,5.412995"
     style="fill:none;stroke:#070707;stroke-width:0.49436989;stroke-miterlimit:10"
     inkscape:connector-curvature="0" /><path
     id="path3596"
     d="m 126.85434,14.568133 -0.12674,7.418025 -29.58572,33.708098 -4.01289,0.573783 1.01475,-17.307636"
     style="fill:none;stroke:#070707;stroke-width:0.49436989;stroke-miterlimit:10"
     inkscape:connector-curvature="0" /><path
     id="path3598"
     d="M 97.14188,55.694256 101.18456,4.2000083 100.6562,0.25750134"
     style="fill:none;stroke:#070707;stroke-width:0.49436989;stroke-miterlimit:10"
     inkscape:connector-curvature="0" /><path
     id="path3646"
     d="m 88.399291,129.22309 -0.903071,27.63767 4.15909,-0.21676 2.4727,-27.80371 z"
     style="fill:none;stroke:#070707;stroke-width:0.49436989;stroke-miterlimit:10"
     inkscape:connector-curvature="0" /><path
     id="path3682"
     d="M 102.57938,74.863 115.74351,74.76719 129.517,55.378902 116.71217,56.62103 Z"
     style="fill:none;stroke:#070707;stroke-width:0.49436989;stroke-miterlimit:10"
     inkscape:connector-curvature="0" /><path
     id="path3648"
     d="m 96.09858,127.4542 0.6314,0.12197 -2.93351,30.64209 -0.63182,-0.12251"
     style="fill:none;stroke:#070707;stroke-width:0.49436989;stroke-miterlimit:10"
     inkscape:connector-curvature="0" /><path
     id="path3686"
     d="m 102.57938,74.863 0.39791,0.815754 12.94109,0.403398 -0.17491,-1.315011"
     style="fill:none;stroke:#070707;stroke-width:0.49436989;stroke-miterlimit:10"
     inkscape:connector-curvature="0" /><path
     id="path3684"
     d="m 117.04738,57.973849 8.93485,-0.485788 -11.24785,16.063103 -10.05207,0.19892 z"
     style="fill:none;stroke:#070707;stroke-width:0.49436989;stroke-miterlimit:10"
     inkscape:connector-curvature="0" /><path
     id="path3688"
     d="m 115.9184,76.082145 13.69681,-18.727761 -0.0982,-1.975536"
     style="fill:none;stroke:#070707;stroke-width:0.49436989;stroke-miterlimit:10"
     inkscape:connector-curvature="0" /><path
     id="path3592"
     d="M 134.13546,16.97846 124.6703,35.374802 163.05064,23.49204 Z"
     style="fill:none;stroke:#070707;stroke-width:0.49436989;stroke-miterlimit:10"
     inkscape:connector-curvature="0" /><path
     id="path3608"
     d="m 122.78815,102.15168 -7.16152,90.85815"
     style="fill:none;stroke:#070707;stroke-width:0.49436989;stroke-miterlimit:10"
     inkscape:connector-curvature="0" /><path
     id="path3662"
     d="m 148.14369,122.94898 -1.52415,0.38073 -3.27923,42.84792 1.58496,-0.196"
     style="fill:none;stroke:#070707;stroke-width:0.49436989;stroke-miterlimit:10"
     inkscape:connector-curvature="0" /><path
     id="path3650"
     d="m 148.1871,122.57726 -3.26186,43.40428 40.15824,-4.58501 8.60514,-39.88431 z"
     style="fill:none;stroke:#070707;stroke-width:0.49436989;stroke-miterlimit:10"
     inkscape:connector-curvature="0" /><path
     id="path3652"
     d="m 151.34863,125.06911 -3.70794,38.77838 36.09048,-4.94744 7.35461,-34.80764 -10.53879,0.13893 -5.56559,34.97589 -2.14211,0.0424 5.37052,-34.71202 -13.18341,0.26089 -3.73133,36.16269 -2.47186,0.0489 3.73132,-36.16268 z"
     style="fill:none;stroke:#070707;stroke-width:0.49436989;stroke-miterlimit:10"
     inkscape:connector-curvature="0" /><path
     id="path3660"
     d="m 158.63821,159.77775 -10.29388,0.86272"
     style="fill:none;stroke:#070707;stroke-width:0.49436989;stroke-miterlimit:10"
     inkscape:connector-curvature="0" /><path
     id="path3664"
     d="m 188.96068,65.031839 c 1.64616,2.501562 1.84953,5.123081 1.84953,5.123081 l -4.45895,35.35298 -22.43064,0.60855 3.86635,-37.318708 c 0,0 7.04135,-11.015413 17.43515,-7.101537 1.71693,0.848956 2.91058,2.0771 3.73867,3.335666"
     style="fill:none;stroke:#070707;stroke-width:0.49436989;stroke-miterlimit:10"
     inkscape:connector-curvature="0" /><path
     id="path3666"
     d="m 187.2267,67.149528 c 1.3014,2.159345 1.44559,4.420714 1.44559,4.420714 l -3.82464,30.484738 -17.97764,0.49754 3.36435,-32.181215 c 0,0 5.72054,-9.491817 14.02087,-6.103548 1.36868,0.734735 2.31653,1.795682 2.97144,2.881706"
     style="fill:none;stroke:#070707;stroke-width:0.49436989;stroke-miterlimit:10"
     inkscape:connector-curvature="0" /><path
     id="path3668"
     d="m 169.85128,74.524761 16.39174,1.653088 -0.22822,1.425813 -16.33326,-1.098092"
     style="fill:none;stroke:#070707;stroke-width:0.49436989;stroke-miterlimit:10"
     inkscape:connector-curvature="0" /><path
     id="path3670"
     d="m 168.70799,84.311126 17.09879,0.62913 -0.21594,1.57042 -17.01503,-0.31586"
     style="fill:none;stroke:#070707;stroke-width:0.49436989;stroke-miterlimit:10"
     inkscape:connector-curvature="0" /><path
     id="path3672"
     d="m 167.89151,93.411296 17.11431,0.21748 -0.27164,1.79748 -17.03805,-0.34261"
     style="fill:none;stroke:#070707;stroke-width:0.49436989;stroke-miterlimit:10"
     inkscape:connector-curvature="0" /><path
     id="path3658"
     d="m 172.63499,158.1823 -11.34056,1.37826"
     style="fill:none;stroke:#070707;stroke-width:0.49436989;stroke-miterlimit:10"
     inkscape:connector-curvature="0" /><path
     id="path3674"
     d="m 172.41031,67.92374 c 0,0 9.08449,-5.988594 13.13881,2.582605 l -0.74584,5.329224"
     style="fill:none;stroke:#070707;stroke-width:0.49436989;stroke-miterlimit:10"
     inkscape:connector-curvature="0" /><path
     id="path3630"
     d="M 214.4566,111.21376 188.41305,30.158463"
     style="fill:none;stroke:#070707;stroke-width:0.49436989;stroke-miterlimit:10"
     inkscape:connector-curvature="0" /><path
     id="path3676"
     d="m 184.35349,77.574746 -0.70132,7.05862"
     style="fill:none;stroke:#070707;stroke-width:0.49436989;stroke-miterlimit:10"
     inkscape:connector-curvature="0" /><path
     id="path3680"
     d="m 182.37872,95.534666 -0.64343,6.563094"
     style="fill:none;stroke:#070707;stroke-width:0.49436989;stroke-miterlimit:10"
     inkscape:connector-curvature="0" /><path
     id="path3678"
     d="m 183.54423,86.612976 -0.8104,6.93717"
     style="fill:none;stroke:#070707;stroke-width:0.49436989;stroke-miterlimit:10"
     inkscape:connector-curvature="0" /><path
     id="path3656"
     d="m 181.2816,157.3522 -5.99036,0.61292"
     style="fill:none;stroke:#070707;stroke-width:0.49436989;stroke-miterlimit:10"
     inkscape:connector-curvature="0" /><path
     id="path3654"
     d="m 187.57394,124.59942 -6.29234,32.75278 2.44957,1.54785"
     style="fill:none;stroke:#070707;stroke-width:0.49436989;stroke-miterlimit:10"
     inkscape:connector-curvature="0" /><path
     id="path3628"
     d="m 227.63099,112.43617 -13.17439,-1.22241 -14.2438,62.81937"
     style="fill:none;stroke:#070707;stroke-width:0.49436989;stroke-miterlimit:10"
     inkscape:connector-curvature="0" /><path
     id="path3614"
     d="m 202.09876,166.33312 33.75968,-6.1061"
     style="fill:none;stroke:#070707;stroke-width:0.49436989;stroke-miterlimit:10"
     inkscape:connector-curvature="0" /><path
     id="path3618"
     d="m 211.96284,124.11667 32.92339,-2.46433 1.13593,-4.80105 -32.81244,0.81399 z"
     style="fill:none;stroke:#070707;stroke-width:0.49436989;stroke-miterlimit:10"
     inkscape:connector-curvature="0" /><path
     id="path3588"
     d="m 250.85318,114.2013 -37.25754,0.16035"
     style="fill:none;stroke:#070707;stroke-width:0.49436989;stroke-miterlimit:10"
     inkscape:connector-curvature="0" /><path
     id="path3584"
     d="m 246.88489,116.50448 -33.63657,0.8303"
     style="fill:none;stroke:#070707;stroke-width:0.49436989;stroke-miterlimit:10"
     inkscape:connector-curvature="0" /><path
     id="path3616"
     d="m 241.26527,156.16508 1.57058,0.62791 4.48789,-0.41807"
     style="fill:none;stroke:#070707;stroke-width:0.49436989;stroke-miterlimit:10"
     inkscape:connector-curvature="0" /><path
     id="path3586"
     d="m 264.43044,107.75302 -16.52288,-0.003 1.18404,2.53097"
     style="fill:none;stroke:#070707;stroke-width:0.49436989;stroke-miterlimit:10"
     inkscape:connector-curvature="0" /><path
     id="path3624"
     d="m 254.52003,110.25636 -12.62664,51.08715"
     style="fill:none;stroke:#070707;stroke-width:0.49436989;stroke-miterlimit:10"
     inkscape:connector-curvature="0" /><path
     id="path3622"
     d="m 251.59411,112.78609 2.6751,-0.38264 3.75175,0.25549"
     style="fill:none;stroke:#070707;stroke-width:0.49436989;stroke-miterlimit:10"
     inkscape:connector-curvature="0" /><path
     id="path3620"
     d="m 252.30501,110.21763 6.73193,-0.62759"
     style="fill:none;stroke:#070707;stroke-width:0.49436989;stroke-miterlimit:10"
     inkscape:connector-curvature="0" /></svg>

