<?xml version="1.0" encoding="UTF-8" standalone="no"?>
<!-- Generator: Adobe Illustrator 17.0.0, SVG Export Plug-In . SVG Version: 6.00 Build 0)  -->

<svg
   xmlns:dc="http://purl.org/dc/elements/1.1/"
   xmlns:cc="http://creativecommons.org/ns#"
   xmlns:rdf="http://www.w3.org/1999/02/22-rdf-syntax-ns#"
   xmlns:svg="http://www.w3.org/2000/svg"
   xmlns="http://www.w3.org/2000/svg"
   xmlns:sodipodi="http://sodipodi.sourceforge.net/DTD/sodipodi-0.dtd"
   xmlns:inkscape="http://www.inkscape.org/namespaces/inkscape"
   version="1.1"
   id="Layer_3"
   x="0px"
   y="0px"
   width="125.018mm"
   height="105.64407mm"
   enable-background="new 0 0 600 600"
   xml:space="preserve"
   inkscape:version="0.91 r13725"
   sodipodi:docname="@house.svg"><sodipodi:namedview
     pagecolor="#ffffff"
     bordercolor="#666666"
     borderopacity="1"
     objecttolerance="10"
     gridtolerance="10"
     guidetolerance="10"
     inkscape:pageopacity="0"
     inkscape:pageshadow="2"
     inkscape:window-width="1600"
     inkscape:window-height="837"
     id="namedview9182"
     showgrid="false"
     inkscape:zoom="1.2003852"
     inkscape:cx="-22.035855"
     inkscape:cy="268.2097"
     inkscape:window-x="-8"
     inkscape:window-y="-8"
     inkscape:window-maximized="1"
     inkscape:current-layer="Layer_3"
     inkscape:document-units="mm"
     fit-margin-top="0"
     fit-margin-left="0"
     fit-margin-right="0"
     fit-margin-bottom="0" /><metadata
     id="metadata9186"><rdf:RDF><cc:Work
         rdf:about=""><dc:format>image/svg+xml</dc:format><dc:type
           rdf:resource="http://purl.org/dc/dcmitype/StillImage" /><dc:title /></cc:Work></rdf:RDF></metadata><defs
     id="defs9184" /><wwwCncParameterBlock
     depth="z-0.0"
     reverse="yes"
     correction="none" /><path
     id="polygon9180"
     d="m 11.710127,128.8587 20.897677,-17.03664 20.283405,-50.486774 41.872003,5.026194 10.401938,-8.648637 3.33876,-32.713608 -1.01348,-3.944304 4.18955,-2.065303 27.86445,6.367287 -1.82864,2.999917 -0.57888,4.955121 37.64267,8.153743 33.85591,-9.568598 8.1327,24.063093 26.02553,18.270958 31.91927,52.265681 -0.23155,1.98207 -4.79116,-0.1524 -12.66918,50.92341 -4.19604,0.82456 -1.85917,-0.58118 12.27641,-49.80328 -3.2134,0.0636 1.80499,3.54846 -1.00929,2.30641 -2.92646,-0.28172 -12.02073,50.12254 -34.64322,7.33625 -1.7266,4.22443 -82.85753,14.73495 -77.088859,-17.75783 0.365713,-48.86854 -10.469638,-0.45281 0.102381,44.16082 -4.147927,1.72981 -5.506281,-0.71466 -0.615009,-59.47704 -17.962036,0.35543 z"
     style="fill:none;stroke:#070707;stroke-width:0.49436989;stroke-miterlimit:10"
     inkscape:connector-curvature="0" /><path
     id="path3594"
     d="M 13.653224,127.70786 128.2584,121.97941 208.82087,31.893371"
     style="fill:none;stroke:#070707;stroke-width:0.49436989;stroke-miterlimit:10"
     inkscape:connector-curvature="0" /><path
     id="path3602"
     d="m 52.887641,61.365956 30.633815,55.133734 -4.067184,1.03858 -25.557546,-47.216561 -22.740211,51.107381 -3.460596,0.0685 4.919133,-9.73751"
     style="fill:none;stroke:#070707;stroke-width:0.49436989;stroke-miterlimit:10"
     inkscape:connector-curvature="0" /><path
     id="path3590"
     d="m 29.377274,129.62136 99.843266,-3.21169 78.73204,-87.083592 30.70253,91.839192 2.44058,-4.00324 -24.23504,-71.203713"
     style="fill:none;stroke:#070707;stroke-width:0.49436989;stroke-miterlimit:10"
     inkscape:connector-curvature="0" /><path
     id="path3632"
     d="m 30.379753,136.52265 102.248207,-1.28178 68.78117,-79.306549 3.55064,-12.099717 -75.24483,82.565276 -99.600359,3.94843 z"
     style="fill:none;stroke:#070707;stroke-width:0.49436989;stroke-miterlimit:10"
     inkscape:connector-curvature="0" /><path
     id="path3604"
     d="m 32.376802,119.42747 9.535431,-5.62675 33.790988,-2.15178"
     style="fill:none;stroke:#070707;stroke-width:0.49436989;stroke-miterlimit:10"
     inkscape:connector-curvature="0" /><path
     id="path3610"
     d="m 29.853226,183.25083 5.26444,1.3789 4.07074,-1.06928"
     style="fill:none;stroke:#070707;stroke-width:0.49436989;stroke-miterlimit:10"
     inkscape:connector-curvature="0" /><path
     id="path3626"
     d="m 39.254179,144.99846 -3.460608,0.0685 -0.410757,45.73715"
     style="fill:none;stroke:#070707;stroke-width:0.49436989;stroke-miterlimit:10"
     inkscape:connector-curvature="0" /><path
     id="path3690"
     d="m 54.881641,112.55558 0.932481,-22.759361 7.778543,-1.142667"
     style="fill:none;stroke:#070707;stroke-width:0.49436989;stroke-miterlimit:10"
     inkscape:connector-curvature="0" /><path
     id="path3694"
     d="M 56.262297,111.29233 56.672606,90.891559 63.70236,89.825506 62.44194,111.17006 Z"
     style="fill:none;stroke:#070707;stroke-width:0.49436989;stroke-miterlimit:10"
     inkscape:connector-curvature="0" /><path
     id="path3612"
     d="m 48.670645,186.8334 77.857345,13.29032 85.25887,-12.06887"
     style="fill:none;stroke:#070707;stroke-width:0.49436989;stroke-miterlimit:10"
     inkscape:connector-curvature="0" /><path
     id="path3692"
     d="M 65.441072,91.830358 64.027538,112.37461"
     style="fill:none;stroke:#070707;stroke-width:0.49436989;stroke-miterlimit:10"
     inkscape:connector-curvature="0" /><path
     id="path3634"
     d="m 64.970524,147.57941 -0.42846,27.2397 12.112657,0.46084 2.492238,-28.72265 z"
     style="fill:none;stroke:#070707;stroke-width:0.49436989;stroke-miterlimit:10"
     inkscape:connector-curvature="0" /><path
     id="path3636"
     d="m 66.679715,148.78148 -0.69859,24.97937 3.693324,0.0506 0.945745,-24.98428 z"
     style="fill:none;stroke:#070707;stroke-width:0.49436989;stroke-miterlimit:10"
     inkscape:connector-curvature="0" /><path
     id="path3638"
     d="m 71.979729,148.80026 -0.742001,25.351 3.969475,-0.20219 2.239555,-25.50425 z"
     style="fill:none;stroke:#070707;stroke-width:0.49436989;stroke-miterlimit:10"
     inkscape:connector-curvature="0" /><path
     id="path3640"
     d="m 79.321785,147.17186 0.603477,0.11172 -2.667066,28.10813 -0.603487,-0.1117"
     style="fill:none;stroke:#070707;stroke-width:0.49436989;stroke-miterlimit:10"
     inkscape:connector-curvature="0" /><path
     id="path3606"
     d="M 94.768624,66.315355 83.521456,116.49969"
     style="fill:none;stroke:#070707;stroke-width:0.49436989;stroke-miterlimit:10"
     inkscape:connector-curvature="0" /><path
     id="path3642"
     d="m 92.087461,146.61523 -0.584367,29.69735 12.685696,0.51226 2.75379,-31.31188 z"
     style="fill:none;stroke:#070707;stroke-width:0.49436989;stroke-miterlimit:10"
     inkscape:connector-curvature="0" /><path
     id="path3644"
     d="m 93.872074,147.92758 -0.856222,27.23235 3.868457,0.0584 1.115341,-27.23798 z"
     style="fill:none;stroke:#070707;stroke-width:0.49436989;stroke-miterlimit:10"
     inkscape:connector-curvature="0" /><path
     id="path3600"
     d="m 108.50525,24.987775 3.70345,-2.058673 26.24864,5.412995"
     style="fill:none;stroke:#070707;stroke-width:0.49436989;stroke-miterlimit:10"
     inkscape:connector-curvature="0" /><path
     id="path3596"
     d="m 137.87848,33.297227 -0.12674,7.418025 -29.58572,33.708098 -4.01289,0.573783 1.01475,-17.307636"
     style="fill:none;stroke:#070707;stroke-width:0.49436989;stroke-miterlimit:10"
     inkscape:connector-curvature="0" /><path
     id="path3598"
     d="m 108.16602,74.42335 4.04268,-51.494248 -0.52836,-3.942507"
     style="fill:none;stroke:#070707;stroke-width:0.49436989;stroke-miterlimit:10"
     inkscape:connector-curvature="0" /><path
     id="path3646"
     d="m 99.423431,147.95218 -0.903071,27.63767 4.15909,-0.21676 2.4727,-27.80371 z"
     style="fill:none;stroke:#070707;stroke-width:0.49436989;stroke-miterlimit:10"
     inkscape:connector-curvature="0" /><path
     id="path3682"
     d="m 113.60352,93.592094 13.16413,-0.09581 13.77349,-19.388288 -12.80483,1.242128 z"
     style="fill:none;stroke:#070707;stroke-width:0.49436989;stroke-miterlimit:10"
     inkscape:connector-curvature="0" /><path
     id="path3648"
     d="m 107.12272,146.18329 0.6314,0.12197 -2.93351,30.64209 -0.63182,-0.12251"
     style="fill:none;stroke:#070707;stroke-width:0.49436989;stroke-miterlimit:10"
     inkscape:connector-curvature="0" /><path
     id="path3686"
     d="m 113.60352,93.592094 0.39791,0.815754 12.94109,0.403398 -0.17491,-1.315011"
     style="fill:none;stroke:#070707;stroke-width:0.49436989;stroke-miterlimit:10"
     inkscape:connector-curvature="0" /><path
     id="path3684"
     d="m 128.07152,76.702943 8.93485,-0.485788 -11.24785,16.063103 -10.05207,0.19892 z"
     style="fill:none;stroke:#070707;stroke-width:0.49436989;stroke-miterlimit:10"
     inkscape:connector-curvature="0" /><path
     id="path3688"
     d="m 126.94254,94.811239 13.69681,-18.727761 -0.0982,-1.975536"
     style="fill:none;stroke:#070707;stroke-width:0.49436989;stroke-miterlimit:10"
     inkscape:connector-curvature="0" /><path
     id="path3592"
     d="m 145.1596,35.707554 -9.46516,18.396342 38.38034,-11.882762 z"
     style="fill:none;stroke:#070707;stroke-width:0.49436989;stroke-miterlimit:10"
     inkscape:connector-curvature="0" /><path
     id="path3608"
     d="m 133.81229,120.88077 -7.16152,90.85815"
     style="fill:none;stroke:#070707;stroke-width:0.49436989;stroke-miterlimit:10"
     inkscape:connector-curvature="0" /><path
     id="path3662"
     d="m 159.16783,141.67807 -1.52415,0.38073 -3.27923,42.84792 1.58496,-0.196"
     style="fill:none;stroke:#070707;stroke-width:0.49436989;stroke-miterlimit:10"
     inkscape:connector-curvature="0" /><path
     id="path3650"
     d="m 159.21124,141.30635 -3.26186,43.40428 40.15824,-4.58501 8.60514,-39.88431 z"
     style="fill:none;stroke:#070707;stroke-width:0.49436989;stroke-miterlimit:10"
     inkscape:connector-curvature="0" /><path
     id="path3652"
     d="m 162.37277,143.7982 -3.70794,38.77838 36.09048,-4.94744 7.35461,-34.80764 -10.53879,0.13893 -5.56559,34.97589 -2.14211,0.0424 5.37052,-34.71202 -13.18341,0.26089 -3.73133,36.16269 -2.47186,0.0489 3.73132,-36.16268 z"
     style="fill:none;stroke:#070707;stroke-width:0.49436989;stroke-miterlimit:10"
     inkscape:connector-curvature="0" /><path
     id="path3660"
     d="m 169.66235,178.50684 -10.29388,0.86272"
     style="fill:none;stroke:#070707;stroke-width:0.49436989;stroke-miterlimit:10"
     inkscape:connector-curvature="0" /><path
     id="path3664"
     d="m 199.98482,83.760933 c 1.64616,2.501562 1.84953,5.123081 1.84953,5.123081 l -4.45895,35.352976 -22.43064,0.60855 3.86635,-37.318704 c 0,0 7.04135,-11.015413 17.43515,-7.101537 1.71693,0.848956 2.91058,2.0771 3.73867,3.335666"
     style="fill:none;stroke:#070707;stroke-width:0.49436989;stroke-miterlimit:10"
     inkscape:connector-curvature="0" /><path
     id="path3666"
     d="m 198.25084,85.878622 c 1.3014,2.159345 1.44559,4.420714 1.44559,4.420714 l -3.82464,30.484734 -17.97764,0.49754 3.36435,-32.181211 c 0,0 5.72054,-9.491817 14.02087,-6.103548 1.36868,0.734735 2.31653,1.795682 2.97144,2.881706"
     style="fill:none;stroke:#070707;stroke-width:0.49436989;stroke-miterlimit:10"
     inkscape:connector-curvature="0" /><path
     id="path3668"
     d="m 180.87542,93.253855 16.39174,1.653088 -0.22822,1.425813 -16.33326,-1.098092"
     style="fill:none;stroke:#070707;stroke-width:0.49436989;stroke-miterlimit:10"
     inkscape:connector-curvature="0" /><path
     id="path3670"
     d="m 179.73213,103.04022 17.09879,0.62913 -0.21594,1.57042 -17.01503,-0.31586"
     style="fill:none;stroke:#070707;stroke-width:0.49436989;stroke-miterlimit:10"
     inkscape:connector-curvature="0" /><path
     id="path3672"
     d="m 178.91565,112.14039 17.11431,0.21748 -0.27164,1.79748 -17.03805,-0.34261"
     style="fill:none;stroke:#070707;stroke-width:0.49436989;stroke-miterlimit:10"
     inkscape:connector-curvature="0" /><path
     id="path3658"
     d="m 183.65913,176.91139 -11.34056,1.37826"
     style="fill:none;stroke:#070707;stroke-width:0.49436989;stroke-miterlimit:10"
     inkscape:connector-curvature="0" /><path
     id="path3674"
     d="m 183.43445,86.652834 c 0,0 9.08449,-5.988594 13.13881,2.582605 l -0.74584,5.329224"
     style="fill:none;stroke:#070707;stroke-width:0.49436989;stroke-miterlimit:10"
     inkscape:connector-curvature="0" /><path
     id="path3630"
     d="M 225.48074,129.94285 199.43719,48.887557"
     style="fill:none;stroke:#070707;stroke-width:0.49436989;stroke-miterlimit:10"
     inkscape:connector-curvature="0" /><path
     id="path3676"
     d="m 195.37763,96.30384 -0.70132,7.05862"
     style="fill:none;stroke:#070707;stroke-width:0.49436989;stroke-miterlimit:10"
     inkscape:connector-curvature="0" /><path
     id="path3680"
     d="m 193.40286,114.26376 -0.64343,6.56309"
     style="fill:none;stroke:#070707;stroke-width:0.49436989;stroke-miterlimit:10"
     inkscape:connector-curvature="0" /><path
     id="path3678"
     d="m 194.56837,105.34207 -0.8104,6.93717"
     style="fill:none;stroke:#070707;stroke-width:0.49436989;stroke-miterlimit:10"
     inkscape:connector-curvature="0" /><path
     id="path3656"
     d="m 192.30574,176.08129 -5.99036,0.61292"
     style="fill:none;stroke:#070707;stroke-width:0.49436989;stroke-miterlimit:10"
     inkscape:connector-curvature="0" /><path
     id="path3654"
     d="m 198.59808,143.32851 -6.29234,32.75278 2.44957,1.54785"
     style="fill:none;stroke:#070707;stroke-width:0.49436989;stroke-miterlimit:10"
     inkscape:connector-curvature="0" /><path
     id="path3628"
     d="m 238.65513,131.16526 -13.17439,-1.22241 -14.2438,62.81937"
     style="fill:none;stroke:#070707;stroke-width:0.49436989;stroke-miterlimit:10"
     inkscape:connector-curvature="0" /><path
     id="path3614"
     d="m 213.1229,185.06221 33.75968,-6.1061"
     style="fill:none;stroke:#070707;stroke-width:0.49436989;stroke-miterlimit:10"
     inkscape:connector-curvature="0" /><path
     id="path3618"
     d="m 222.98698,142.84576 32.92339,-2.46433 1.13593,-4.80105 -32.81244,0.81399 z"
     style="fill:none;stroke:#070707;stroke-width:0.49436989;stroke-miterlimit:10"
     inkscape:connector-curvature="0" /><path
     id="path3588"
     d="m 261.87732,132.93039 -37.25754,0.16035"
     style="fill:none;stroke:#070707;stroke-width:0.49436989;stroke-miterlimit:10"
     inkscape:connector-curvature="0" /><path
     id="path3584"
     d="m 257.90903,135.23357 -33.63657,0.8303"
     style="fill:none;stroke:#070707;stroke-width:0.49436989;stroke-miterlimit:10"
     inkscape:connector-curvature="0" /><path
     id="path3616"
     d="m 252.28941,174.89417 1.57058,0.62791 4.48789,-0.41807"
     style="fill:none;stroke:#070707;stroke-width:0.49436989;stroke-miterlimit:10"
     inkscape:connector-curvature="0" /><path
     id="path3586"
     d="m 275.45458,126.48211 -16.52288,-0.003 1.18404,2.53097"
     style="fill:none;stroke:#070707;stroke-width:0.49436989;stroke-miterlimit:10"
     inkscape:connector-curvature="0" /><path
     id="path3624"
     d="M 265.54417,128.98545 252.91753,180.0726"
     style="fill:none;stroke:#070707;stroke-width:0.49436989;stroke-miterlimit:10"
     inkscape:connector-curvature="0" /><path
     id="path3622"
     d="m 262.61825,131.51518 2.6751,-0.38264 3.75175,0.25549"
     style="fill:none;stroke:#070707;stroke-width:0.49436989;stroke-miterlimit:10"
     inkscape:connector-curvature="0" /><path
     id="path3620"
     d="m 263.32915,128.94672 6.73193,-0.62759"
     style="fill:none;stroke:#070707;stroke-width:0.49436989;stroke-miterlimit:10"
     inkscape:connector-curvature="0" /></svg>



















