<?xml version="1.0" encoding="UTF-8" standalone="no"?>
<!-- Generator: Adobe Illustrator 17.0.0, SVG Export Plug-In . SVG Version: 6.00 Build 0)  -->

<svg
   xmlns:dc="http://purl.org/dc/elements/1.1/"
   xmlns:cc="http://creativecommons.org/ns#"
   xmlns:rdf="http://www.w3.org/1999/02/22-rdf-syntax-ns#"
   xmlns:svg="http://www.w3.org/2000/svg"
   xmlns="http://www.w3.org/2000/svg"
   xmlns:sodipodi="http://sodipodi.sourceforge.net/DTD/sodipodi-0.dtd"
   xmlns:inkscape="http://www.inkscape.org/namespaces/inkscape"
   version="1.1"
   id="Layer_3"
   x="0px"
   y="0px"
   width="593.21033pt"
   height="188.87918pt"
   viewBox="0 0 209.27143 66.632375"
   enable-background="new 0 0 600 600"
   xml:space="preserve"
   inkscape:version="0.91 r13725"
   sodipodi:docname="@house2.svg"><sodipodi:namedview
     pagecolor="#ffffff"
     bordercolor="#666666"
     borderopacity="1"
     objecttolerance="10"
     gridtolerance="10"
     guidetolerance="10"
     inkscape:pageopacity="0"
     inkscape:pageshadow="2"
     inkscape:window-width="1600"
     inkscape:window-height="837"
     id="namedview9182"
     showgrid="false"
     inkscape:zoom="0.42440026"
     inkscape:cx="66.921452"
     inkscape:cy="-42.882179"
     inkscape:window-x="-8"
     inkscape:window-y="-8"
     inkscape:window-maximized="1"
     inkscape:current-layer="Layer_3"
     inkscape:document-units="mm"
     fit-margin-top="0"
     fit-margin-left="0"
     fit-margin-right="0"
     fit-margin-bottom="0"
     units="pt" /><metadata
     id="metadata9186"><rdf:RDF><cc:Work
         rdf:about=""><dc:format>image/svg+xml</dc:format><dc:type
           rdf:resource="http://purl.org/dc/dcmitype/StillImage" /><dc:title></dc:title></cc:Work></rdf:RDF></metadata><defs
     id="defs9184"><inkscape:perspective
       sodipodi:type="inkscape:persp3d"
       inkscape:vp_x="0 : 33.316187 : 1"
       inkscape:vp_y="0 : 1000 : 0"
       inkscape:vp_z="209.27143 : 33.316187 : 1"
       inkscape:persp3d-origin="104.63572 : 22.210792 : 1"
       id="perspective8121" /></defs><path
     id="polygon9180"
     d="m 108.14683,27.745057 -5.24066,3.738599 -4.352582,11.734356 -11.347233,-1.858858 -2.604923,1.901145 -0.188849,7.757722 0.357304,0.957632 -1.079839,0.427163 -7.616569,-1.958625 0.425957,-0.687449 0.04824,-1.173908 -10.27969,-2.539005 -8.880147,1.751728 -2.703095,-5.872952 -7.380353,-4.771645 -9.697243,-12.980515 0.01929,-0.469563 1.289262,0.111785 2.299451,-11.958421 1.108408,-0.130839 0.511562,0.168007 -2.218242,11.69718 0.861107,0.03538 -0.561185,-0.875585 0.221031,-0.534773 0.791563,0.113311 2.142724,-11.777416 9.139729,-1.2063767 0.372086,-0.9814024 21.920629,-2.214101 21.074806,5.4526461 0.958404,11.661433 2.819877,0.272853 -0.982261,-10.544845 1.075921,-0.347714 1.49335,0.257261 1.451,14.209609 4.81338,0.197782 z"
     style="fill:none;stroke:#070707;stroke-width:0.12481249;stroke-miterlimit:10"
     inkscape:connector-curvature="0"
     inkscape:transform-center-x="44.488925"
     inkscape:transform-center-y="-21.945833" /><path
     id="path3594"
     d="M 107.65017,27.989234 77.013659,27.553511 57.338163,47.793529"
     style="fill:none;stroke:#070707;stroke-width:0.12481249;stroke-miterlimit:10"
     inkscape:connector-curvature="0"
     inkscape:transform-center-x="34.902848"
     inkscape:transform-center-y="-13.547538" /><path
     id="path3602"
     d="m 98.553887,43.210753 -9.414225,-13.645022 1.069186,-0.183957 7.880569,11.674942 4.998573,-11.843869 0.92735,0.0381 -1.10978,2.247394"
     style="fill:none;stroke:#070707;stroke-width:0.12481249;stroke-miterlimit:10"
     inkscape:connector-curvature="0"
     inkscape:transform-center-x="20.819512"
     inkscape:transform-center-y="-15.009258" /><path
     id="path3590"
     d="M 103.38842,27.28497 76.659636,26.480658 57.410517,46.032656 47.184256,23.623268 l -0.568504,0.917355 8.044215,17.380978"
     style="fill:none;stroke:#070707;stroke-width:0.12481249;stroke-miterlimit:10"
     inkscape:connector-curvature="0"
     inkscape:transform-center-x="42.39493"
     inkscape:transform-center-y="-16.393096" /><path
     id="path3632"
     d="M 102.97014,25.621535 75.554136,24.318628 58.807722,42.170465 58.116319,45.003359 76.52715,26.475214 l 26.64766,0.624595 z"
     style="fill:none;stroke:#070707;stroke-width:0.12481249;stroke-miterlimit:10"
     inkscape:connector-curvature="0"
     inkscape:transform-center-x="36.751452"
     inkscape:transform-center-y="-16.560064" /><path
     id="path3604"
     d="m 102.80373,29.671524 -2.43768,1.193317 -9.023075,-0.01798"
     style="fill:none;stroke:#070707;stroke-width:0.12481249;stroke-miterlimit:10"
     inkscape:connector-curvature="0"
     inkscape:transform-center-x="20.323659"
     inkscape:transform-center-y="-20.952875" /><path
     id="path3610"
     d="m 102.10118,14.473645 -1.44281,-0.412052 -1.069476,0.191231"
     style="fill:none;stroke:#070707;stroke-width:0.12481249;stroke-miterlimit:10"
     inkscape:connector-curvature="0"
     inkscape:transform-center-x="16.551977"
     inkscape:transform-center-y="-36.953438" /><path
     id="path3626"
     d="m 100.40497,23.458319 0.92736,0.03811 -0.87862,-10.913111"
     style="fill:none;stroke:#070707;stroke-width:0.12481249;stroke-miterlimit:10"
     inkscape:connector-curvature="0"
     inkscape:transform-center-x="16.528367"
     inkscape:transform-center-y="-33.181189" /><path
     id="path3690"
     d="m 96.911943,30.95804 0.241791,5.419042 -2.063078,0.150404"
     style="fill:none;stroke:#070707;stroke-width:0.12481249;stroke-miterlimit:10"
     inkscape:connector-curvature="0"
     inkscape:transform-center-x="21.274819"
     inkscape:transform-center-y="-17.478295" /><path
     id="path3694"
     d="m 96.568683,31.237909 0.330949,4.864154 -1.863761,0.143899 -0.123177,-5.076098 z"
     style="fill:none;stroke:#070707;stroke-width:0.12481249;stroke-miterlimit:10"
     inkscape:connector-curvature="0"
     inkscape:transform-center-x="21.490851"
     inkscape:transform-center-y="-17.513145" /><path
     id="path3612"
     d="M 96.973072,13.32221 75.788591,8.9240686 53.165794,10.46387"
     style="fill:none;stroke:#070707;stroke-width:0.12481249;stroke-miterlimit:10"
     inkscape:connector-curvature="0"
     inkscape:transform-center-x="42.327583"
     inkscape:transform-center-y="-40.097917" /><path
     id="path3692"
     d="m 94.525852,35.739947 -0.06478,-4.882614"
     style="fill:none;stroke:#070707;stroke-width:0.12481249;stroke-miterlimit:10"
     inkscape:connector-curvature="0"
     inkscape:transform-center-x="22.903552"
     inkscape:transform-center-y="-17.922418" /><path
     id="path3634"
     d="m 93.44683,22.437472 -0.47394,-6.496643 -3.261034,-0.300617 -0.04793,6.818212 z"
     style="fill:none;stroke:#070707;stroke-width:0.12481249;stroke-miterlimit:10"
     inkscape:connector-curvature="0"
     inkscape:transform-center-x="25.841636"
     inkscape:transform-center-y="-32.171739" /><path
     id="path3636"
     d="m 92.962086,22.123587 -0.352564,-5.952744 -0.992393,-0.07018 0.28633,5.950023 z"
     style="fill:none;stroke:#070707;stroke-width:0.12481249;stroke-miterlimit:10"
     inkscape:connector-curvature="0"
     inkscape:transform-center-x="25.107407"
     inkscape:transform-center-y="-32.108932" /><path
     id="path3638"
     d="m 91.539139,22.035702 -0.348947,-6.040785 -1.061045,-0.01419 -0.04969,6.0538 z"
     style="fill:none;stroke:#070707;stroke-width:0.12481249;stroke-miterlimit:10"
     inkscape:connector-curvature="0"
     inkscape:transform-center-x="26.587716"
     inkscape:transform-center-y="-32.212844" /><path
     id="path3640"
     d="m 89.603718,22.308942 -0.164394,-0.03616 0.108137,-6.668743 0.164395,0.03616"
     style="fill:none;stroke:#070707;stroke-width:0.12481249;stroke-miterlimit:10"
     inkscape:connector-curvature="0"
     inkscape:transform-center-x="27.821424"
     inkscape:transform-center-y="-32.264567" /><path
     id="path3606"
     d="M 87.2059,41.37008 89.139662,29.565731"
     style="fill:none;stroke:#070707;stroke-width:0.12481249;stroke-miterlimit:10"
     inkscape:connector-curvature="0"
     inkscape:transform-center-x="29.224234"
     inkscape:transform-center-y="-15.753152" /><path
     id="path3642"
     d="m 86.189406,22.240965 -0.485225,-7.08094 -3.415953,-0.321919 -0.06215,7.432267 z"
     style="fill:none;stroke:#070707;stroke-width:0.12481249;stroke-miterlimit:10"
     inkscape:connector-curvature="0"
     inkscape:transform-center-x="33.189271"
     inkscape:transform-center-y="-32.666818" /><path
     id="path3644"
     d="m 85.68204,21.89957 -0.358964,-6.488156 -1.039572,-0.07481 0.289538,6.48542 z"
     style="fill:none;stroke:#070707;stroke-width:0.12481249;stroke-miterlimit:10"
     inkscape:connector-curvature="0"
     inkscape:transform-center-x="32.414243"
     inkscape:transform-center-y="-32.602972" /><path
     id="path3600"
     d="M 84.412472,51.020736 83.462963,51.45396 76.300721,49.748591"
     style="fill:none;stroke:#070707;stroke-width:0.12481249;stroke-miterlimit:10"
     inkscape:connector-curvature="0"
     inkscape:transform-center-x="37.040419"
     inkscape:transform-center-y="-0.61978297" /><path
     id="path3596"
     d="m 76.348957,48.574683 -0.126367,-1.769039 7.212111,-7.582134 1.064663,-0.07384 0.101841,4.116172"
     style="fill:none;stroke:#070707;stroke-width:0.12481249;stroke-miterlimit:10"
     inkscape:connector-curvature="0"
     inkscape:transform-center-x="36.985118"
     inkscape:transform-center-y="-7.3588817" /><path
     id="path3598"
     d="m 83.434701,39.22351 0.02826,12.23045 0.227055,0.949574"
     style="fill:none;stroke:#070707;stroke-width:0.12481249;stroke-miterlimit:10"
     inkscape:connector-curvature="0"
     inkscape:transform-center-x="33.834656"
     inkscape:transform-center-y="-5.4075363" /><path
     id="path3646"
     d="m 84.191506,21.806334 -0.355155,-6.584179 -1.111621,-0.01371 -0.06255,6.599123 z"
     style="fill:none;stroke:#070707;stroke-width:0.12481249;stroke-miterlimit:10"
     inkscape:connector-curvature="0"
     inkscape:transform-center-x="33.970172"
     inkscape:transform-center-y="-32.713051" /><path
     id="path3682"
     d="m 81.560817,34.561482 -3.531218,-0.184251 -3.277659,4.412147 3.409998,-0.09507 z"
     style="fill:none;stroke:#070707;stroke-width:0.12481249;stroke-miterlimit:10"
     inkscape:connector-curvature="0"
     inkscape:transform-center-x="39.240637"
     inkscape:transform-center-y="-14.637753" /><path
     id="path3648"
     d="m 82.163236,22.107499 -0.172103,-0.03904 0.124861,-7.269531 0.172234,0.03917"
     style="fill:none;stroke:#070707;stroke-width:0.12481249;stroke-miterlimit:10"
     inkscape:connector-curvature="0"
     inkscape:transform-center-x="35.257335"
     inkscape:transform-center-y="-32.767843" /><path
     id="path3686"
     d="m 81.560817,34.561482 -0.124439,-0.201019 -3.482145,-0.299948 0.07536,0.316705"
     style="fill:none;stroke:#070707;stroke-width:0.12481249;stroke-miterlimit:10"
     inkscape:connector-curvature="0"
     inkscape:transform-center-x="37.63949"
     inkscape:transform-center-y="-16.910059" /><path
     id="path3684"
     d="m 78.042723,38.36604 -2.387643,-0.02462 2.671666,-3.658014 2.693702,0.110684 z"
     style="fill:none;stroke:#070707;stroke-width:0.12481249;stroke-miterlimit:10"
     inkscape:connector-curvature="0"
     inkscape:transform-center-x="39.059251"
     inkscape:transform-center-y="-14.696335" /><path
     id="path3688"
     d="m 77.954233,34.060515 -3.271364,4.255663 0.06907,0.473196"
     style="fill:none;stroke:#070707;stroke-width:0.12481249;stroke-miterlimit:10"
     inkscape:connector-curvature="0"
     inkscape:transform-center-x="41.078465"
     inkscape:transform-center-y="-14.796113" /><path
     id="path3592"
     d="m 74.342569,47.88465 2.142739,-4.243115 -10.044483,2.233027 z"
     style="fill:none;stroke:#070707;stroke-width:0.12481249;stroke-miterlimit:10"
     inkscape:connector-curvature="0"
     inkscape:transform-center-x="45.93395"
     inkscape:transform-center-y="-5.4579658" /><path
     id="path3608"
     d="M 75.546732,27.728411 75.504504,6.1490495"
     style="fill:none;stroke:#070707;stroke-width:0.12481249;stroke-miterlimit:10"
     inkscape:connector-curvature="0"
     inkscape:transform-center-x="41.871398"
     inkscape:transform-center-y="-34.282327" /><path
     id="path3662"
     d="m 68.291588,22.364153 0.400856,-0.06691 -0.04624,-10.178184 -0.421164,0.02186"
     style="fill:none;stroke:#070707;stroke-width:0.12481249;stroke-miterlimit:10"
     inkscape:connector-curvature="0"
     inkscape:transform-center-x="48.938273"
     inkscape:transform-center-y="-33.979451" /><path
     id="path3650"
     d="M 68.28797,22.452212 68.22504,12.140926 57.545582,12.603664 56.098255,21.990495 Z"
     style="fill:none;stroke:#070707;stroke-width:0.12481249;stroke-miterlimit:10"
     inkscape:connector-curvature="0"
     inkscape:transform-center-x="55.203903"
     inkscape:transform-center-y="-33.924488" /><path
     id="path3652"
     d="m 67.385537,21.807549 0.156806,-9.199861 -9.579821,0.613288 -1.221446,8.194466 2.825639,0.132639 0.737628,-8.262794 0.57403,0.02359 -0.690974,8.202854 3.532834,0.145164 0.219639,-8.574988 0.662401,0.02722 -0.219643,8.574988 z"
     style="fill:none;stroke:#070707;stroke-width:0.12481249;stroke-miterlimit:10"
     inkscape:connector-curvature="0"
     inkscape:transform-center-x="55.255307"
     inkscape:transform-center-y="-34.013438" /><path
     id="path3660"
     d="m 64.67857,13.406274 2.744254,-0.04399"
     style="fill:none;stroke:#070707;stroke-width:0.12481249;stroke-miterlimit:10"
     inkscape:connector-curvature="0"
     inkscape:transform-center-x="51.34632"
     inkscape:transform-center-y="-37.836777" /><path
     id="path3664"
     d="m 58.588384,35.549376 c -0.495916,-0.623138 -0.607153,-1.252228 -0.607153,-1.252228 l 0.432447,-8.370225 6.007296,0.207676 -0.230896,8.848865 c 0,0 -1.651761,2.5191 -4.526107,1.42112 -0.479176,-0.229703 -0.826116,-0.541697 -1.075584,-0.855213"
     style="fill:none;stroke:#070707;stroke-width:0.12481249;stroke-miterlimit:10"
     inkscape:connector-curvature="0"
     inkscape:transform-center-x="56.195915"
     inkscape:transform-center-y="-19.916742" /><path
     id="path3666"
     d="m 59.008003,35.071071 c -0.395991,-0.536012 -0.48359,-1.07817 -0.48359,-1.07817 l 0.367445,-7.217942 4.814495,0.164139 -0.207231,7.63021 c 0,0 -1.330188,2.176121 -3.631273,1.236577 C 59.484606,35.608933 59.207257,35.34072 59.008,35.07113"
     style="fill:none;stroke:#070707;stroke-width:0.12481249;stroke-miterlimit:10"
     inkscape:connector-curvature="0"
     inkscape:transform-center-x="56.281634"
     inkscape:transform-center-y="-19.81293" /><path
     id="path3668"
     d="m 63.512161,33.583678 -4.435332,-0.652605 0.03042,-0.336822 4.407638,0.519182"
     style="fill:none;stroke:#070707;stroke-width:0.12481249;stroke-miterlimit:10"
     inkscape:connector-curvature="0"
     inkscape:transform-center-x="56.101159"
     inkscape:transform-center-y="-18.132093" /><path
     id="path3670"
     d="m 63.607437,31.265202 -4.602968,-0.419254 0.02397,-0.37154 4.573709,0.343153"
     style="fill:none;stroke:#070707;stroke-width:0.12481249;stroke-miterlimit:10"
     inkscape:connector-curvature="0"
     inkscape:transform-center-x="56.091064"
     inkscape:transform-center-y="-20.351253" /><path
     id="path3672"
     d="m 63.62983,29.105419 -4.598232,-0.321228 0.03404,-0.42486 4.580466,0.349899"
     style="fill:none;stroke:#070707;stroke-width:0.12481249;stroke-miterlimit:10"
     inkscape:connector-curvature="0"
     inkscape:transform-center-x="56.058166"
     inkscape:transform-center-y="-22.488683" /><path
     id="path3658"
     d="M 60.956285,13.566934 63.970328,13.41633"
     style="fill:none;stroke:#070707;stroke-width:0.12481249;stroke-miterlimit:10"
     inkscape:connector-curvature="0"
     inkscape:transform-center-x="54.93371"
     inkscape:transform-center-y="-37.729425" /><path
     id="path3674"
     d="m 62.968027,35.119372 c 0,0 -2.308825,1.286808 -3.582331,-0.823334 l 0.08497,-1.260594"
     style="fill:none;stroke:#070707;stroke-width:0.12481249;stroke-miterlimit:10"
     inkscape:connector-curvature="0"
     inkscape:transform-center-x="56.220156"
     inkscape:transform-center-y="-16.94939" /><path
     id="path3630"
     d="m 50.746728,24.122416 8.742619,19.76147"
     style="fill:none;stroke:#070707;stroke-width:0.12481249;stroke-miterlimit:10"
     inkscape:connector-curvature="0"
     inkscape:transform-center-x="62.27898"
     inkscape:transform-center-y="-17.217907" /><path
     id="path3676"
     d="m 59.553784,32.627301 0.03561,-1.674187"
     style="fill:none;stroke:#070707;stroke-width:0.12481249;stroke-miterlimit:10"
     inkscape:connector-curvature="0"
     inkscape:transform-center-x="57.825428"
     inkscape:transform-center-y="-19.43085" /><path
     id="path3680"
     d="m 59.695516,28.370511 0.03079,-1.556787"
     style="fill:none;stroke:#070707;stroke-width:0.12481249;stroke-miterlimit:10"
     inkscape:connector-curvature="0"
     inkscape:transform-center-x="57.686106"
     inkscape:transform-center-y="-23.62894" /><path
     id="path3678"
     d="m 59.575577,30.482194 0.06753,-1.643479"
     style="fill:none;stroke:#070707;stroke-width:0.12481249;stroke-miterlimit:10"
     inkscape:connector-curvature="0"
     inkscape:transform-center-x="57.787675"
     inkscape:transform-center-y="-21.560603" /><path
     id="path3656"
     d="m 58.653456,13.62906 1.594581,-0.05207"
     style="fill:none;stroke:#070707;stroke-width:0.12481249;stroke-miterlimit:10"
     inkscape:connector-curvature="0"
     inkscape:transform-center-x="57.946271"
     inkscape:transform-center-y="-37.618032" /><path
     id="path3654"
     d="M 57.672705,21.349649 58.653456,13.62906 57.962522,13.220976"
     style="fill:none;stroke:#070707;stroke-width:0.12481249;stroke-miterlimit:10"
     inkscape:connector-curvature="0"
     inkscape:transform-center-x="59.233937"
     inkscape:transform-center-y="-33.935744" /><path
     id="path3628"
     d="m 47.184252,23.623267 3.562476,0.499149 2.46489,-14.7737616"
     style="fill:none;stroke:#070707;stroke-width:0.12481249;stroke-miterlimit:10"
     inkscape:connector-curvature="0"
     inkscape:transform-center-x="67.199083"
     inkscape:transform-center-y="-34.485522" /><path
     id="path3614"
     d="m 52.871897,11.157333 -8.929182,0.926582"
     style="fill:none;stroke:#070707;stroke-width:0.12481249;stroke-miterlimit:10"
     inkscape:connector-curvature="0"
     inkscape:transform-center-x="68.989713"
     inkscape:transform-center-y="-39.600433" /><path
     id="path3618"
     d="m 51.137093,21.081136 -8.783453,0.07029 -0.201088,1.128352 8.789354,0.322001 z"
     style="fill:none;stroke:#070707;stroke-width:0.12481249;stroke-miterlimit:10"
     inkscape:connector-curvature="0"
     inkscape:transform-center-x="70.752196"
     inkscape:transform-center-y="-29.379601" /><path
     id="path3588"
     d="m 40.913188,22.836433 9.996567,0.547985"
     style="fill:none;stroke:#070707;stroke-width:0.12481249;stroke-miterlimit:10"
     inkscape:connector-curvature="0"
     inkscape:transform-center-x="71.485547"
     inkscape:transform-center-y="-28.110632" /><path
     id="path3584"
     d="m 41.928492,22.349009 9.010204,0.331076"
     style="fill:none;stroke:#070707;stroke-width:0.12481249;stroke-miterlimit:10"
     inkscape:connector-curvature="0"
     inkscape:transform-center-x="70.963425"
     inkscape:transform-center-y="-28.70651" /><path
     id="path3616"
     d="m 42.579328,12.968608 -0.435117,-0.174627 -1.195529,0.02919"
     style="fill:none;stroke:#070707;stroke-width:0.12481249;stroke-miterlimit:10"
     inkscape:connector-curvature="0"
     inkscape:transform-center-x="75.633014"
     inkscape:transform-center-y="-38.339762" /><path
     id="path3586"
     d="m 37.408426,24.162294 4.434848,0.260654 -0.372519,-0.62289"
     style="fill:none;stroke:#070707;stroke-width:0.12481249;stroke-miterlimit:10"
     inkscape:connector-curvature="0"
     inkscape:transform-center-x="77.77117"
     inkscape:transform-center-y="-27.109554" /><path
     id="path3624"
     d="M 40.01429,23.720578 42.298782,11.722391"
     style="fill:none;stroke:#070707;stroke-width:0.12481249;stroke-miterlimit:10"
     inkscape:connector-curvature="0"
     inkscape:transform-center-x="76.240483"
     inkscape:transform-center-y="-33.499572" /><path
     id="path3622"
     d="m 40.744918,23.162651 -0.709728,0.04927 -1.012509,-0.12004"
     style="fill:none;stroke:#070707;stroke-width:0.12481249;stroke-miterlimit:10"
     inkscape:connector-curvature="0"
     inkscape:transform-center-x="77.51322"
     inkscape:transform-center-y="-28.069156" /><path
     id="path3620"
     d="m 40.60964,23.764676 -1.793302,0.0439"
     style="fill:none;stroke:#070707;stroke-width:0.12481249;stroke-miterlimit:10"
     inkscape:connector-curvature="0"
     inkscape:transform-center-x="77.68403"
     inkscape:transform-center-y="-27.434431" /><g
     sodipodi:type="inkscape:box3d"
     id="g8123"
     style="opacity:0.575;fill:#9c0000;fill-opacity:1;fill-rule:evenodd;stroke:#000000;stroke-opacity:1"
     inkscape:perspectiveID="#perspective8121"
     inkscape:corner0="-0.10597074 : 0.027692398 : 0 : 1"
     inkscape:corner7="-0.32756774 : -0.004142905 : 0.25 : 1"><path
       sodipodi:type="inkscape:box3dside"
       id="path8133"
       style="fill:#afafde;fill-rule:evenodd;stroke:none;stroke-width:1px;stroke-linecap:butt;stroke-linejoin:round;stroke-opacity:1"
       inkscape:box3dsidetype="13"
       d="m 117.03835,50.371898 38.56946,5.620631 14.54405,-6.145801 -32.95819,-3.201944 z"
       points="155.60781,55.992529 170.15186,49.846728 137.19367,46.644784 117.03835,50.371898 " /><path
       sodipodi:type="inkscape:box3dside"
       id="path8125"
       style="fill:#353564;fill-rule:evenodd;stroke:none;stroke-width:1px;stroke-linecap:butt;stroke-linejoin:round;stroke-opacity:1"
       inkscape:box3dsidetype="6"
       d="m 117.03835,14.763102 0,35.608796 20.15532,-3.727114 0,-27.827352 z"
       points="117.03835,50.371898 137.19367,46.644784 137.19367,18.817432 117.03835,14.763102 " /><path
       sodipodi:type="inkscape:box3dside"
       id="path8135"
       style="fill:#e9e9ff;fill-rule:evenodd;stroke:none;stroke-width:1px;stroke-linecap:butt;stroke-linejoin:round;stroke-opacity:1"
       inkscape:box3dsidetype="11"
       d="m 137.19367,18.817432 32.95819,-3.483054 0,34.51235 -32.95819,-3.201944 z"
       points="170.15186,15.334378 170.15186,49.846728 137.19367,46.644784 137.19367,18.817432 " /><path
       sodipodi:type="inkscape:box3dside"
       id="path8127"
       style="fill:#4d4d9f;fill-rule:evenodd;stroke:none;stroke-width:1px;stroke-linecap:butt;stroke-linejoin:round;stroke-opacity:1"
       inkscape:box3dsidetype="5"
       d="m 117.03835,14.763102 38.56946,-6.1140865 14.54405,6.6853625 -32.95819,3.483054 z"
       points="155.60781,8.6490155 170.15186,15.334378 137.19367,18.817432 117.03835,14.763102 " /><path
       sodipodi:type="inkscape:box3dside"
       id="path8131"
       style="fill:#d7d7ff;fill-rule:evenodd;stroke:none;stroke-width:1px;stroke-linecap:butt;stroke-linejoin:round;stroke-opacity:1"
       inkscape:box3dsidetype="14"
       d="m 155.60781,8.6490155 0,47.3435135 14.54405,-6.145801 0,-34.51235 z"
       points="155.60781,55.992529 170.15186,49.846728 170.15186,15.334378 155.60781,8.6490155 " /><path
       sodipodi:type="inkscape:box3dside"
       id="path8129"
       style="fill:#8686bf;fill-rule:evenodd;stroke:none;stroke-width:1px;stroke-linecap:butt;stroke-linejoin:round;stroke-opacity:1"
       inkscape:box3dsidetype="3"
       d="m 117.03835,14.763102 38.56946,-6.1140865 0,47.3435135 -38.56946,-5.620631 z"
       points="155.60781,8.6490155 155.60781,55.992529 117.03835,50.371898 117.03835,14.763102 " /></g></svg>



