<?xml version="1.0" encoding="UTF-8" standalone="no"?>
<svg
   xmlns:dc="http://purl.org/dc/elements/1.1/"
   xmlns:cc="http://creativecommons.org/ns#"
   xmlns:rdf="http://www.w3.org/1999/02/22-rdf-syntax-ns#"
   xmlns:svg="http://www.w3.org/2000/svg"
   xmlns="http://www.w3.org/2000/svg"
   xmlns:sodipodi="http://sodipodi.sourceforge.net/DTD/sodipodi-0.dtd"
   xmlns:inkscape="http://www.inkscape.org/namespaces/inkscape"
   width="100mm"
   height="100mm"
   id="svg2"
   version="1.1"
   inkscape:version="0.92.4 (5da689c313, 2019-01-14)"
   sodipodi:docname="@knob1.svg">
  <metadata
     id="metadata16">
    <rdf:RDF>
      <cc:Work
         rdf:about="">
        <dc:format>image/svg+xml</dc:format>
        <dc:type
           rdf:resource="http://purl.org/dc/dcmitype/StillImage" />
      </cc:Work>
    </rdf:RDF>
  </metadata>
  <defs
     id="defs14" />
  <sodipodi:namedview
     pagecolor="#ffffff"
     bordercolor="#666666"
     borderopacity="1"
     objecttolerance="10"
     gridtolerance="10"
     guidetolerance="10"
     inkscape:pageopacity="0"
     inkscape:pageshadow="2"
     inkscape:window-width="1600"
     inkscape:window-height="847"
     id="namedview12"
     showgrid="false"
     inkscape:zoom="1.8212153"
     inkscape:cx="167.55638"
     inkscape:cy="177.16535"
     inkscape:window-x="5112"
     inkscape:window-y="280"
     inkscape:window-maximized="1"
     inkscape:current-layer="svg2" />
  <title
     id="title4">CncControl SerialEmulatorSVG output</title>
  <desc
     id="desc6">....</desc>
  <path
     d="m 260.22449,144.53404 m 0,0 a 15.607421,15.607421 0 1 1 -6.09,30.615 m 0,0 a 15.6071,15.6071 0 1 0 -17.341,25.954 m 0,0 a 15.6071,15.6071 0 1 1 -25.954,17.341 m 0,0 a 15.607421,15.607421 0 1 0 -30.615,6.09 m 0,0 a 15.607421,15.607421 0 1 1 -30.615,-6.09 m 0,0 a 15.6071,15.6071 0 1 0 -25.954,-17.341 m 0,0 a 15.6071,15.6071 0 1 1 -17.34099,-25.954 m 0,0 a 15.607421,15.607421 0 1 0 -6.09,-30.615 m 0,0 a 15.607421,15.607421 0 1 1 6.09,-30.615 m 0,0 a 15.6071,15.6071 0 1 0 17.34099,-25.953999 m 0,0 a 15.6071,15.6071 0 1 1 25.954,-17.340999 m 0,0 a 15.607421,15.607421 0 1 0 30.615,-6.09 m 0,0 a 15.607421,15.607421 0 1 1 30.615,6.09 m 0,0 a 15.6071,15.6071 0 1 0 25.954,17.340999 m 0,0 a 15.6071,15.6071 0 1 1 17.341,25.953999 m 0,0 a 15.607421,15.607421 0 1 0 6.09,30.615"
     id="path7"
     inkscape:connector-curvature="0"
     style="fill:none;stroke:#000000;stroke-width:1" />
</svg>
