<?xml version="1.0" encoding="UTF-8" standalone="no"?>
<svg
   xmlns:dc="http://purl.org/dc/elements/1.1/"
   xmlns:cc="http://creativecommons.org/ns#"
   xmlns:rdf="http://www.w3.org/1999/02/22-rdf-syntax-ns#"
   xmlns:svg="http://www.w3.org/2000/svg"
   xmlns="http://www.w3.org/2000/svg"
   xmlns:sodipodi="http://sodipodi.sourceforge.net/DTD/sodipodi-0.dtd"
   xmlns:inkscape="http://www.inkscape.org/namespaces/inkscape"
   width="100mm"
   height="100mm"
   id="svg2"
   version="1.1"
   inkscape:version="0.91 r13725"
   sodipodi:docname="@knob1.svg">
  <metadata
     id="metadata16">
    <rdf:RDF>
      <cc:Work
         rdf:about="">
        <dc:format>image/svg+xml</dc:format>
        <dc:type
           rdf:resource="http://purl.org/dc/dcmitype/StillImage" />
      </cc:Work>
    </rdf:RDF>
  </metadata>
  <defs
     id="defs14" />
  <sodipodi:namedview
     pagecolor="#ffffff"
     bordercolor="#666666"
     borderopacity="1"
     objecttolerance="10"
     gridtolerance="10"
     guidetolerance="10"
     inkscape:pageopacity="0"
     inkscape:pageshadow="2"
     inkscape:window-width="1600"
     inkscape:window-height="837"
     id="namedview12"
     showgrid="false"
     inkscape:zoom="0.66604444"
     inkscape:cx="177.16535"
     inkscape:cy="177.16535"
     inkscape:window-x="-8"
     inkscape:window-y="-8"
     inkscape:window-maximized="1"
     inkscape:current-layer="svg2" />
  <title
     id="title4">CncControl SerialEmulatorSVG output</title>
  <desc
     id="desc6">....</desc>
    <path
	d="M 185 105 M 185 105 A15.6074 15.6074 0 1 1 178.91 135.615 M 178.91 135.615 A15.6071 15.6071 0 1 0 161.569 161.569 M 161.569 161.569 A15.6071 15.6071 0 1 1 135.615 178.91 M 135.615 178.91 A15.6074 15.6074 0 1 0 105 185 M 105 185 A15.6074 15.6074 0 1 1 74.385 178.91 M 74.385 178.91 A15.6071 15.6071 0 1 0 48.431 161.569 M 48.431 161.569 A15.6071 15.6071 0 1 1 31.09 135.615 M 31.09 135.615 A15.6074 15.6074 0 1 0 25 105 M 25 105 A15.6074 15.6074 0 1 1 31.09 74.385 M 31.09 74.385 A15.6071 15.6071 0 1 0 48.431 48.431 M 48.431 48.431 A15.6071 15.6071 0 1 1 74.385 31.09 M 74.385 31.09 A15.6074 15.6074 0 1 0 105 25 M 105 25 A15.6074 15.6074 0 1 1 135.615 31.09 M 135.615 31.09 A15.6071 15.6071 0 1 0 161.569 48.431 M 161.569 48.431 A15.6071 15.6071 0 1 1 178.91 74.385 M 178.91 74.385 A15.6074 15.6074 0 1 0 185 105 "  stroke="black" fill="none" stroke-width="1.0"/>
</svg>








