<?xml version="1.0" encoding="UTF-8" standalone="no"?>
<svg
   xmlns:dc="http://purl.org/dc/elements/1.1/"
   xmlns:cc="http://creativecommons.org/ns#"
   xmlns:rdf="http://www.w3.org/1999/02/22-rdf-syntax-ns#"
   xmlns:svg="http://www.w3.org/2000/svg"
   xmlns="http://www.w3.org/2000/svg"
   xmlns:sodipodi="http://sodipodi.sourceforge.net/DTD/sodipodi-0.dtd"
   xmlns:inkscape="http://www.inkscape.org/namespaces/inkscape"
   version="1.1"
   id="Ebene_1"
   x="0px"
   y="0px"
   width="137.131794mm"
   height="139.977577mm"
   viewBox="0 0 131.56935 141.65283"
   enable-background="new 0 0 2551.18 1700.79"
   xml:space="preserve"
   inkscape:version="0.91 r13725"
   sodipodi:docname="@Perd.svg"><sodipodi:namedview
     pagecolor="#ffffff"
     bordercolor="#666666"
     borderopacity="1"
     objecttolerance="10"
     gridtolerance="10"
     guidetolerance="10"
     inkscape:pageopacity="0"
     inkscape:pageshadow="2"
     inkscape:window-width="1600"
     inkscape:window-height="837"
     id="namedview59"
     showgrid="false"
     fit-margin-top="0"
     fit-margin-left="0"
     fit-margin-right="0"
     fit-margin-bottom="0"
     inkscape:zoom="4.4634888"
     inkscape:cx="65.632433"
     inkscape:cy="71.182077"
     inkscape:window-x="-8"
     inkscape:window-y="-8"
     inkscape:window-maximized="1"
     inkscape:current-layer="Ebene_1"
     inkscape:document-units="mm"
     units="mm" /><metadata
     id="metadata63"><rdf:RDF><cc:Work
         rdf:about=""><dc:format>image/svg+xml</dc:format><dc:type
           rdf:resource="http://purl.org/dc/dcmitype/StillImage" /><dc:title></dc:title></cc:Work></rdf:RDF></metadata><defs
     id="defs61" /><g
     transform="translate(-0.40395889,-0.9980014)"
     id="g7513"><path
       inkscape:connector-curvature="0"
       id="path7751"
       d="m 19.138785,95.084613 c -0.0086,-0.02825 -0.0086,-0.02825 0,0 z" /><path
       inkscape:connector-curvature="0"
       id="path7749"
       d="m 8.5765484,67.792395 c -6.4697618,0.980316 2.8348786,10.85043 2.8949046,3.116073 3.460156,-4.026319 -6.3851202,-8.453439 -0.818488,-3.663581 0.557582,2.414733 -3.1871431,4.267929 -2.0764165,0.547293" /><path
       inkscape:connector-curvature="0"
       id="path7747"
       d="m 39.351686,38.071301 c -0.0217,0.03729 -0.0217,0.03729 0,0 z" /><path
       inkscape:connector-curvature="0"
       id="path7745"
       d="m 131.54243,106.52049 c -0.008,-0.0647 -0.008,-0.0647 0,0 z" /><path
       inkscape:connector-curvature="0"
       id="path7743"
       d="m 45.561763,79.441845 c -1.885373,-6.077211 -14.01923,6.737724 -5.404649,0.987458 1.628355,-0.894037 3.557478,-1.376601 5.404649,-0.987458 z" /><path
       inkscape:connector-curvature="0"
       id="path7741"
       d="m 22.45211,100.78137 c -0.01011,-10e-4 -0.01011,-10e-4 0,0 z" /><path
       inkscape:connector-curvature="0"
       id="path7739"
       d="m 68.971082,85.713183 c -4.649539,6.813254 -12.736195,10.034703 -18.127839,16.178947 -2.163613,2.12247 -7.718403,8.19608 -7.628419,8.44802 8.258394,-7.59304 17.185403,-14.464344 25.509748,-21.945183 2.565121,-2.707847 7.23658,-12.287236 1.946101,-4.844261 -0.567128,0.720357 -1.132481,1.442107 -1.699591,2.162477 z" /><path
       inkscape:connector-curvature="0"
       id="path7737"
       d="m 42.525166,111.03756 -0.170521,0.0915 0.170519,-0.0915 2e-6,0 z" /><path
       inkscape:connector-curvature="0"
       id="path7735"
       d="m 63.476502,33.091516 c 3.746099,6.791302 8.636884,13.211838 9.816376,21.072073 1.335901,2.731501 3.437781,14.453196 2.76403,5.946288 0.143004,-5.443932 2.418048,5.705668 2.79453,7.514583 1.658837,8.845236 1.634091,17.940612 0.5652,26.855046 5.313421,-17.399164 0.870018,-36.604364 -8.10672,-51.9953 -2.203158,-3.442347 -4.819218,-6.628442 -7.833269,-9.39269" /><path
       inkscape:connector-curvature="0"
       id="path7733"
       d="m 124.06859,142.20444 c -0.76354,1.59409 1.36424,-1.72833 -3e-5,0" /><path
       inkscape:connector-curvature="0"
       id="path7731"
       d="m 51.466255,34.98902 c 4.894979,-0.253248 -2.956858,-2.875398 0,0 z" /><path
       inkscape:connector-curvature="0"
       id="path7729"
       d="M 58.424384,23.124314 C 63.006182,19.957203 67.533218,8.9488855 63.268153,6.8910832 58.761613,11.157005 52.737357,18.910671 58.325261,24.556544 l 0.1379,-0.421075 -0.03878,-1.011155 0,0 z" /><path
       inkscape:connector-curvature="0"
       id="path7727"
       d="m 60.859433,15.649549 c -1.54733,1.368941 1.143313,-2.046978 0,0 z" /><path
       inkscape:connector-curvature="0"
       id="path7725"
       d="m 62.686269,9.3688813 c 2.185941,4.1255097 -5.630187,6.2500927 -0.950586,1.4793987 0.317784,-0.492537 0.63365,-0.9863374 0.950586,-1.4793987 z" /><path
       inkscape:connector-curvature="0"
       id="path7723"
       d="m 52.862467,48.242747 c 2.487363,-1.0597 -2.700388,-1.752712 0.87162,-2.889904 -4.649978,1.644333 -11.458521,8.307167 -12.668979,10.19371 3.694395,-3.842037 8.236516,-4.029641 11.797359,-7.303806 z" /><path
       inkscape:connector-curvature="0"
       id="path7721"
       d="m 47.726006,51.70724 c -0.02738,0.0088 -0.02738,0.0088 0,0 z" /><path
       inkscape:connector-curvature="0"
       id="path7719"
       d="m 58.425123,24.620114 c -0.05697,-0.0099 -0.05697,-0.0099 0,0 z" /><path
       inkscape:connector-curvature="0"
       id="path7717"
       d="m 122.55768,110.66127 c 0.008,0.0161 0.008,0.0161 0,0 z" /><path
       inkscape:connector-curvature="0"
       id="path7715"
       d="m 30.585955,48.251222 c -2.007086,4.264119 13.147469,-7.810583 4.560918,-3.464706 -1.606236,0.994594 -3.417772,1.913648 -4.560918,3.464706 z" /><path
       inkscape:connector-curvature="0"
       id="path7713"
       d="m 31.38136,92.004021 c 4.369488,-1.740321 -0.06831,-5.329888 0,0 z" /><path
       inkscape:connector-curvature="0"
       id="path7711"
       d="m 127.01345,108.4841 c 2.25436,-8.783766 -5.72587,-17.228018 -14.1104,-18.387384 -3.808,-1.838977 -6.59438,-14.980812 -0.21691,-7.644494 4.34181,2.060453 8.82079,10.181698 12.49623,6.601714 3.65417,5.422474 4.58796,9.512812 6.17847,15.010544 1.07909,3.91164 -1.20908,-5.776337 -0.58263,-7.430504 2.6563,-8.045472 0.71442,-15.852524 -4.1408,-22.52273 C 125.47435,66.816667 124.75869,59.93351 121.65222,52.876067 118.91816,45.585033 111.51921,41.310022 108.74817,33.894516 104.95055,27.847479 100.30112,22.060049 95.431729,16.813078 89.137044,13.330936 80.930497,10.447362 73.865792,12.538502 71.650911,13.881446 65.352341,15.438736 68.537166,10.812669 64.057024,11.288729 67.986173,-4.5676912 62.596084,3.0916036 57.870552,7.0608336 54.081093,15.26906 51.897275,18.474564 45.061178,15.312337 40.719905,6.267437 32.1256,7.5281408 c 5.653243,1.6979557 12.511869,7.0271482 17.248819,11.9720382 -6.255477,1.891025 -15.389567,-8.949769 -23.932723,-5.7004 -8.363331,1.631715 -9.716453,11.042782 -5.460932,17.219909 3.034683,3.522239 -3.634882,8.346296 -3.14351,7.227828 2.057768,-2.626012 7.038016,-0.486536 6.206128,-0.411571 1.453827,-5.11722 8.271151,-8.653781 7.141507,-14.136945 3.650988,-2.420923 16.916045,4.267321 7.768151,3.907711 -7.811929,0.720862 -6.306291,11.00921 -14.16353,12.108666 -4.687822,0.358089 -7.943232,10.747782 -4.69078,10.890115 -1.077121,-9.052054 8.897481,-10.49248 13.397421,-15.532653 -0.123374,-5.183067 12.786613,-9.687256 7.797132,-2.619574 C 34.089507,41.212897 24.641831,46.93542 17.469903,54.843877 14.668188,61.195856 5.1576419,58.606904 3.6338567,65.743505 -1.7804634,71.77306 0.71788548,80.401109 3.1618386,87.766421 6.5235352,94.87007 13.454829,88.615556 16.881172,85.728304 c 5.497888,0.536 5.354041,7.95453 2.65382,10.132353 1.695745,5.441803 7.2765,5.374333 10.514002,2.856034 9.450813,1.755219 3.390005,-12.038051 10.209536,-12.543829 5.948192,1.134412 11.758557,4.540586 17.87138,2.109482 -6.584668,5.913413 -13.77397,11.412886 -19.153856,18.594086 -4.332465,6.42112 -10.717304,13.29925 -11.317229,20.97158 3.557462,-4.05152 5.482404,-10.04921 8.974567,-14.52582 5.774149,-9.35053 14.846158,-15.771215 22.463176,-23.437835 4.970646,-5.890641 10.734182,-11.189577 15.78295,-16.91178 1.695778,-2.228818 1.11871,-11.849244 -0.740972,-4.621622 C 72.523883,76.867756 62.718721,80.206671 55.209649,81.261228 47.055053,80.009979 47.562063,69.605711 41.71757,65.590953 39.451044,62.794896 30.865882,62.862117 31.619663,65.512724 c 6.47983,-1.42954 12.375061,1.657291 14.038437,8.313832 3.343338,4.792963 2.005878,10.849336 -4.675885,10.430701 -6.794985,0.294047 -6.317358,6.597781 -6.881879,11.037469 -2.058236,2.496797 -5.811754,-0.171068 -2.718194,-2.29412 -1.338305,2.28233 -9.52563,8.818234 -6.939433,2.514067 C 31.052741,90.156767 31.682829,78.01597 21.768201,76.204822 13.230217,75.254596 10.976119,86.030554 5.2803064,88.60003 2.6157804,83.432422 2.3495959,75.996237 2.3174234,69.930296 6.5659263,67.425915 7.5157599,59.84231 13.993925,61.053289 c 2.853556,-0.76028 12.737745,-6.0241 4.677072,-3.226207 -6.104314,1.220735 5.266388,-6.870764 7.119289,-9.121629 4.520402,-4.048936 9.104457,-8.034143 13.407577,-12.317295 2.590323,-1.145215 4.182847,-10.775453 10.737472,-7.875415 4.810005,-0.290378 -1.951242,-1.807245 1.879054,-3.880654 2.572898,-5.764643 3.930498,4.386636 3.239838,-1.802824 -0.675123,-7.531742 3.672191,-15.3889893 9.475636,-19.0608985 3.054644,7.8099385 -2.142887,14.8478395 -4.276338,22.0475135 9.081504,5.345701 17.827099,11.607248 25.066281,19.275658 10.896407,12.734808 20.104054,27.438254 23.343114,44.099009 3.17346,11.201453 4.29661,22.831603 6.78585,34.180353 -0.62146,2.62619 0.59922,14.25944 0.72046,5.97168 0.93015,-4.71996 7.70142,12.00859 5.59816,4.41192 -2.16871,-4.40715 -7.6312,-10.14228 -4.83622,-14.95009 3.51569,3.95106 6.53339,14.03078 6.88267,15.66962 -0.7007,-5.66227 5.11553,-5.09104 3.54865,0.30006 -0.4713,2.88017 -2.4612,7.69324 0.10961,2.15026 -1.32358,-6.8036 4.84208,-11.42786 4.38965,-17.82029 -0.23108,-3.96595 -1.84063,-7.95094 -4.8484,-10.62015" /><path
       inkscape:connector-curvature="0"
       id="path7709"
       d="m 46.953482,75.752858 c 2.833229,5.864498 10.187668,8.30441 15.570267,6.367636 0.268953,4.464465 -9.459128,6.186542 -4.952462,1.602059 -5.111312,0.690215 -11.310075,-1.836565 -10.617805,-7.969695 z" /><path
       inkscape:connector-curvature="0"
       id="path7707"
       d="m 27.900815,88.118332 c 0.0035,3.137155 -7.923217,11.018686 -6.480121,4.869049 1.942012,-1.867513 3.973656,-3.788102 6.480121,-4.869049 z" /><path
       inkscape:connector-curvature="0"
       id="path7705"
       d="m 26.156844,80.346108 c 2.896359,0.90349 -3.729169,-0.201031 0,0 z" /><path
       inkscape:connector-curvature="0"
       id="path7703"
       d="m 28.160524,82.137674 c 1.195778,2.798189 -7.322178,-1.745361 0,-2.05e-4" /><path
       inkscape:connector-curvature="0"
       id="path7701"
       d="m 20.414391,77.457839 c 4.722686,-0.511792 -2.948986,1.377456 0,0 z" /><path
       inkscape:connector-curvature="0"
       id="path7699"
       d="m 10.409309,85.632616 c 0.68763,-3.618403 10.864114,-9.084963 5.56868,-2.140244 -1.252313,1.456848 -8.2544388,10.13203 -5.56868,2.140244 z" /><path
       inkscape:connector-curvature="0"
       id="path7697"
       d="M 51.115537,22.528536 C 46.338218,30.967615 37.661383,20.323493 30.722954,22.169003 25.604642,23.392132 27.604029,37.50829 21.536815,32.66212 18.66415,26.199054 18.499153,14.797084 28.062811,14.788769 c 8.228878,-0.04221 14.227474,8.621086 22.785566,6.843841 1.401058,-0.745032 0.783567,0.836456 0.267134,0.895926" /><path
       inkscape:connector-curvature="0"
       id="path7695"
       d="m 122.83661,89.581084 c -1.29774,-5.086899 -11.20467,-8.889851 -11.0118,-11.523737 4.61039,1.308224 13.44944,5.531781 11.0118,11.523737 z" /><path
       inkscape:connector-curvature="0"
       id="path7693"
       d="m 127.44477,79.113865 c 4.37261,2.063801 5.98107,15.358063 1.26134,13.94473 -2.97241,-4.167764 -2.45089,-9.265751 -1.26134,-13.94473 z" /><path
       inkscape:connector-curvature="0"
       id="path7691"
       d="m 125.87912,77.220597 c 2.92681,4.931364 -1.76406,12.048725 -4.87032,4.113981 -3.46932,-2.705341 -16.62784,-6.700273 -6.10805,-8.874803 3.38908,-1.553238 7.34548,3.696491 6.59148,3.18334 1.60592,-1.325 3.25166,0.541264 4.38689,1.577482 z" /><path
       inkscape:connector-curvature="0"
       id="path7689"
       d="m 121.26503,71.839108 c 0.78623,-3.447845 3.22148,3.572837 0,0 z" /><path
       inkscape:connector-curvature="0"
       id="path7687"
       d="m 122.65531,65.06266 c 1.80367,-8.248051 4.70841,11.473903 -0.0851,2.889907 l -0.14379,-1.449043 0.22889,-1.440864 z" /><path
       inkscape:connector-curvature="0"
       id="path7685"
       d="m 98.637836,59.188784 c 7.302944,3.41945 -11.133882,-12.040314 -1.923846,-5.608294 2.834686,2.822066 11.016,6.760143 12.44575,5.266417 -5.56412,-2.335381 -16.213061,-10.360045 -16.858495,-11.817104 1.800758,1.234717 13.242735,4.63764 6.640285,1.226682 -5.174142,-2.512244 -13.687649,-8.031898 -16.388217,-9.410215 3.912548,1.418634 8.867773,4.043299 12.822519,2.07733 -2.439734,0.780989 -12.252239,-3.208841 -9.398357,-3.52227 8.59,0.848866 -4.840107,-1.919168 -6.80285,-3.626762 -3.176121,-1.809617 -11.373412,-5.212457 -10.979504,-6.79188 5.861693,-1.092393 -8.254709,-1.011379 -1.496963,-2.008227 5.865957,-0.885653 0.170032,-2.054165 -2.163302,-1.694986 2.158209,-1.747132 10.69817,-6.338691 2.880197,-4.591836 -0.409584,-2.929685 10.166015,-6.576814 9.654447,-3.511315 -3.549944,0.980519 -3.790174,4.08483 -0.267269,0.547686 3.763329,-5.036961 12.212188,3.82008 12.787378,1.191132 -0.04793,-3.305437 10.912931,5.328786 8.563341,5.600629 -5.8465,-2.798866 -12.950887,-5.510329 -19.356964,-3.329476 3.742617,1.550624 13.324459,1.896264 18.353782,5.60533 5.808582,2.530054 14.083882,11.247709 13.627872,14.920707 -3.8848,-2.172867 -14.56127,-6.243728 -15.848359,-4.596978 9.202349,2.843182 17.972469,7.600241 24.676309,14.599382 1.66157,1.93962 3.8472,9.983329 -0.468,4.748877 -1.60784,-2.969921 -14.02257,-5.974206 -6.79067,-1.084096 3.88988,2.591223 13.50786,7.326655 8.67261,12.822846 -1.73892,-2.568376 -13.14195,-8.00952 -6.60031,-2.493826 4.66805,2.113151 9.37994,9.629194 0.75292,7.124576 -5.56464,-1.388883 -8.66553,9.415015 -10.0272,0.871928 -1.91328,-4.297952 -4.03454,-8.510637 -6.507084,-12.516252" /><path
       inkscape:connector-curvature="0"
       id="path7683"
       d="m 113.87559,100.84578 c -1.16049,-2.892715 -2.93797,-11.778927 2.0839,-5.773319 3.69292,1.8264 8.00465,8.425779 9.80553,8.967829 -0.65896,-3.24416 -6.44726,-9.200973 -6.20522,-8.901482 3.31024,2.143694 9.14614,9.552402 5.77941,11.571002 -3.38715,-2.60665 -6.84502,-6.07866 -11.46362,-5.86404 z" /><path
       inkscape:connector-curvature="0"
       id="path7681"
       d="m 124.06565,130.64398 c -0.0961,-4.79011 -5.94603,-12.67458 -6.45748,-14.10627 2.63135,3.49918 11.43645,9.59703 6.45748,14.10627 z" /><path
       inkscape:connector-curvature="0"
       id="path7679"
       d="m 127.28574,128.1507 c -0.0198,-8.15625 -12.96237,-12.31509 -11.17365,-19.59278 2.9534,0.57508 7.5403,9.00757 8.30261,6.7414 -0.88471,-3.95348 -10.50042,-10.1715 -8.50452,-10.34518 2.007,1.5102 8.90396,8.05247 4.06563,2.40595 -2.2071,-1.39538 -6.99722,-6.63084 -1.26593,-3.6612 4.78231,3.7093 9.31549,8.46558 11.51186,14.13866 1.11441,3.53879 1.28177,8.76645 -2.93595,10.31321" /><path
       inkscape:connector-curvature="0"
       id="path7677"
       d="m 51.11924,35.285639 c -4.542585,-3.399086 -10.764907,5.784297 -3.338447,3.921485 1.618917,-0.724963 2.862965,-2.219111 3.338447,-3.921485 z" /><path
       inkscape:connector-curvature="0"
       id="path7675"
       d="m 47.290196,37.180599 c -2.538012,-3.182813 3.78342,-0.131276 0,0 z" /><path
       inkscape:connector-curvature="0"
       id="path7673"
       d="m 50.59612,32.796593 c -5.693684,-4.483754 -11.903793,6.570503 -7.981444,7.204936 -0.418357,-5.290856 4.679882,-7.394662 7.981444,-7.204936 z" /><path
       inkscape:connector-curvature="0"
       id="path7671"
       d="m 47.98941,43.559578 c 4.23275,-1.224916 5.076356,-11.170346 1.807116,-3.218251 -1.609133,3.24536 -9.298239,0.287701 -3.027162,3.304304 l 1.220046,-0.08605 0,0 z" /><path
       inkscape:connector-curvature="0"
       id="path7669"
       d="m 54.796598,119.20641 c -9.255432,3.07433 -17.928095,8.44999 -24.561401,15.57607 -1.713123,2.1788 -7.440039,10.67773 -2.245648,4.52899 7.966838,-8.37614 17.936114,-15.23638 28.888605,-18.90852 3.741908,-0.77988 -1.275641,-1.47369 -2.081556,-1.19654 z" /><path
       inkscape:connector-curvature="0"
       id="path7667"
       d="m 32.247056,76.356168 c -2.341167,-4.727571 -5.202908,-1.065943 -1.028085,1.136072 2.643751,4.873183 4.066274,4.855796 1.028085,-1.136072 z" /><path
       inkscape:connector-curvature="0"
       id="path7665"
       d="m 60.598244,15.449544 c -0.652645,1.720898 1.488078,-1.55252 0,0 z" /><path
       inkscape:connector-curvature="0"
       id="path7663"
       d="m 60.687038,14.054593 c 4.129356,-1.999539 1.015932,-6.3283951 -0.442163,-1.004745 -0.534479,0.1701 -0.877842,2.273183 0.442163,1.004745 z" /><path
       inkscape:connector-curvature="0"
       id="path7661"
       d="m 47.639436,35.487339 c -2.909388,1.594698 2.597645,2.38679 0,0 z" /><path
       inkscape:connector-curvature="0"
       id="path57"
       d="m 26.856061,86.922542 c 1.872368,1.170826 0.159008,-2.58175 0,0 z" /></g></svg>

