<?xml version="1.0" encoding="UTF-8" standalone="no"?>
<svg
   xmlns:dc="http://purl.org/dc/elements/1.1/"
   xmlns:cc="http://creativecommons.org/ns#"
   xmlns:rdf="http://www.w3.org/1999/02/22-rdf-syntax-ns#"
   xmlns:svg="http://www.w3.org/2000/svg"
   xmlns="http://www.w3.org/2000/svg"
   xmlns:sodipodi="http://sodipodi.sourceforge.net/DTD/sodipodi-0.dtd"
   xmlns:inkscape="http://www.inkscape.org/namespaces/inkscape"
   enable-background="new 0 0 2551.18 1700.79"
   height="139.977577mm"
   width="137.131794mm"
   id="svg2"
   version="1.1"
   inkscape:version="0.91 r13725"
   sodipodi:docname="@Perd_singlepath.svg">
  <metadata
     id="metadata9">
    <rdf:RDF>
      <cc:Work
         rdf:about="">
        <dc:format>image/svg+xml</dc:format>
        <dc:type
           rdf:resource="http://purl.org/dc/dcmitype/StillImage" />
      </cc:Work>
    </rdf:RDF>
  </metadata>
  <sodipodi:namedview
     pagecolor="#ffffff"
     bordercolor="#666666"
     borderopacity="1"
     objecttolerance="10"
     gridtolerance="10"
     guidetolerance="10"
     inkscape:pageopacity="0"
     inkscape:pageshadow="2"
     inkscape:window-width="1600"
     inkscape:window-height="837"
     id="namedview7"
     showgrid="false"
     inkscape:zoom="1.2863331"
     inkscape:cx="98.603578"
     inkscape:cy="240.01309"
     inkscape:window-x="-8"
     inkscape:window-y="-8"
     inkscape:window-maximized="1"
     inkscape:current-layer="g7513" />
  <defs
     id="defs61" />
  <g
     id="g7513"
     transform="matrix(-2.8776464,-0.19475344,0.19475344,-2.8776464,365.67339,452.9021) ">
<CNC reverse="yes" correction="none"/>
    <path
       d="m 105.52441,64.583131 c -1.74504,-1.353308 -0.41801,2.552642 0,0 z M 79.670376,113.66569 c 3.0551,-1.29382 -2.344264,-2.63609 0,0 z m -15.138243,20.0109 c -4.309616,1.57383 -1.647631,6.19403 0.338806,1.04414 0.548884,-0.11545 1.102147,-2.1733 -0.338806,-1.04414 z m 0.22872,-1.37893 c 0.822514,-1.64649 -1.636761,1.39488 0,0 z M 99.097439,74.553343 c 1.853521,4.939174 5.069221,1.584125 1.137191,-1.026844 -2.139916,-5.114497 -3.556967,-5.240353 -1.137191,1.026844 z M 80.974593,29.651366 c 9.51783,-2.127305 18.687444,-6.602905 26.004207,-13.025268 1.92369,-1.995339 8.47682,-9.8747975 2.69002,-4.280008 -8.76932,7.531878 -19.378368,13.354036 -30.644803,15.905333 -3.801395,0.399355 1.120861,1.594583 1.950576,1.399943 z m -0.840067,75.947844 c -4.334531,0.79274 -6.17471,10.60278 -2.12181,3.02006 1.92756,-3.06695 9.279989,0.64948 3.344323,-2.9829 l -1.222512,-0.0372 0,0 z m -3.676606,10.44602 c 5.213558,5.03398 12.504583,-5.33921 8.665992,-6.36515 -0.116211,5.3061 -5.400284,6.88617 -8.665992,6.36515 z m 3.730324,-4.02906 c 2.204826,3.42207 -3.777424,-0.25013 0,0 z m -4.000304,1.50001 c 4.177458,3.83897 11.292359,-4.67161 3.716136,-3.56562 -1.683655,0.55837 -3.07175,1.91974 -3.716136,3.56562 z M 9.7535519,13.457558 c -0.8011024,8.116837 11.6572401,13.557036 9.1452121,20.617773 -2.880533,-0.869375 -6.595547,-9.720658 -7.582042,-7.542707 0.482361,4.022442 9.423508,11.17657 7.420262,11.148512 -1.844833,-1.704508 -8.0484,-8.907639 -3.802868,-2.80288 2.055471,1.610407 6.294405,7.301342 0.891059,3.77001 C 11.440427,34.47653 7.4089071,29.288201 5.7945958,23.422889 5.0419683,19.789916 5.401542,14.571952 9.7535082,13.457493 m 3.4546968,-2.156505 c -0.386439,4.775464 4.640342,13.208614 5.005118,14.684506 C 15.94747,22.239272 7.8007254,15.28628 13.208205,11.300988 Z m 7.139597,30.672402 c 0.863491,2.994815 1.737686,12.014792 -2.654317,5.534297 -3.490374,-2.188764 -7.116089,-9.18855 -8.8532773,-9.909079 0.3291397,3.294005 5.4885933,9.803081 5.2779213,9.480753 C 11.040423,44.613425 5.9797226,36.655033 9.5325025,34.985491 12.640138,37.919773 15.731049,41.722139 20.347801,41.9734 Z m 10.968259,42.978969 c -6.921755,-4.137021 9.865686,13.099645 1.34969,5.773428 C 30.129453,87.63278 22.385979,82.891371 20.813167,84.233631 26.11402,87.1171 35.901341,96.17268 36.396868,97.687295 c -1.667361,-1.409668 -12.7088,-5.946776 -6.483128,-1.888698 4.895056,3.020189 12.809875,9.368573 15.358027,11.011663 -3.749922,-1.80517 -8.415859,-4.91517 -12.548374,-3.35717 2.505944,-0.5315 11.867119,4.42555 8.996183,4.45019 -8.460967,-1.70901 4.622401,2.39651 6.403337,4.29295 2.977887,2.12006 10.79112,6.33056 10.240267,7.86232 -5.941868,0.49696 8.111024,1.83696 1.287266,2.14868 -5.925305,0.29084 -0.375889,2.02663 1.981746,1.90409 -2.323075,1.52107 -11.281753,5.2299 -3.327674,4.27867 0.112677,2.95603 -10.776262,5.52038 -9.958796,2.52192 3.630597,-0.61829 4.182009,-3.68267 0.321029,-0.51801 -4.251117,4.63267 -11.76576,-5.02966 -12.602593,-2.47194 -0.284955,3.29348 -10.32127,-6.39995 -7.956251,-6.43396 5.535157,3.37301 12.330611,6.78566 18.923636,5.26055 -3.56757,-1.91939 -13.065986,-3.22754 -17.696517,-7.4239 -5.524483,-3.10176 -12.880474,-12.60794 -12.057148,-16.2164 3.646413,2.55278 13.859013,7.6774 15.305288,6.16854 -8.86951,-3.75483 -17.116382,-9.370314 -23.0818334,-17.008563 -1.4579419,-2.096985 -2.8230001,-10.31981 0.9435264,-4.677672 1.3008,3.116649 13.350171,7.355035 6.647099,1.76197 -3.609366,-2.969526 -12.7019711,-8.648821 -7.3381599,-13.630516 1.4716249,2.730333 12.2691989,9.291396 6.3158379,3.145386 -4.431696,-2.572191 -8.3632912,-10.524258 -0.03212,-7.164177 5.396621,1.941828 9.569016,-8.495166 10.064042,0.141583 1.471044,4.468675 3.157593,8.873447 5.214481,13.107551 M 8.0116286,76.69131 C 5.3870748,84.715978 4.481794,64.801826 8.3871215,73.824638 l -0.00276,1.456157 -0.3727289,1.410515 z m 2.0651684,-6.602136 c -1.1292119,3.351219 -2.8455749,-3.878892 0,0 z M 6.0276949,64.270666 C 3.6120094,59.069798 8.9953195,52.460633 11.2873,60.667693 14.466756,63.708435 27.156447,69.00729 16.471229,70.112125 12.943044,71.316419 9.5350337,65.695189 10.233565,66.281614 8.5024567,67.438276 7.0528823,65.415867 6.0276949,64.270666 Z M 4.6605215,62.229451 C 0.51779933,59.736091 0.255369,46.347451 4.8089087,48.228578 7.3468073,52.674311 6.3149004,57.693935 4.6605215,62.229451 Z M 10.298653,52.27911 c 0.779234,5.191673 10.253162,9.9723 9.79621,12.573406 -4.455332,-1.765548 -12.8244735,-6.85718 -9.79621,-12.573406 z m 64.609163,73.92978 c 5.602331,-7.91547 13.16395,3.54781 20.252878,2.40991 5.215416,-0.70184 4.646756,-14.94754 10.195476,-9.5154 2.20767,6.71934 1.2244,18.08003 -8.291545,17.12587 -8.191352,-0.78611 -13.287667,-10.0091 -21.981166,-9.10212 -1.468922,0.60026 -0.695413,-0.91106 -0.175617,-0.91826 M 121.75786,67.521623 c -1.04828,3.530834 -11.72323,7.945535 -5.7558,1.568976 1.39257,-1.323426 9.23217,-9.249911 5.7558,-1.568976 z m -10.77696,7.126418 c -4.75021,0.03393 3.07264,-1.073693 0,0 z m -7.23585,-5.435607 c -0.90812,-2.904321 7.10936,2.473366 -3e-5,2.04e-4 m 1.81324,1.983907 c -2.79073,-1.190378 3.69001,0.575294 0,0 z m -0.95296,-7.908272 c 0.31222,-3.121581 8.99185,-10.165399 6.93722,-4.192206 -2.12009,1.662599 -4.3347,3.368984 -6.93722,4.192206 z m -20.200343,10.38534 c -2.228674,-6.119848 -9.300238,-9.287485 -14.850419,-7.90222 0.181693,-4.468866 10.033689,-5.203219 5.088544,-1.095536 5.154823,-0.172336 11.067836,2.965428 9.761875,8.997756 z M 8.045317,33.051721 c -3.1268674,8.512308 3.963066,17.716781 12.188359,19.714036 3.603603,2.212858 5.053313,15.568384 -0.553493,7.627515 C 15.567768,57.906342 11.928805,49.375584 7.9117525,52.567517 4.8218222,46.804834 4.3044026,42.64129 3.2752296,37.011407 c -0.6799652,-4.000377 0.621642,5.868688 -0.1680944,7.451415 -3.45246887,7.737313 -2.30610736,15.700152 1.8532106,22.8251 0.4230678,7.374592 0.4424102,14.294827 2.8228862,21.629061 1.9864493,7.529162 8.917624,12.527057 10.928339,20.183787 3.169799,6.39851 7.21321,12.62445 11.529854,18.33482 5.912305,4.09793 13.787003,7.79272 21.026285,6.42316 2.338784,-1.11324 8.762096,-2.02877 5.127896,2.25331 4.505307,-0.0228 -0.999602,15.35773 5.133915,8.27975 5.100985,-3.47353 9.697239,-11.25873 12.192556,-14.2282 6.483163,3.83413 9.892166,13.26999 18.569712,12.88057 -5.45367,-2.25825 -11.741176,-8.2506 -15.956451,-13.64709 6.414023,-1.25191 14.410783,10.45306 23.237569,8.07993 8.485083,-0.78179 10.778413,-10.00891 7.166133,-16.58294 -2.66482,-3.80975 4.45635,-7.93813 3.85492,-6.87479 -2.31159,2.4056 -7.05125,-0.2242 -6.21604,-0.21507 -1.96142,4.94494 -9.100035,7.77749 -8.527922,13.3465 -3.876082,2.04122 -16.400729,-5.948 -7.335464,-4.66962 7.844815,0.069 7.382185,-10.31869 15.310176,-10.62185 4.70006,0.11548 8.98451,-9.89386 5.76289,-10.36278 0.16071,9.1145 -9.908216,9.54382 -14.892528,14.10556 -0.398848,5.16917 -13.696575,8.3513 -8.021169,1.82161 7.053805,-8.09085 17.029407,-12.83356 24.960787,-19.98012 3.42672,-6.037783 12.62845,-2.504883 14.86269,-9.451909 5.99362,-5.454077 4.37623,-14.289746 2.68589,-21.863614 -2.62976,-7.40589 -10.15528,-1.880656 -13.85479,0.647129 -5.41604,-1.086557 -4.52636,-8.45295 -1.62068,-10.347982 -1.1395,-5.584828 -6.69872,-6.079318 -10.17321,-3.899608 C 94.308387,49.830147 98.950346,64.163323 92.114536,63.980251 86.310701,62.253004 80.872612,58.279397 74.546168,60.082997 81.692503,54.86225 89.398746,50.114189 95.473999,43.510848 100.43066,37.558321 107.47526,31.357645 108.84424,23.784637 c -3.94712,3.672949 -6.46587,9.446475 -10.390805,13.548926 -6.685824,8.721982 -16.357922,14.197113 -24.7078,21.058277 -5.538215,5.360517 -11.805749,10.052541 -17.404739,15.237613 -1.911466,2.046849 -2.305476,11.67651 0.272115,4.672728 2.463552,-8.311076 12.554948,-10.646301 20.132025,-10.939831 7.98728,2.065532 6.435813,12.365959 11.846612,16.948495 1.973639,3.009954 10.521983,3.80704 10.038772,1.094032 -6.590796,0.770187 -12.145457,-2.894238 -13.13051,-9.68438 -2.844027,-5.105088 -0.903875,-10.99612 5.701838,-9.907193 6.790081,0.391257 6.949253,-5.928542 7.957695,-10.288881 2.299057,-2.276992 5.765037,0.755064 2.473527,2.556019 1.56119,-2.136064 10.36469,-7.814859 7.15721,-1.802957 -7.11567,4.665508 -8.964345,16.681263 0.71769,19.480972 8.39901,1.80462 11.7261,-8.689793 17.65158,-10.673028 2.13096,5.409518 1.64745,12.83474 1.06902,18.873124 -4.47897,2.064121 -6.18715,9.513641 -12.51056,7.656881 -2.91558,0.469254 -13.27932,4.711659 -4.978,2.739154 6.19617,-0.600232 -5.93109,6.305902 -8.0011,8.358872 -4.904919,3.57347 -9.866753,7.07714 -14.579061,10.9055 -2.692422,0.87873 -5.245997,10.29981 -11.475503,6.75487 -4.814809,-0.19515 1.759465,1.99444 -2.260043,3.67186 -3.13996,5.47645 -3.469097,-4.75991 -3.404818,1.46763 -0.08626,7.56145 -5.202215,14.94132 -11.34572,18.01056 -2.253186,-8.0777 3.626216,-14.55682 6.473374,-21.50524 C 57.649601,115.78616 49.578532,108.67629 43.147809,100.3183 33.588282,86.551579 25.907055,70.996167 24.361088,54.09403 22.330994,42.630081 22.383942,30.945945 21.049417,19.404303 21.932008,16.853986 21.888234,5.1569499 20.933573,13.390436 19.533153,17.992829 14.479731,0.66777774 15.807825,8.4375438 17.522013,13.040568 22.379619,19.2963 19.114995,23.79843 16.014767,19.513628 14.026756,9.1813926 13.844173,7.5157226 13.971495,13.219762 8.2422771,12.066118 10.343735,6.8600685 11.102487,4.041949 13.566647,-0.54643416 10.451072,4.7096939 11.083254,11.611953 4.4835334,15.592258 4.2903663,21.997767 4.121161,25.966838 5.3215117,30.093575 8.0453974,33.05192 M 101.53346,59.072046 c -4.522446,1.291764 -0.46841,5.309705 0,0 z m -3.611686,43.610734 c 2.426016,-4.040493 -13.866741,6.44784 -4.886434,2.98813 1.698173,-0.8279 3.593001,-1.55999 4.886434,-2.98813 z M 12.697566,31.334009 c -0.0063,-0.01682 -0.0063,-0.01682 0,0 z m 55.148257,92.058321 c 0.05569,0.0156 0.05569,0.0156 0,0 z M 81.216531,97.519419 c 0.02813,-0.006 0.02813,-0.006 0,0 z m -5.459034,2.930001 c -2.581378,0.804 2.510296,2.01557 -1.15802,2.78752 4.791849,-1.16804 12.236341,-7.111874 13.630505,-8.867026 -4.062282,3.450749 -8.600224,3.180305 -12.472485,6.079506 z m -13.685991,37.6879 c -1.759675,-4.32454 6.230581,-5.65177 1.094639,-1.37622 -0.365737,0.45805 -0.729693,0.91756 -1.094639,1.37622 z m 2.449615,-6.06494 c 1.677238,-1.20627 -1.343506,1.92153 0,0 z m 3.174908,-7.19177 c -4.877259,2.68995 -10.489132,13.18681 -6.452806,15.66337 4.912962,-3.79075 11.686924,-10.8988 6.695558,-17.07835 l -0.179575,0.40506 -0.06317,1.00992 0,0 z m 8.116807,-11.10424 c -4.895615,-0.24064 2.652483,3.15836 0,0 z M 14.368664,-0.20108022 c 0.920085,-1.50915888 -1.531244,1.58226612 3e-5,3.02e-6 M 63.672605,114.45559 c -3.043641,-7.13381 -7.263469,-14.01393 -7.645961,-21.952965 -1.054235,-2.852072 -1.965835,-14.725783 -2.151595,-6.194258 -0.690126,5.401904 -1.831584,-5.920043 -2.024115,-7.757662 -0.760278,-8.967269 0.179653,-18.013981 2.140219,-26.775593 -7.037407,16.776121 -4.549271,36.330985 2.833033,52.547158 1.845554,3.64659 4.127702,7.07977 6.848273,10.13331 m 28.689199,-75.441902 0.178863,-0.07388 -0.178861,0.07388 -2e-6,0 z M 63.501485,61.548117 c 5.311585,-6.310761 13.681378,-8.702057 19.663976,-14.272523 2.366223,-1.893961 8.50403,-7.377733 8.439856,-7.63745 -8.980593,6.723413 -18.553775,12.661467 -27.588693,19.266611 -2.824602,2.43596 -8.436366,11.496608 -2.423722,4.623824 0.636742,-0.659628 1.271858,-1.320819 1.908583,-1.980462 z M 111.30068,51.237848 c 0.01,0.002 0.01,0.002 0,0 z M 86.160851,70.143409 c 1.264223,6.236093 14.626109,-5.292699 5.476584,-0.43855 -1.710059,0.725629 -3.677952,1.011607 -5.476584,0.43855 z M 3.3417213,34.54959 c 0.00145,0.06518 0.00145,0.06518 0,0 z m 84.8343677,77.37929 c 0.02534,-0.0349 0.02534,-0.0349 0,0 z M 121.78597,85.455716 c 6.53557,-0.324257 -1.72856,-11.080634 -2.56662,-3.391582 -3.84778,3.657667 5.50199,9.053089 0.44564,3.727351 -0.31174,-2.458587 3.60047,-3.925525 2.12096,-0.335555 M 114.0239,57.239121 c 0.006,0.02897 0.006,0.02897 0,0 "
       id="path57"
       inkscape:connector-curvature="0" />
  </g>
</svg>










