<?xml version="1.0" encoding="UTF-8" standalone="no"?>
<!-- Created with Inkscape (http://www.inkscape.org/) -->

<svg
   xmlns:dc="http://purl.org/dc/elements/1.1/"
   xmlns:cc="http://creativecommons.org/ns#"
   xmlns:rdf="http://www.w3.org/1999/02/22-rdf-syntax-ns#"
   xmlns:svg="http://www.w3.org/2000/svg"
   xmlns="http://www.w3.org/2000/svg"
   xmlns:sodipodi="http://sodipodi.sourceforge.net/DTD/sodipodi-0.dtd"
   xmlns:inkscape="http://www.inkscape.org/namespaces/inkscape"
   width="180mm"
   height="60mm"
   viewBox="0 0 180 60"
>
  
    <path
       id="path15986"
       style="font-style:normal;font-variant:normal;font-weight:bold;font-stretch:normal;font-size:medium;line-height:125%;font-family:Arial;-inkscape-font-specification:'Arial, Bold';text-align:start;letter-spacing:0px;word-spacing:0px;writing-mode:lr-tb;text-anchor:start;fill:#000000;fill-opacity:1;stroke:none;stroke-width:1px;stroke-linecap:butt;stroke-linejoin:miter;stroke-opacity:1"
       d="m 66.613878,30.12883 0,1.708337 c 0,2.056439 -0.05358,3.452026 -0.161236,4.185014 -0.156541,1.119843 -0.484517,2.066705 -0.983329,2.840415 -0.674843,1.018038 -1.384573,1.52851 -2.127877,1.52851 -0.665049,0 -1.210629,-0.440479 -1.640964,-1.315991 -0.430334,-0.875515 -0.645008,-1.912951 -0.645008,-3.114238 0,-1.221647 0.268338,-2.230257 0.806261,-3.024327 0.35208,-0.488659 1.100564,-0.986797 2.24487,-1.495816 1.144289,-0.509019 1.979154,-0.94541 2.507299,-1.311904 z M 8.7089233,0.1675654 c -1.6528769,0 -3.0663202,0.51871924 -4.2399557,1.5571194 C 3.3051114,2.7630851 2.4105516,4.282165 1.7846114,6.2775223 1.1684522,8.2525186 0.86137064,10.376808 0.86137064,12.657216 c 0,3.542777 0.65893526,6.54802 1.97927776,9.011676 0.9389094,1.751026 2.5730548,3.224856 4.9007688,4.426141 1.8093583,0.936596 2.9693908,1.591145 3.4779638,1.957639 0.743307,0.549741 1.262196,1.200201 1.5556,1.953552 0.303191,0.732986 0.452135,1.630437 0.452135,2.689198 0,1.649224 -0.354724,3.094221 -1.068685,4.336231 -0.70418,1.221647 -1.756872,1.830943 -3.155461,1.830943 -1.3203376,-2e-6 -2.3730381,-0.691626 -3.1554629,-2.07616 -0.7726454,-1.384534 -1.2855019,-3.554075 -1.53979,-6.506389 l -4.22414624,0.858255 c 0.28362789,5.008756 1.15436824,8.82503 2.61163494,11.451572 1.4572635,2.606178 3.5445708,3.907102 6.2634988,3.907102 1.8680344,0 3.4275634,-0.539302 4.6794434,-1.618422 1.25188,-1.099483 2.22106,-2.766801 2.905682,-5.006488 0.684621,-2.239686 1.027579,-4.643878 1.027579,-7.20934 0,-2.830149 -0.28929,-5.201426 -0.866329,-7.115341 C 16.137821,23.613111 15.344569,22.098117 14.327417,20.998634 13.320052,19.878792 11.760525,18.796102 9.6479736,17.757702 7.5354318,16.719302 6.2054994,15.723028 5.6577991,14.766071 5.2274644,14.012722 5.0127956,13.107025 5.0127956,12.048264 c 0,-1.160565 0.2295961,-2.0868442 0.689269,-2.7791108 0.713961,-1.0791219 1.7009352,-1.6184233 2.9625933,-1.6184233 1.2225422,0 2.1380541,0.5104715 2.7444311,1.5285108 0.616164,0.9976783 1.015658,2.6444133 1.201478,4.9451823 l 4.344295,-0.396432 C 16.886401,9.6151122 16.167766,6.3258033 14.798524,3.862148 13.439059,1.3984927 11.408283,0.1675654 8.7089233,0.1675654 Z m 44.5558837,0 c -1.144289,0 -2.092522,0.42814219 -2.845603,1.2832953 C 49.6759,2.2856531 49.15988,3.3725039 48.87626,4.7163158 48.602402,6.0601277 48.465222,8.0979271 48.465222,10.826273 l 0,2.443982 -2.285973,0 0,6.747518 2.285973,0 0,25.68634 4.122961,0 0,-25.68634 3.082746,0 0,-6.747518 -3.082746,0 0,-2.292766 c 0,-1.6492237 0.128373,-2.756657 0.382579,-3.3267591 0.26408,-0.5904627 0.693411,-0.8868632 1.290017,-0.8868632 0.606367,0 1.238619,0.1646594 1.893907,0.4904313 L 56.71116,1.2669489 C 55.58641,0.53396064 54.438446,0.1675654 53.264807,0.1675654 Z m -27.713049,1.6511187 -4.138779,5.0064863 0,6.4450846 -1.890748,0 0,6.841517 1.890748,0 0,14.140768 c 0,3.033758 0.04478,5.046888 0.132793,6.044566 0.107588,1.404897 0.298431,2.524664 0.572284,3.359455 0.283625,0.814431 0.725031,1.489564 1.321626,2.018943 0.596606,0.509021 1.264435,0.760168 2.007736,0.760168 1.212759,0 2.298172,-0.424055 3.25664,-1.279208 l -0.350959,-6.661693 c -0.723742,0.549744 -1.275339,0.825561 -1.656776,0.825561 -0.273846,0 -0.50947,-0.139989 -0.705079,-0.425042 -0.185829,-0.28505 -0.30809,-0.643197 -0.366766,-1.070774 -0.04891,-0.447937 -0.07272,-1.995846 -0.07272,-4.64275 l 0,-13.069994 2.81715,0 0,-6.841517 -2.81715,0 0,-11.4515709 z M 37.199777,12.538695 c -2.063643,0 -3.769246,1.523241 -5.118931,4.577359 -1.349684,3.033757 -2.026705,7.241096 -2.026705,12.616344 0,4.499736 0.51602,8.225434 1.542952,11.177748 1.300777,3.685304 3.304569,5.525526 6.013717,5.525526 1.711559,0 3.133899,-0.811031 4.26841,-2.439897 1.144306,-1.649222 1.982328,-4.045169 2.510457,-7.18073 l -4.110318,-1.434512 c -0.224937,1.628862 -0.555843,2.810377 -0.995972,3.543365 -0.440109,0.732989 -0.982809,1.099385 -1.628313,1.099385 -0.948685,0 -1.741938,-0.703962 -2.377663,-2.108856 -0.63571,-1.425255 -0.966617,-3.409554 -0.995962,-5.954653 l 10.326398,0 c 0.0586,-6.576534 -0.582489,-11.45083 -1.922366,-14.627113 -1.339909,-3.196643 -3.167768,-4.793966 -5.485704,-4.793966 z m 26.906801,0 c -2.02453,0 -3.55135,0.753373 -4.578274,2.260071 -1.026924,1.506699 -1.751579,3.824477 -2.172136,6.960036 l 3.740382,1.405904 c 0.254287,-1.506697 0.588349,-2.55647 0.999128,-3.146933 0.410764,-0.610824 0.983329,-0.915472 1.716855,-0.915472 1.085607,0 1.822031,0.358148 2.213255,1.070775 0.391207,0.692266 0.58809,1.861446 0.58809,3.51067 l 0,0.854167 c -0.743304,0.651546 -2.079264,1.355507 -4.005984,2.108856 -1.427925,0.570101 -2.522225,1.241145 -3.285101,2.014856 -0.753065,0.753349 -1.340557,1.852534 -1.761114,3.298149 -0.420541,1.425256 -0.629192,3.055495 -0.629192,4.887966 0,2.769067 0.459182,5.058016 1.378535,6.870125 0.92913,1.812113 2.196499,2.717807 3.800472,2.717807 0.909559,0 1.765388,-0.354061 2.567359,-1.066689 0.802003,-0.712626 1.553352,-1.782981 2.257529,-3.208238 0.0293,0.162881 0.08013,0.500452 0.148609,1.009471 0.156379,1.119843 0.287618,1.963793 0.395222,2.533897 l 4.078702,0 c -0.361874,-1.547422 -0.612421,-2.992421 -0.749342,-4.336231 -0.127078,-1.364175 -0.189711,-3.471967 -0.189711,-6.322477 l 0.04419,-10.01706 c 0,-3.726023 -0.187979,-6.282542 -0.559631,-7.667075 -0.361874,-1.404894 -0.990953,-2.553492 -1.89075,-3.449367 -0.899797,-0.916236 -2.268473,-1.373208 -4.107161,-1.373208 z m 19.568293,0 c -2.063641,0 -3.775267,1.831976 -5.134748,5.496918 l 0,-4.765358 -3.828916,0 0,32.433858 4.122961,0 0,-14.688418 c 0,-3.624222 0.104415,-6.110746 0.309861,-7.454556 0.215159,-1.343812 0.605768,-2.422415 1.173024,-3.236847 0.567255,-0.814431 1.208411,-1.221991 1.922365,-1.221991 0.557479,0 1.031603,0.284066 1.42281,0.854168 0.400986,0.570102 0.687115,1.376973 0.863163,2.415373 0.176048,1.018038 0.265586,3.278157 0.265586,6.780212 l 0,16.552059 4.122977,0 0,-20.156728 c 0,-2.504375 -0.07754,-4.426929 -0.23397,-5.770741 -0.146667,-1.343812 -0.41821,-2.545909 -0.809417,-3.60467 -0.38143,-1.058761 -0.947974,-1.923293 -1.701056,-2.595199 -0.753081,-0.692267 -1.585065,-1.03808 -2.49464,-1.03808 z m -46.225313,6.563606 c 0.841105,0 1.553704,0.650461 2.140533,1.953551 0.586795,1.28273 0.897045,3.168204 0.926395,5.652221 l -6.162316,0 c -0.0097,-2.34149 0.279512,-4.194049 0.866329,-5.558221 0.586818,-1.364173 1.329271,-2.047551 2.229059,-2.047551 z" />
</svg>





