<?xml version="1.0" encoding="ISO-8859-1" standalone="no"?>
<!DOCTYPE svg PUBLIC "-//W3C//DTD SVG 20010904//EN"
  "http://www.w3.org/TR/2001/REC-SVG-20010904/DTD/svg10.dtd">
<svg xmlns="http://www.w3.org/2000/svg" width="150mm" height="150mm" viewBox="0 0 150 150"
  xmlns:xlink="http://www.w3.org/1999/xlink">
  <title>das symbol-Element</title>
<CNC reverse="no" correction="outer"/>
  <desc>Referenzen - besondere Objekte: Symbole 20.2 0 0 20.2 -20.2 0 z </desc>
	<!--line x1="10" y1="10" x2="50" y2="50" stroke="blue" stroke-width="0.5" /-->
	<!--rect x="5" y="5" width="10" height="10" fill="none" stroke="blue" stroke-width="0.1"/-->
	<rect x="10" y="10" rx="5" ry="5" width="30" height="30" fill="none" stroke="blue" stroke-width="1"/>
	<!--polyline fill="none" stroke="blue" stroke-width="0.1" points="10,10 15,15 20,10 25,15" /-->
	<!--polygon fill="none" stroke="blue" stroke-width="10" points="10 10 15 15 20 10" /-->
	<circle cx="60" cy="60" r="20" fill="none" stroke="blue" stroke-width="1" />
	<!--path d="M 10 20 a 5 5 0 1 0 10 0 a 5 5 0 1 0 -10 0 " fill="none" stroke="blue" stroke-width="0.1" /-->
	<!--ellipse cx="50" cy="50" rx="40" ry="30" fill="none" stroke="blue" stroke-width="0.1" /-->
	<!--path d="M 20.5 20.5 l 10 0 0 10 -10 0z " stroke="black" fill="none" stroke-width="0.5"/-->
	<!--path d="M10,20 C10,10 25,10 25,20 S40,30 40,20" stroke="black" fill="none" stroke-width="0.5" /-->
	<!--path d="M40,40 Q40,5 60,30 T100,30"  stroke="black" fill="none" stroke-width="0.5" /-->

</svg>


















































































































































