<?xml version="1.0" encoding="UTF-8" standalone="no"?>
<svg
   xmlns:dc="http://purl.org/dc/elements/1.1/"
   xmlns:cc="http://creativecommons.org/ns#"
   xmlns:rdf="http://www.w3.org/1999/02/22-rdf-syntax-ns#"
   xmlns:svg="http://www.w3.org/2000/svg"
   xmlns="http://www.w3.org/2000/svg"
   xmlns:sodipodi="http://sodipodi.sourceforge.net/DTD/sodipodi-0.dtd"
   xmlns:inkscape="http://www.inkscape.org/namespaces/inkscape"
   width="39.564724mm"
   height="8.7413588mm"
   viewBoxx="0 -42 940 42"
   version="1.1"
   id="svg120"
   sodipodi:docname="ev.svg"
   inkscape:version="0.92.2 (5c3e80d, 2017-08-06)">
  <metadata
     id="metadata126">
    <rdf:RDF>
      <cc:Work
         rdf:about="">
        <dc:format>image/svg+xml</dc:format>
        <dc:type
           rdf:resource="http://purl.org/dc/dcmitype/StillImage" />
        <dc:title></dc:title>
      </cc:Work>
    </rdf:RDF>
  </metadata>
  <defs
     id="defs124" />
  <sodipodi:namedview
     pagecolor="#ffffff"
     bordercolor="#666666"
     borderopacity="1"
     objecttolerance="10"
     gridtolerance="10"
     guidetolerance="10"
     inkscape:pageopacity="0"
     inkscape:pageshadow="2"
     inkscape:window-width="2560"
     inkscape:window-height="1387"
     id="namedview122"
     showgrid="false"
     inkscape:zoom="5.3944091"
     inkscape:cx="107.14439"
     inkscape:cy="-65.834788"
     inkscape:window-x="-8"
     inkscape:window-y="-8"
     inkscape:window-maximized="1"
     inkscape:current-layer="svg120"
     fit-margin-top="0"
     fit-margin-left="0"
     fit-margin-right="0"
     fit-margin-bottom="0" />
  <g
     transform="matrix(0.56311785,0,0,-2.74176,0.01407795,0.068544)"
     font-size="0.2"
     id="g118"
     style="font-size:0.2px;stroke-width:0.05">
    <path
       d="M 4,-12 H 0 v 9 h 4"
       id="path2"
       inkscape:connector-curvature="0"
       style="fill:none;stroke:#000000" />
    <path
       d="M 0,-8 H 3"
       id="path4"
       inkscape:connector-curvature="0"
       style="fill:none;stroke:#000000" />
    <path
       d="M 11.000014,-8.4390859 10.408999,-8.6825016 9.7870896,-8.8300786 9.1497207,-8.8781542 8.5127108,-8.8255354 7.8918694,-8.673528"
       id="path6"
       inkscape:connector-curvature="0"
       style="fill:none;stroke:#000000" />
    <path
       d="m 7.8919028,-8.6735377 -0.2056066,0.090001 -0.1852508,0.1267137 -0.1584146,0.1589938 -0.1260366,0.1857121 -0.08925,0.2059337 -0.049341,0.2189514 -0.00771,0.2243097 0.034199,0.2218212 0.074908,0.2115728 0.1129954,0.1939233 0.1471306,0.1694899 0.1761186,0.1391274 0.1989459,0.1038979"
       id="path8"
       inkscape:connector-curvature="0"
       style="fill:none;stroke:#000000" />
    <path
       d="m 7.814575,-6.42309 2.37085,0.968"
       id="path10"
       inkscape:connector-curvature="0"
       style="fill:none;stroke:#000000" />
    <path
       d="m 10.108101,-3.2046542 0.205605,-0.090002 0.185249,-0.1267141 0.158412,-0.158994 0.126035,-0.1857119 0.08925,-0.2059332 0.04934,-0.2189504 0.0077,-0.2243083 -0.0342,-0.2218195 -0.07491,-0.2115708 -0.112997,-0.1939209 -0.147131,-0.1694873 -0.176119,-0.1391246 -0.198946,-0.103895"
       id="path12"
       inkscape:connector-curvature="0"
       style="fill:none;stroke:#000000" />
    <path
       d="m 6.9999946,-3.4390872 0.5910155,0.2434128 0.621909,0.1475746 0.6373681,0.048074 0.6370088,-0.05262 0.62084,-0.1520074"
       id="path14"
       inkscape:connector-curvature="0"
       style="fill:none;stroke:#000000" />
    <path
       d="m 24.750029,-8.4390859 -0.591015,-0.2434157 -0.62191,-0.147577 -0.637369,-0.048076 -0.63701,0.052619 -0.620841,0.1520074"
       id="path16"
       inkscape:connector-curvature="0"
       style="fill:none;stroke:#000000" />
    <path
       d="m 21.641917,-8.6735377 -0.205606,0.090001 -0.185251,0.1267137 -0.158415,0.1589938 -0.126036,0.1857121 -0.08925,0.2059337 -0.04934,0.2189514 -0.0077,0.2243097 0.0342,0.2218212 0.07491,0.2115728 0.112995,0.1939233 0.147131,0.1694899 0.176118,0.1391274 0.198946,0.1038979"
       id="path18"
       inkscape:connector-curvature="0"
       style="fill:none;stroke:#000000" />
    <path
       d="m 21.564589,-6.42309 2.37085,0.968"
       id="path20"
       inkscape:connector-curvature="0"
       style="fill:none;stroke:#000000" />
    <path
       d="m 23.858116,-3.2046542 0.205604,-0.090002 0.185249,-0.1267141 0.158413,-0.158994 0.126034,-0.1857119 0.08925,-0.2059332 0.04934,-0.2189504 0.0077,-0.2243083 -0.0342,-0.2218195 -0.07491,-0.2115708 -0.112996,-0.1939209 -0.147132,-0.1694873 -0.176119,-0.1391246 -0.198946,-0.103895"
       id="path22"
       inkscape:connector-curvature="0"
       style="fill:none;stroke:#000000" />
    <path
       d="m 20.750009,-3.4390872 0.591016,0.2434128 0.621909,0.1475746 0.637368,0.048074 0.637008,-0.05262 0.620841,-0.1520074"
       id="path24"
       inkscape:connector-curvature="0"
       style="fill:none;stroke:#000000" />
    <path
       d="m 27.750029,-9 h 3"
       id="path26"
       inkscape:connector-curvature="0"
       style="fill:none;stroke:#000000" />
    <path
       d="m 28.750029,-12 v 9"
       id="path28"
       inkscape:connector-curvature="0"
       style="fill:none;stroke:#000000" />
    <path
       d="m 33.750029,-6 h 4 V -7 L 37.711599,-7.3901806 37.597788,-7.7653669 37.412968,-8.1111405 37.164242,-8.4142136 36.861169,-8.6629392 36.515396,-8.8477591 36.14021,-8.9615706 35.750029,-9 35.359848,-8.961571 34.984662,-8.8477595 34.638888,-8.6629396 34.335815,-8.414214 34.08709,-8.1111409 33.90227,-7.7653673 33.788458,-7.390181 33.750029,-7 v 2.5 l 0.02882,0.2926355 0.08536,0.2813897 0.138614,0.2593302 0.186545,0.2273048 0.227305,0.1865442 0.25933,0.1386149 0.281389,0.085359 L 35.250029,-3 h 2.5"
       id="path30"
       inkscape:connector-curvature="0"
       style="fill:none;stroke:#000000" />
    <path
       d="m 40.750029,-12 v 9"
       id="path32"
       inkscape:connector-curvature="0"
       style="fill:none;stroke:#000000" />
    <path
       d="m 44.750029,-3 v -4.5 l -0.02882,-0.2926355 -0.08536,-0.2813897 -0.138615,-0.2593302 -0.186544,-0.2273048 -0.227305,-0.1865442 -0.25933,-0.1386149 -0.28139,-0.085359 L 43.250029,-9 h -2.5"
       id="path34"
       inkscape:connector-curvature="0"
       style="fill:none;stroke:#000000" />
    <path
       d="m 47.750029,-9 h 3"
       id="path36"
       inkscape:connector-curvature="0"
       style="fill:none;stroke:#000000" />
    <path
       d="m 48.750029,-12 v 9"
       id="path38"
       inkscape:connector-curvature="0"
       style="fill:none;stroke:#000000" />
    <path
       d="m 64.500029,-6 h -2.5 l -0.292636,0.028822 -0.281389,0.085359 -0.25933,0.1386149 -0.227305,0.1865442 -0.186545,0.2273049 -0.138614,0.2593302 -0.08536,0.2813896 -0.02882,0.2926355 0.02882,0.2926355 0.08536,0.2813897 0.138614,0.2593302 0.186545,0.2273048 0.227305,0.1865442 0.25933,0.1386149 0.281389,0.085359 L 62.000029,-3 h 2.5 v -4.5 l -0.02882,-0.2926355 -0.08536,-0.2813897 -0.138615,-0.2593302 -0.186544,-0.2273048 -0.227305,-0.1865442 -0.25933,-0.1386149 -0.28139,-0.085359 L 63.000029,-9 h -2"
       id="path40"
       inkscape:connector-curvature="0"
       style="fill:none;stroke:#000000" />
    <path
       d="m 71.500029,-3 v -4.5 l -0.02882,-0.2926355 -0.08536,-0.2813897 -0.138615,-0.2593302 -0.186544,-0.2273048 -0.227305,-0.1865442 -0.25933,-0.1386149 -0.28139,-0.085359 L 70.000029,-9 h -2.5 v 6"
       id="path42"
       inkscape:connector-curvature="0"
       style="fill:none;stroke:#000000" />
    <path
       d="m 81.250029,0 h 0.5 l 0.292635,-0.02882208 0.28139,-0.08535862 0.25933,-0.13861488 0.227305,-0.18654425 0.186544,-0.22730482 0.138615,-0.2593302 0.08536,-0.28138965 L 83.250029,-1.5 V -9"
       id="path44"
       inkscape:connector-curvature="0"
       style="fill:none;stroke:#000000" />
    <path
       d="M 83.250029,-11.5 V -12"
       id="path46"
       inkscape:connector-curvature="0"
       style="fill:none;stroke:#000000" />
    <path
       d="m 86.250029,-6 h 4 V -7 L 90.211599,-7.3901806 90.097788,-7.7653669 89.912968,-8.1111405 89.664242,-8.4142136 89.361169,-8.6629392 89.015396,-8.8477591 88.64021,-8.9615706 88.250029,-9 87.859848,-8.961571 87.484662,-8.8477595 87.138888,-8.6629396 86.835815,-8.414214 86.58709,-8.1111409 86.40227,-7.7653673 86.288458,-7.390181 86.250029,-7 v 2.5 l 0.02882,0.2926355 0.08536,0.2813897 0.138614,0.2593302 0.186545,0.2273048 0.227305,0.1865442 0.25933,0.1386149 0.281389,0.085359 L 87.750029,-3 h 2.5"
       id="path48"
       inkscape:connector-curvature="0"
       style="fill:none;stroke:#000000" />
    <path
       d="m 97.250029,-9 h -2.5 l -0.292636,0.028822 -0.281389,0.085359 -0.25933,0.1386149 -0.227305,0.1865442 -0.186545,0.2273048 -0.138614,0.2593302 -0.08536,0.2813897 L 93.250029,-7.5 v 3 l 0.02882,0.2926355 0.08536,0.2813897 0.138614,0.2593302 0.186545,0.2273048 0.227305,0.1865442 0.25933,0.1386149 0.281389,0.085359 L 94.750029,-3 h 2.5 v -9"
       id="path50"
       inkscape:connector-curvature="0"
       style="fill:none;stroke:#000000" />
    <path
       d="m 100.25003,-6 h 4 v -1 l -0.0384,-0.3901806 -0.11381,-0.3751863 -0.18482,-0.3457736 -0.24873,-0.3030731 -0.30307,-0.2487256 -0.34577,-0.1848199 -0.37519,-0.1138115 L 102.25003,-9 l -0.39018,0.038429 -0.37519,0.1138115 -0.34577,0.1848199 -0.30307,0.2487256 -0.24873,0.3030731 -0.18482,0.3457736 -0.11381,0.3751863 L 100.25003,-7 v 2.5 l 0.0288,0.2926355 0.0854,0.2813897 0.13861,0.2593302 0.18655,0.2273048 0.2273,0.1865442 0.25933,0.1386149 0.28139,0.085359 L 101.75003,-3 h 2.5"
       id="path52"
       inkscape:connector-curvature="0"
       style="fill:none;stroke:#000000" />
    <path
       d="m 110.25003,-8 -0.0192,-0.1950903 -0.0569,-0.1875931 -0.0924,-0.1728868 -0.12436,-0.1515366 -0.15154,-0.1243628 -0.17289,-0.09241 -0.18759,-0.056906 L 109.25003,-9 h -2 v 6"
       id="path54"
       inkscape:connector-curvature="0"
       style="fill:none;stroke:#000000" />
    <path
       d="m 124.00003,-12 h -4 v 9 h 4"
       id="path56"
       inkscape:connector-curvature="0"
       style="fill:none;stroke:#000000" />
    <path
       d="m 120.00003,-8 h 3"
       id="path58"
       inkscape:connector-curvature="0"
       style="fill:none;stroke:#000000" />
    <path
       d="m 130.00003,-9 h -1.5 l -0.29264,0.028822 -0.28139,0.085359 -0.25933,0.1386149 -0.2273,0.1865442 -0.18655,0.2273048 -0.13861,0.2593302 -0.0854,0.2813897 L 127.00003,-7.5 v 3 l 0.0288,0.2926355 0.0854,0.2813897 0.13861,0.2593302 0.18655,0.2273048 0.2273,0.1865442 0.25933,0.1386149 0.28139,0.085359 L 128.50003,-3 h 1.5"
       id="path60"
       inkscape:connector-curvature="0"
       style="fill:none;stroke:#000000" />
    <path
       d="m 133.00003,-12 v 9"
       id="path62"
       inkscape:connector-curvature="0"
       style="fill:none;stroke:#000000" />
    <path
       d="m 133.00003,-6.5 4,-2.5"
       id="path64"
       inkscape:connector-curvature="0"
       style="fill:none;stroke:#000000" />
    <path
       d="M 134.32095,-7.32555 137.00003,-3"
       id="path66"
       inkscape:connector-curvature="0"
       style="fill:none;stroke:#000000" />
    <path
       d="m 140.00003,-6 h 4 v -1 l -0.0384,-0.3901806 -0.11381,-0.3751863 -0.18482,-0.3457736 -0.24873,-0.3030731 -0.30307,-0.2487256 -0.34577,-0.1848199 -0.37519,-0.1138115 L 142.00003,-9 l -0.39018,0.038429 -0.37519,0.1138115 -0.34577,0.1848199 -0.30307,0.2487256 -0.24873,0.3030731 -0.18482,0.3457736 -0.11381,0.3751863 L 140.00003,-7 v 2.5 l 0.0288,0.2926355 0.0854,0.2813897 0.13861,0.2593302 0.18655,0.2273048 0.2273,0.1865442 0.25933,0.1386149 0.28139,0.085359 L 141.50003,-3 h 2.5"
       id="path68"
       inkscape:connector-curvature="0"
       style="fill:none;stroke:#000000" />
    <path
       d="m 157.75003,-12 h -4 v 9 h 4"
       id="path70"
       inkscape:connector-curvature="0"
       style="fill:none;stroke:#000000" />
    <path
       d="m 153.75003,-8 h 3"
       id="path72"
       inkscape:connector-curvature="0"
       style="fill:none;stroke:#000000" />
    <path
       d="M 160.75003,-3 V -9"
       id="path74"
       inkscape:connector-curvature="0"
       style="fill:none;stroke:#000000" />
    <path
       d="M 160.75003,-11.5 V -12"
       id="path76"
       inkscape:connector-curvature="0"
       style="fill:none;stroke:#000000" />
    <path
       d="m 167.75003,-3 v -4.5 l -0.0288,-0.2926355 -0.0854,-0.2813897 -0.13862,-0.2593302 -0.18654,-0.2273048 -0.22731,-0.1865442 -0.25933,-0.1386149 -0.28139,-0.085359 L 166.25003,-9 h -2.5 v 6"
       id="path78"
       inkscape:connector-curvature="0"
       style="fill:none;stroke:#000000" />
    <path
       d="m 170.75003,-9 h 3"
       id="path80"
       inkscape:connector-curvature="0"
       style="fill:none;stroke:#000000" />
    <path
       d="m 171.75003,-12 v 9"
       id="path82"
       inkscape:connector-curvature="0"
       style="fill:none;stroke:#000000" />
    <path
       d="m 179.75003,-8 -0.0192,-0.1950903 -0.0569,-0.1875931 -0.0924,-0.1728868 -0.12436,-0.1515366 -0.15154,-0.1243628 -0.17289,-0.09241 -0.18759,-0.056906 L 178.75003,-9 h -2 v 6"
       id="path84"
       inkscape:connector-curvature="0"
       style="fill:none;stroke:#000000" />
    <path
       d="m 186.75003,-6 h -2.5 l -0.29264,0.028822 -0.28139,0.085359 -0.25933,0.1386149 -0.2273,0.1865442 -0.18655,0.2273049 -0.13861,0.2593302 -0.0854,0.2813896 -0.0288,0.2926355 0.0288,0.2926355 0.0854,0.2813897 0.13861,0.2593302 0.18655,0.2273048 0.2273,0.1865442 0.25933,0.1386149 0.28139,0.085359 L 184.25003,-3 h 2.5 v -4.5 l -0.0288,-0.2926355 -0.0854,-0.2813897 -0.13862,-0.2593302 -0.18654,-0.2273048 -0.22731,-0.1865442 -0.25933,-0.1386149 -0.28139,-0.085359 L 185.25003,-9 h -2"
       id="path86"
       inkscape:connector-curvature="0"
       style="fill:none;stroke:#000000" />
    <path
       d="m 192.75003,-9 h -1.5 l -0.29264,0.028822 -0.28139,0.085359 -0.25933,0.1386149 -0.2273,0.1865442 -0.18655,0.2273048 -0.13861,0.2593302 -0.0854,0.2813897 L 189.75003,-7.5 v 3 l 0.0288,0.2926355 0.0854,0.2813897 0.13861,0.2593302 0.18655,0.2273048 0.2273,0.1865442 0.25933,0.1386149 0.28139,0.085359 L 191.25003,-3 h 1.5"
       id="path88"
       inkscape:connector-curvature="0"
       style="fill:none;stroke:#000000" />
    <path
       d="m 195.75003,-12 v 9"
       id="path90"
       inkscape:connector-curvature="0"
       style="fill:none;stroke:#000000" />
    <path
       d="m 199.75003,-3 v -4.5 l -0.0288,-0.2926355 -0.0854,-0.2813897 -0.13862,-0.2593302 -0.18654,-0.2273048 -0.22731,-0.1865442 -0.25933,-0.1386149 -0.28139,-0.085359 L 198.25003,-9 h -2.5"
       id="path92"
       inkscape:connector-curvature="0"
       style="fill:none;stroke:#000000" />
    <path
       d="m 202.75003,-9 h 3"
       id="path94"
       inkscape:connector-curvature="0"
       style="fill:none;stroke:#000000" />
    <path
       d="m 203.75003,-12 v 9"
       id="path96"
       inkscape:connector-curvature="0"
       style="fill:none;stroke:#000000" />
    <path
       d="m 215.50003,-9 2,6 2,-6"
       id="path98"
       inkscape:connector-curvature="0"
       style="fill:none;stroke:#000000" />
    <path
       d="m 222.50003,-6 h 4 v -1 l -0.0384,-0.3901806 -0.11381,-0.3751863 -0.18482,-0.3457736 -0.24873,-0.3030731 -0.30307,-0.2487256 -0.34577,-0.1848199 -0.37519,-0.1138115 L 224.50003,-9 l -0.39018,0.038429 -0.37519,0.1138115 -0.34577,0.1848199 -0.30307,0.2487256 -0.24873,0.3030731 -0.18482,0.3457736 -0.11381,0.3751863 L 222.50003,-7 v 2.5 l 0.0288,0.2926355 0.0854,0.2813897 0.13861,0.2593302 0.18655,0.2273048 0.2273,0.1865442 0.25933,0.1386149 0.28139,0.085359 L 224.00003,-3 h 2.5"
       id="path100"
       inkscape:connector-curvature="0"
       style="fill:none;stroke:#000000" />
    <path
       d="m 232.50003,-8 -0.0192,-0.1950903 -0.0569,-0.1875931 -0.0924,-0.1728868 -0.12436,-0.1515366 -0.15154,-0.1243628 -0.17289,-0.09241 -0.18759,-0.056906 L 231.50003,-9 h -2 v 6"
       id="path102"
       inkscape:connector-curvature="0"
       style="fill:none;stroke:#000000" />
    <path
       d="m 238.50003,-8 -0.0192,-0.1950903 -0.0569,-0.1875931 -0.0924,-0.1728868 -0.12436,-0.1515366 -0.15154,-0.1243628 -0.17289,-0.09241 -0.18759,-0.056906 L 237.50003,-9 h -2 v 6"
       id="path104"
       inkscape:connector-curvature="0"
       style="fill:none;stroke:#000000" />
    <path
       d="m 241.50003,-6 h 4 v -1 l -0.0384,-0.3901806 -0.11381,-0.3751863 -0.18482,-0.3457736 -0.24873,-0.3030731 -0.30307,-0.2487256 -0.34577,-0.1848199 -0.37519,-0.1138115 L 243.50003,-9 l -0.39018,0.038429 -0.37519,0.1138115 -0.34577,0.1848199 -0.30307,0.2487256 -0.24873,0.3030731 -0.18482,0.3457736 -0.11381,0.3751863 L 241.50003,-7 v 2.5 l 0.0288,0.2926355 0.0854,0.2813897 0.13861,0.2593302 0.18655,0.2273048 0.2273,0.1865442 0.25933,0.1386149 0.28139,0.085359 L 243.00003,-3 h 2.5"
       id="path106"
       inkscape:connector-curvature="0"
       style="fill:none;stroke:#000000" />
    <path
       d="m 251.50003,-9 h -1.5 l -0.29264,0.028822 -0.28139,0.085359 -0.25933,0.1386149 -0.2273,0.1865442 -0.18655,0.2273048 -0.13861,0.2593302 -0.0854,0.2813897 L 248.50003,-7.5 v 3 l 0.0288,0.2926355 0.0854,0.2813897 0.13861,0.2593302 0.18655,0.2273048 0.2273,0.1865442 0.25933,0.1386149 0.28139,0.085359 L 250.00003,-3 h 1.5"
       id="path108"
       inkscape:connector-curvature="0"
       style="fill:none;stroke:#000000" />
    <path
       d="m 254.50003,-12 v 9"
       id="path110"
       inkscape:connector-curvature="0"
       style="fill:none;stroke:#000000" />
    <path
       d="m 254.50003,-6.5 4,-2.5"
       id="path112"
       inkscape:connector-curvature="0"
       style="fill:none;stroke:#000000" />
    <path
       d="M 255.82095,-7.32555 258.50003,-3"
       id="path114"
       inkscape:connector-curvature="0"
       style="fill:none;stroke:#000000" />
    <path
       d="m 261.50003,-6 h 4 v -1 l -0.0384,-0.3901806 -0.11381,-0.3751863 -0.18482,-0.3457736 -0.24873,-0.3030731 -0.30307,-0.2487256 -0.34577,-0.1848199 -0.37519,-0.1138115 L 263.50003,-9 l -0.39018,0.038429 -0.37519,0.1138115 -0.34577,0.1848199 -0.30307,0.2487256 -0.24873,0.3030731 -0.18482,0.3457736 -0.11381,0.3751863 L 261.50003,-7 v 2.5 l 0.0288,0.2926355 0.0854,0.2813897 0.13861,0.2593302 0.18655,0.2273048 0.2273,0.1865442 0.25933,0.1386149 0.28139,0.085359 L 263.00003,-3 h 2.5"
       id="path116"
       inkscape:connector-curvature="0"
       style="fill:none;stroke:#000000" />
  </g>
</svg>
