<?xml version="1.0" encoding="UTF-8" standalone="no"?>
<svg
   xmlns:dc="http://purl.org/dc/elements/1.1/"
   xmlns:cc="http://creativecommons.org/ns#"
   xmlns:rdf="http://www.w3.org/1999/02/22-rdf-syntax-ns#"
   xmlns:svg="http://www.w3.org/2000/svg"
   xmlns="http://www.w3.org/2000/svg"
   xmlns:sodipodi="http://sodipodi.sourceforge.net/DTD/sodipodi-0.dtd"
   xmlns:inkscape="http://www.inkscape.org/namespaces/inkscape"
   width="104.064mm"
   height="98.945999mm"
   viewBox="0 0 104.064 98.945998"
   version="1.1"
   id="svg7331"
   inkscape:version="0.91 r13725"
   sodipodi:docname="GearsType3Teeth10.svg">
  <metadata
     id="metadata7359">
    <rdf:RDF>
      <cc:Work
         rdf:about="">
        <dc:format>image/svg+xml</dc:format>
        <dc:type
           rdf:resource="http://purl.org/dc/dcmitype/StillImage" />
        <dc:title></dc:title>
      </cc:Work>
    </rdf:RDF>
  </metadata>
  <defs
     id="defs7357" />
  <sodipodi:namedview
     pagecolor="#ffffff"
     bordercolor="#666666"
     borderopacity="1"
     objecttolerance="10"
     gridtolerance="10"
     guidetolerance="10"
     inkscape:pageopacity="0"
     inkscape:pageshadow="2"
     inkscape:window-width="1600"
     inkscape:window-height="837"
     id="namedview7355"
     showgrid="false"
     inkscape:zoom="1.819758"
     inkscape:cx="184.36536"
     inkscape:cy="175.29803"
     inkscape:window-x="-8"
     inkscape:window-y="-8"
     inkscape:window-maximized="1"
     inkscape:current-layer="svg7331"
     inkscape:document-units="mm"
     fit-margin-top="0"
     fit-margin-left="0"
     fit-margin-right="0"
     fit-margin-bottom="0" />
  <path
     style="opacity:1;fill:#000000"
     d="m 35.967995,0 c 7.902,0.446 10.486,9.006 15.964,13.156 5.74,-3.808 8.122,-12.886 16.138,-13.13 6.316,4.718 3.026,13.602 5.276,20 4.328,0.444 8.434,-2.316 12.86,-2.55 2.828,-1.142 5.448,0.53 8.032,1.46 2.152,7.85 -5.674,12.678 -7.732,19.396 5.666,3.908 14.646005,3.7 17.558005,11.076 -2.46,7.074 -10.848005,7.534 -16.582005,10.546 -1.888,0.672 -0.148,2.642 0.27,3.776 3.154,4.964 8.164,9.932 6.548,16.36 -2.486,0.812 -4.98,2.516 -7.692,1.59 -4.564,-0.308 -8.622,-2.926 -13.206,-2.904 -2.24,6.512 1.022,15.186 -5.204,20.17 -7.984,-0.194 -10.612,-8.966 -16.106,-13.138 -4.628,3.016 -6.582,9.072 -11.422,11.962 -1.95,0.246 -4.894,2.48 -5.97,-0.202 -4.910004,-4.962 -1.778004,-12.718 -3.958004,-18.694 -6.85,-0.052 -14.33,5.672 -20.7639996,1.19 C 7.5539914,72.25 15.583991,67.318 17.477991,60.65 11.813991,56.638 2.5639914,57.046 -8.6127388e-6,49.412 2.7139914,41.816 12.035991,42.51 17.463991,38.304 15.533991,31.69 7.6919914,26.784 9.9119914,19.02 16.317991,14.478 23.913991,20.118 30.731991,20.118 32.695991,13.568 29.707991,4.946 35.967995,0"
     id="path7448" />
</svg>
