<?xml version="1.0" encoding="UTF-8" standalone="no"?>
<svg
   xmlns:dc="http://purl.org/dc/elements/1.1/"
   xmlns:cc="http://creativecommons.org/ns#"
   xmlns:rdf="http://www.w3.org/1999/02/22-rdf-syntax-ns#"
   xmlns:svg="http://www.w3.org/2000/svg"
   xmlns="http://www.w3.org/2000/svg"
   xmlns:xlink="http://www.w3.org/1999/xlink"
   xmlns:sodipodi="http://sodipodi.sourceforge.net/DTD/sodipodi-0.dtd"
   xmlns:inkscape="http://www.inkscape.org/namespaces/inkscape"
   width="280mm"
   height="280mm"
   viewBox="0 0 280 280"
   xml:space="preserve"
   id="svg3684"
   version="1.1"
   inkscape:version="0.91 r13725"
   sodipodi:docname="heartsymbol2.1.svg"><metadata
     id="metadata3710"><rdf:RDF><cc:Work
         rdf:about=""><dc:format>image/svg+xml</dc:format><dc:type
           rdf:resource="http://purl.org/dc/dcmitype/StillImage" /><dc:title></dc:title></cc:Work></rdf:RDF></metadata><sodipodi:namedview
     pagecolor="#ffffff"
     bordercolor="#666666"
     borderopacity="1"
     objecttolerance="10"
     gridtolerance="10"
     guidetolerance="10"
     inkscape:pageopacity="0"
     inkscape:pageshadow="2"
     inkscape:window-width="1600"
     inkscape:window-height="837"
     id="namedview3708"
     showgrid="false"
     inkscape:zoom="0.23787302"
     inkscape:cx="-220.70599"
     inkscape:cy="496.06299"
     inkscape:window-x="-8"
     inkscape:window-y="-8"
     inkscape:window-maximized="1"
     inkscape:current-layer="svg3684" /><defs
     id="defs3686"><symbol
       id="Heart"
       viewBox="0 0 280 272"><path
         d="M140,58c30,-60,110,-60,130,0c30,100,-110,150,-130,210M140,58c-30,-60,-110,-60,-130,0c-30,100,110,150,130,210"
         id="path3689" /></symbol><clipPath
       id="H1"><path
         d="M140,58c30,-60,110,-60,130,0c30,100,-110,150,-130,210M140,58c-30,-60,-110,-60,-130,0c-30,100,110,150,130,210"
         id="path3692" /></clipPath></defs><g
     id="g3694"><g
       style="overflow:visible;fill:#ff0000;stroke:#ffc0cb;stroke-width:2px"
       id="g3696"><use
         x="0"
         y="0"
         width="280"
         height="270"
         xlink:href="#Heart"
         id="use3698" /></g><g
       style="fill:none;stroke:#ffffff;stroke-width:0.5px"
       id="g3700"><use
         x="0"
         y="0"
         width="280"
         height="270"
         xlink:href="#Heart"
         id="use3702" /></g><g
       transform="matrix(0.1,0,0,0.1,126,51)"
       style="fill:#ffc0cb;stroke:#ffffff;stroke-width:4px"
       id="g3704"><use
         x="0"
         y="0"
         width="280"
         height="270"
         xlink:href="#Heart"
         id="use3706" /></g></g></svg>