<?xml version="1.0" encoding="UTF-8" standalone="no"?>
<!--?xml version="1.0" encoding="utf-8"?-->

<!-- Generator: Adobe Illustrator 15.0.0, SVG Export Plug-In . SVG Version: 6.00 Build 0)  -->

<svg
   xmlns:dc="http://purl.org/dc/elements/1.1/"
   xmlns:cc="http://creativecommons.org/ns#"
   xmlns:rdf="http://www.w3.org/1999/02/22-rdf-syntax-ns#"
   xmlns:svg="http://www.w3.org/2000/svg"
   xmlns="http://www.w3.org/2000/svg"
   xmlns:sodipodi="http://sodipodi.sourceforge.net/DTD/sodipodi-0.dtd"
   xmlns:inkscape="http://www.inkscape.org/namespaces/inkscape"
   width="25.694275mm"
   height="37.056263mm"
   id="svg2"
   version="1.1"
   inkscape:version="0.91 r13725"
   sodipodi:docname="horse-white.svg">
  <metadata
     id="metadata25">
    <rdf:RDF>
      <cc:Work
         rdf:about="">
        <dc:format>image/svg+xml</dc:format>
        <dc:type
           rdf:resource="http://purl.org/dc/dcmitype/StillImage" />
        <dc:title></dc:title>
      </cc:Work>
    </rdf:RDF>
  </metadata>
  <defs
     id="defs23" />
  <sodipodi:namedview
     pagecolor="#ffffff"
     bordercolor="#666666"
     borderopacity="1"
     objecttolerance="10"
     gridtolerance="10"
     guidetolerance="10"
     inkscape:pageopacity="0"
     inkscape:pageshadow="2"
     inkscape:window-width="1600"
     inkscape:window-height="837"
     id="namedview21"
     showgrid="false"
     units="mm"
     inkscape:document-units="mm"
     fit-margin-top="0"
     fit-margin-left="0"
     fit-margin-right="0"
     fit-margin-bottom="0"
     inkscape:zoom="3.4163804"
     inkscape:cx="18.385788"
     inkscape:cy="49.515423"
     inkscape:window-x="-8"
     inkscape:window-y="-8"
     inkscape:window-maximized="1"
     inkscape:current-layer="svg2" />
  <path
     stroke-miterlimit="10"
     d="m 64.184813,12.835704 c 0,0 4.147049,-11.3997219 -1.678362,-12.21165301 -5.822445,-0.81439 7.724024,-0.2414333 7.445594,7.60277181 -0.278226,7.8451772 1.562619,0.071849 8.190199,3.4167322 6.629175,3.34536 -0.560335,3.415235 -3.498762,5.819732 -2.937227,2.405463 5.130769,-10.4659682 7.222465,3.852669 2.091917,14.322046 3.818206,4.12328 -5.7657,5.120538 0,0 7.525889,5.366437 3.4453,14.195637 0,0 -2.709531,-7.522074 -4.242043,-5.617645 0,0 2.719866,9.169082 -1.400428,14.684916 -4.117703,5.516304 -3.882921,-8.441278 -6.479712,-5.214287 0,0 3.602137,4.955716 0.588317,12.535431 -3.012431,7.579219 -1.918443,-7.235991 -7.897435,-3.452506 -5.976402,3.783952 -3.549311,11.541519 3.617244,12.529748 7.168166,0.991141 -2.954026,4.329457 -9.60684,-1.44006 -6.654033,-5.772919 -2.937137,-13.1083 -1.895325,-15.498864 1.039634,-2.389084 29.209699,-27.067885 11.955488,-36.32316 z"
     id="path-0"
     inkscape:connector-curvature="0"
     style="fill:#ffffff;stroke:#000000;stroke-width:0.69616699;stroke-miterlimit:10" />
  <path
     stroke-miterlimit="10"
     d="m 72.623734,83.950571 c 0,0 6.744429,-7.312306 13.903928,0.774998 7.160511,8.089733 4.352937,16.532401 -2.790597,27.535061 -7.144142,11.00217 -10.908255,13.55551 -8.265128,14.51947 1.301229,0.47531 0.742866,0.96769 -0.500213,0.90665 -1.277289,-0.0603 -3.282066,-0.70441 -4.726809,-2.55188 -8.817013,-11.28353 20.395317,-31.463401 6.569869,-36.126189 -8.385464,-2.827614 -6.168231,-3.483242 -4.19105,-5.05811 l 0,0 z"
     id="path-1"
     inkscape:connector-curvature="0"
     style="fill:#ffffff;stroke:#000000;stroke-width:0.69616699;stroke-miterlimit:10" />
  <path
     stroke-miterlimit="10"
     d="m 44.627587,91.491613 c 0,0 -1.340743,5.202059 -2.129365,6.893432 -0.790422,1.689925 -4.833289,5.651185 -6.606078,6.083775 -1.772566,0.436 -3.342476,7.51634 -3.252208,8.78266 0.08807,1.26537 -3.634462,-1.99268 -4.375717,-1.42537 -0.741256,0.5673 6.110867,5.14926 9.336117,7.51286 3.225041,2.36263 8.977328,-11.15598 11.250653,-13.981 2.271354,-2.82258 9.348168,-15.861669 -4.223402,-13.866357 l 0,0 z"
     id="path-2"
     inkscape:connector-curvature="0"
     style="fill:#ffffff;stroke:#000000;stroke-width:0.69616699;stroke-miterlimit:10" />
  <path
     stroke-miterlimit="10"
     d="m 33.487526,109.75081 c 0,0 -8.954634,-3.09583 -11.695169,-0.205 -0.543318,0.56829 19.708035,16.56189 20.988072,16.38534 1.281831,-0.1751 -0.934328,-9.45411 -0.934328,-9.45411 0,0 -11.959759,-6.02047 -8.358575,-6.72623 z"
     id="path-3"
     style="fill:#ffffff;stroke:#000000;stroke-width:0.69616699;stroke-miterlimit:10"
     inkscape:connector-curvature="0" />
  <path
     stroke-miterlimit="10"
     d="m 28.041709,72.428365 c 0,0 -6.177945,8.058099 -8.749801,8.779685 -2.574445,0.721117 -4.807414,2.414818 -3.513116,6.480132 1.293301,4.065325 -1.74801,4.641728 -2.025209,5.349869 -0.277605,0.706185 -6.8838275,-2.049707 -9.6554707,-0.55769 -2.7694329,1.495413 5.3442109,5.928737 8.3948427,8.151809 3.050814,2.22162 10.739598,-5.917755 13.03077,-9.473866 2.292561,-3.556608 8.213669,-13.556185 3.092823,-19.198562 -1.905778,-2.098943 -0.574839,0.468623 -0.574839,0.468623 z"
     id="path-4"
     style="fill:#ffffff;stroke:#000000;stroke-width:0.69616699;stroke-miterlimit:10"
     inkscape:connector-curvature="0" />
  <path
     stroke-miterlimit="10"
     d="m 65.264366,9.9166292 c 0,0 -9.591446,4.8460288 -12.344947,4.7244528 -2.750518,-0.121598 -6.885399,-1.35236 -6.885399,-1.35236 0,0 10.494246,17.750378 0.362414,19.369562 -10.131848,1.616747 -14.932822,-4.805228 -16.092826,-6.900876 -0.580909,-1.049769 -1.994223,-0.266524 -2.411809,1.316378 -0.419986,1.580972 0.156769,3.964029 3.551624,6.114407 6.79172,4.303176 18.274315,7.728371 21.185543,5.881061 2.910043,-1.84584 -4.362389,7.191497 -9.451666,8.913492 -5.088884,1.721503 -15.625464,10.924135 -16.467921,21.878549 -0.840449,10.956837 -1.178433,12.082065 -2.141286,13.632426 -0.964445,1.549886 -4.679379,2.983045 -4.249174,7.05081 0.42861,4.067287 -3.898511,8.029173 -5.795149,7.201539 -1.897233,-0.828125 -4.7669788,-1.509239 -6.8213555,-0.370428 -2.0539822,1.13832 13.2698435,12.178148 14.7417355,14.241288 1.473684,2.06459 0.610231,-6.7736 1.113025,-8.46239 0.504981,-1.68782 3.57277,-5.500111 3.57277,-5.500111 0,0 4.960588,-3.68634 4.935647,-7.196196 -0.02356,-3.510355 2.976521,-3.343809 3.909959,-3.444717 0.388208,-0.04135 0.818854,0.707394 1.565533,1.709653 1.061099,1.424874 2.757088,3.36065 5.870117,4.273887 5.30077,1.551125 3.043522,6.481667 2.708521,7.606874 -0.338188,1.12425 -4.404007,1.57564 -5.59969,2.70766 -1.194295,1.13152 -0.925812,7.16576 -1.996636,9.56043 -1.071823,2.39468 -6.525474,1.02985 -8.008585,2.16398 -1.48052,1.1346 8.999125,8.63809 11.30222,10.0246 2.301709,1.387 2.652458,-5.7755 2.583986,-7.45961 -0.06767,-1.68265 3.522607,-4.37749 4.763624,-7.33381 1.240624,-2.95583 14.597707,-2.21142 18.803143,-7.43744 4.203857,-5.22407 14.06324,-14.263354 3.174281,-21.641522 -12.349267,-8.36592 -29.97492,-18.728545 -7.923267,-35.456395 24.854334,-18.855542 5.77907,-31.39745 2.045568,-35.8151938 l 0,0 z"
     id="path-5"
     style="fill:#ffffff;stroke:#000000;stroke-width:0.69616699;stroke-miterlimit:10"
     inkscape:connector-curvature="0" />
  <path
     stroke-miterlimit="10"
     d="m 29.269235,24.920998 c 0,0 -5.838265,-12.453007 0.631407,-16.7074197 9.070955,-5.961053 23.778194,10.0615867 25.075958,15.5268957 1.298552,5.464331 -8.459598,18.317964 -25.707365,1.180524 l 0,0 z"
     id="path-6"
     style="fill:#ffffff;stroke:#000000;stroke-width:0.69616699;stroke-miterlimit:10"
     inkscape:connector-curvature="0" />
  <path
     stroke-miterlimit="10"
     d="m 11.160832,93.410874 c 0,0 -8.3135881,-4.870421 -10.77757576,-1.82812 -0.63576733,0.783837 7.13874286,6.834112 8.58163496,8.239126 1.4404898,1.40308 10.2611408,1.93912 2.1959408,-6.411006 z"
     id="path-7"
     style="fill:#ffffff;stroke:#000000;stroke-width:0.69616699;stroke-miterlimit:10"
     inkscape:connector-curvature="0" />
  <path
     stroke-miterlimit="10"
     d="m 15.890068,97.704358 c 0,0 -8.9546337,-3.095831 -11.6983584,-0.205949 -0.540326,0.570693 19.7112274,16.562841 20.9906654,16.385801 1.281236,-0.17558 -0.935529,-9.45507 -0.935529,-9.45507 0,0 -11.958555,-6.019513 -8.356778,-6.724782 z"
     id="path-8"
     style="fill:#ffffff;stroke:#000000;stroke-width:0.69616699;stroke-miterlimit:10"
     inkscape:connector-curvature="0" />
  <path
     stroke-miterlimit="10"
     d="m 38.27984,114.76942 c 0,0 -8.952249,-3.09634 -11.696164,-0.205 -0.538752,0.56874 19.711622,16.56235 20.991256,16.3863 1.281032,-0.17656 -0.936517,-9.45508 -0.936517,-9.45508 0,0 -11.958969,-6.02145 -8.358575,-6.72622 z"
     id="path-9"
     style="fill:#ffffff;stroke:#000000;stroke-width:0.69616699;stroke-miterlimit:10"
     inkscape:connector-curvature="0" />
  <path
     stroke-miterlimit="10"
     d="m 64.764203,10.165903 c -3.95e-4,4.91e-4 -3.95e-4,4.91e-4 -3.95e-4,4.91e-4 -4.507262,1.746955 -8.545542,4.466533 -13.200326,4.05631 -0.01379,0.191616 -0.01928,0.377801 -0.01926,0.554692 4.107556,0.208113 7.31726,-1.683297 10.776334,-3.44107 0.795673,-0.406408 1.606124,-0.804154 2.443457,-1.16896 -2.05e-4,-9.72e-4 -2.05e-4,-9.72e-4 2.16e-4,-0.0015 l 0,0 z m 2.368777,1.565357 c -0.04517,-0.0016 -0.07719,-0.0023 -0.09372,-0.0027 0.0186,0.01741 0.03602,0.03386 0.05306,0.05078 1.820015,1.834481 3.537535,3.690667 4.927324,5.617485 0.03396,-0.124497 0.07193,-0.244169 0.117661,-0.362432 -1.450692,-1.844985 -3.186356,-3.591396 -5.004332,-5.30309 l 0,0 z m -1.424042,-1.325234 c 0.438411,0.431938 0.874231,0.863411 1.306088,1.297349 -0.03382,-0.05872 -0.06746,-0.118901 -0.100083,-0.176639 -0.400623,-0.375692 -0.803616,-0.748439 -1.206008,-1.120707 l 0,0 z"
     id="path-10"
     style="fill:#ffffff;stroke:#000000;stroke-width:0.69616699;stroke-miterlimit:10"
     inkscape:connector-curvature="0" />
  <path
     stroke-miterlimit="10"
     d="m 59.432445,16.427927 c 0,0 -7.016897,1.306355 -6.575368,-3.562118 0.438751,-4.8674777 7.399936,-11.3802495 12.496366,-2.058559 0,0 5.658015,-0.04157 6.23901,5.241884 0.552914,5.018565 -9.462459,13.821682 -12.160008,0.378793 z"
     id="path-11"
     style="fill:#ffffff;stroke:#000000;stroke-width:0.69616699;stroke-miterlimit:10"
     inkscape:connector-curvature="0" />
  <ellipse
     stroke-miterlimit="10"
     cx="54.377048"
     cy="-25.940643"
     id="circle-0"
     style="fill:#ffffff;stroke:#000000;stroke-width:0.69616699;stroke-miterlimit:10"
     rx="2.265311"
     ry="1.8505001"
     transform="matrix(0.77907573,0.62692983,-0.62692983,0.77907573,0,0)" />
  <ellipse
     stroke-miterlimit="10"
     cx="59.298187"
     cy="-25.775791"
     rx="2.5533853"
     ry="1.9738249"
     id="ellipse-0"
     style="fill:#ffffff;stroke:#000000;stroke-width:0.69616699;stroke-miterlimit:10"
     transform="matrix(0.77907573,0.62692983,-0.62692983,0.77907573,0,0)" />
  <path
     stroke-miterlimit="10"
     d="m 36.75231,86.720302 c -0.06901,-0.05553 -0.147156,-0.112 -0.243281,-0.173153 0.486485,0.798526 1.173344,1.663803 2.129567,2.561698 -0.455933,-0.550225 -0.867277,-1.125144 -1.291259,-1.715076 -0.202192,-0.214383 -0.275785,-0.416568 -0.595029,-0.673466 l 0,0 z m 8.982364,6.750885 c -0.671494,-0.540359 -1.433415,-0.924116 -2.112141,-1.069705 -0.271676,-0.07889 -0.536053,-0.16808 -0.794125,-0.265106 0.974008,0.5625 2.071166,1.127994 3.308936,1.689533 -0.129754,-0.123796 -0.264049,-0.243173 -0.40267,-0.354722 l 0,0 z"
     id="path-12"
     style="fill:#ffffff;stroke:#000000;stroke-width:0.69616699;stroke-miterlimit:10"
     inkscape:connector-curvature="0" />
  <ellipse
     stroke-miterlimit="10"
     cx="31.988901"
     cy="-11.787242"
     rx="1.4388307"
     ry="0.65123004"
     id="ellipse-1"
     style="fill:#ffffff;stroke:#000000;stroke-width:0.69616699;stroke-miterlimit:10"
     transform="matrix(0.77907573,0.62692983,-0.62692983,0.77907573,0,0)" />
  <ellipse
     stroke-miterlimit="10"
     cx="39.822361"
     cy="-10.331883"
     rx="2.4894545"
     ry="0.94381171"
     id="ellipse-2"
     style="fill:#ffffff;stroke:#000000;stroke-width:0.69616699;stroke-miterlimit:10"
     transform="matrix(0.77907573,0.62692983,-0.62692983,0.77907573,0,0)" />
</svg>




