<?xml version="1.0" encoding="UTF-8" standalone="no"?>
<svg
   xmlns:dc="http://purl.org/dc/elements/1.1/"
   xmlns:cc="http://creativecommons.org/ns#"
   xmlns:rdf="http://www.w3.org/1999/02/22-rdf-syntax-ns#"
   xmlns:svg="http://www.w3.org/2000/svg"
   xmlns="http://www.w3.org/2000/svg"
   xmlns:sodipodi="http://sodipodi.sourceforge.net/DTD/sodipodi-0.dtd"
   xmlns:inkscape="http://www.inkscape.org/namespaces/inkscape"
   width="200mm"
   height="200mm"
   id="svg2"
   version="1.1"
   inkscape:version="0.91 r13725"
   sodipodi:docname="js.svg">
  <metadata
     id="metadata12">
    <rdf:RDF>
      <cc:Work
         rdf:about="">
        <dc:format>image/svg+xml</dc:format>
        <dc:type
           rdf:resource="http://purl.org/dc/dcmitype/StillImage" />
      </cc:Work>
    </rdf:RDF>
  </metadata>
  <defs
     id="defs10" />
  <sodipodi:namedview
     pagecolor="#ffffff"
     bordercolor="#666666"
     borderopacity="1"
     objecttolerance="10"
     gridtolerance="10"
     guidetolerance="10"
     inkscape:pageopacity="0"
     inkscape:pageshadow="2"
     inkscape:window-width="1600"
     inkscape:window-height="837"
     id="namedview8"
     showgrid="false"
     inkscape:zoom="0.66604444"
     inkscape:cx="-78.823575"
     inkscape:cy="177.16535"
     inkscape:window-x="-8"
     inkscape:window-y="-8"
     inkscape:window-maximized="1"
     inkscape:current-layer="svg2" />
  <title
     id="title4">CncControl SerialEmulatorSVG output</title>
  <desc
     id="desc6">....</desc>
  <g
     transform="matrix(1.1115316,-1.1115316,1.2621304,1.2621304,-194.73237,436.13776)"
     CncSvgPattern="#ltCncSvgPattern#gt#ltTemplate name='SVG Path' td='3.125' tc='0' cs='4630149532'/#gt#ltRefPoint x='0.000' y='0.000'/#gt#ltTransform tlX='5.000' tlY='5.000' scX='1.000' scY='1.000' roA='0.000' roX='0.000' roY='0.000' skX='0.000' skY='0.000'/#gt#ltCncParameterBlock reverse='no' depth='z-0.000' correction='none'/#gt#ltParameter idx='0' name='Path d [px]' type='string' value='M348.000,257.000 L 364.000,148.000 362.000,148.000 326.000,241.000 295.000,219.000 258.000,88.000 440.000,129.000 370.000,196.000 372.000,275.000 z'/#gt#ltParameter idx='1' name='Inlay Mode' type='list' value='Whole'/#gt#ltParameter idx='2' name='Reference Point(x/y)' type='list' value='top/left'/#gt#lt/CncSvgPattern#gt"
     id="g8">
    <!-- Config Block
<CncSvgPattern>
  <Template name="SVG Path" td="3.125" tc="0" cs="4630149532"/>
  <RefPoint x="0.000" y="0.000"/>
  <Transform tlX="5.000" tlY="5.000" scX="1.000" scY="1.000" roA="0.000" roX="0.000" roY="0.000" skX="0.000" skY="0.000"/>
  <CncParameterBlock reverse="no" depth="z-0.000" correction="none"/>
  <Parameter idx="0" name="Path d [px]" type="string" value="M348.000,257.000 L 364.000,148.000 362.000,148.000 326.000,241.000 295.000,219.000 258.000,88.000 440.000,129.000 370.000,196.000 372.000,275.000 z"/>
  <Parameter idx="1" name="Inlay Mode" type="list" value="Whole"/>
  <Parameter idx="2" name="Reference Point(x/y)" type="list" value="top/left"/>
</CncSvgPattern>
 -->
    <!-- SVG Path Generator: Generated Path Result: -->
    <CncParameterBlock
       reverse="no"
       depth="z-0.000"
       correction="none" />
    <path
       d="m 258.197,82.467 0.105,0.005 0.105,0.007 0.105,0.008 0.105,0.011 0.104,0.013 0.104,0.014 0.104,0.017 0.104,0.019 0.103,0.02 0.081,0.018 182,41 0.102,0.024 0.102,0.026 0.102,0.028 0.1,0.03 0.101,0.032 0.099,0.033 0.099,0.036 0.099,0.038 0.097,0.039 0.097,0.041 0.096,0.043 0.095,0.045 0.095,0.047 0.093,0.048 0.093,0.05 0.091,0.052 0.091,0.054 0.089,0.055 0.089,0.057 0.087,0.059 0.086,0.06 0.085,0.062 0.084,0.064 0.082,0.065 0.082,0.067 0.08,0.068 0.079,0.07 0.077,0.071 0.076,0.073 0.075,0.074 0.073,0.076 0.072,0.077 0.07,0.078 0.069,0.08 0.067,0.081 0.066,0.082 0.064,0.083 0.062,0.085 0.061,0.086 0.06,0.087 0.057,0.088 0.056,0.089 0.054,0.09 0.053,0.091 0.051,0.092 0.049,0.093 0.047,0.094 0.045,0.095 0.044,0.096 0.042,0.097 0.04,0.097 0.038,0.098 0.036,0.099 0.034,0.099 0.033,0.1 0.03,0.101 0.029,0.101 0.027,0.102 0.024,0.102 0.023,0.103 0.021,0.103 0.019,0.104 0.017,0.104 0.015,0.104 0.013,0.104 0.011,0.105 0.009,0.105 0.006,0.105 0.005,0.105 0.003,0.105 10e-4,0.105 -10e-4,0.106 -0.003,0.105 -0.005,0.105 -0.007,0.105 -0.009,0.105 -0.011,0.104 -0.013,0.105 -0.015,0.104 -0.017,0.104 -0.019,0.103 -0.02,0.103 -0.023,0.103 -0.025,0.102 -0.027,0.102 -0.028,0.101 -0.031,0.101 -0.033,0.1 -0.034,0.1 -0.036,0.098 -0.038,0.098 -0.04,0.098 -0.042,0.096 -0.044,0.096 -0.045,0.095 -0.048,0.094 -0.049,0.093 -0.05,0.092 -0.053,0.091 -0.054,0.091 -0.056,0.089 -0.058,0.088 -0.059,0.087 -0.061,0.085 -0.063,0.085 -0.064,0.083 -0.066,0.082 -0.067,0.081 -0.069,0.08 -0.07,0.078 -0.072,0.077 -0.073,0.076 -0.11,0.108 -68.231,65.307 1.938,76.553 10e-4,0.105 0,0.105 -0.002,0.106 -0.005,0.105 -0.006,0.105 -0.008,0.105 -0.011,0.104 -0.012,0.105 -0.014,0.104 -0.017,0.104 -0.018,0.104 -0.02,0.103 -0.022,0.103 -0.024,0.102 -0.026,0.102 -0.028,0.102 -0.03,0.1 -0.032,0.101 -0.034,0.099 -0.035,0.099 -0.038,0.099 -0.039,0.097 -0.042,0.097 -0.043,0.096 -0.044,0.095 -0.047,0.095 -0.048,0.093 -0.051,0.093 -0.052,0.091 -0.053,0.091 -0.056,0.089 -0.057,0.088 -0.059,0.088 -0.06,0.086 -0.062,0.085 -0.064,0.084 -0.065,0.082 -0.067,0.082 -0.068,0.08 -0.07,0.078 -0.071,0.078 -0.073,0.076 -0.074,0.074 -0.076,0.074 -0.077,0.071 -0.078,0.071 -0.079,0.068 -0.081,0.068 -0.166,0.13 -0.085,0.062 -0.085,0.061 -0.087,0.059 -0.089,0.058 -0.089,0.056 -0.09,0.054 -0.091,0.052 -0.092,0.051 -0.093,0.049 -0.094,0.047 -0.095,0.046 -0.096,0.043 -0.097,0.042 -0.097,0.04 -0.098,0.038 -0.099,0.036 -0.099,0.035 -0.101,0.032 -0.1,0.031 -0.101,0.028 -0.102,0.027 -0.103,0.025 -0.102,0.022 -0.103,0.021 -0.104,0.019 -0.104,0.017 -0.104,0.015 -0.104,0.013 -0.105,0.011 -0.105,0.009 -0.105,0.007 -0.105,0.005 -0.105,0.002 -0.105,10e-4 -0.106,-10e-4 -0.105,-0.003 -0.105,-0.005 -0.105,-0.007 -0.105,-0.009 -0.104,-0.011 -0.105,-0.013 -0.104,-0.015 -0.104,-0.017 -0.103,-0.019 -0.103,-0.021 -0.103,-0.023 -0.102,-0.024 -0.102,-0.027 -0.101,-0.029 -0.101,-0.03 -0.1,-0.033 -0.1,-0.034 -0.098,-0.037 -0.098,-0.038 -0.098,-0.04 -0.096,-0.042 -0.096,-0.043 -0.095,-0.046 -0.094,-0.047 -0.093,-0.049 -0.092,-0.051 -0.091,-0.052 -0.09,-0.055 -0.09,-0.056 -0.088,-0.057 -0.086,-0.06 -0.086,-0.061 -0.071,-0.052 -24,-18 -0.083,-0.064 -0.083,-0.065 -0.081,-0.067 -0.08,-0.069 -0.078,-0.07 -0.077,-0.072 -0.076,-0.073 -0.074,-0.074 -0.073,-0.076 -0.072,-0.077 -0.07,-0.079 -0.068,-0.08 -0.067,-0.081 -0.066,-0.082 -0.063,-0.084 -0.063,-0.085 -0.06,-0.086 -0.059,-0.087 -0.058,-0.088 -0.055,-0.09 -0.054,-0.09 -0.052,-0.091 -0.051,-0.093 -0.048,-0.093 -0.047,-0.094 -0.045,-0.095 -0.043,-0.096 -0.042,-0.097 -0.039,-0.097 -0.038,-0.099 -0.036,-0.099 -0.034,-0.099 -0.032,-0.1 -0.03,-0.101 -0.028,-0.102 -0.027,-0.102 -0.024,-0.102 -0.022,-0.103 -0.021,-0.103 -0.018,-0.104 -0.017,-0.103 -0.014,-0.105 -0.013,-0.104 -0.011,-0.105 -0.008,-0.105 -0.007,-0.105 -0.004,-0.105 -0.003,-0.105 0,-0.105 10e-4,-0.105 0.003,-0.106 0.006,-0.105 0.007,-0.105 0.01,-0.105 0.011,-0.104 0.02,-0.152 10.059,-68.527 -21.418,55.33 -0.039,0.097 -0.041,0.097 -0.042,0.097 -0.045,0.095 -0.046,0.095 -0.048,0.093 -0.05,0.093 -0.051,0.092 -0.053,0.09 -0.055,0.09 -0.057,0.089 -0.059,0.087 -0.06,0.087 -0.061,0.085 -0.063,0.084 -0.065,0.083 -0.067,0.082 -0.068,0.08 -0.069,0.079 -0.071,0.078 -0.072,0.076 -0.074,0.075 -0.076,0.074 -0.076,0.072 -0.078,0.07 -0.08,0.069 -0.08,0.068 -0.082,0.066 -0.083,0.065 -0.17,0.124 -0.087,0.059 -0.088,0.058 -0.088,0.057 -0.09,0.054 -0.091,0.053 -0.092,0.051 -0.093,0.05 -0.094,0.047 -0.095,0.046 -0.095,0.044 -0.097,0.042 -0.097,0.041 -0.098,0.038 -0.099,0.037 -0.099,0.035 -0.1,0.033 -0.1,0.031 -0.101,0.029 -0.102,0.027 -0.102,0.025 -0.103,0.023 -0.103,0.021 -0.103,0.02 -0.104,0.017 -0.104,0.015 -0.105,0.014 -0.104,0.011 -0.105,0.01 -0.105,0.007 -0.105,0.006 -0.105,0.003 -0.106,0.001 -0.105,0 -0.105,-0.003 -0.105,-0.004 -0.105,-0.007 -0.105,-0.008 -0.105,-0.011 -0.104,-0.013 -0.104,-0.014 -0.104,-0.017 -0.104,-0.018 -0.103,-0.021 -0.103,-0.022 -0.102,-0.024 -0.102,-0.027 -0.102,-0.028 -0.1,-0.03 -0.101,-0.032 -0.099,-0.034 -0.099,-0.036 -0.098,-0.038 -0.098,-0.039 -0.097,-0.042 -0.096,-0.043 -0.095,-0.045 -0.094,-0.047 -0.093,-0.048 -0.093,-0.051 -0.091,-0.052 -0.09,-0.054 -0.09,-0.055 -0.088,-0.058 -0.087,-0.059 -0.059,-0.041 -31,-22 -0.085,-0.062 -0.084,-0.063 -0.083,-0.065 -0.082,-0.066 -0.08,-0.068 -0.079,-0.07 -0.078,-0.071 -0.076,-0.072 -0.075,-0.074 -0.146,-0.152 -0.07,-0.078 -0.069,-0.08 -0.068,-0.08 -0.066,-0.082 -0.064,-0.084 -0.063,-0.084 -0.061,-0.086 -0.06,-0.086 -0.058,-0.088 -0.056,-0.089 -0.055,-0.09 -0.052,-0.091 -0.051,-0.092 -0.05,-0.093 -0.047,-0.094 -0.046,-0.095 -0.044,-0.095 -0.042,-0.097 -0.04,-0.097 -0.039,-0.098 -0.036,-0.099 -0.035,-0.099 -0.033,-0.1 -0.031,-0.1 -0.02,-0.07 -37,-131 -0.028,-0.102 -0.025,-0.102 -0.024,-0.102 -0.022,-0.103 -0.02,-0.104 -0.018,-0.103 -0.016,-0.104 -0.013,-0.105 -0.012,-0.104 -0.01,-0.105 -0.008,-0.105 -0.006,-0.105 -0.004,-0.105 -0.002,-0.105 0,-0.105 0.002,-0.106 0.004,-0.105 0.006,-0.105 0.008,-0.105 0.01,-0.104 0.012,-0.105 0.014,-0.104 0.016,-0.104 0.018,-0.104 0.02,-0.103 0.022,-0.103 0.024,-0.103 0.025,-0.102 0.028,-0.101 0.03,-0.101 0.031,-0.101 0.034,-0.099 0.035,-0.1 0.037,-0.098 0.039,-0.098 0.041,-0.097 0.043,-0.096 0.044,-0.095 0.047,-0.095 0.048,-0.093 0.05,-0.093 0.052,-0.091 0.053,-0.091 0.055,-0.09 0.057,-0.088 0.059,-0.088 0.06,-0.086 0.061,-0.085 0.064,-0.084 0.065,-0.083 0.066,-0.081 0.068,-0.081 0.07,-0.079 0.071,-0.077 0.073,-0.076 0.074,-0.075 0.075,-0.074 0.077,-0.072 0.078,-0.07 0.079,-0.069 0.081,-0.068 0.082,-0.066 0.083,-0.064 0.085,-0.063 0.085,-0.061 0.087,-0.059 0.088,-0.058 0.089,-0.056 0.09,-0.055 0.091,-0.053 0.092,-0.051 0.093,-0.049 0.094,-0.047 0.095,-0.046 0.096,-0.044 0.096,-0.042 0.097,-0.04 0.098,-0.039 0.099,-0.036 0.099,-0.035 0.1,-0.032 0.101,-0.031 0.101,-0.029 0.102,-0.027 0.102,-0.025 0.103,-0.023 0.103,-0.021 0.103,-0.019 0.104,-0.017 0.104,-0.016 0.105,-0.013 0.104,-0.011 0.105,-0.009 0.105,-0.008 0.105,-0.005 0.105,-0.003 0.106,-0.001 0.105,0 0.105,0.003"
       id="path10"
       inkscape:connector-curvature="0"
       style="fill:none;stroke:#000000;stroke-width:1" />
    <path
       d="m 428.72,132.134 -60.779,58.174 -0.107,0.103 -0.106,0.105 -0.104,0.107 -0.102,0.108 -0.101,0.109 -0.1,0.111 -0.098,0.111 -0.097,0.114 -0.095,0.114 -0.093,0.116 -0.092,0.117 -0.091,0.118 -0.088,0.119 -0.087,0.121 -0.086,0.122 -0.084,0.123 -0.082,0.124 -0.081,0.125 -0.079,0.126 -0.077,0.127 -0.075,0.129 -0.074,0.129 -0.072,0.13 -0.07,0.131 -0.069,0.132 -0.066,0.133 -0.065,0.134 -0.063,0.135 -0.062,0.136 -0.059,0.136 -0.058,0.137 -0.055,0.138 -0.054,0.139 -0.052,0.14 -0.05,0.14 -0.049,0.14 -0.046,0.142 -0.044,0.142 -0.043,0.142 -0.041,0.144 -0.038,0.143 -0.037,0.145 -0.035,0.144 -0.033,0.145 -0.031,0.146 -0.029,0.146 -0.026,0.146 -0.026,0.147 -0.023,0.147 -0.021,0.147 -0.019,0.148 -0.017,0.148 -0.015,0.148 -0.013,0.148 -0.011,0.148 -0.009,0.149 -0.007,0.149 -0.006,0.148 -0.003,0.149 -10e-4,0.149 10e-4,0.149 0.003,0.141 1.649,65.125 -12.222,-9.166 9.581,-65.269 0.021,-0.147 0.019,-0.148 0.016,-0.148 0.015,-0.148 0.013,-0.148 0.01,-0.149 0.009,-0.148 0.007,-0.149 0.004,-0.149 0.003,-0.148 10e-4,-0.149 -0.002,-0.149 -0.003,-0.149 -0.005,-0.148 -0.007,-0.149 -0.01,-0.149 -0.011,-0.148 -0.013,-0.148 -0.016,-0.148 -0.017,-0.148 -0.019,-0.148 -0.021,-0.147 -0.024,-0.147 -0.025,-0.147 -0.027,-0.146 -0.029,-0.146 -0.031,-0.145 -0.033,-0.145 -0.035,-0.145 -0.037,-0.144 -0.039,-0.144 -0.041,-0.143 -0.042,-0.143 -0.045,-0.141 -0.047,-0.142 -0.048,-0.141 -0.05,-0.14 -0.052,-0.139 -0.054,-0.139 -0.056,-0.138 -0.058,-0.137 -0.06,-0.136 -0.061,-0.136 -0.063,-0.134 -0.065,-0.134 -0.067,-0.133 -0.069,-0.132 -0.07,-0.131 -0.072,-0.13 -0.074,-0.13 -0.076,-0.128 -0.077,-0.127 -0.079,-0.126 -0.081,-0.125 -0.082,-0.124 -0.084,-0.123 -0.086,-0.121 -0.087,-0.121 -0.089,-0.119 -0.091,-0.118 -0.092,-0.117 -0.094,-0.116 -0.095,-0.114 -0.097,-0.113 -0.098,-0.112 -0.1,-0.111 -0.101,-0.109 -0.102,-0.107 -0.105,-0.107 -0.105,-0.105 -0.107,-0.103 -0.108,-0.102 -0.11,-0.101 -0.111,-0.099 -0.112,-0.097 -0.114,-0.097 -0.115,-0.094 -0.116,-0.093 -0.117,-0.092 -0.119,-0.089 -0.12,-0.089 -0.121,-0.086 -0.122,-0.085 -0.123,-0.084 -0.125,-0.081 -0.125,-0.08 -0.127,-0.078 -0.127,-0.077 -0.129,-0.075 -0.13,-0.073 -0.13,-0.071 -0.132,-0.07 -0.132,-0.068 -0.134,-0.066 -0.134,-0.064 -0.135,-0.063 -0.136,-0.06 -0.137,-0.059 -0.137,-0.057 -0.138,-0.055 -0.139,-0.053 -0.14,-0.052 -0.14,-0.049 -0.141,-0.048 -0.142,-0.046 -0.142,-0.043 -0.143,-0.042 -0.143,-0.04 -0.144,-0.038 -0.144,-0.036 -0.145,-0.034 -0.146,-0.033 -0.145,-0.03 -0.146,-0.028 -0.147,-0.026 -0.147,-0.025 -0.147,-0.022 -0.147,-0.02 -0.148,-0.019 -0.148,-0.016 -0.148,-0.015 -0.148,-0.012 -0.149,-0.011 -0.148,-0.008 -0.149,-0.006 -0.149,-0.005 -0.148,-0.002 -0.149,-0.001 -0.149,0.002 -0.149,0.003 -0.149,0.006 -0.148,0.007 -0.149,0.01 -0.148,0.012 -0.148,0.013 -0.148,0.016 -0.148,0.017 -0.148,0.02 -0.147,0.021 -0.147,0.024 -0.146,0.025 -0.147,0.027 -0.146,0.03 -0.145,0.031 -0.145,0.033 -0.145,0.036 -0.144,0.037 -0.143,0.039 -0.143,0.041 -0.143,0.043 -0.142,0.045 -0.141,0.046 -0.141,0.049 -0.14,0.051 -0.139,0.052 -0.138,0.054 -0.138,0.056 -0.137,0.058 -0.137,0.06 -0.135,0.062 -0.135,0.063 -0.133,0.065 -0.133,0.068 -0.132,0.068 -0.131,0.071 -0.13,0.072 -0.129,0.074 -0.128,0.076 -0.127,0.078 -0.126,0.079 -0.125,0.081 -0.124,0.082 -0.123,0.085 -0.121,0.086 -0.121,0.087 -0.119,0.089 -0.118,0.091 -0.116,0.092 -0.116,0.094 -0.114,0.095 -0.113,0.097 -0.112,0.099 -0.11,0.1 -0.109,0.101 -0.107,0.103 -0.107,0.104 -0.104,0.106 -0.104,0.107 -0.102,0.109 -0.1,0.109 -0.099,0.112 -0.097,0.112 -0.096,0.114 -0.095,0.115 -0.092,0.116 -0.092,0.118 -0.089,0.119 -0.088,0.12 -0.087,0.121 -0.084,0.122 -0.084,0.124 -0.081,0.124 -0.08,0.126 -0.078,0.126 -0.076,0.128 -0.075,0.129 -0.073,0.13 -0.071,0.13 -0.069,0.132 -0.068,0.132 -0.066,0.134 -0.064,0.134 -0.062,0.135 -0.061,0.136 -0.058,0.137 -0.057,0.138 -0.061,0.155 -18.85,48.697 -23.608,-16.753 -33.941,-120.171 162.864,36.689 -22.563,6.267 -36.607,35.039 -0.032,-0.038 -0.136,-0.161 -0.138,-0.159 -0.139,-0.157 -0.141,-0.157 -0.142,-0.155 -0.144,-0.153 -0.145,-0.153 -0.147,-0.151 -0.148,-0.149 -0.15,-0.148 -0.151,-0.147 -0.152,-0.145 -0.154,-0.144 -0.155,-0.142 -0.156,-0.141 -0.158,-0.139 -0.159,-0.138 -0.16,-0.136 -0.162,-0.135 -0.163,-0.133 -0.164,-0.132 -0.166,-0.13 -0.166,-0.129 -0.168,-0.126 -0.169,-0.126 -0.17,-0.123 -0.172,-0.123 -0.172,-0.12 -0.174,-0.119 -0.175,-0.117 -0.176,-0.116 -0.177,-0.113 -0.178,-0.112 -0.179,-0.111 -0.18,-0.109 -0.182,-0.107 -0.182,-0.105 -0.183,-0.103 -0.184,-0.102 -0.185,-0.1 -0.186,-0.099 -0.188,-0.096 -0.187,-0.095 -0.189,-0.093 -0.19,-0.091 -0.191,-0.089 -0.191,-0.088 -0.192,-0.085 -0.193,-0.084 -0.194,-0.082 -0.195,-0.08 -0.195,-0.079 -0.196,-0.076 -0.197,-0.075 -0.197,-0.073 -0.198,-0.07 -0.199,-0.069 -0.2,-0.067 -0.2,-0.066 -0.201,-0.063 -0.201,-0.061 -0.202,-0.06 -0.202,-0.057 -0.203,-0.056 -0.204,-0.053 -0.204,-0.052 -0.204,-0.05 -0.205,-0.048 -0.206,-0.046 -0.205,-0.044 -0.207,-0.042 -0.206,-0.04 -0.207,-0.038 -0.208,-0.036 -0.207,-0.034 -0.208,-0.032 -0.208,-0.03 -0.209,-0.028 -0.209,-0.026 -0.209,-0.025 -0.209,-0.022 -0.21,-0.02 -0.209,-0.018 -0.21,-0.017 -0.21,-0.014 -0.21,-0.012 -0.21,-0.01 -0.211,-0.009 -0.21,-0.006 -0.21,-0.004 -0.211,-0.002 -0.21,-0.001 -0.211,0.002 -0.21,0.004 -0.211,0.006 -0.21,0.007 -0.21,0.01 -0.21,0.012 -0.21,0.014 -0.21,0.015 -0.21,0.018 -0.209,0.02 -0.21,0.022 -0.209,0.023 -0.209,0.026 -0.208,0.028 -0.209,0.029 -0.208,0.032 -0.208,0.033 -0.207,0.036 -0.207,0.038 -0.207,0.039 -0.206,0.042 -0.206,0.043 -0.206,0.045 -0.205,0.048 -0.204,0.049 -0.204,0.051 -0.204,0.053 -0.203,0.055 -0.203,0.057 -0.202,0.059 -0.201,0.061 -0.201,0.063 -0.2,0.065 -0.2,0.066 -0.199,0.069 -0.198,0.07 -0.198,0.072 -0.197,0.075 -0.196,0.076 -0.196,0.077 -0.194,0.08 -0.194,0.082 -0.194,0.083 -0.192,0.085 -0.192,0.087 -0.19,0.089 -0.19,0.091 -0.189,0.092 -0.189,0.095 -0.187,0.096 -0.186,0.097 -0.186,0.1 -0.184,0.101 -0.184,0.104 -0.182,0.104 -0.181,0.107 -0.181,0.108 -0.179,0.11 -0.179,0.112 -0.177,0.113 -0.176,0.115 -0.175,0.117 -0.174,0.118 -0.173,0.121 -0.172,0.121 -0.34,0.248 -0.168,0.127 -0.167,0.128 -0.166,0.13 -0.164,0.131 -0.163,0.133 -0.162,0.134 -0.161,0.136 -0.159,0.138 -0.159,0.139 -0.156,0.14 -0.156,0.142 -0.154,0.143 -0.152,0.145 -0.152,0.146 -0.15,0.148 -0.148,0.149 -0.147,0.151 -0.146,0.152 -0.144,0.153 -0.143,0.155 -0.141,0.156 -0.14,0.157 -0.138,0.159 -0.137,0.16 -0.135,0.161 -0.134,0.163 -0.132,0.163 -0.13,0.165 -0.129,0.167 -0.128,0.167 -0.125,0.169 -0.125,0.17 -0.122,0.171 -0.121,0.172 -0.119,0.174 -0.118,0.174 -0.116,0.176 -0.114,0.176 -0.113,0.178 -0.111,0.179 -0.109,0.18 -0.108,0.181 -0.105,0.182 -0.105,0.183 -0.102,0.184 -0.1,0.184 -0.099,0.186 -0.097,0.187 -0.095,0.188 -0.094,0.188 -0.092,0.19 -0.089,0.19 -0.088,0.191 -0.087,0.192 -0.084,0.193 -0.083,0.194 -0.08,0.194 -0.079,0.195 -0.081,0.207 -13.716,35.432 -8.822,-6.261 -27.824,-98.512 124.59,28.067 -22.562,6.268 -14.695,14.066 -0.216,-0.121 -0.226,-0.124 -0.227,-0.122 -0.228,-0.12 -0.228,-0.119 -0.23,-0.117 -0.231,-0.115 -0.231,-0.114 -0.232,-0.111 -0.234,-0.11 -0.234,-0.108 -0.235,-0.107 -0.235,-0.104 -0.237,-0.102 -0.237,-0.101 -0.238,-0.099 -0.239,-0.097 -0.239,-0.095 -0.241,-0.093 -0.241,-0.092 -0.241,-0.089 -0.243,-0.088 -0.243,-0.086 -0.244,-0.084 -0.244,-0.082 -0.245,-0.08 -0.246,-0.078 -0.246,-0.076 -0.247,-0.075 -0.247,-0.072 -0.248,-0.071 -0.248,-0.068 -0.249,-0.067 -0.25,-0.065 -0.25,-0.062 -0.25,-0.061 -0.251,-0.059 -0.251,-0.057 -0.252,-0.055 -0.253,-0.053 -0.252,-0.051 -0.253,-0.049 -0.254,-0.048 -0.253,-0.045 -0.254,-0.043 -0.255,-0.041 -0.255,-0.04 -0.255,-0.037 -0.255,-0.035 -0.256,-0.034 -0.255,-0.031 -0.256,-0.029 -0.257,-0.028 -0.256,-0.025 -0.257,-0.024 -0.257,-0.021 -0.257,-0.019 -0.257,-0.018 -0.257,-0.015 -0.258,-0.014 -0.257,-0.011 -0.258,-0.01 -0.257,-0.007 -0.258,-0.006 -0.258,-0.003 -0.258,-0.001 -0.257,0 -0.258,0.003 -0.258,0.004 -0.257,0.007 -0.258,0.008 -0.258,0.011 -0.257,0.012 -0.257,0.015 -0.258,0.017 -0.257,0.018 -0.257,0.021 -0.256,0.022 -0.257,0.025 -0.256,0.026 -0.257,0.029 -0.255,0.03 -0.256,0.033 -0.256,0.034 -0.255,0.036 -0.255,0.039 -0.254,0.04 -0.254,0.043 -0.254,0.044 -0.254,0.046 -0.253,0.049 -0.253,0.05 -0.252,0.052 -0.252,0.054 -0.252,0.056 -0.251,0.058 -0.251,0.06 -0.25,0.062 -0.25,0.064 -0.249,0.066 -0.249,0.068 -0.248,0.069 -0.247,0.072 -0.247,0.073 -0.247,0.076 -0.246,0.077 -0.245,0.079 -0.245,0.082 -0.244,0.083 -0.243,0.085 -0.243,0.086 -0.242,0.089 -0.241,0.091 -0.241,0.092 -0.24,0.094 -0.239,0.097 -0.238,0.098 -0.238,0.1 -0.236,0.101 -0.237,0.104 -0.235,0.105 -0.234,0.107 -0.234,0.109 -0.232,0.111 -0.232,0.113 -0.231,0.114 -0.23,0.116 -0.229,0.118 -0.229,0.12 -0.227,0.122 -0.226,0.123 -0.226,0.125 -0.224,0.127 -0.224,0.128 -0.222,0.131 -0.221,0.132 -0.221,0.133 -0.219,0.136 -0.218,0.137 -0.218,0.139 -0.216,0.14 -0.215,0.142 -0.214,0.144 -0.212,0.145 -0.212,0.148 -0.211,0.148 -0.209,0.151 -0.208,0.152 -0.207,0.153 -0.206,0.155 -0.204,0.157 -0.204,0.159 -0.202,0.16 -0.201,0.161 -0.199,0.163 -0.199,0.165 -0.197,0.166 -0.196,0.168 -0.194,0.169 -0.193,0.17 -0.192,0.173 -0.19,0.173 -0.19,0.175 -0.187,0.177 -0.187,0.178 -0.185,0.18 -0.183,0.18 -0.182,0.183 -0.181,0.184 -0.18,0.185 -0.177,0.186 -0.177,0.188 -0.175,0.189 -0.173,0.191 -0.172,0.192 -0.171,0.193 -0.169,0.195 -0.167,0.196 -0.166,0.197 -0.165,0.199 -0.163,0.199 -0.161,0.201 -0.16,0.203 -0.158,0.203 -0.157,0.205 -0.155,0.206 -0.153,0.207 -0.152,0.208 -0.15,0.21 -0.149,0.21 -0.146,0.212 -0.146,0.213 -0.143,0.214 -0.142,0.215 -0.141,0.216 -0.138,0.218 -0.137,0.218 -0.135,0.22 -0.134,0.22 -0.262,0.444 -0.128,0.224 -0.126,0.224 -0.125,0.226 -0.123,0.226 -0.122,0.228 -0.119,0.228 -0.118,0.229 -0.116,0.23 -0.114,0.231 -0.113,0.232 -0.11,0.233 -0.109,0.234 -0.107,0.234 -0.105,0.236 -0.104,0.236 -0.101,0.237 -0.1,0.237 -0.098,0.239 -0.096,0.239 -0.1,0.255 -5.824,15.045 -18.499,-65.498 86.316,19.445 -45.423,1.118 -0.069,0.024 -0.281,0.098 -0.28,0.1 -0.279,0.102 -0.279,0.104 -0.279,0.106 -0.277,0.107 -0.277,0.11 -0.276,0.111 -0.275,0.113 -0.275,0.115 -0.273,0.117 -0.273,0.119 -0.272,0.12 -0.272,0.123 -0.27,0.124 -0.27,0.126 -0.269,0.128 -0.268,0.129 -0.267,0.132 -0.266,0.133 -0.265,0.135 -0.264,0.137 -0.264,0.138 -0.262,0.141 -0.262,0.142 -0.26,0.143 -0.26,0.146 -0.259,0.147 -0.257,0.149 -0.257,0.151 -0.255,0.153 -0.255,0.154 -0.253,0.156 -0.253,0.157 -0.251,0.16 -0.251,0.161 -0.249,0.162 -0.248,0.165 -0.247,0.166 -0.246,0.167 -0.245,0.17 -0.243,0.171 -0.243,0.172 -0.241,0.175 -0.24,0.175 -0.239,0.178 -0.238,0.179 -0.237,0.18 -0.235,0.183 -0.234,0.183 -0.233,0.186 -0.231,0.187 -0.231,0.188 -0.229,0.19 -0.228,0.192 -0.226,0.193 -0.225,0.195 -0.224,0.196 -0.223,0.197 -0.221,0.199 -0.22,0.201 -0.218,0.202 -0.218,0.204 -0.215,0.205 -0.215,0.206 -0.213,0.208 -0.211,0.209 -0.211,0.211 -0.208,0.212 -0.208,0.213 -0.206,0.215 -0.204,0.217 -0.203,0.217 -0.202,0.219 -0.2,0.221 -0.198,0.221 -0.197,0.223 -0.196,0.225 -0.194,0.225 -0.193,0.227 -0.191,0.228 -0.071,0.086 -5.458,-19.327 25.181,5.672"
       id="path12"
       inkscape:connector-curvature="0"
       style="fill:none;stroke:#000000;stroke-width:1" />
    <!-- Help Constructs -->
    <!--path d="M 348.000 257.000 L 364.000 148.000 362.000 148.000 326.000 241.000 295.000 219.000 258.000 88.000 440.000 129.000 370.000 196.000 372.000 275.000 348.000 257.000 "
   style="fill:none;stroke:gray;stroke-width:1px;stroke-dasharray:2,1"/-->
    <!-- Reference cross -->
    <!--line x1="-8.000000" y1="0.000000" x2="8.000000" y2="0.000000" stroke="#FF0000" fill="none" stroke-width="1"/-->
    <!--line x1="0.000000" y1="-8.000000" x2="0.000000" y2="8.000000" stroke="#FF0000" fill="none" stroke-width="1"/-->
  </g>
</svg>
