<?xml version="1.0" encoding="UTF-8" standalone="no"?>
<svg
   xmlns:dc="http://purl.org/dc/elements/1.1/"
   xmlns:cc="http://creativecommons.org/ns#"
   xmlns:rdf="http://www.w3.org/1999/02/22-rdf-syntax-ns#"
   xmlns:svg="http://www.w3.org/2000/svg"
   xmlns="http://www.w3.org/2000/svg"
   xmlns:sodipodi="http://sodipodi.sourceforge.net/DTD/sodipodi-0.dtd"
   xmlns:inkscape="http://www.inkscape.org/namespaces/inkscape"
   width="200mm"
   height="200mm"
   id="svg2"
   version="1.1"
   inkscape:version="0.91 r13725"
   sodipodi:docname="piotr.svg">
  <metadata
     id="metadata12">
    <rdf:RDF>
      <cc:Work
         rdf:about="">
        <dc:format>image/svg+xml</dc:format>
        <dc:type
           rdf:resource="http://purl.org/dc/dcmitype/StillImage" />
      </cc:Work>
    </rdf:RDF>
  </metadata>
  <defs
     id="defs10" />
  <sodipodi:namedview
     pagecolor="#ffffff"
     bordercolor="#666666"
     borderopacity="1"
     objecttolerance="10"
     gridtolerance="10"
     guidetolerance="10"
     inkscape:pageopacity="0"
     inkscape:pageshadow="2"
     inkscape:window-width="1600"
     inkscape:window-height="837"
     id="namedview8"
     showgrid="false"
     inkscape:zoom="0.66604444"
     inkscape:cx="177.16535"
     inkscape:cy="177.16535"
     inkscape:window-x="-8"
     inkscape:window-y="-8"
     inkscape:window-maximized="1"
     inkscape:current-layer="svg2" />
  <title
     id="title4">CncControl SerialEmulatorSVG output</title>
  <desc
     id="desc6">....</desc>
  <!--samples start /-->
  <!--line x1="10" y1="0" x2="20" y2="0" stroke="blue" stroke-width="0.5"/-->
  <!--rect x="5" y="5" width="10" height="10" fill="none" stroke="blue" stroke-width="0.5"/-->
  <!--rect x="10" y="10" rx="5" ry="5" width="30" height="30" fill="none" stroke="blue" stroke-width="0.5"/-->
  <!--polyline fill="none" stroke="blue" stroke-width="0.5" points="10,10 15,15 20,10 25,15"/-->
  <!--polygon fill="none" stroke="blue" stroke-width="0.5" points="10 10 15 15 20 10"/-->
  <!--circle cx="50" cy="40" r="20" fill="none" stroke="blue" stroke-width="0.5"/-->
  <!--ellipse cx="50" cy="50" rx="40" ry="30" fill="none" stroke="blue" stroke-width="0.5"/-->
  <!--path d="M 20.5 20.5 l 10 0 0 10 -10 0z " stroke="black" fill="none" stroke-width="0.5"/-->
  <!--path d="M10,20 C10,10 25,10 25,20 S40,30 40,20" stroke="black" fill="none" stroke-width="0.5"/-->
  <!--path d="M40,40 Q40,5 60,30 T100,30"  stroke="black" fill="none" stroke-width="0.5" /-->
  <!--path d="M 10 20 a 5 5 0 1 0 10 0 a 5 5 0 1 0 -10 0 " fill="none" stroke="blue" stroke-width="0.5"/-->
  <!--path d="M 5,5" stroke="black" fill="none" stroke-width="0.5"/-->
  <!--samples end /-->
  <g transform="translate(17.717,17.717)"
  CncSvgPattern="#ltCncSvgPattern#gt#ltTemplate name='SVG Path' td='3.125' tc='0' cs='4630149532'/#gt#ltRefPoint x='0.000' y='0.000'/#gt#ltTransform tlX='5.000' tlY='5.000' scX='1.000' scY='1.000' roA='0.000' roX='0.000' roY='0.000' skX='0.000' skY='0.000'/#gt#ltCncParameterBlock reverse='no' depth='z-0.000' correction='none'/#gt#ltParameter idx='0' name='Path d [px]' type='string' value='M348.000,257.000 L 364.000,148.000 362.000,148.000 326.000,241.000 295.000,219.000 258.000,88.000 440.000,129.000 370.000,196.000 372.000,275.000 z'/#gt#ltParameter idx='1' name='Inlay Mode' type='list' value='Whole'/#gt#ltParameter idx='2' name='Reference Point(x/y)' type='list' value='top/left'/#gt#lt/CncSvgPattern#gt"
>
<!-- Config Block
<CncSvgPattern>
  <Template name="SVG Path" td="3.125" tc="0" cs="4630149532"/>
  <RefPoint x="0.000" y="0.000"/>
  <Transform tlX="5.000" tlY="5.000" scX="1.000" scY="1.000" roA="0.000" roX="0.000" roY="0.000" skX="0.000" skY="0.000"/>
  <CncParameterBlock reverse="no" depth="z-0.000" correction="none"/>
  <Parameter idx="0" name="Path d [px]" type="string" value="M348.000,257.000 L 364.000,148.000 362.000,148.000 326.000,241.000 295.000,219.000 258.000,88.000 440.000,129.000 370.000,196.000 372.000,275.000 z"/>
  <Parameter idx="1" name="Inlay Mode" type="list" value="Whole"/>
  <Parameter idx="2" name="Reference Point(x/y)" type="list" value="top/left"/>
</CncSvgPattern>
 -->

 <!-- SVG Path Generator: Generated Path Result: -->
 <CncParameterBlock reverse="no" depth="z-0.000" correction="none"/>
 <path d="M258.197000,82.467000 L 258.302000,82.472000 258.407000,82.479000 258.512000,82.487000 258.617000,82.498000 258.721000,82.511000 258.825000,82.525000 258.929000,82.542000 259.033000,82.561000 259.136000,82.581000 259.217000,82.599000 441.217000,123.599000 441.319000,123.623000 441.421000,123.649000 441.523000,123.677000 441.623000,123.707000 441.724000,123.739000 441.823000,123.772000 441.922000,123.808000 442.021000,123.846000 442.118000,123.885000 442.215000,123.926000 442.311000,123.969000 442.406000,124.014000 442.501000,124.061000 442.594000,124.109000 442.687000,124.159000 442.778000,124.211000 442.869000,124.265000 442.958000,124.320000 443.047000,124.377000 443.134000,124.436000 443.220000,124.496000 443.305000,124.558000 443.389000,124.622000 443.471000,124.687000 443.553000,124.754000 443.633000,124.822000 443.712000,124.892000 443.789000,124.963000 443.865000,125.036000 443.940000,125.110000 444.013000,125.186000 444.085000,125.263000 444.155000,125.341000 444.224000,125.421000 444.291000,125.502000 444.357000,125.584000 444.421000,125.667000 444.483000,125.752000 444.544000,125.838000 444.604000,125.925000 444.661000,126.013000 444.717000,126.102000 444.771000,126.192000 444.824000,126.283000 444.875000,126.375000 444.924000,126.468000 444.971000,126.562000 445.016000,126.657000 445.060000,126.753000 445.102000,126.850000 445.142000,126.947000 445.180000,127.045000 445.216000,127.144000 445.250000,127.243000 445.283000,127.343000 445.313000,127.444000 445.342000,127.545000 445.369000,127.647000 445.393000,127.749000 445.416000,127.852000 445.437000,127.955000 445.456000,128.059000 445.473000,128.163000 445.488000,128.267000 445.501000,128.371000 445.512000,128.476000 445.521000,128.581000 445.527000,128.686000 445.532000,128.791000 445.535000,128.896000 445.536000,129.001000 445.535000,129.107000 445.532000,129.212000 445.527000,129.317000 445.520000,129.422000 445.511000,129.527000 445.500000,129.631000 445.487000,129.736000 445.472000,129.840000 445.455000,129.944000 445.436000,130.047000 445.416000,130.150000 445.393000,130.253000 445.368000,130.355000 445.341000,130.457000 445.313000,130.558000 445.282000,130.659000 445.249000,130.759000 445.215000,130.859000 445.179000,130.957000 445.141000,131.055000 445.101000,131.153000 445.059000,131.249000 445.015000,131.345000 444.970000,131.440000 444.922000,131.534000 444.873000,131.627000 444.823000,131.719000 444.770000,131.810000 444.716000,131.901000 444.660000,131.990000 444.602000,132.078000 444.543000,132.165000 444.482000,132.250000 444.419000,132.335000 444.355000,132.418000 444.289000,132.500000 444.222000,132.581000 444.153000,132.661000 444.083000,132.739000 444.011000,132.816000 443.938000,132.892000 443.828000,133.000000 375.597000,198.307000 377.535000,274.860000 377.536000,274.965000 377.536000,275.070000 377.534000,275.176000 377.529000,275.281000 377.523000,275.386000 377.515000,275.491000 377.504000,275.595000 377.492000,275.700000 377.478000,275.804000 377.461000,275.908000 377.443000,276.012000 377.423000,276.115000 377.401000,276.218000 377.377000,276.320000 377.351000,276.422000 377.323000,276.524000 377.293000,276.624000 377.261000,276.725000 377.227000,276.824000 377.192000,276.923000 377.154000,277.022000 377.115000,277.119000 377.073000,277.216000 377.030000,277.312000 376.986000,277.407000 376.939000,277.502000 376.891000,277.595000 376.840000,277.688000 376.788000,277.779000 376.735000,277.870000 376.679000,277.959000 376.622000,278.047000 376.563000,278.135000 376.503000,278.221000 376.441000,278.306000 376.377000,278.390000 376.312000,278.472000 376.245000,278.554000 376.177000,278.634000 376.107000,278.712000 376.036000,278.790000 375.963000,278.866000 375.889000,278.940000 375.813000,279.014000 375.736000,279.085000 375.658000,279.156000 375.579000,279.224000 375.498000,279.292000 375.332000,279.422000 375.247000,279.484000 375.162000,279.545000 375.075000,279.604000 374.986000,279.662000 374.897000,279.718000 374.807000,279.772000 374.716000,279.824000 374.624000,279.875000 374.531000,279.924000 374.437000,279.971000 374.342000,280.017000 374.246000,280.060000 374.149000,280.102000 374.052000,280.142000 373.954000,280.180000 373.855000,280.216000 373.756000,280.251000 373.655000,280.283000 373.555000,280.314000 373.454000,280.342000 373.352000,280.369000 373.249000,280.394000 373.147000,280.416000 373.044000,280.437000 372.940000,280.456000 372.836000,280.473000 372.732000,280.488000 372.628000,280.501000 372.523000,280.512000 372.418000,280.521000 372.313000,280.528000 372.208000,280.533000 372.103000,280.535000 371.998000,280.536000 371.892000,280.535000 371.787000,280.532000 371.682000,280.527000 371.577000,280.520000 371.472000,280.511000 371.368000,280.500000 371.263000,280.487000 371.159000,280.472000 371.055000,280.455000 370.952000,280.436000 370.849000,280.415000 370.746000,280.392000 370.644000,280.368000 370.542000,280.341000 370.441000,280.312000 370.340000,280.282000 370.240000,280.249000 370.140000,280.215000 370.042000,280.178000 369.944000,280.140000 369.846000,280.100000 369.750000,280.058000 369.654000,280.015000 369.559000,279.969000 369.465000,279.922000 369.372000,279.873000 369.280000,279.822000 369.189000,279.770000 369.099000,279.715000 369.009000,279.659000 368.921000,279.602000 368.835000,279.542000 368.749000,279.481000 368.678000,279.429000 344.678000,261.429000 344.595000,261.365000 344.512000,261.300000 344.431000,261.233000 344.351000,261.164000 344.273000,261.094000 344.196000,261.022000 344.120000,260.949000 344.046000,260.875000 343.973000,260.799000 343.901000,260.722000 343.831000,260.643000 343.763000,260.563000 343.696000,260.482000 343.630000,260.400000 343.567000,260.316000 343.504000,260.231000 343.444000,260.145000 343.385000,260.058000 343.327000,259.970000 343.272000,259.880000 343.218000,259.790000 343.166000,259.699000 343.115000,259.606000 343.067000,259.513000 343.020000,259.419000 342.975000,259.324000 342.932000,259.228000 342.890000,259.131000 342.851000,259.034000 342.813000,258.935000 342.777000,258.836000 342.743000,258.737000 342.711000,258.637000 342.681000,258.536000 342.653000,258.434000 342.626000,258.332000 342.602000,258.230000 342.580000,258.127000 342.559000,258.024000 342.541000,257.920000 342.524000,257.817000 342.510000,257.712000 342.497000,257.608000 342.486000,257.503000 342.478000,257.398000 342.471000,257.293000 342.467000,257.188000 342.464000,257.083000 342.464000,256.978000 342.465000,256.873000 342.468000,256.767000 342.474000,256.662000 342.481000,256.557000 342.491000,256.452000 342.502000,256.348000 342.522000,256.196000 352.581000,187.669000 331.163000,242.999000 331.124000,243.096000 331.083000,243.193000 331.041000,243.290000 330.996000,243.385000 330.950000,243.480000 330.902000,243.573000 330.852000,243.666000 330.801000,243.758000 330.748000,243.848000 330.693000,243.938000 330.636000,244.027000 330.577000,244.114000 330.517000,244.201000 330.456000,244.286000 330.393000,244.370000 330.328000,244.453000 330.261000,244.535000 330.193000,244.615000 330.124000,244.694000 330.053000,244.772000 329.981000,244.848000 329.907000,244.923000 329.831000,244.997000 329.755000,245.069000 329.677000,245.139000 329.597000,245.208000 329.517000,245.276000 329.435000,245.342000 329.352000,245.407000 329.182000,245.531000 329.095000,245.590000 329.007000,245.648000 328.919000,245.705000 328.829000,245.759000 328.738000,245.812000 328.646000,245.863000 328.553000,245.913000 328.459000,245.960000 328.364000,246.006000 328.269000,246.050000 328.172000,246.092000 328.075000,246.133000 327.977000,246.171000 327.878000,246.208000 327.779000,246.243000 327.679000,246.276000 327.579000,246.307000 327.478000,246.336000 327.376000,246.363000 327.274000,246.388000 327.171000,246.411000 327.068000,246.432000 326.965000,246.452000 326.861000,246.469000 326.757000,246.484000 326.652000,246.498000 326.548000,246.509000 326.443000,246.519000 326.338000,246.526000 326.233000,246.532000 326.128000,246.535000 326.022000,246.536000 325.917000,246.536000 325.812000,246.533000 325.707000,246.529000 325.602000,246.522000 325.497000,246.514000 325.392000,246.503000 325.288000,246.490000 325.184000,246.476000 325.080000,246.459000 324.976000,246.441000 324.873000,246.420000 324.770000,246.398000 324.668000,246.374000 324.566000,246.347000 324.464000,246.319000 324.364000,246.289000 324.263000,246.257000 324.164000,246.223000 324.065000,246.187000 323.967000,246.149000 323.869000,246.110000 323.772000,246.068000 323.676000,246.025000 323.581000,245.980000 323.487000,245.933000 323.394000,245.885000 323.301000,245.834000 323.210000,245.782000 323.120000,245.728000 323.030000,245.673000 322.942000,245.615000 322.855000,245.556000 322.796000,245.515000 291.796000,223.515000 291.711000,223.453000 291.627000,223.390000 291.544000,223.325000 291.462000,223.259000 291.382000,223.191000 291.303000,223.121000 291.225000,223.050000 291.149000,222.978000 291.074000,222.904000 290.928000,222.752000 290.858000,222.674000 290.789000,222.594000 290.721000,222.514000 290.655000,222.432000 290.591000,222.348000 290.528000,222.264000 290.467000,222.178000 290.407000,222.092000 290.349000,222.004000 290.293000,221.915000 290.238000,221.825000 290.186000,221.734000 290.135000,221.642000 290.085000,221.549000 290.038000,221.455000 289.992000,221.360000 289.948000,221.265000 289.906000,221.168000 289.866000,221.071000 289.827000,220.973000 289.791000,220.874000 289.756000,220.775000 289.723000,220.675000 289.692000,220.575000 289.672000,220.505000 252.672000,89.505000 252.644000,89.403000 252.619000,89.301000 252.595000,89.199000 252.573000,89.096000 252.553000,88.992000 252.535000,88.889000 252.519000,88.785000 252.506000,88.680000 252.494000,88.576000 252.484000,88.471000 252.476000,88.366000 252.470000,88.261000 252.466000,88.156000 252.464000,88.051000 252.464000,87.946000 252.466000,87.840000 252.470000,87.735000 252.476000,87.630000 252.484000,87.525000 252.494000,87.421000 252.506000,87.316000 252.520000,87.212000 252.536000,87.108000 252.554000,87.004000 252.574000,86.901000 252.596000,86.798000 252.620000,86.695000 252.645000,86.593000 252.673000,86.492000 252.703000,86.391000 252.734000,86.290000 252.768000,86.191000 252.803000,86.091000 252.840000,85.993000 252.879000,85.895000 252.920000,85.798000 252.963000,85.702000 253.007000,85.607000 253.054000,85.512000 253.102000,85.419000 253.152000,85.326000 253.204000,85.235000 253.257000,85.144000 253.312000,85.054000 253.369000,84.966000 253.428000,84.878000 253.488000,84.792000 253.549000,84.707000 253.613000,84.623000 253.678000,84.540000 253.744000,84.459000 253.812000,84.378000 253.882000,84.299000 253.953000,84.222000 254.026000,84.146000 254.100000,84.071000 254.175000,83.997000 254.252000,83.925000 254.330000,83.855000 254.409000,83.786000 254.490000,83.718000 254.572000,83.652000 254.655000,83.588000 254.740000,83.525000 254.825000,83.464000 254.912000,83.405000 255.000000,83.347000 255.089000,83.291000 255.179000,83.236000 255.270000,83.183000 255.362000,83.132000 255.455000,83.083000 255.549000,83.036000 255.644000,82.990000 255.740000,82.946000 255.836000,82.904000 255.933000,82.864000 256.031000,82.825000 256.130000,82.789000 256.229000,82.754000 256.329000,82.722000 256.430000,82.691000 256.531000,82.662000 256.633000,82.635000 256.735000,82.610000 256.838000,82.587000 256.941000,82.566000 257.044000,82.547000 257.148000,82.530000 257.252000,82.514000 257.357000,82.501000 257.461000,82.490000 257.566000,82.481000 257.671000,82.473000 257.776000,82.468000 257.881000,82.465000 257.987000,82.464000 258.092000,82.464000 258.197000,82.467000 " 
   stroke="#000000" fill="none" stroke-width="1.0"
 />

 <path d="M428.720000,132.134000 L 367.941000,190.308000 367.834000,190.411000 367.728000,190.516000 367.624000,190.623000 367.522000,190.731000 367.421000,190.840000 367.321000,190.951000 367.223000,191.062000 367.126000,191.176000 367.031000,191.290000 366.938000,191.406000 366.846000,191.523000 366.755000,191.641000 366.667000,191.760000 366.580000,191.881000 366.494000,192.003000 366.410000,192.126000 366.328000,192.250000 366.247000,192.375000 366.168000,192.501000 366.091000,192.628000 366.016000,192.757000 365.942000,192.886000 365.870000,193.016000 365.800000,193.147000 365.731000,193.279000 365.665000,193.412000 365.600000,193.546000 365.537000,193.681000 365.475000,193.817000 365.416000,193.953000 365.358000,194.090000 365.303000,194.228000 365.249000,194.367000 365.197000,194.507000 365.147000,194.647000 365.098000,194.787000 365.052000,194.929000 365.008000,195.071000 364.965000,195.213000 364.924000,195.357000 364.886000,195.500000 364.849000,195.645000 364.814000,195.789000 364.781000,195.934000 364.750000,196.080000 364.721000,196.226000 364.695000,196.372000 364.669000,196.519000 364.646000,196.666000 364.625000,196.813000 364.606000,196.961000 364.589000,197.109000 364.574000,197.257000 364.561000,197.405000 364.550000,197.553000 364.541000,197.702000 364.534000,197.851000 364.528000,197.999000 364.525000,198.148000 364.524000,198.297000 364.525000,198.446000 364.528000,198.587000 366.177000,263.712000 353.955000,254.546000 363.536000,189.277000 363.557000,189.130000 363.576000,188.982000 363.592000,188.834000 363.607000,188.686000 363.620000,188.538000 363.630000,188.389000 363.639000,188.241000 363.646000,188.092000 363.650000,187.943000 363.653000,187.795000 363.654000,187.646000 363.652000,187.497000 363.649000,187.348000 363.644000,187.200000 363.637000,187.051000 363.627000,186.902000 363.616000,186.754000 363.603000,186.606000 363.587000,186.458000 363.570000,186.310000 363.551000,186.162000 363.530000,186.015000 363.506000,185.868000 363.481000,185.721000 363.454000,185.575000 363.425000,185.429000 363.394000,185.284000 363.361000,185.139000 363.326000,184.994000 363.289000,184.850000 363.250000,184.706000 363.209000,184.563000 363.167000,184.420000 363.122000,184.279000 363.075000,184.137000 363.027000,183.996000 362.977000,183.856000 362.925000,183.717000 362.871000,183.578000 362.815000,183.440000 362.757000,183.303000 362.697000,183.167000 362.636000,183.031000 362.573000,182.897000 362.508000,182.763000 362.441000,182.630000 362.372000,182.498000 362.302000,182.367000 362.230000,182.237000 362.156000,182.107000 362.080000,181.979000 362.003000,181.852000 361.924000,181.726000 361.843000,181.601000 361.761000,181.477000 361.677000,181.354000 361.591000,181.233000 361.504000,181.112000 361.415000,180.993000 361.324000,180.875000 361.232000,180.758000 361.138000,180.642000 361.043000,180.528000 360.946000,180.415000 360.848000,180.303000 360.748000,180.192000 360.647000,180.083000 360.545000,179.976000 360.440000,179.869000 360.335000,179.764000 360.228000,179.661000 360.120000,179.559000 360.010000,179.458000 359.899000,179.359000 359.787000,179.262000 359.673000,179.165000 359.558000,179.071000 359.442000,178.978000 359.325000,178.886000 359.206000,178.797000 359.086000,178.708000 358.965000,178.622000 358.843000,178.537000 358.720000,178.453000 358.595000,178.372000 358.470000,178.292000 358.343000,178.214000 358.216000,178.137000 358.087000,178.062000 357.957000,177.989000 357.827000,177.918000 357.695000,177.848000 357.563000,177.780000 357.429000,177.714000 357.295000,177.650000 357.160000,177.587000 357.024000,177.527000 356.887000,177.468000 356.750000,177.411000 356.612000,177.356000 356.473000,177.303000 356.333000,177.251000 356.193000,177.202000 356.052000,177.154000 355.910000,177.108000 355.768000,177.065000 355.625000,177.023000 355.482000,176.983000 355.338000,176.945000 355.194000,176.909000 355.049000,176.875000 354.903000,176.842000 354.758000,176.812000 354.612000,176.784000 354.465000,176.758000 354.318000,176.733000 354.171000,176.711000 354.024000,176.691000 353.876000,176.672000 353.728000,176.656000 353.580000,176.641000 353.432000,176.629000 353.283000,176.618000 353.135000,176.610000 352.986000,176.604000 352.837000,176.599000 352.689000,176.597000 352.540000,176.596000 352.391000,176.598000 352.242000,176.601000 352.093000,176.607000 351.945000,176.614000 351.796000,176.624000 351.648000,176.636000 351.500000,176.649000 351.352000,176.665000 351.204000,176.682000 351.056000,176.702000 350.909000,176.723000 350.762000,176.747000 350.616000,176.772000 350.469000,176.799000 350.323000,176.829000 350.178000,176.860000 350.033000,176.893000 349.888000,176.929000 349.744000,176.966000 349.601000,177.005000 349.458000,177.046000 349.315000,177.089000 349.173000,177.134000 349.032000,177.180000 348.891000,177.229000 348.751000,177.280000 348.612000,177.332000 348.474000,177.386000 348.336000,177.442000 348.199000,177.500000 348.062000,177.560000 347.927000,177.622000 347.792000,177.685000 347.659000,177.750000 347.526000,177.818000 347.394000,177.886000 347.263000,177.957000 347.133000,178.029000 347.004000,178.103000 346.876000,178.179000 346.749000,178.257000 346.623000,178.336000 346.498000,178.417000 346.374000,178.499000 346.251000,178.584000 346.130000,178.670000 346.009000,178.757000 345.890000,178.846000 345.772000,178.937000 345.656000,179.029000 345.540000,179.123000 345.426000,179.218000 345.313000,179.315000 345.201000,179.414000 345.091000,179.514000 344.982000,179.615000 344.875000,179.718000 344.768000,179.822000 344.664000,179.928000 344.560000,180.035000 344.458000,180.144000 344.358000,180.253000 344.259000,180.365000 344.162000,180.477000 344.066000,180.591000 343.971000,180.706000 343.879000,180.822000 343.787000,180.940000 343.698000,181.059000 343.610000,181.179000 343.523000,181.300000 343.439000,181.422000 343.355000,181.546000 343.274000,181.670000 343.194000,181.796000 343.116000,181.922000 343.040000,182.050000 342.965000,182.179000 342.892000,182.309000 342.821000,182.439000 342.752000,182.571000 342.684000,182.703000 342.618000,182.837000 342.554000,182.971000 342.492000,183.106000 342.431000,183.242000 342.373000,183.379000 342.316000,183.517000 342.255000,183.672000 323.405000,232.369000 299.797000,215.616000 265.856000,95.445000 428.720000,132.134000 406.157000,138.401000 369.550000,173.440000 369.518000,173.402000 369.382000,173.241000 369.244000,173.082000 369.105000,172.925000 368.964000,172.768000 368.822000,172.613000 368.678000,172.460000 368.533000,172.307000 368.386000,172.156000 368.238000,172.007000 368.088000,171.859000 367.937000,171.712000 367.785000,171.567000 367.631000,171.423000 367.476000,171.281000 367.320000,171.140000 367.162000,171.001000 367.003000,170.863000 366.843000,170.727000 366.681000,170.592000 366.518000,170.459000 366.354000,170.327000 366.188000,170.197000 366.022000,170.068000 365.854000,169.942000 365.685000,169.816000 365.515000,169.693000 365.343000,169.570000 365.171000,169.450000 364.997000,169.331000 364.822000,169.214000 364.646000,169.098000 364.469000,168.985000 364.291000,168.873000 364.112000,168.762000 363.932000,168.653000 363.750000,168.546000 363.568000,168.441000 363.385000,168.338000 363.201000,168.236000 363.016000,168.136000 362.830000,168.037000 362.642000,167.941000 362.455000,167.846000 362.266000,167.753000 362.076000,167.662000 361.885000,167.573000 361.694000,167.485000 361.502000,167.400000 361.309000,167.316000 361.115000,167.234000 360.920000,167.154000 360.725000,167.075000 360.529000,166.999000 360.332000,166.924000 360.135000,166.851000 359.937000,166.781000 359.738000,166.712000 359.538000,166.645000 359.338000,166.579000 359.137000,166.516000 358.936000,166.455000 358.734000,166.395000 358.532000,166.338000 358.329000,166.282000 358.125000,166.229000 357.921000,166.177000 357.717000,166.127000 357.512000,166.079000 357.306000,166.033000 357.101000,165.989000 356.894000,165.947000 356.688000,165.907000 356.481000,165.869000 356.273000,165.833000 356.066000,165.799000 355.858000,165.767000 355.650000,165.737000 355.441000,165.709000 355.232000,165.683000 355.023000,165.658000 354.814000,165.636000 354.604000,165.616000 354.395000,165.598000 354.185000,165.581000 353.975000,165.567000 353.765000,165.555000 353.555000,165.545000 353.344000,165.536000 353.134000,165.530000 352.924000,165.526000 352.713000,165.524000 352.503000,165.523000 352.292000,165.525000 352.082000,165.529000 351.871000,165.535000 351.661000,165.542000 351.451000,165.552000 351.241000,165.564000 351.031000,165.578000 350.821000,165.593000 350.611000,165.611000 350.402000,165.631000 350.192000,165.653000 349.983000,165.676000 349.774000,165.702000 349.566000,165.730000 349.357000,165.759000 349.149000,165.791000 348.941000,165.824000 348.734000,165.860000 348.527000,165.898000 348.320000,165.937000 348.114000,165.979000 347.908000,166.022000 347.702000,166.067000 347.497000,166.115000 347.293000,166.164000 347.089000,166.215000 346.885000,166.268000 346.682000,166.323000 346.479000,166.380000 346.277000,166.439000 346.076000,166.500000 345.875000,166.563000 345.675000,166.628000 345.475000,166.694000 345.276000,166.763000 345.078000,166.833000 344.880000,166.905000 344.683000,166.980000 344.487000,167.056000 344.291000,167.133000 344.097000,167.213000 343.903000,167.295000 343.709000,167.378000 343.517000,167.463000 343.325000,167.550000 343.135000,167.639000 342.945000,167.730000 342.756000,167.822000 342.567000,167.917000 342.380000,168.013000 342.194000,168.110000 342.008000,168.210000 341.824000,168.311000 341.640000,168.415000 341.458000,168.519000 341.277000,168.626000 341.096000,168.734000 340.917000,168.844000 340.738000,168.956000 340.561000,169.069000 340.385000,169.184000 340.210000,169.301000 340.036000,169.419000 339.863000,169.540000 339.691000,169.661000 339.351000,169.909000 339.183000,170.036000 339.016000,170.164000 338.850000,170.294000 338.686000,170.425000 338.523000,170.558000 338.361000,170.692000 338.200000,170.828000 338.041000,170.966000 337.882000,171.105000 337.726000,171.245000 337.570000,171.387000 337.416000,171.530000 337.264000,171.675000 337.112000,171.821000 336.962000,171.969000 336.814000,172.118000 336.667000,172.269000 336.521000,172.421000 336.377000,172.574000 336.234000,172.729000 336.093000,172.885000 335.953000,173.042000 335.815000,173.201000 335.678000,173.361000 335.543000,173.522000 335.409000,173.685000 335.277000,173.848000 335.147000,174.013000 335.018000,174.180000 334.890000,174.347000 334.765000,174.516000 334.640000,174.686000 334.518000,174.857000 334.397000,175.029000 334.278000,175.203000 334.160000,175.377000 334.044000,175.553000 333.930000,175.729000 333.817000,175.907000 333.706000,176.086000 333.597000,176.266000 333.489000,176.447000 333.384000,176.629000 333.279000,176.812000 333.177000,176.996000 333.077000,177.180000 332.978000,177.366000 332.881000,177.553000 332.786000,177.741000 332.692000,177.929000 332.600000,178.119000 332.511000,178.309000 332.423000,178.500000 332.336000,178.692000 332.252000,178.885000 332.169000,179.079000 332.089000,179.273000 332.010000,179.468000 331.929000,179.675000 318.213000,215.107000 309.391000,208.846000 281.567000,110.334000 406.157000,138.401000 383.595000,144.669000 368.900000,158.735000 368.684000,158.614000 368.458000,158.490000 368.231000,158.368000 368.003000,158.248000 367.775000,158.129000 367.545000,158.012000 367.314000,157.897000 367.083000,157.783000 366.851000,157.672000 366.617000,157.562000 366.383000,157.454000 366.148000,157.347000 365.913000,157.243000 365.676000,157.141000 365.439000,157.040000 365.201000,156.941000 364.962000,156.844000 364.723000,156.749000 364.482000,156.656000 364.241000,156.564000 364.000000,156.475000 363.757000,156.387000 363.514000,156.301000 363.270000,156.217000 363.026000,156.135000 362.781000,156.055000 362.535000,155.977000 362.289000,155.901000 362.042000,155.826000 361.795000,155.754000 361.547000,155.683000 361.299000,155.615000 361.050000,155.548000 360.800000,155.483000 360.550000,155.421000 360.300000,155.360000 360.049000,155.301000 359.798000,155.244000 359.546000,155.189000 359.293000,155.136000 359.041000,155.085000 358.788000,155.036000 358.534000,154.988000 358.281000,154.943000 358.027000,154.900000 357.772000,154.859000 357.517000,154.819000 357.262000,154.782000 357.007000,154.747000 356.751000,154.713000 356.496000,154.682000 356.240000,154.653000 355.983000,154.625000 355.727000,154.600000 355.470000,154.576000 355.213000,154.555000 354.956000,154.536000 354.699000,154.518000 354.442000,154.503000 354.184000,154.489000 353.927000,154.478000 353.669000,154.468000 353.412000,154.461000 353.154000,154.455000 352.896000,154.452000 352.638000,154.451000 352.381000,154.451000 352.123000,154.454000 351.865000,154.458000 351.608000,154.465000 351.350000,154.473000 351.092000,154.484000 350.835000,154.496000 350.578000,154.511000 350.320000,154.528000 350.063000,154.546000 349.806000,154.567000 349.550000,154.589000 349.293000,154.614000 349.037000,154.640000 348.780000,154.669000 348.525000,154.699000 348.269000,154.732000 348.013000,154.766000 347.758000,154.802000 347.503000,154.841000 347.249000,154.881000 346.995000,154.924000 346.741000,154.968000 346.487000,155.014000 346.234000,155.063000 345.981000,155.113000 345.729000,155.165000 345.477000,155.219000 345.225000,155.275000 344.974000,155.333000 344.723000,155.393000 344.473000,155.455000 344.223000,155.519000 343.974000,155.585000 343.725000,155.653000 343.477000,155.722000 343.230000,155.794000 342.983000,155.867000 342.736000,155.943000 342.490000,156.020000 342.245000,156.099000 342.000000,156.181000 341.756000,156.264000 341.513000,156.349000 341.270000,156.435000 341.028000,156.524000 340.787000,156.615000 340.546000,156.707000 340.306000,156.801000 340.067000,156.898000 339.829000,156.996000 339.591000,157.096000 339.355000,157.197000 339.118000,157.301000 338.883000,157.406000 338.649000,157.513000 338.415000,157.622000 338.183000,157.733000 337.951000,157.846000 337.720000,157.960000 337.490000,158.076000 337.261000,158.194000 337.032000,158.314000 336.805000,158.436000 336.579000,158.559000 336.353000,158.684000 336.129000,158.811000 335.905000,158.939000 335.683000,159.070000 335.462000,159.202000 335.241000,159.335000 335.022000,159.471000 334.804000,159.608000 334.586000,159.747000 334.370000,159.887000 334.155000,160.029000 333.941000,160.173000 333.729000,160.318000 333.517000,160.466000 333.306000,160.614000 333.097000,160.765000 332.889000,160.917000 332.682000,161.070000 332.476000,161.225000 332.272000,161.382000 332.068000,161.541000 331.866000,161.701000 331.665000,161.862000 331.466000,162.025000 331.267000,162.190000 331.070000,162.356000 330.874000,162.524000 330.680000,162.693000 330.487000,162.863000 330.295000,163.036000 330.105000,163.209000 329.915000,163.384000 329.728000,163.561000 329.541000,163.739000 329.356000,163.919000 329.173000,164.099000 328.991000,164.282000 328.810000,164.466000 328.630000,164.651000 328.453000,164.837000 328.276000,165.025000 328.101000,165.214000 327.928000,165.405000 327.756000,165.597000 327.585000,165.790000 327.416000,165.985000 327.249000,166.181000 327.083000,166.378000 326.918000,166.577000 326.755000,166.776000 326.594000,166.977000 326.434000,167.180000 326.276000,167.383000 326.119000,167.588000 325.964000,167.794000 325.811000,168.001000 325.659000,168.209000 325.509000,168.419000 325.360000,168.629000 325.214000,168.841000 325.068000,169.054000 324.925000,169.268000 324.783000,169.483000 324.642000,169.699000 324.504000,169.917000 324.367000,170.135000 324.232000,170.355000 324.098000,170.575000 323.836000,171.019000 323.708000,171.243000 323.582000,171.467000 323.457000,171.693000 323.334000,171.919000 323.212000,172.147000 323.093000,172.375000 322.975000,172.604000 322.859000,172.834000 322.745000,173.065000 322.632000,173.297000 322.522000,173.530000 322.413000,173.764000 322.306000,173.998000 322.201000,174.234000 322.097000,174.470000 321.996000,174.707000 321.896000,174.944000 321.798000,175.183000 321.702000,175.422000 321.602000,175.677000 315.778000,190.722000 297.279000,125.224000 383.595000,144.669000 338.172000,145.787000 338.103000,145.811000 337.822000,145.909000 337.542000,146.009000 337.263000,146.111000 336.984000,146.215000 336.705000,146.321000 336.428000,146.428000 336.151000,146.538000 335.875000,146.649000 335.600000,146.762000 335.325000,146.877000 335.052000,146.994000 334.779000,147.113000 334.507000,147.233000 334.235000,147.356000 333.965000,147.480000 333.695000,147.606000 333.426000,147.734000 333.158000,147.863000 332.891000,147.995000 332.625000,148.128000 332.360000,148.263000 332.096000,148.400000 331.832000,148.538000 331.570000,148.679000 331.308000,148.821000 331.048000,148.964000 330.788000,149.110000 330.529000,149.257000 330.272000,149.406000 330.015000,149.557000 329.760000,149.710000 329.505000,149.864000 329.252000,150.020000 328.999000,150.177000 328.748000,150.337000 328.497000,150.498000 328.248000,150.660000 328.000000,150.825000 327.753000,150.991000 327.507000,151.158000 327.262000,151.328000 327.019000,151.499000 326.776000,151.671000 326.535000,151.846000 326.295000,152.021000 326.056000,152.199000 325.818000,152.378000 325.581000,152.558000 325.346000,152.741000 325.112000,152.924000 324.879000,153.110000 324.648000,153.297000 324.417000,153.485000 324.188000,153.675000 323.960000,153.867000 323.734000,154.060000 323.509000,154.255000 323.285000,154.451000 323.062000,154.648000 322.841000,154.847000 322.621000,155.048000 322.403000,155.250000 322.185000,155.454000 321.970000,155.659000 321.755000,155.865000 321.542000,156.073000 321.331000,156.282000 321.120000,156.493000 320.912000,156.705000 320.704000,156.918000 320.498000,157.133000 320.294000,157.350000 320.091000,157.567000 319.889000,157.786000 319.689000,158.007000 319.491000,158.228000 319.294000,158.451000 319.098000,158.676000 318.904000,158.901000 318.711000,159.128000 318.520000,159.356000 318.449000,159.442000 312.991000,140.115000 338.172000,145.787000 " 
   stroke="#000000" fill="none" stroke-width="1.0"
 />

 <!-- Help Constructs -->
 <!--path d="M 348.000 257.000 L 364.000 148.000 362.000 148.000 326.000 241.000 295.000 219.000 258.000 88.000 440.000 129.000 370.000 196.000 372.000 275.000 348.000 257.000 "
   style="fill:none;stroke:gray;stroke-width:1px;stroke-dasharray:2,1"/-->

 <!-- Reference cross -->
  <!--line x1="-8.000000" y1="0.000000" x2="8.000000" y2="0.000000" stroke="#FF0000" fill="none" stroke-width="1"/-->
  <!--line x1="0.000000" y1="-8.000000" x2="0.000000" y2="8.000000" stroke="#FF0000" fill="none" stroke-width="1"/-->
</g>
</svg>


