<?xml version="1.0" encoding="ISO-8859-1" standalone="no"?>
<!DOCTYPE svg PUBLIC "-//W3C//DTD SVG 20010904//EN"   
"http://www.w3.org/TR/2001/REC-SVG-20010904/DTD/svg10.dtd">
<svg xmlns="http://www.w3.org/2000/svg" width="1000.000000mm" height="1000.000000mm" xmlns:xlink="http://www.w3.org/1999/xlink">
<path d=" M122.435433,230.725984 a1.396481,1.396481 0 0 1 242.705906,462.429921  a128.800110,128.800110 0 0 1 412.717323,607.981890  a3.011188,3.011188 0 0 1 587.161417,754.423228  l179.808661,155.728346  a3.011438,3.011438 0 0 1 946.020472,1069.759843  a112.147491,112.147491 0 0 0 1082.987008,1302.264567  a3.012620,3.012620 0 0 1 1216.970079,1537.362992  l123.257480,235.098425  a3.011811,3.011811 0 0 1 1460.498031,2004.165354" fill="none" stroke="black" stroke-width="1.0" transform="scale(0.5)"/>
<path d=" M1582.933465,2234.891339 a1.396481,1.396481 0 0 1 1703.203937,2466.595276  a128.800110,128.800110 0 0 1 1873.215354,2612.147244  a3.011188,3.011188 0 0 1 2047.659449,2758.588583  l179.808661,155.728346  a3.011438,3.011438 0 0 1 2406.518504,3073.925197  a112.147491,112.147491 0 0 0 2543.485039,3306.429921  a3.012620,3.012620 0 0 1 2677.468110,3541.528346  l123.257480,235.098425  a3.011811,3.011811 0 0 1 2920.996063,4008.330709" fill="none" stroke="black" stroke-width="1.0" transform="scale(0.5)"/>
<path d=" M3120.409843,4139.822835 a1.268390,1.268390 0 0 1 3318.700394,4269.047244  a128.799400,128.799400 0 0 1 3616.472835,4398.271654  a3.011269,3.011269 0 0 1 3915.690945,4531.779921  l293.853543,142.795276  a3.011438,3.011438 0 0 1 4499.659843,4818.656693  a138.844847,138.844847 0 0 0 4706.046850,4962.582283  a3.012238,3.012238 0 0 1 4908.256299,5105.377559  l196.844882,133.508268  a3.011438,3.011438 0 0 1 5303.391732,5368.110236" fill="none" stroke="black" stroke-width="1.0" transform="scale(0.5)"/>
<path d=" M5502.805512,5499.602362 a1.268390,1.268390 0 0 1 5701.096063,5628.826772  a128.799400,128.799400 0 0 1 5998.868504,5758.051181  a3.011269,3.011269 0 0 1 6298.086614,5891.559449  l293.853543,142.795276  a3.011438,3.011438 0 0 1 6882.055512,6178.436220  a138.844847,138.844847 0 0 0 7088.442520,6322.361811  a3.012238,3.012238 0 0 1 7290.651969,6465.157087  l196.844882,133.508268  a3.011438,3.011438 0 0 1 7685.787402,6727.889764" fill="none" stroke="black" stroke-width="1.0" transform="scale(0.5)"/>
<path d=" M8010.967323,6875.560630 a1.186204,1.186204 0 0 1 8337.018898,7021.112598  a128.799015,128.799015 0 0 1 8712.811417,7252.816535  a3.011421,3.011421 0 0 1 9085.616929,7487.914961  l362.079921,235.098425  a3.011811,3.011811 0 0 1 9806.793307,7955.518110  a112.145023,112.145023 0 0 0 10123.805906,8115.126378  a3.011663,3.011663 0 0 1 10440.060236,8270.854724  l321.618898,146.441339  a3.011438,3.011438 0 0 1 11087.730709,8562.848031" fill="none" stroke="black" stroke-width="1.0" transform="scale(0.5)"/>
<path d=" M11412.910630,8710.518898 a1.186204,1.186204 0 0 1 11738.962205,8856.070866  a128.799015,128.799015 0 0 1 12114.754724,9087.774803  a3.011421,3.011421 0 0 1 12487.560236,9322.873228  l362.079921,235.098425  a3.011811,3.011811 0 0 1 13208.736614,9790.476378  a112.145023,112.145023 0 0 0 13525.749213,9950.084646  a3.011663,3.011663 0 0 1 13842.003543,10105.812992  l321.618898,146.441339  a3.011438,3.011438 0 0 1 14489.674016,10397.806299" fill="none" stroke="black" stroke-width="1.0" transform="scale(0.5)"/>
<path d=" M14863.333465,10662.675591 a1.173429,1.173429 0 0 1 15239.125984,10927.034646  a128.800110,128.800110 0 0 1 15565.177559,11277.545669  a3.011188,3.011188 0 0 1 15886.796457,11627.167323  l316.254331,340.334646  a3.011438,3.011438 0 0 1 16520.063386,12303.956693  a112.147491,112.147491 0 0 0 16879.159843,12567.514961  a3.012620,3.012620 0 0 1 17241.239764,12828.479528  l372.805512,260.964567  a3.011811,3.011811 0 0 1 17989.837795,13353.803150" fill="none" stroke="black" stroke-width="1.0" transform="scale(0.5)"/>
<path d=" M18363.497244,13618.672441 a1.173429,1.173429 0 0 1 18739.289764,13883.031496  a128.800110,128.800110 0 0 1 19065.341339,14233.542520  a3.011188,3.011188 0 0 1 19386.960236,14583.164173  l316.254331,340.334646  a3.011438,3.011438 0 0 1 20020.227165,15259.953543  a112.147491,112.147491 0 0 0 20379.323622,15523.511811  a3.012620,3.012620 0 0 1 20741.403543,15784.476378  l372.805512,260.964567  a3.011811,3.011811 0 0 1 21490.001575,16309.800000" fill="none" stroke="black" stroke-width="1.0" transform="scale(0.5)"/>
<path d=" M21786.239764,16674.611811 a1.311502,1.311502 0 0 1 22084.012205,17041.450394  a128.799400,128.799400 0 0 1 22282.302756,17408.288976  a3.011269,3.011269 0 0 1 22479.147638,17770.843701  l202.209449,353.267717  a3.011438,3.011438 0 0 1 22887.304724,18476.092913  a138.844847,138.844847 0 0 0 23176.980709,18828.230315  a3.012238,3.012238 0 0 1 23470.834252,19181.498031  l299.218110,362.554724  a3.011438,3.011438 0 0 1 24067.824803,19910.891339" fill="none" stroke="black" stroke-width="1.0" transform="scale(0.5)"/>
<path d=" M24364.062992,20275.703150 a1.311502,1.311502 0 0 1 24661.835433,20642.541732  a128.799400,128.799400 0 0 1 24860.125984,21009.380315  a3.011269,3.011269 0 0 1 25056.970866,21371.935039  l202.209449,353.267717  a3.011438,3.011438 0 0 1 25465.127953,22077.184252  a138.844847,138.844847 0 0 0 25754.803937,22429.321654  a3.012238,3.012238 0 0 1 26048.657480,22782.589370  l299.218110,362.554724  a3.011438,3.011438 0 0 1 26645.648031,23511.982677" fill="none" stroke="black" stroke-width="1.0" transform="scale(0.5)"/>
<path d=" M26815.751575,23860.101969 a1.463454,1.463454 0 0 1 26985.762992,24210.612992  a128.799015,128.799015 0 0 1 27106.033465,24474.972047  a3.011421,3.011421 0 0 1 27229.290945,24735.936614  l133.983071,260.964567  a3.011811,3.011811 0 0 1 27500.240551,25260.459449  a112.145023,112.145023 0 0 0 27679.290945,25596.914173  a3.011663,3.011663 0 0 1 27859.099606,25937.248819  l174.444094,349.621654  a3.011438,3.011438 0 0 1 28203.555118,26637.381496" fill="none" stroke="black" stroke-width="1.0" transform="scale(0.5)"/>
<path d=" M28373.658661,26985.500787 a1.463454,1.463454 0 0 1 28543.670079,27336.011811  a128.799015,128.799015 0 0 1 28663.940551,27600.370866  a3.011421,3.011421 0 0 1 28787.198031,27861.335433  l133.983071,260.964567  a3.011811,3.011811 0 0 1 29058.147638,28385.858268  a112.145023,112.145023 0 0 0 29237.198031,28722.312992  a3.011663,3.011663 0 0 1 29417.006693,29062.647638  l174.444094,349.621654  a3.011438,3.011438 0 0 1 29761.462205,29762.780315" fill="none" stroke="black" stroke-width="1.0" transform="scale(0.5)"/>
<path d=" M29926.920472,29993.796850 a1.187785,1.187785 0 0 1 30090.270472,30225.305906  a86.278310,86.278310 0 0 1 30281.651575,30408.261024  a3.011279,3.011279 0 0 1 30477.617717,30591.981496  l201.398031,193.124409  a3.011438,3.011438 0 0 1 30879.846850,30981.950787  a69.627198,69.627198 0 0 0 31059.949606,31214.700000  a3.011207,3.011207 0 0 1 31237.114961,31449.798425  l166.305118,235.098425  a3.011811,3.011811 0 0 1 31566.770079,31916.405906" fill="none" stroke="black" stroke-width="1.0" transform="scale(0.5)"/>
<path d=" M31732.228346,32147.422441 a1.187785,1.187785 0 0 1 31895.578346,32378.931496  a86.278310,86.278310 0 0 1 32086.959449,32561.886614  a3.011279,3.011279 0 0 1 32282.925591,32745.607087  l201.398031,193.124409  a3.011438,3.011438 0 0 1 32685.154724,33135.576378  a69.627198,69.627198 0 0 0 32865.257480,33368.325591  a3.011207,3.011207 0 0 1 33042.422835,33603.424016  l166.305118,235.098425  a3.011811,3.011811 0 0 1 33372.077953,34070.031496" fill="none" stroke="black" stroke-width="1.0" transform="scale(0.5)"/>
<path d=" M33593.045669,34238.834646 a1.283758,1.283758 0 0 1 33813.042520,34405.267323  a86.280407,86.280407 0 0 1 34089.108661,34571.700000  a3.012003,3.012003 0 0 1 34366.804724,34742.487402  l272.264173,180.191339  a3.011438,3.011438 0 0 1 34907.828740,35104.241339  a69.625992,69.625992 0 0 0 35135.131890,35285.803937  a3.010206,3.010206 0 0 1 35358.930709,35465.995276  l218.366929,170.787402  a3.011438,3.011438 0 0 1 35797.294488,35803.215354" fill="none" stroke="black" stroke-width="1.0" transform="scale(0.5)"/>
<path d=" M36018.262205,35972.018504 a1.283758,1.283758 0 0 1 36238.259055,36138.451181  a86.280407,86.280407 0 0 1 36514.325197,36304.883858  a3.012003,3.012003 0 0 1 36792.021260,36475.671260  l272.264173,180.191339  a3.011438,3.011438 0 0 1 37333.045276,36837.425197  a69.625992,69.625992 0 0 0 37560.348425,37018.987795  a3.010206,3.010206 0 0 1 37784.147244,37199.179134  l218.366929,170.787402  a3.011438,3.011438 0 0 1 38222.511024,37536.399213" fill="none" stroke="black" stroke-width="1.0" transform="scale(0.5)"/>
<path d=" M38526.261024,37721.565354 a1.261781,1.261781 0 0 1 38830.942913,37904.520472  a86.279789,86.279789 0 0 1 39163.655906,38136.029528  a3.011029,3.011029 0 0 1 39493.413780,38371.127953  l318.897638,235.098425  a3.011811,3.011811 0 0 1 40128.271654,38838.975591  a69.626589,69.626589 0 0 0 40423.503543,39035.820472  a3.011605,3.011605 0 0 1 40718.168504,39228.944882  l300.096850,183.720472  a3.011438,3.011438 0 0 1 41322.947244,39595.620472" fill="none" stroke="black" stroke-width="1.0" transform="scale(0.5)"/>
<path d=" M41626.697244,39780.786614 a1.261781,1.261781 0 0 1 41931.379134,39963.741732  a86.279789,86.279789 0 0 1 42264.092126,40195.250787  a3.011029,3.011029 0 0 1 42593.850000,40430.349213  l318.897638,235.098425  a3.011811,3.011811 0 0 1 43228.707874,40898.196850  a69.626589,69.626589 0 0 0 43523.939764,41095.041732  a3.011605,3.011605 0 0 1 43818.604724,41288.166142  l300.096850,183.720472  a3.011438,3.011438 0 0 1 44423.383465,41654.841732" fill="none" stroke="black" stroke-width="1.0" transform="scale(0.5)"/>
<path d=" M44753.878346,41919.544488 a1.151875,1.151875 0 0 1 45086.591339,42184.098425  a86.278310,86.278310 0 0 1 45391.273228,42497.206299  a3.011279,3.011279 0 0 1 45691.370079,42809.548819  l294.664961,302.938583  a3.011438,3.011438 0 0 1 46281.266929,43411.705512  a69.627198,69.627198 0 0 0 46597.227165,43675.019291  a3.011207,3.011207 0 0 1 46916.124803,43935.983858  l329.757874,260.964567  a3.011811,3.011811 0 0 1 47578.595669,44461.502362" fill="none" stroke="black" stroke-width="1.0" transform="scale(0.5)"/>
<path d=" M47909.090551,44726.205118 a1.151875,1.151875 0 0 1 48241.803543,44990.759055  a86.278310,86.278310 0 0 1 48546.485433,45303.866929  a3.011279,3.011279 0 0 1 48846.582283,45616.209449  l294.664961,302.938583  a3.011438,3.011438 0 0 1 49436.479134,46218.366142  a69.627198,69.627198 0 0 0 49752.439370,46481.679921  a3.011207,3.011207 0 0 1 50071.337008,46742.644488  l329.757874,260.964567  a3.011811,3.011811 0 0 1 50733.807874,47268.162992" fill="none" stroke="black" stroke-width="1.0" transform="scale(0.5)"/>
<path d=" M51008.733071,47595.550394 a1.269973,1.269973 0 0 1 51284.799213,47925.180709  a86.280407,86.280407 0 0 1 51504.796063,48254.811024  a3.012003,3.012003 0 0 1 51723.162992,48580.086614  l223.798819,315.871654  a3.011438,3.011438 0 0 1 52174.264961,49210.458661  a69.625992,69.625992 0 0 0 52443.024803,49524.959055  a3.010206,3.010206 0 0 1 52715.288976,49840.830709  l277.696063,325.275591  a3.011438,3.011438 0 0 1 53269.051181,50495.736614" fill="none" stroke="black" stroke-width="1.0" transform="scale(0.5)"/>
<path d=" M53543.976378,50823.124016 a1.269973,1.269973 0 0 1 53820.042520,51152.754331  a86.280407,86.280407 0 0 1 54040.039370,51482.384646  a3.012003,3.012003 0 0 1 54258.406299,51807.660236  l223.798819,315.871654  a3.011438,3.011438 0 0 1 54709.508268,52438.032283  a69.625992,69.625992 0 0 0 54978.268110,52752.532677  a3.010206,3.010206 0 0 1 55250.532283,53068.404331  l277.696063,325.275591  a3.011438,3.011438 0 0 1 55804.294488,53723.310236" fill="none" stroke="black" stroke-width="1.0" transform="scale(0.5)"/>
<path d=" M55995.966142,54034.256693 a1.305861,1.305861 0 0 1 56187.347244,54347.364567  a86.279789,86.279789 0 0 1 56350.697244,54611.918504  a3.011029,3.011029 0 0 1 56517.002362,54872.883071  l177.165354,260.964567  a3.011811,3.011811 0 0 1 56874.270472,55397.161417  a69.626589,69.626589 0 0 0 57075.101575,55696.379528  a3.011605,3.011605 0 0 1 57276.499606,55999.318110  l195.966142,312.342520  a3.011438,3.011438 0 0 1 57663.846850,56624.768504" fill="none" stroke="black" stroke-width="1.0" transform="scale(0.5)"/>
<path d=" M57855.518504,56935.714961 a1.305861,1.305861 0 0 1 58046.899606,57248.822835  a86.279789,86.279789 0 0 1 58210.249606,57513.376772  a3.011029,3.011029 0 0 1 58376.554724,57774.341339  l177.165354,260.964567  a3.011811,3.011811 0 0 1 58733.822835,58298.619685  a69.626589,69.626589 0 0 0 58934.653937,58597.837795  a3.011605,3.011605 0 0 1 59136.051969,58900.776378  l195.966142,312.342520  a3.011438,3.011438 0 0 1 59523.399213,59526.226772" fill="none" stroke="black" stroke-width="1.0" transform="scale(0.5)"/>
<path d=" M59644.350000,59901.742913 a0.737229,0.737229 0 0 1 59766.771260,60277.333465  a1.948819,1.948819 0 0 1 59885.294882,60652.924016  a1.948819,1.948819 0 0 1 60007.716142,61028.514567" fill="none" stroke="black" stroke-width="1.0" transform="scale(0.5)"/>
<path d=" M60128.666929,61404.030709 a0.737229,0.737229 0 0 1 60251.088189,61779.621260  a1.948819,1.948819 0 0 1 60369.611811,62155.211811  a1.948819,1.948819 0 0 1 60492.033071,62530.802362" fill="none" stroke="black" stroke-width="1.0" transform="scale(0.5)"/>
<path d=" M60613.008661,62651.242913 a0.723538,0.723538 0 0 1 60735.429921,62771.715354  a1.948819,1.948819 0 0 1 60853.953543,62892.187795  a1.948819,1.948819 0 0 1 60976.374803,63012.660236" fill="none" stroke="black" stroke-width="1.0" transform="scale(0.5)"/>
<path d=" M61097.350394,63133.100787 a0.723538,0.723538 0 0 1 61219.771654,63253.573228  a1.948819,1.948819 0 0 1 61338.295276,63374.045669  a1.948819,1.948819 0 0 1 61460.716535,63494.518110" fill="none" stroke="black" stroke-width="1.0" transform="scale(0.5)"/>
<path d=" M61836.969685,63615.011811 a0.645232,0.645232 0 0 1 62214.509055,63735.484252  a1.948819,1.948819 0 0 1 62588.150787,63855.956693  a1.948819,1.948819 0 0 1 62965.690157,63976.429134" fill="none" stroke="black" stroke-width="1.0" transform="scale(0.5)"/>
<path d=" M63341.943307,64096.922835 a0.645232,0.645232 0 0 1 63719.482677,64217.395276  a1.948819,1.948819 0 0 1 64093.124409,64337.867717  a1.948819,1.948819 0 0 1 64470.663780,64458.340157" fill="none" stroke="black" stroke-width="1.0" transform="scale(0.5)"/>
<path d=" M64846.863780,64834.026378 a0.672977,0.672977 0 0 1 65224.403150,65209.616929  a1.948819,1.948819 0 0 1 65598.044882,65585.207480  a1.948819,1.948819 0 0 1 65975.584252,65960.798031" fill="none" stroke="black" stroke-width="1.0" transform="scale(0.5)"/>
<path d=" M66351.784252,66336.484252 a0.672977,0.672977 0 0 1 66729.323622,66712.074803  a1.948819,1.948819 0 0 1 67102.965354,67087.665354  a1.948819,1.948819 0 0 1 67480.504724,67463.255906" fill="none" stroke="black" stroke-width="1.0" transform="scale(0.5)"/>
</svg>

