<?xml version="1.0" encoding="ISO-8859-1" standalone="no"?>
<!DOCTYPE svg PUBLIC "-//W3C//DTD SVG 20010904//EN"
  "http://www.w3.org/TR/2001/REC-SVG-20010904/DTD/svg10.dtd">
<svg xmlns="http://www.w3.org/2000/svg" width="300mm" height="300mm"
  xmlns:xlink="http://www.w3.org/1999/xlink">
  <title>das symbol-Element</title>
  <desc>Referenzen - besondere Objekte: Symbole 20.2 0 0 20.2 -20.2 0 z </desc>

	<!--path d="M 160 110 l 100 100 " stroke="black" fill="none" stroke-width="10" /-->
	<path d="M 185 105M 185 105 A7.38148 7.38148 0 1 1 183.638 119.7 M 183.638 119.7 A7.38128 7.38128 0 1 0 179.598 133.899 M 179.598 133.899 A7.38194 7.38194 0 1 1 173.017 147.115 M 173.017 147.115 A7.38124 7.38124 0 1 0 164.121 158.896 M 164.121 158.896 A7.38125 7.38125 0 1 1 153.211 168.841 M 153.211 168.841 A7.38168 7.38168 0 1 0 140.659 176.613 M 140.659 176.613 A7.38146 7.38146 0 1 1 126.893 181.946 M 126.893 181.946 A7.38171 7.38171 0 1 0 112.381 184.659 M 112.381 184.659 A7.381 7.381 0 1 1 97.619 184.659 M 97.619 184.659 A7.38171 7.38171 0 1 0 83.107 181.946 M 83.107 181.946 A7.38146 7.38146 0 1 1 69.341 176.613 M 69.341 176.613 A7.38168 7.38168 0 1 0 56.789 168.841 M 56.789 168.841 A7.38125 7.38125 0 1 1 45.879 158.896 M 45.879 158.896 A7.38124 7.38124 0 1 0 36.983 147.115 M 36.983 147.115 A7.38194 7.38194 0 1 1 30.402 133.899 M 30.402 133.899 A7.38128 7.38128 0 1 0 26.362 119.7 M 26.362 119.7 A7.38148 7.38148 0 1 1 25 105 M 25 105 A7.38148 7.38148 0 1 0 26.362 90.3 M 26.362 90.3 A7.38128 7.38128 0 1 1 30.402 76.101 M 30.402 76.101 A7.38194 7.38194 0 1 0 36.983 62.885 M 36.983 62.885 A7.38124 7.38124 0 1 1 45.879 51.104 M 45.879 51.104 A7.38125 7.38125 0 1 0 56.789 41.159 M 56.789 41.159 A7.38168 7.38168 0 1 1 69.341 33.387 M 69.341 33.387 A7.38146 7.38146 0 1 0 83.107 28.054 M 83.107 28.054 A7.38171 7.38171 0 1 1 97.619 25.341 M 97.619 25.341 A7.381 7.381 0 1 0 112.381 25.341 M 112.381 25.341 A7.38171 7.38171 0 1 1 126.893 28.054 M 126.893 28.054 A7.38146 7.38146 0 1 0 140.659 33.387 M 140.659 33.387 A7.38168 7.38168 0 1 1 153.211 41.159 M 153.211 41.159 A7.38125 7.38125 0 1 0 164.121 51.104 M 164.121 51.104 A7.38124 7.38124 0 1 1 173.017 62.885 M 173.017 62.885 A7.38194 7.38194 0 1 0 179.598 76.101 M 179.598 76.101 A7.38128 7.38128 0 1 1 183.638 90.3 M 183.638 90.3 A7.38148 7.38148 0 1 0 185 105 "
          stroke="black" fill="none" stroke-width="1" />
</svg>


















































