<?xml version="1.0" encoding="ISO-8859-1" standalone="no"?>
<!DOCTYPE svg PUBLIC "-//W3C//DTD SVG 20010904//EN" 
  "http://www.w3.org/TR/2001/REC-SVG-20010904/DTD/svg10.dtd">
<svg xmlns="http://www.w3.org/2000/svg" width="200mm" height="200mm"
  xmlns:xlink="http://www.w3.org/1999/xlink">
  <title>das symbol-Element</title>
  <desc>Referenzen - besondere Objekte: Symbole 20.2 0 0 20.2 -20.2 0 z </desc>

  <defs>
  	<symbol id ="grid" >
		<line x1="10" y1="0" x2="10" y2="300" stroke="green" stroke-width="0.4"/>
		<line x1="20" y1="0" x2="20" y2="300" stroke="gray" stroke-width="0.4"/>
		<line x1="30" y1="0" x2="30" y2="300" stroke="green" stroke-width="0.4"/>
		<line x1="40" y1="0" x2="40" y2="300" stroke="gray" stroke-width="0.4"/>
		<line x1="50" y1="0" x2="50" y2="300" stroke="red" stroke-width="0.4"/>
		<line x1="60" y1="0" x2="60" y2="300" stroke="gray" stroke-width="0.4"/>
		<line x1="70" y1="0" x2="70" y2="300" stroke="green" stroke-width="0.4"/>
		<line x1="80" y1="0" x2="80" y2="300" stroke="gray" stroke-width="0.4"/>
		<line x1="90" y1="0" x2="90" y2="300" stroke="green" stroke-width="0.4"/>
		<line x1="100" y1="0" x2="100" y2="300" stroke="red" stroke-width="0.4"/>
		<line x1="110" y1="0" x2="110" y2="300" stroke="green" stroke-width="0.4"/>
		<line x1="120" y1="0" x2="120" y2="300" stroke="gray" stroke-width="0.4"/>
		<line x1="130" y1="0" x2="130" y2="300" stroke="green" stroke-width="0.4"/>
		<line x1="140" y1="0" x2="140" y2="300" stroke="gray" stroke-width="0.4"/>
		<line x1="150" y1="0" x2="150" y2="300" stroke="red" stroke-width="0.4"/>
		<line x1="160" y1="0" x2="160" y2="300" stroke="gray" stroke-width="0.4"/>
		<line x1="170" y1="0" x2="170" y2="300" stroke="green" stroke-width="0.4"/>
		<line x1="180" y1="0" x2="180" y2="300" stroke="gray" stroke-width="0.4"/>
		<line x1="190" y1="0" x2="190" y2="300" stroke="green" stroke-width="0.4"/>
		<line x1="200" y1="0" x2="200" y2="300" stroke="red" stroke-width="0.4"/>
		<line x1="210" y1="0" x2="210" y2="300" stroke="green" stroke-width="0.4"/>
		<line x1="220" y1="0" x2="220" y2="300" stroke="gray" stroke-width="0.4"/>
		<line x1="230" y1="0" x2="230" y2="300" stroke="green" stroke-width="0.4"/>
		<line x1="240" y1="0" x2="240" y2="300" stroke="gray" stroke-width="0.4"/>
		<line x1="250" y1="0" x2="250" y2="300" stroke="red" stroke-width="0.4"/>
		<line x1="260" y1="0" x2="260" y2="300" stroke="gray" stroke-width="0.4"/>
		<line x1="270" y1="0" x2="270" y2="300" stroke="green" stroke-width="0.4"/>
		<line x1="280" y1="0" x2="280" y2="300" stroke="gray" stroke-width="0.4"/>
		<line x1="290" y1="0" x2="290" y2="300" stroke="green" stroke-width="0.4"/>
		<line x1="300" y1="0" x2="300" y2="300" stroke="red" stroke-width="0.4"/>
 
		<line x1="0" y1="10" x2="300" y2="10" stroke="green" stroke-width="0.4"/>
		<line x1="0" y1="20" x2="300" y2="20" stroke="gray" stroke-width="0.4"/>
		<line x1="0" y1="30" x2="300" y2="30" stroke="green" stroke-width="0.4"/>
		<line x1="0" y1="40" x2="300" y2="40" stroke="gray" stroke-width="0.4"/>
		<line x1="0" y1="50" x2="300" y2="50" stroke="red" stroke-width="0.4"/>
		<line x1="0" y1="60" x2="300" y2="60" stroke="gray" stroke-width="0.4"/>
		<line x1="0" y1="70" x2="300" y2="70" stroke="green" stroke-width="0.4"/>
		<line x1="0" y1="80" x2="300" y2="80" stroke="gray" stroke-width="0.4"/>
		<line x1="0" y1="90" x2="300" y2="90" stroke="green" stroke-width="0.4"/>
		<line x1="0" y1="100" x2="300" y2="100" stroke="red" stroke-width="0.4"/>
		<line x1="0" y1="110" x2="300" y2="110" stroke="green" stroke-width="0.4"/>
		<line x1="0" y1="120" x2="300" y2="120" stroke="gray" stroke-width="0.4"/>
		<line x1="0" y1="130" x2="300" y2="130" stroke="green" stroke-width="0.4"/>
		<line x1="0" y1="140" x2="300" y2="140" stroke="gray" stroke-width="0.4"/>
		<line x1="0" y1="150" x2="300" y2="150" stroke="red" stroke-width="0.4"/>
		<line x1="0" y1="160" x2="300" y2="160" stroke="gray" stroke-width="0.4"/>
		<line x1="0" y1="170" x2="300" y2="170" stroke="green" stroke-width="0.4"/>
		<line x1="0" y1="180" x2="300" y2="180" stroke="gray" stroke-width="0.4"/>
		<line x1="0" y1="190" x2="300" y2="190" stroke="green" stroke-width="0.4"/>
		<line x1="0" y1="200" x2="300" y2="200" stroke="red" stroke-width="0.4"/>
		<line x1="0" y1="210" x2="300" y2="210" stroke="green" stroke-width="0.4"/>
		<line x1="0" y1="220" x2="300" y2="220" stroke="gray" stroke-width="0.4"/>
		<line x1="0" y1="230" x2="300" y2="230" stroke="green" stroke-width="0.4"/>
		<line x1="0" y1="240" x2="300" y2="240" stroke="gray" stroke-width="0.4"/>
		<line x1="0" y1="250" x2="300" y2="250" stroke="red" stroke-width="0.4"/>
		<line x1="0" y1="260" x2="300" y2="260" stroke="gray" stroke-width="0.4"/>
		<line x1="0" y1="270" x2="300" y2="270" stroke="green" stroke-width="0.4"/>
		<line x1="0" y1="280" x2="300" y2="280" stroke="gray" stroke-width="0.4"/>
		<line x1="0" y1="290" x2="300" y2="290" stroke="green" stroke-width="0.4"/>
		<line x1="0" y1="300" x2="300" y2="300" stroke="red" stroke-width="0.4"/>

	</symbol>
  </defs>


	<!--rect x="10" y="10" rx="5" ry="5" width="30" height="30" fill="none" stroke="blue" stroke-width="1"/-->

	<g id="c1" transform="translate(0)">
		<g id="c1.1" transform="translate(0)">
			<circle cx="50" cy="50" r="10" fill="none" stroke="blue" stroke-width="1"  transform="translate(10) scale(2) "/>
		</g>
	</g>

	<line x1="50" y1="46" x2="50" y2="54" stroke="black" stroke-width="0.4"/>
	<line x1="46" y1="50" x2="54" y2="50" stroke="black" stroke-width="0.4"/>




	<use xlink:href="#c" transform="translate (10)" />
	<use xlink:href="#grid" transform="scale(1)" />
</svg>
