<?xml version="1.0" encoding="UTF-8" standalone="no"?>
<!--?xml version="1.0" standalone="no"?-->

<svg
   xmlns:dc="http://purl.org/dc/elements/1.1/"
   xmlns:cc="http://creativecommons.org/ns#"
   xmlns:rdf="http://www.w3.org/1999/02/22-rdf-syntax-ns#"
   xmlns:svg="http://www.w3.org/2000/svg"
   xmlns="http://www.w3.org/2000/svg"
   xmlns:sodipodi="http://sodipodi.sourceforge.net/DTD/sodipodi-0.dtd"
   xmlns:inkscape="http://www.inkscape.org/namespaces/inkscape"
   version="1.0"
   width="300.000000pt"
   height="286.000000pt"
   viewBox="0 0 300 286"
   preserveAspectRatio="xMidYMid meet"
   id="svg2"
   inkscape:version="0.91 r13725"
   sodipodi:docname="smilies.svg">
    <defs
     id="defs155" />
  <g
     transform="translate(0 286) scale(0.1,-0.1)"
     fill="#333333"
     stroke="none"
     id="g4">
    <path
       class="node"
       id="node1"
       d="M175 2852 c-73 -26 -148 -99 -165 -161 -5 -20 -10 -58 -10 -86 1 -207 269 -314 416 -167 47 46 64 92 66 169 1 105 -42 182 -125 225 -43 21 -146 33 -182 20z m172 -58 c52 -31 87 -80 104 -145 11 -42 10 -52 -10 -101 -64 -157 -243 -193 -351 -71 -22 25 -45 63 -50 84 -22 82 16 174 94 227 65 43 145 45 213 6z" />
    <path
       class="node"
       id="node2"
       d="M110 2725 c-7 -8 -10 -25 -6 -39 8 -33 42 -43 67 -20 23 21 24 37 3 58 -20 20 -48 20 -64 1z" />
    <path
       class="node"
       id="node3"
       d="M316 2724 c-9 -8 -16 -22 -16 -29 0 -18 28 -45 45 -45 13 0 45 37 45 52 0 12 -31 38 -45 38 -7 0 -21 -7 -29 -16z" />
    <path
       class="node"
       id="node4"
       d="M100 2583 c0 -32 40 -84 75 -99 46 -19 92 -18 135 4 35 17 80 73 80 98 0 23 -30 16 -39 -8 -16 -41 -48 -61 -106 -66 -50 -4 -57 -2 -85 26 -16 17 -30 38 -30 46 0 9 -7 16 -15 16 -8 0 -15 -8 -15 -17z" />
    <path
       class="node"
       id="node5"
       d="M794 2850 c-44 -14 -124 -87 -145 -135 -42 -92 -11 -230 64 -288 131 -100 291 -70 372 68 20 33 26 57 26 111 2 106 -32 169 -117 219 -52 30 -145 42 -200 25z m189 -62 c152 -104 118 -322 -57 -373 -55 -16 -63 -16 -111 -1 -52 16 -106 60 -130 106 -52 100 -8 225 100 284 47 26 150 17 198 -16z" />
    <path
       class="node"
       id="node6"
       d="M740 2725 c-15 -18 -6 -61 16 -69 26 -10 54 12 54 43 0 40 -45 56 -70 26z" />
    <path
       class="node"
       id="node7"
       d="M925 2700 c-3 -6 0 -13 8 -16 24 -9 80 0 85 14 5 15 -84 17 -93 2z" />
    <path
       class="node"
       id="node8"
       d="M734 2568 c23 -114 195 -133 260 -29 31 49 32 61 6 61 -11 0 -20 -6 -20 -14 0 -8 -10 -27 -23 -42 -19 -22 -34 -28 -80 -32 -52 -4 -58 -2 -87 26 -16 17 -30 38 -30 46 0 9 -7 16 -16 16 -13 0 -15 -7 -10 -32z" />
    <path
       class="node"
       id="node9"
       d="M1417 2846 c-178 -66 -221 -296 -78 -418 92 -78 242 -76 329 5 93 87 97 255 9 348 -66 69 -176 97 -260 65z m156 -35 c69 -27 137 -125 137 -198 0 -47 -39 -133 -72 -159 -14 -11 -51 -28 -81 -39 -54 -18 -58 -18 -111 -2 -70 22 -113 58 -137 115 -45 105 -1 224 104 276 36 17 122 21 160 7z" />
    <path
       class="node"
       id="node10"
       d="M1372 2728 c-17 -17 -15 -53 3 -68 12 -10 21 -10 40 -2 40 19 29 82 -15 82 -9 0 -21 -5 -28 -12z" />
    <path
       class="node"
       id="node11"
       d="M1574 2732 c-22 -15 -24 -42 -4 -62 24 -24 34 -25 54 -4 38 38 -6 97 -50 66z" />
    <path
       class="node"
       id="node12"
       d="M1408 2602 c-43 -3 -48 -5 -48 -28 0 -14 14 -40 33 -60 28 -30 42 -37 83 -41 64 -7 117 15 144 59 37 61 31 66 -72 70 -51 2 -114 2 -140 0z" />
    <path
       class="node"
       id="node13"
       d="M2050 2848 c-48 -14 -116 -72 -142 -121 -29 -56 -31 -165 -4 -219 74 -151 277 -186 394 -68 64 63 85 145 62 241 -10 42 -24 64 -64 104 -69 69 -151 90 -246 63z m163 -44 c67 -34 99 -77 117 -159 14 -61 -2 -113 -52 -170 -39 -44 -104 -75 -158 -75 -41 0 -131 51 -164 93 -26 32 -31 49 -34 105 -5 86 23 143 92 190 41 27 57 32 108 32 34 0 72 -7 91 -16z" />
    <path
       class="node"
       id="node14"
       d="M1996 2724 c-22 -22 -20 -41 8 -59 29 -19 54 -10 62 21 12 46 -37 72 -70 38z" />
    <path
       class="node"
       id="node15"
       d="M2196 2724 c-21 -20 -20 -30 4 -54 11 -11 24 -20 29 -20 14 0 41 30 41 45 0 18 -27 45 -45 45 -7 0 -21 -7 -29 -16z" />
    <path
       class="node"
       id="node16"
       d="M1980 2590 c0 -5 16 -22 36 -37 20 -15 44 -47 55 -70 16 -39 22 -43 53 -43 37 0 56 20 56 58 0 13 16 29 45 46 25 15 45 33 45 41 0 21 -16 19 -51 -7 -25 -19 -44 -23 -99 -23 -57 0 -72 4 -92 23 -25 23 -48 29 -48 12z m130 -95 c0 -8 5 -15 10 -15 6 0 10 7 10 15 0 8 7 15 15 15 19 0 19 -11 1 -36 -12 -15 -18 -17 -33 -8 -20 13 -30 44 -14 44 6 0 11 -7 11 -15z" />
    <path
       stroke-width="20"
       class="node"
       id="node17"
       d="M2674 2850 c-18 -6 -55 -31 -83 -56 -136 -122 -97 -338 74 -410 48 -20 135 -18 187 5 54 23 110 83 133 145 41 108 -13 243 -120 298 -45 23 -144 32 -191 18z m187 -59 c138 -87 132 -288 -11 -361 -87 -44 -177 -30 -242 38 -82 85 -88 189 -16 277 67 80 182 100 269 46z" />
    <path
       class="node"
       id="node18"
       d="M2630 2726 c0 -8 6 -16 13 -19 10 -4 10 -7 0 -18 -15 -15 -17 -39 -4 -39 6 0 22 10 37 23 l27 23 -23 22 c-27 25 -50 29 -50 8z" />
    <path
       class="node"
       id="node19"
       d="M2829 2721 l-24 -19 24 -26 c14 -14 30 -26 38 -26 18 0 16 27 -3 38 -14 8 -14 10 0 21 9 8 16 17 16 22 0 15 -27 10 -51 -10z" />
    <path
       class="node"
       id="node20"
       d="M2649 2571 c-26 -26 -39 -48 -39 -66 0 -36 20 -28 42 17 17 35 56 58 100 58 38 0 90 -33 106 -67 17 -36 35 -39 40 -7 3 22 -50 81 -85 95 -13 5 -47 9 -75 9 -45 0 -54 -4 -89 -39z" />
    <path
       class="node"
       id="node21"
       d="M199 2259 c-47 -7 -110 -41 -141 -75 -51 -57 -71 -162 -47 -248 22 -80 142 -166 231 -166 86 0 192 70 225 148 20 48 20 157 0 202 -43 99 -156 157 -268 139z m102 -39 c20 -6 56 -28 81 -49 35 -31 48 -53 62 -99 18 -58 18 -61 0 -108 -26 -71 -51 -101 -108 -129 -87 -44 -189 -25 -250 47 -134 157 16 393 215 338z" />
    <path
       class="node"
       id="node22"
       d="M112 2107 c-12 -13 -22 -29 -22 -35 0 -18 21 -14 35 5 13 17 14 17 32 0 42 -37 61 -7 20 31 -29 28 -38 28 -65 -1z" />
    <path
       class="node"
       id="node23"
       d="M312 2107 c-12 -13 -22 -29 -22 -35 0 -18 28 -14 39 5 9 17 11 16 30 -1 16 -15 24 -17 33 -8 9 9 6 18 -12 37 -29 31 -41 31 -68 2z" />
    <path
       class="node"
       id="node24"
       d="M100 1985 c0 -14 4 -25 9 -25 5 0 11 -10 15 -23 10 -40 68 -63 149 -59 35 2 104 66 113 105 l6 27 -146 0 -146 0 0 -25z" />
    <path
       class="node"
       id="node25"
       d="M828 2259 c-145 -22 -230 -168 -187 -323 13 -47 78 -120 122 -136 17 -6 40 -16 49 -21 76 -40 235 36 282 135 23 48 24 161 2 207 -48 101 -153 155 -268 138z m153 -64 c75 -49 108 -127 95 -219 -10 -63 -78 -139 -140 -155 -90 -22 -154 -6 -212 53 -113 118 -62 304 96 348 45 12 121 0 161 -27z" />
    <path
       class="node"
       id="node26"
       d="M715 2121 c-8 -27 15 -71 41 -77 37 -9 58 -1 79 33 25 40 50 42 69 4 16 -31 34 -41 71 -41 43 0 76 80 39 94 -9 3 -78 6 -154 6 -127 0 -139 -2 -145 -19z" />
    <path
       class="node"
       id="node27"
       d="M734 1968 c13 -64 73 -103 148 -96 27 3 61 14 76 25 27 20 60 69 61 91 2 21 -29 13 -38 -10 -15 -39 -48 -61 -101 -66 -58 -5 -91 11 -115 58 -21 40 -39 39 -31 -2z" />
    <path
       class="node"
       id="node28"
       d="M1451 2259 c-114 -21 -194 -120 -195 -239 -1 -112 56 -193 164 -233 59 -22 97 -21 163 3 54 20 108 69 140 127 21 38 23 149 3 197 -44 105 -160 166 -275 145z m163 -67 c49 -33 96 -117 96 -174 0 -110 -103 -209 -215 -208 -149 2 -252 169 -185 299 23 45 82 97 125 111 50 16 133 3 179 -28z" />
    <path
       class="node"
       id="node29"
       d="M1375 2135 c-30 -29 -31 -49 -5 -75 34 -34 80 -20 95 27 4 17 -1 29 -19 48 -31 31 -41 31 -71 0z m55 -20 c17 -20 5 -45 -20 -45 -11 0 -23 7 -26 15 -6 15 11 45 26 45 4 0 13 -7 20 -15z" />
    <path
       class="node"
       id="node30"
       d="M1552 2140 c-27 -25 -28 -61 -4 -83 32 -29 69 -21 91 21 14 26 2 55 -29 72 -26 14 -33 13 -58 -10z m57 -24 c15 -18 3 -46 -20 -46 -24 0 -42 33 -27 48 16 16 33 15 47 -2z" />
    <path
       class="node"
       id="node31"
       d="M1360 1986 c0 -64 61 -116 134 -116 71 0 146 59 146 115 0 24 -27 17 -34 -9 -8 -33 -65 -66 -112 -66 -44 0 -102 35 -106 64 -4 24 -28 34 -28 12z" />
    <path
       class="node"
       id="node32"
       d="M2077 2258 c-164 -30 -247 -218 -162 -364 40 -69 133 -123 210 -124 47 0 135 36 171 71 108 104 93 294 -30 378 -60 41 -116 53 -189 39z m162 -65 c93 -58 123 -185 66 -279 -36 -59 -114 -104 -180 -104 -58 0 -137 42 -171 91 -43 62 -46 149 -8 218 58 108 186 140 293 74z" />
    <path
       class="node"
       id="node33"
       d="M1987 2103 c-16 -16 -4 -23 37 -23 46 0 68 13 40 24 -21 8 -69 8 -77 -1z" />
    <path
       class="node"
       id="node34"
       d="M2187 2104 c-16 -17 -4 -24 39 -24 32 0 44 4 42 13 -5 13 -69 22 -81 11z" />
    <path
       class="node"
       id="node35"
       d="M2106 1944 c-10 -9 -15 -23 -12 -31 3 -8 6 -17 6 -19 0 -2 11 -4 25 -4 29 0 43 25 28 48 -14 23 -29 25 -47 6z" />
    <path
       class="node"
       id="node36"
       d="M2655 2246 c-150 -65 -192 -268 -81 -394 36 -41 121 -82 172 -82 57 0 133 31 175 72 59 57 74 92 74 178 0 64 -4 82 -27 120 -28 47 -59 74 -115 103 -39 21 -154 22 -198 3z m155 -26 c84 -23 150 -111 150 -201 0 -101 -61 -178 -160 -201 -100 -23 -189 21 -234 116 -32 68 -33 101 -2 169 43 97 144 145 246 117z" />
    <path
       class="node"
       id="node37"
       d="M2614 2115 c-4 -15 -1 -32 6 -40 18 -21 57 -19 70 5 16 30 -4 60 -40 60 -23 0 -31 -5 -36 -25z" />
    <path
       class="node"
       id="node38"
       d="M2814 2115 c-13 -52 56 -79 78 -30 14 32 -4 55 -43 55 -22 0 -30 -6 -35 -25z" />
    <path
       class="node"
       id="node39"
       d="M2684 2006 c-36 -16 -74 -65 -74 -95 0 -33 27 -24 40 13 13 39 44 56 103 56 49 0 81 -19 102 -61 16 -31 45 -40 45 -13 0 25 -52 86 -87 100 -41 17 -89 17 -129 0z" />
    <path
       class="node"
       id="node40"
       d="M132 1649 c-105 -52 -156 -177 -122 -300 13 -48 75 -118 124 -140 50 -23 162 -25 210 -5 43 18 104 80 123 124 20 47 20 157 0 202 -19 46 -72 99 -122 121 -57 26 -157 25 -213 -2z m208 -34 c42 -22 86 -78 105 -135 15 -44 16 -59 5 -93 -16 -56 -46 -98 -94 -132 -35 -26 -49 -29 -112 -30 -65 0 -77 3 -116 30 -147 104 -113 321 60 376 34 11 117 2 152 -16z" />
    <path
       class="node"
       id="node41"
       d="M106 1553 c-12 -13 -4 -39 20 -67 24 -28 25 -28 45 -10 54 48 47 82 -16 82 -24 0 -46 -2 -49 -5z" />
    <path
       class="node"
       id="node42"
       d="M286 1543 c-13 -14 -4 -41 22 -66 l28 -27 21 22 c20 22 27 39 24 65 -1 12 -84 17 -95 6z" />
    <path
       class="node"
       id="node43"
       d="M100 1393 c0 -32 40 -84 75 -99 88 -36 185 7 210 94 9 31 -22 30 -35 -2 -26 -70 -129 -90 -188 -37 -17 17 -32 37 -32 45 0 9 -7 16 -15 16 -8 0 -15 -8 -15 -17z" />
    <path
       class="node"
       id="node44"
       d="M774 1656 c-18 -8 -50 -31 -72 -51 -96 -86 -96 -264 0 -351 54 -49 95 -64 173 -64 78 0 120 16 167 62 51 51 69 98 70 176 1 103 -48 182 -137 223 -48 22 -155 25 -201 5z m201 -46 c100 -62 132 -172 79 -278 -62 -124 -228 -148 -328 -49 -85 85 -85 208 -2 292 25 25 59 47 82 53 51 14 131 6 169 -18z" />
    <path
       class="node"
       id="node45"
       d="M746 1547 c-38 -27 2 -95 42 -71 24 16 28 55 6 71 -10 7 -21 13 -24 13 -3 0 -14 -6 -24 -13z" />
    <path
       class="node"
       id="node46"
       d="M946 1544 c-34 -33 -8 -82 38 -70 31 8 40 33 21 62 -18 28 -37 30 -59 8z" />
    <path
       class="node"
       id="node47"
       d="M997 1463 c-13 -12 -7 -53 7 -53 20 0 26 12 19 38 -5 22 -14 27 -26 15z" />
    <path
       class="node"
       id="node48"
       d="M790 1408 c-34 -24 -73 -85 -64 -100 11 -17 29 -7 44 25 8 18 31 41 52 52 34 18 40 19 80 5 30 -10 50 -26 67 -52 24 -37 51 -50 51 -25 0 25 -49 84 -83 101 -50 23 -107 21 -147 -6z" />
    <path
       class="node"
       id="node49"
       d="M1408 1661 c-48 -16 -105 -69 -132 -123 -63 -126 -6 -281 123 -335 24 -10 60 -14 112 -11 67 3 83 7 121 34 64 47 99 109 105 187 6 96 -31 171 -110 223 -35 23 -55 28 -117 31 -41 1 -87 -2 -102 -6z m181 -46 c43 -22 70 -52 97 -110 31 -64 30 -97 -5 -165 -75 -150 -277 -159 -365 -15 -71 115 -12 263 122 306 36 11 114 4 151 -16z" />
    <path
       class="node"
       id="node50"
       d="M1369 1554 c-10 -13 -10 -19 0 -36 10 -16 10 -22 1 -28 -18 -11 -2 -30 25 -30 31 0 43 35 20 60 -12 13 -13 19 -4 22 15 5 3 28 -15 28 -8 0 -19 -7 -27 -16z" />
    <path
       class="node"
       id="node51"
       d="M1572 1558 c-16 -16 -15 -28 5 -50 15 -17 15 -18 -1 -18 -10 0 -16 -6 -14 -12 7 -20 43 -21 58 -3 12 14 12 20 1 38 -10 16 -11 22 -2 25 9 3 9 7 0 18 -14 17 -31 18 -47 2z" />
    <path
       class="node"
       id="node52"
       d="M1354 1409 c-5 -8 7 -25 34 -49 23 -19 42 -39 42 -44 0 -22 43 -66 65 -66 26 0 55 33 55 62 0 10 18 29 39 42 46 29 57 44 43 58 -6 6 -15 4 -25 -7 -57 -56 -165 -58 -223 -4 -17 16 -24 17 -30 8z m130 -101 l7 -23 9 23 c5 12 14 22 19 22 11 0 4 -27 -12 -47 -13 -18 -47 2 -47 27 0 27 16 25 24 -2z" />
    <path
       class="node"
       id="node53"
       d="M2032 1660 c-43 -18 -93 -63 -120 -109 -23 -39 -27 -57 -27 -122 0 -67 4 -82 30 -125 17 -26 50 -62 74 -79 37 -26 53 -30 121 -34 66 -2 87 1 125 19 80 39 135 128 135 221 0 89 -67 192 -146 225 -37 16 -156 18 -192 4z m153 -31 c54 -14 118 -74 136 -127 41 -125 -34 -259 -157 -278 -134 -20 -244 73 -244 207 0 98 61 178 153 199 47 11 63 11 112 -1z" />
    <path
       class="node"
       id="node54"
       d="M1985 1552 c-11 -11 -4 -41 14 -63 17 -22 21 -22 46 -9 62 33 56 79 -11 78 -24 -1 -46 -3 -49 -6z" />
    <path
       class="node"
       id="node55"
       d="M2176 1541 c-17 -18 -16 -21 13 -53 26 -28 30 -30 31 -13 0 16 2 17 10 5 8 -13 11 -12 24 5 9 11 16 30 16 41 0 23 -25 40 -35 24 -4 -7 -13 -7 -24 0 -14 7 -23 5 -35 -9z" />
    <path
       class="node"
       id="node56"
       d="M2055 1415 c-51 -26 -99 -115 -61 -115 7 0 19 14 26 31 15 35 63 69 98 69 41 0 96 -36 115 -75 17 -36 37 -40 37 -6 0 23 -47 79 -82 97 -35 18 -95 18 -133 -1z" />
    <path
       class="node"
       id="node57"
       d="M2664 1659 c-37 -11 -106 -75 -129 -120 -23 -44 -30 -130 -15 -183 16 -58 68 -118 125 -146 38 -18 59 -21 124 -19 70 4 84 8 123 35 23 17 57 53 73 79 26 43 30 57 30 124 0 70 -3 81 -34 129 -48 76 -114 112 -201 111 -36 0 -79 -5 -96 -10z m139 -28 c176 -41 215 -280 62 -376 -41 -26 -58 -30 -116 -30 -58 0 -73 4 -111 30 -60 41 -100 122 -94 187 9 90 59 154 145 184 43 16 64 16 114 5z" />
    <path
       class="node"
       id="node58"
       d="M2630 1556 c0 -8 5 -18 11 -21 6 -5 3 -13 -10 -22 -26 -18 -27 -39 -1 -53 16 -8 23 -7 36 9 9 11 23 17 30 14 24 -9 15 15 -20 51 -36 39 -46 44 -46 22z" />
    <path
       class="node"
       id="node59"
       d="M2826 1531 c-25 -26 -34 -41 -26 -46 6 -4 14 -5 16 -2 3 3 14 -3 25 -14 20 -20 44 -17 54 9 4 11 -1 23 -15 34 -12 10 -16 19 -10 23 12 7 14 35 2 35 -4 0 -25 -17 -46 -39z" />
    <path
       class="node"
       id="node60"
       d="M2709 1409 c-58 -21 -60 -108 -3 -129 81 -31 157 16 134 84 -16 50 -69 68 -131 45z" />
    <path
       class="node"
       id="node61"
       d="M155 1065 c-53 -21 -121 -89 -141 -142 -26 -66 -15 -160 25 -220 36 -55 64 -78 122 -98 82 -29 169 -14 238 43 70 57 97 148 77 259 -9 47 -69 124 -118 149 -43 22 -154 27 -203 9z m184 -45 c52 -26 87 -70 107 -135 19 -59 12 -100 -27 -165 -49 -79 -181 -115 -266 -71 -108 55 -152 189 -93 286 24 40 69 81 100 94 44 17 137 13 179 -9z" />
    <path
       class="node"
       id="node62"
       d="M112 948 c-18 -18 -14 -45 10 -62 37 -26 79 14 58 55 -12 21 -50 25 -68 7z" />
    <path
       class="node"
       id="node63"
       d="M312 948 c-18 -18 -14 -45 10 -62 37 -26 79 14 58 55 -12 21 -50 25 -68 7z" />
    <path
       class="node"
       id="node64"
       d="M190 789 c0 -7 8 -18 17 -24 17 -13 17 -14 0 -32 -18 -21 -23 -43 -8 -43 5 0 14 7 21 15 7 8 18 15 25 15 7 0 15 -7 19 -15 6 -18 36 -20 36 -3 0 6 -7 20 -17 30 -15 17 -15 19 0 36 21 23 21 32 2 32 -9 0 -18 -7 -21 -15 -4 -8 -12 -15 -19 -15 -7 0 -18 7 -25 15 -15 18 -30 20 -30 4z" />
    <path
       class="node"
       id="node65"
       d="M796 1070 c-39 -12 -98 -54 -122 -88 -47 -63 -58 -175 -25 -247 37 -83 126 -144 209 -145 151 -1 251 96 254 243 3 169 -153 286 -316 237z m161 -42 c44 -20 78 -54 103 -104 47 -95 6 -221 -89 -271 -51 -27 -133 -31 -184 -10 -45 20 -104 88 -117 139 -26 96 24 202 115 244 38 17 135 18 172 2z" />
    <path
       class="node"
       id="node66"
       d="M740 960 c0 -6 7 -13 16 -17 14 -5 13 -8 -6 -23 -16 -12 -21 -23 -15 -38 8 -28 45 -29 52 -2 4 15 11 19 24 15 28 -9 23 7 -14 43 -33 32 -57 41 -57 22z" />
    <path
       class="node"
       id="node67"
       d="M942 937 c-36 -37 -40 -50 -14 -45 9 2 24 -5 33 -16 19 -23 49 -16 49 12 0 11 -7 25 -15 32 -11 9 -13 16 -5 24 14 14 13 26 -3 26 -7 0 -27 -15 -45 -33z" />
    <path
       class="node"
       id="node68"
       d="M810 818 c-44 -23 -94 -81 -87 -102 8 -25 33 -15 45 18 14 38 57 66 101 66 36 0 87 -33 106 -70 17 -34 45 -40 45 -11 0 24 -44 77 -79 95 -52 27 -84 28 -131 4z" />
    <path
       class="node"
       id="node69"
       d="M1445 1076 c-5 -2 -23 -7 -38 -10 -34 -8 -111 -77 -133 -120 -9 -17 -18 -61 -21 -97 -5 -57 -2 -74 18 -114 46 -91 133 -146 230 -144 59 1 100 17 152 61 56 47 84 106 86 181 2 89 -54 183 -132 223 -26 14 -141 28 -162 20z m144 -56 c52 -26 87 -70 107 -135 15 -47 16 -60 4 -95 -21 -64 -47 -98 -97 -130 -39 -25 -57 -30 -108 -30 -50 0 -69 5 -108 30 -66 42 -101 101 -101 170 0 122 87 210 207 210 38 0 71 -7 96 -20z" />
    <path
       class="node"
       id="node70"
       d="M1364 935 c-10 -25 4 -45 30 -45 30 0 40 13 31 40 -8 24 -53 28 -61 5z" />
    <path
       class="node"
       id="node71"
       d="M1572 941 c-25 -16 -10 -46 23 -46 25 0 30 4 30 25 0 27 -28 38 -53 21z" />
    <path
       class="node"
       id="node72"
       d="M1421 792 c-38 -37 -39 -61 -5 -93 21 -19 36 -24 81 -24 48 0 58 4 79 28 30 35 30 49 2 82 -17 19 -36 27 -75 32 -48 5 -54 4 -82 -25z" />
    <path
       class="node"
       id="node73"
       d="M2040 1068 c-19 -7 -58 -35 -86 -63 -43 -43 -54 -61 -65 -109 -41 -185 111 -338 295 -297 106 24 186 125 186 236 0 89 -56 182 -134 222 -39 20 -150 26 -196 11z m167 -39 c30 -11 88 -62 104 -91 22 -41 28 -116 13 -167 -17 -59 -87 -127 -141 -137 -62 -12 -131 1 -176 33 -74 51 -101 130 -81 231 8 39 68 110 108 128 37 16 134 18 173 3z" />
    <path
       class="node"
       id="node74"
       d="M1980 948 c0 -6 7 -19 15 -28 14 -15 14 -18 0 -30 -15 -12 -21 -40 -8 -40 3 0 14 7 24 16 16 15 20 15 41 0 12 -9 26 -16 30 -16 14 0 9 27 -7 40 -14 12 -14 15 0 30 32 35 9 55 -27 23 -17 -15 -19 -15 -36 0 -22 20 -32 21 -32 5z" />
    <path
       class="node"
       id="node75"
       d="M2160 945 c0 -7 8 -18 17 -24 17 -9 16 -11 -1 -30 -15 -16 -17 -24 -8 -33 9 -9 16 -7 31 6 18 16 21 16 43 2 31 -21 41 -11 21 20 -14 23 -14 26 1 43 23 26 1 39 -25 15 -18 -16 -20 -16 -37 -1 -23 21 -42 22 -42 2z" />
    <path
       class="node"
       id="node76"
       d="M2035 770 c-3 -5 -17 -10 -31 -10 -14 0 -24 -6 -24 -14 0 -18 26 -28 54 -20 16 4 25 0 29 -11 6 -14 9 -14 30 0 21 14 26 14 37 1 10 -14 14 -14 35 0 20 13 23 13 28 0 5 -12 11 -12 41 2 46 21 47 42 2 42 -19 0 -36 6 -39 13 -3 9 -7 9 -18 1 -15 -13 -103 -14 -115 -1 -10 10 -22 9 -29 -3z" />
    <path
       class="node"
       id="node77"
       d="M2669 1066 c-200 -71 -214 -360 -21 -452 167 -79 366 55 349 236 -15 167 -174 271 -328 216z m172 -40 c73 -31 119 -106 119 -194 0 -51 -5 -67 -32 -108 -47 -69 -104 -97 -190 -92 -57 3 -73 8 -105 34 -45 36 -92 117 -93 158 0 76 55 166 122 199 41 20 134 22 179 3z" />
    <path
       class="node"
       id="node78"
       d="M2630 955 c0 -8 6 -15 13 -15 6 0 1 -9 -12 -19 -17 -13 -22 -23 -16 -39 8 -27 41 -29 55 -2 6 11 16 17 25 14 25 -10 17 10 -18 44 -37 36 -47 39 -47 17z" />
    <path
       class="node"
       id="node79"
       d="M2828 940 c-29 -30 -37 -56 -15 -47 7 3 19 -4 25 -14 14 -22 35 -25 51 -5 14 16 4 46 -15 46 -16 0 -19 16 -4 25 6 3 10 10 10 16 0 18 -25 8 -52 -21z" />
    <path
       class="node"
       id="node80"
       d="M2612 758 l3 -63 140 0 140 0 0 60 0 60 -143 3 -143 3 3 -63z m66 25 c2 -8 -5 -13 -17 -13 -21 0 -35 13 -24 24 10 10 36 3 41 -11z m62 2 c0 -8 -9 -15 -20 -15 -20 0 -26 11 -13 23 12 13 33 7 33 -8z m65 6 c3 -5 1 -13 -5 -16 -15 -9 -43 3 -35 15 8 13 32 13 40 1z m65 -6 c0 -8 -9 -15 -20 -15 -11 0 -20 7 -20 15 0 8 9 15 20 15 11 0 20 -7 20 -15z m-192 -53 c2 -7 -6 -12 -17 -12 -21 0 -27 11 -14 24 9 9 26 2 31 -12z m62 2 c0 -9 -7 -14 -17 -12 -25 5 -28 28 -4 28 12 0 21 -6 21 -16z m60 1 c0 -8 -7 -15 -15 -15 -8 0 -15 7 -15 15 0 8 7 15 15 15 8 0 15 -7 15 -15z m63 0 c1 -5 -6 -11 -15 -13 -11 -2 -18 3 -18 13 0 17 30 18 33 0z" />
    <path
       class="node"
       id="node81"
       d="M162 477 c-46 -14 -121 -84 -143 -132 -11 -24 -19 -64 -19 -101 0 -104 57 -189 155 -230 48 -20 141 -18 190 5 44 20 110 87 126 129 17 43 13 165 -6 203 -54 108 -188 163 -303 126z m193 -57 c45 -28 80 -80 96 -142 10 -43 9 -54 -10 -102 -37 -89 -105 -137 -195 -138 -66 -1 -117 23 -161 75 -46 54 -59 103 -45 171 13 63 58 121 114 148 55 25 150 20 201 -12z" />
    <path
       class="node"
       id="node82"
       d="M104 359 c-7 -12 62 -87 72 -77 11 12 -6 44 -36 66 -19 15 -31 18 -36 11z" />
    <path
       class="node"
       id="node83"
       d="M334 337 c-32 -29 -37 -38 -26 -49 10 -10 19 -6 47 22 24 24 32 39 26 49 -7 10 -17 6 -47 -22z" />
    <path
       class="node"
       id="node84"
       d="M102 153 c3 -16 18 -18 123 -21 133 -3 165 1 165 23 0 13 -24 15 -146 15 -133 0 -145 -1 -142 -17z" />
    <path
       class="node"
       id="node85"
       d="M782 472 c-48 -19 -105 -70 -130 -116 -11 -22 -17 -55 -17 -112 0 -72 3 -85 30 -129 77 -126 253 -154 363 -59 60 51 84 104 85 184 2 176 -169 296 -331 232z m199 -48 c17 -11 45 -39 63 -62 28 -40 31 -51 31 -116 0 -62 -4 -78 -27 -114 -99 -149 -327 -115 -377 57 -29 99 21 202 119 246 46 20 147 14 191 -11z" />
    <path
       class="node"
       id="node86"
       d="M704 346 c-3 -7 -4 -35 -2 -62 l3 -49 75 0 75 0 3 43 c4 47 22 58 22 13 0 -56 6 -61 79 -61 77 0 91 9 91 61 0 71 6 69 -176 69 -131 0 -166 -3 -170 -14z m116 -51 c0 -23 -4 -25 -45 -25 -41 0 -45 2 -45 25 0 23 4 25 45 25 41 0 45 -2 45 -25z m190 0 c0 -23 -4 -25 -45 -25 -41 0 -45 2 -45 25 0 23 4 25 45 25 41 0 45 -2 45 -25z" />
    <path
       class="node"
       id="node87"
       d="M773 298 c2 -7 10 -13 17 -13 7 0 15 6 18 13 2 7 -5 12 -18 12 -13 0 -20 -5 -17 -12z" />
    <path
       class="node"
       id="node88"
       d="M940 295 c0 -8 7 -15 15 -15 8 0 15 7 15 15 0 8 -7 15 -15 15 -8 0 -15 -7 -15 -15z" />
    <path
       class="node"
       id="node89"
       d="M730 140 c0 -19 7 -20 129 -20 137 0 161 4 161 26 0 11 -28 14 -145 14 -138 0 -145 -1 -145 -20z" />
    <path
       class="node"
       id="node90"
       d="M1417 476 c-99 -36 -160 -125 -161 -236 -1 -54 4 -73 27 -112 81 -138 245 -170 374 -72 83 63 110 208 56 305 -57 106 -184 155 -296 115z m161 -42 c75 -31 132 -112 132 -186 0 -64 -45 -145 -99 -180 -42 -27 -52 -29 -121 -26 -68 3 -80 6 -117 35 -80 64 -105 171 -59 261 49 96 164 138 264 96z" />
    <path
       class="node"
       id="node91"
       d="M1366 351 c-14 -16 -15 -23 -6 -41 16 -31 74 -25 78 8 7 48 -40 69 -72 33z" />
    <path
       class="node"
       id="node92"
       d="M1566 348 c-23 -32 -4 -60 37 -56 25 2 33 8 35 26 7 49 -44 70 -72 30z" />
    <path
       class="node"
       id="node93"
       d="M1405 180 c-3 -5 -17 -10 -31 -10 -26 0 -29 -7 -15 -29 6 -9 18 -12 36 -7 18 5 31 3 36 -5 6 -10 13 -10 34 -1 20 9 30 9 45 0 15 -10 22 -10 31 -1 8 8 16 9 29 1 12 -8 24 -7 46 3 35 17 34 33 -3 37 -15 2 -34 8 -40 14 -9 7 -18 7 -28 -2 -8 -7 -25 -10 -37 -7 -11 3 -30 2 -40 -4 -14 -7 -20 -6 -24 6 -7 17 -30 20 -39 5z" />
    <path
       class="node"
       id="node94"
       d="M2033 469 c-165 -63 -205 -280 -74 -402 53 -50 99 -67 176 -67 126 1 235 112 235 240 0 74 -27 135 -80 183 -76 68 -160 83 -257 46z m175 -34 c98 -41 151 -155 117 -253 -31 -91 -100 -143 -193 -143 -134 -1 -221 94 -210 227 12 137 157 222 286 169z" />
    <path
       class="node"
       id="node95"
       d="M1987 352 c-18 -20 -23 -52 -8 -52 5 0 15 10 24 23 l15 22 26 -24 c23 -21 26 -22 32 -7 8 22 -23 56 -51 56 -12 0 -29 -8 -38 -18z" />
    <path
       class="node"
       id="node96"
       d="M2185 350 c-11 -12 -15 -26 -10 -37 6 -17 8 -16 22 5 19 28 34 28 51 1 10 -15 17 -18 24 -11 17 17 -17 62 -46 62 -12 0 -31 -9 -41 -20z" />
    <path
       class="node"
       id="node97"
       d="M1967 261 c-5 -22 0 -31 20 -31 7 0 13 11 13 25 0 30 -25 34 -33 6z" />
    <path
       class="node"
       id="node98"
       d="M2257 273 c-15 -15 -7 -43 13 -43 21 0 24 8 14 34 -7 17 -16 20 -27 9z" />
    <path
       class="node"
       id="node99"
       d="M2050 236 c-32 -18 -70 -69 -70 -96 0 -19 6 -20 145 -20 125 0 145 2 145 16 0 23 -49 83 -81 100 -35 18 -106 18 -139 0z" />
    <path
       class="node"
       id="node100"
       d="M2665 474 c-44 -16 -109 -74 -131 -117 -9 -16 -18 -59 -21 -95 -4 -53 -1 -76 15 -112 25 -56 74 -107 127 -131 48 -22 142 -25 189 -5 53 22 112 82 136 138 39 90 13 205 -62 275 -60 57 -171 77 -253 47z m185 -46 c68 -35 103 -93 108 -176 4 -62 2 -70 -30 -117 -98 -147 -304 -126 -372 39 -9 21 -16 53 -16 70 0 39 40 124 71 153 61 56 163 69 239 31z" />
    <path
       class="node"
       id="node101"
       d="M2587 353 c-4 -3 -7 -33 -7 -65 l0 -58 80 0 80 0 0 45 c0 57 18 59 22 3 l3 -43 74 -3 c83 -3 91 1 91 60 0 70 5 68 -174 68 -90 0 -166 -3 -169 -7z m113 -63 c0 -28 -2 -30 -40 -30 -38 0 -40 2 -40 30 0 28 2 30 40 30 38 0 40 -2 40 -30z m188 3 c-3 -25 -7 -28 -43 -28 -36 0 -40 3 -43 28 -3 26 -2 27 43 27 45 0 46 -1 43 -27z" />
    <path
       class="node"
       id="node102"
       d="M2650 290 c0 -13 5 -20 13 -17 6 2 12 10 12 17 0 7 -6 15 -12 18 -8 2 -13 -5 -13 -18z" />
    <path
       class="node"
       id="node103"
       d="M2832 294 c4 -21 22 -23 26 -1 2 10 -3 17 -13 17 -10 0 -15 -6 -13 -16z" />
    <path
       class="node"
       id="node104"
       d="M2610 186 c0 -29 33 -72 70 -91 76 -39 191 5 214 82 7 23 -15 46 -22 24 -3 -8 -17 -27 -31 -44 -22 -24 -38 -31 -79 -35 -60 -5 -93 11 -117 58 -19 36 -35 39 -35 6z" />
  </g>
  </svg>











































