<?xml version="1.0" encoding="UTF-8" standalone="no"?>
<!--?xml version="1.0" standalone="no"?-->

<svg
   xmlns:dc="http://purl.org/dc/elements/1.1/"
   xmlns:cc="http://creativecommons.org/ns#"
   xmlns:rdf="http://www.w3.org/1999/02/22-rdf-syntax-ns#"
   xmlns:svg="http://www.w3.org/2000/svg"
   xmlns="http://www.w3.org/2000/svg"
   xmlns:sodipodi="http://sodipodi.sourceforge.net/DTD/sodipodi-0.dtd"
   xmlns:inkscape="http://www.inkscape.org/namespaces/inkscape"
   version="1.0"
   width="300.000000pt"
   height="286.000000pt"
   viewBox="0 0 302.000000 290.000000"
   preserveAspectRatio="xMidYMid meet"
   id="svg2"
   inkscape:version="0.91 r13725"
   sodipodi:docname="smilies.svg">
  <metadata
     id="metadata157">
    <rdf:RDF>
      <cc:Work
         rdf:about="">
        <dc:format>image/svg+xml</dc:format>
        <dc:type
           rdf:resource="http://purl.org/dc/dcmitype/StillImage" />
        <dc:title></dc:title>
      </cc:Work>
    </rdf:RDF>
  </metadata>
  <defs
     id="defs155" />
  <sodipodi:namedview
     pagecolor="#ffffff"
     bordercolor="#666666"
     borderopacity="1"
     objecttolerance="10"
     gridtolerance="10"
     guidetolerance="10"
     inkscape:pageopacity="0"
     inkscape:pageshadow="2"
     inkscape:window-width="1600"
     inkscape:window-height="837"
     id="namedview153"
     showgrid="false"
     inkscape:zoom="0.66013986"
     inkscape:cx="187.5"
     inkscape:cy="178.75"
     inkscape:window-x="-8"
     inkscape:window-y="-8"
     inkscape:window-maximized="1"
     inkscape:current-layer="svg2" />
  <g
     transform="translate(0.000000,286.000000) scale(0.100000,-0.100000)"
     fill="#333333"
     stroke="none"
     id="g4">
    <path
       class="node"
       id="node1"
       d="M175 2852 c-73 -26 -148 -99 -165 -161 -5 -20 -10 -58 -10 -86 1 -207 269 -314 416 -167 47 46 64 92 66 169 1 105 -42 182 -125 225 -43 21 -146 33 -182 20z m172 -58 c52 -31 87 -80 104 -145 11 -42 10 -52 -10 -101 -64 -157 -243 -193 -351 -71 -22 25 -45 63 -50 84 -22 82 16 174 94 227 65 43 145 45 213 6z" />
    <path
       class="node"
       id="node2"
       d="M110 2725 c-7 -8 -10 -25 -6 -39 8 -33 42 -43 67 -20 23 21 24 37 3 58 -20 20 -48 20 -64 1z" />
    <path
       class="node"
       id="node3"
       d="M316 2724 c-9 -8 -16 -22 -16 -29 0 -18 28 -45 45 -45 13 0 45 37 45 52 0 12 -31 38 -45 38 -7 0 -21 -7 -29 -16z" />
    <path
       class="node"
       id="node4"
       d="M100 2583 c0 -32 40 -84 75 -99 46 -19 92 -18 135 4 35 17 80 73 80 98 0 23 -30 16 -39 -8 -16 -41 -48 -61 -106 -66 -50 -4 -57 -2 -85 26 -16 17 -30 38 -30 46 0 9 -7 16 -15 16 -8 0 -15 -8 -15 -17z" />
    <path
       class="node"
       id="node5"
       d="M794 2850 c-44 -14 -124 -87 -145 -135 -42 -92 -11 -230 64 -288 131 -100 291 -70 372 68 20 33 26 57 26 111 2 106 -32 169 -117 219 -52 30 -145 42 -200 25z m189 -62 c152 -104 118 -322 -57 -373 -55 -16 -63 -16 -111 -1 -52 16 -106 60 -130 106 -52 100 -8 225 100 284 47 26 150 17 198 -16z" />
    <path
       class="node"
       id="node6"
       d="M740 2725 c-15 -18 -6 -61 16 -69 26 -10 54 12 54 43 0 40 -45 56 -70 26z" />
    <path
       class="node"
       id="node7"
       d="M925 2700 c-3 -6 0 -13 8 -16 24 -9 80 0 85 14 5 15 -84 17 -93 2z" />
    <path
       class="node"
       id="node8"
       d="M734 2568 c23 -114 195 -133 260 -29 31 49 32 61 6 61 -11 0 -20 -6 -20 -14 0 -8 -10 -27 -23 -42 -19 -22 -34 -28 -80 -32 -52 -4 -58 -2 -87 26 -16 17 -30 38 -30 46 0 9 -7 16 -16 16 -13 0 -15 -7 -10 -32z" />
    <path
       class="node"
       id="node9"
       d="M1417 2846 c-178 -66 -221 -296 -78 -418 92 -78 242 -76 329 5 93 87 97 255 9 348 -66 69 -176 97 -260 65z m156 -35 c69 -27 137 -125 137 -198 0 -47 -39 -133 -72 -159 -14 -11 -51 -28 -81 -39 -54 -18 -58 -18 -111 -2 -70 22 -113 58 -137 115 -45 105 -1 224 104 276 36 17 122 21 160 7z" />
    <path
       class="node"
       id="node10"
       d="M1372 2728 c-17 -17 -15 -53 3 -68 12 -10 21 -10 40 -2 40 19 29 82 -15 82 -9 0 -21 -5 -28 -12z" />
    <path
       class="node"
       id="node11"
       d="M1574 2732 c-22 -15 -24 -42 -4 -62 24 -24 34 -25 54 -4 38 38 -6 97 -50 66z" />
    <path
       class="node"
       id="node12"
       d="M1408 2602 c-43 -3 -48 -5 -48 -28 0 -14 14 -40 33 -60 28 -30 42 -37 83 -41 64 -7 117 15 144 59 37 61 31 66 -72 70 -51 2 -114 2 -140 0z" />
    <path
       class="node"
       id="node13"
       d="M2050 2848 c-48 -14 -116 -72 -142 -121 -29 -56 -31 -165 -4 -219 74 -151 277 -186 394 -68 64 63 85 145 62 241 -10 42 -24 64 -64 104 -69 69 -151 90 -246 63z m163 -44 c67 -34 99 -77 117 -159 14 -61 -2 -113 -52 -170 -39 -44 -104 -75 -158 -75 -41 0 -131 51 -164 93 -26 32 -31 49 -34 105 -5 86 23 143 92 190 41 27 57 32 108 32 34 0 72 -7 91 -16z" />
    <path
       class="node"
       id="node14"
       d="M1996 2724 c-22 -22 -20 -41 8 -59 29 -19 54 -10 62 21 12 46 -37 72 -70 38z" />
    <path
       class="node"
       id="node15"
       d="M2196 2724 c-21 -20 -20 -30 4 -54 11 -11 24 -20 29 -20 14 0 41 30 41 45 0 18 -27 45 -45 45 -7 0 -21 -7 -29 -16z" />
    <path
       class="node"
       id="node16"
       d="M1980 2590 c0 -5 16 -22 36 -37 20 -15 44 -47 55 -70 16 -39 22 -43 53 -43 37 0 56 20 56 58 0 13 16 29 45 46 25 15 45 33 45 41 0 21 -16 19 -51 -7 -25 -19 -44 -23 -99 -23 -57 0 -72 4 -92 23 -25 23 -48 29 -48 12z m130 -95 c0 -8 5 -15 10 -15 6 0 10 7 10 15 0 8 7 15 15 15 19 0 19 -11 1 -36 -12 -15 -18 -17 -33 -8 -20 13 -30 44 -14 44 6 0 11 -7 11 -15z" />
    <path
       stroke-width="20"
       class="node"
       id="node17"
       d="M2674 2850 c-18 -6 -55 -31 -83 -56 -136 -122 -97 -338 74 -410 48 -20 135 -18 187 5 54 23 110 83 133 145 41 108 -13 243 -120 298 -45 23 -144 32 -191 18z m187 -59 c138 -87 132 -288 -11 -361 -87 -44 -177 -30 -242 38 -82 85 -88 189 -16 277 67 80 182 100 269 46z" />
    <path
       class="node"
       id="node18"
       d="M2630 2726 c0 -8 6 -16 13 -19 10 -4 10 -7 0 -18 -15 -15 -17 -39 -4 -39 6 0 22 10 37 23 l27 23 -23 22 c-27 25 -50 29 -50 8z" />
    <path
       class="node"
       id="node19"
       d="M2829 2721 l-24 -19 24 -26 c14 -14 30 -26 38 -26 18 0 16 27 -3 38 -14 8 -14 10 0 21 9 8 16 17 16 22 0 15 -27 10 -51 -10z" />
    <path
       class="node"
       id="node20"
       d="M2649 2571 c-26 -26 -39 -48 -39 -66 0 -36 20 -28 42 17 17 35 56 58 100 58 38 0 90 -33 106 -67 17 -36 35 -39 40 -7 3 22 -50 81 -85 95 -13 5 -47 9 -75 9 -45 0 -54 -4 -89 -39z" />
    <path
       class="node"
       id="node21"
       d="M199 2259 c-47 -7 -110 -41 -141 -75 -51 -57 -71 -162 -47 -248 22 -80 142 -166 231 -166 86 0 192 70 225 148 20 48 20 157 0 202 -43 99 -156 157 -268 139z m102 -39 c20 -6 56 -28 81 -49 35 -31 48 -53 62 -99 18 -58 18 -61 0 -108 -26 -71 -51 -101 -108 -129 -87 -44 -189 -25 -250 47 -134 157 16 393 215 338z" />
    <path
       class="node"
       id="node22"
       d="M112 2107 c-12 -13 -22 -29 -22 -35 0 -18 21 -14 35 5 13 17 14 17 32 0 42 -37 61 -7 20 31 -29 28 -38 28 -65 -1z" />
    <path
       class="node"
       id="node23"
       d="M312 2107 c-12 -13 -22 -29 -22 -35 0 -18 28 -14 39 5 9 17 11 16 30 -1 16 -15 24 -17 33 -8 9 9 6 18 -12 37 -29 31 -41 31 -68 2z" />
    <path
       class="node"
       id="node24"
       d="M100 1985 c0 -14 4 -25 9 -25 5 0 11 -10 15 -23 10 -40 68 -63 149 -59 35 2 104 66 113 105 l6 27 -146 0 -146 0 0 -25z" />
    <path
       class="node"
       id="node25"
       d="M828 2259 c-145 -22 -230 -168 -187 -323 13 -47 78 -120 122 -136 17 -6 40 -16 49 -21 76 -40 235 36 282 135 23 48 24 161 2 207 -48 101 -153 155 -268 138z m153 -64 c75 -49 108 -127 95 -219 -10 -63 -78 -139 -140 -155 -90 -22 -154 -6 -212 53 -113 118 -62 304 96 348 45 12 121 0 161 -27z" />
    <path
       class="node"
       id="node26"
       d="M715 2121 c-8 -27 15 -71 41 -77 37 -9 58 -1 79 33 25 40 50 42 69 4 16 -31 34 -41 71 -41 43 0 76 80 39 94 -9 3 -78 6 -154 6 -127 0 -139 -2 -145 -19z" />
    <path
       class="node"
       id="node27"
       d="M734 1968 c13 -64 73 -103 148 -96 27 3 61 14 76 25 27 20 60 69 61 91 2 21 -29 13 -38 -10 -15 -39 -48 -61 -101 -66 -58 -5 -91 11 -115 58 -21 40 -39 39 -31 -2z" />
    <path
       class="node"
       id="node28"
       d="M1451 2259 c-114 -21 -194 -120 -195 -239 -1 -112 56 -193 164 -233 59 -22 97 -21 163 3 54 20 108 69 140 127 21 38 23 149 3 197 -44 105 -160 166 -275 145z m163 -67 c49 -33 96 -117 96 -174 0 -110 -103 -209 -215 -208 -149 2 -252 169 -185 299 23 45 82 97 125 111 50 16 133 3 179 -28z" />
    <path
       class="node"
       id="node29"
       d="M1375 2135 c-30 -29 -31 -49 -5 -75 34 -34 80 -20 95 27 4 17 -1 29 -19 48 -31 31 -41 31 -71 0z m55 -20 c17 -20 5 -45 -20 -45 -11 0 -23 7 -26 15 -6 15 11 45 26 45 4 0 13 -7 20 -15z" />
    <path
       class="node"
       id="node30"
       d="M1552 2140 c-27 -25 -28 -61 -4 -83 32 -29 69 -21 91 21 14 26 2 55 -29 72 -26 14 -33 13 -58 -10z m57 -24 c15 -18 3 -46 -20 -46 -24 0 -42 33 -27 48 16 16 33 15 47 -2z" />
    <path
       class="node"
       id="node31"
       d="M1360 1986 c0 -64 61 -116 134 -116 71 0 146 59 146 115 0 24 -27 17 -34 -9 -8 -33 -65 -66 -112 -66 -44 0 -102 35 -106 64 -4 24 -28 34 -28 12z" />
    <path
       class="node"
       id="node32"
       d="M2077 2258 c-164 -30 -247 -218 -162 -364 40 -69 133 -123 210 -124 47 0 135 36 171 71 108 104 93 294 -30 378 -60 41 -116 53 -189 39z m162 -65 c93 -58 123 -185 66 -279 -36 -59 -114 -104 -180 -104 -58 0 -137 42 -171 91 -43 62 -46 149 -8 218 58 108 186 140 293 74z" />
    <path
       class="node"
       id="node33"
       d="M1987 2103 c-16 -16 -4 -23 37 -23 46 0 68 13 40 24 -21 8 -69 8 -77 -1z" />
    <path
       class="node"
       id="node34"
       d="M2187 2104 c-16 -17 -4 -24 39 -24 32 0 44 4 42 13 -5 13 -69 22 -81 11z" />
    <path
       class="node"
       id="node35"
       d="M2106 1944 c-10 -9 -15 -23 -12 -31 3 -8 6 -17 6 -19 0 -2 11 -4 25 -4 29 0 43 25 28 48 -14 23 -29 25 -47 6z" />
    <path
       class="node"
       id="node36"
       d="M2655 2246 c-150 -65 -192 -268 -81 -394 36 -41 121 -82 172 -82 57 0 133 31 175 72 59 57 74 92 74 178 0 64 -4 82 -27 120 -28 47 -59 74 -115 103 -39 21 -154 22 -198 3z m155 -26 c84 -23 150 -111 150 -201 0 -101 -61 -178 -160 -201 -100 -23 -189 21 -234 116 -32 68 -33 101 -2 169 43 97 144 145 246 117z" />
    <path
       class="node"
       id="node37"
       d="M2614 2115 c-4 -15 -1 -32 6 -40 18 -21 57 -19 70 5 16 30 -4 60 -40 60 -23 0 -31 -5 -36 -25z" />
    <path
       class="node"
       id="node38"
       d="M2814 2115 c-13 -52 56 -79 78 -30 14 32 -4 55 -43 55 -22 0 -30 -6 -35 -25z" />
    <path
       class="node"
       id="node39"
       d="M2684 2006 c-36 -16 -74 -65 -74 -95 0 -33 27 -24 40 13 13 39 44 56 103 56 49 0 81 -19 102 -61 16 -31 45 -40 45 -13 0 25 -52 86 -87 100 -41 17 -89 17 -129 0z" />
    <path
       class="node"
       id="node40"
       d="M132 1649 c-105 -52 -156 -177 -122 -300 13 -48 75 -118 124 -140 50 -23 162 -25 210 -5 43 18 104 80 123 124 20 47 20 157 0 202 -19 46 -72 99 -122 121 -57 26 -157 25 -213 -2z m208 -34 c42 -22 86 -78 105 -135 15 -44 16 -59 5 -93 -16 -56 -46 -98 -94 -132 -35 -26 -49 -29 -112 -30 -65 0 -77 3 -116 30 -147 104 -113 321 60 376 34 11 117 2 152 -16z" />
    <path
       class="node"
       id="node41"
       d="M106 1553 c-12 -13 -4 -39 20 -67 24 -28 25 -28 45 -10 54 48 47 82 -16 82 -24 0 -46 -2 -49 -5z" />
    <path
       class="node"
       id="node42"
       d="M286 1543 c-13 -14 -4 -41 22 -66 l28 -27 21 22 c20 22 27 39 24 65 -1 12 -84 17 -95 6z" />
    <path
       class="node"
       id="node43"
       d="M100 1393 c0 -32 40 -84 75 -99 88 -36 185 7 210 94 9 31 -22 30 -35 -2 -26 -70 -129 -90 -188 -37 -17 17 -32 37 -32 45 0 9 -7 16 -15 16 -8 0 -15 -8 -15 -17z" />
    <path
       class="node"
       id="node44"
       d="M774 1656 c-18 -8 -50 -31 -72 -51 -96 -86 -96 -264 0 -351 54 -49 95 -64 173 -64 78 0 120 16 167 62 51 51 69 98 70 176 1 103 -48 182 -137 223 -48 22 -155 25 -201 5z m201 -46 c100 -62 132 -172 79 -278 -62 -124 -228 -148 -328 -49 -85 85 -85 208 -2 292 25 25 59 47 82 53 51 14 131 6 169 -18z" />
    <path
       class="node"
       id="node45"
       d="M746 1547 c-38 -27 2 -95 42 -71 24 16 28 55 6 71 -10 7 -21 13 -24 13 -3 0 -14 -6 -24 -13z" />
    <path
       class="node"
       id="node46"
       d="M946 1544 c-34 -33 -8 -82 38 -70 31 8 40 33 21 62 -18 28 -37 30 -59 8z" />
    <path
       class="node"
       id="node47"
       d="M997 1463 c-13 -12 -7 -53 7 -53 20 0 26 12 19 38 -5 22 -14 27 -26 15z" />
    <path
       class="node"
       id="node48"
       d="M790 1408 c-34 -24 -73 -85 -64 -100 11 -17 29 -7 44 25 8 18 31 41 52 52 34 18 40 19 80 5 30 -10 50 -26 67 -52 24 -37 51 -50 51 -25 0 25 -49 84 -83 101 -50 23 -107 21 -147 -6z" />
    <path
       class="node"
       id="node49"
       d="M1408 1661 c-48 -16 -105 -69 -132 -123 -63 -126 -6 -281 123 -335 24 -10 60 -14 112 -11 67 3 83 7 121 34 64 47 99 109 105 187 6 96 -31 171 -110 223 -35 23 -55 28 -117 31 -41 1 -87 -2 -102 -6z m181 -46 c43 -22 70 -52 97 -110 31 -64 30 -97 -5 -165 -75 -150 -277 -159 -365 -15 -71 115 -12 263 122 306 36 11 114 4 151 -16z" />
    <path
       class="node"
       id="node50"
       d="M1369 1554 c-10 -13 -10 -19 0 -36 10 -16 10 -22 1 -28 -18 -11 -2 -30 25 -30 31 0 43 35 20 60 -12 13 -13 19 -4 22 15 5 3 28 -15 28 -8 0 -19 -7 -27 -16z" />
    <path
       class="node"
       id="node51"
       d="M1572 1558 c-16 -16 -15 -28 5 -50 15 -17 15 -18 -1 -18 -10 0 -16 -6 -14 -12 7 -20 43 -21 58 -3 12 14 12 20 1 38 -10 16 -11 22 -2 25 9 3 9 7 0 18 -14 17 -31 18 -47 2z" />
    <path
       class="node"
       id="node52"
       d="M1354 1409 c-5 -8 7 -25 34 -49 23 -19 42 -39 42 -44 0 -22 43 -66 65 -66 26 0 55 33 55 62 0 10 18 29 39 42 46 29 57 44 43 58 -6 6 -15 4 -25 -7 -57 -56 -165 -58 -223 -4 -17 16 -24 17 -30 8z m130 -101 l7 -23 9 23 c5 12 14 22 19 22 11 0 4 -27 -12 -47 -13 -18 -47 2 -47 27 0 27 16 25 24 -2z" />
    <path
       class="node"
       id="node53"
       d="M2032 1660 c-43 -18 -93 -63 -120 -109 -23 -39 -27 -57 -27 -122 0 -67 4 -82 30 -125 17 -26 50 -62 74 -79 37 -26 53 -30 121 -34 66 -2 87 1 125 19 80 39 135 128 135 221 0 89 -67 192 -146 225 -37 16 -156 18 -192 4z m153 -31 c54 -14 118 -74 136 -127 41 -125 -34 -259 -157 -278 -134 -20 -244 73 -244 207 0 98 61 178 153 199 47 11 63 11 112 -1z" />
    <path
       class="node"
       id="node54"
       d="M1985 1552 c-11 -11 -4 -41 14 -63 17 -22 21 -22 46 -9 62 33 56 79 -11 78 -24 -1 -46 -3 -49 -6z" />
    <path
       class="node"
       id="node55"
       d="M2176 1541 c-17 -18 -16 -21 13 -53 26 -28 30 -30 31 -13 0 16 2 17 10 5 8 -13 11 -12 24 5 9 11 16 30 16 41 0 23 -25 40 -35 24 -4 -7 -13 -7 -24 0 -14 7 -23 5 -35 -9z" />
    <path
       class="node"
       id="node56"
       d="M2055 1415 c-51 -26 -99 -115 -61 -115 7 0 19 14 26 31 15 35 63 69 98 69 41 0 96 -36 115 -75 17 -36 37 -40 37 -6 0 23 -47 79 -82 97 -35 18 -95 18 -133 -1z" />
    <path
       class="node"
       id="node57"
       d="M2664 1659 c-37 -11 -106 -75 -129 -120 -23 -44 -30 -130 -15 -183 16 -58 68 -118 125 -146 38 -18 59 -21 124 -19 70 4 84 8 123 35 23 17 57 53 73 79 26 43 30 57 30 124 0 70 -3 81 -34 129 -48 76 -114 112 -201 111 -36 0 -79 -5 -96 -10z m139 -28 c176 -41 215 -280 62 -376 -41 -26 -58 -30 -116 -30 -58 0 -73 4 -111 30 -60 41 -100 122 -94 187 9 90 59 154 145 184 43 16 64 16 114 5z" />
    <path
       class="node"
       id="node58"
       d="M2630 1556 c0 -8 5 -18 11 -21 6 -5 3 -13 -10 -22 -26 -18 -27 -39 -1 -53 16 -8 23 -7 36 9 9 11 23 17 30 14 24 -9 15 15 -20 51 -36 39 -46 44 -46 22z" />
    <path
       class="node"
       id="node59"
       d="M2826 1531 c-25 -26 -34 -41 -26 -46 6 -4 14 -5 16 -2 3 3 14 -3 25 -14 20 -20 44 -17 54 9 4 11 -1 23 -15 34 -12 10 -16 19 -10 23 12 7 14 35 2 35 -4 0 -25 -17 -46 -39z" />
    <path
       class="node"
       id="node60"
       d="M2709 1409 c-58 -21 -60 -108 -3 -129 81 -31 157 16 134 84 -16 50 -69 68 -131 45z" />
    <path
       class="node"
       id="node61"
       d="M155 1065 c-53 -21 -121 -89 -141 -142 -26 -66 -15 -160 25 -220 36 -55 64 -78 122 -98 82 -29 169 -14 238 43 70 57 97 148 77 259 -9 47 -69 124 -118 149 -43 22 -154 27 -203 9z m184 -45 c52 -26 87 -70 107 -135 19 -59 12 -100 -27 -165 -49 -79 -181 -115 -266 -71 -108 55 -152 189 -93 286 24 40 69 81 100 94 44 17 137 13 179 -9z" />
    <path
       class="node"
       id="node62"
       d="M112 948 c-18 -18 -14 -45 10 -62 37 -26 79 14 58 55 -12 21 -50 25 -68 7z" />
    <path
       class="node"
       id="node63"
       d="M312 948 c-18 -18 -14 -45 10 -62 37 -26 79 14 58 55 -12 21 -50 25 -68 7z" />
    <path
       class="node"
       id="node64"
       d="M190 789 c0 -7 8 -18 17 -24 17 -13 17 -14 0 -32 -18 -21 -23 -43 -8 -43 5 0 14 7 21 15 7 8 18 15 25 15 7 0 15 -7 19 -15 6 -18 36 -20 36 -3 0 6 -7 20 -17 30 -15 17 -15 19 0 36 21 23 21 32 2 32 -9 0 -18 -7 -21 -15 -4 -8 -12 -15 -19 -15 -7 0 -18 7 -25 15 -15 18 -30 20 -30 4z" />
    <path
       class="node"
       id="node65"
       d="M796 1070 c-39 -12 -98 -54 -122 -88 -47 -63 -58 -175 -25 -247 37 -83 126 -144 209 -145 151 -1 251 96 254 243 3 169 -153 286 -316 237z m161 -42 c44 -20 78 -54 103 -104 47 -95 6 -221 -89 -271 -51 -27 -133 -31 -184 -10 -45 20 -104 88 -117 139 -26 96 24 202 115 244 38 17 135 18 172 2z" />
    <path
       class="node"
       id="node66"
       d="M740 960 c0 -6 7 -13 16 -17 14 -5 13 -8 -6 -23 -16 -12 -21 -23 -15 -38 8 -28 45 -29 52 -2 4 15 11 19 24 15 28 -9 23 7 -14 43 -33 32 -57 41 -57 22z" />
    <path
       class="node"
       id="node67"
       d="M942 937 c-36 -37 -40 -50 -14 -45 9 2 24 -5 33 -16 19 -23 49 -16 49 12 0 11 -7 25 -15 32 -11 9 -13 16 -5 24 14 14 13 26 -3 26 -7 0 -27 -15 -45 -33z" />
    <path
       class="node"
       id="node68"
       d="M810 818 c-44 -23 -94 -81 -87 -102 8 -25 33 -15 45 18 14 38 57 66 101 66 36 0 87 -33 106 -70 17 -34 45 -40 45 -11 0 24 -44 77 -79 95 -52 27 -84 28 -131 4z" />
    <path
       class="node"
       id="node69"
       d="M1445 1076 c-5 -2 -23 -7 -38 -10 -34 -8 -111 -77 -133 -120 -9 -17 -18 -61 -21 -97 -5 -57 -2 -74 18 -114 46 -91 133 -146 230 -144 59 1 100 17 152 61 56 47 84 106 86 181 2 89 -54 183 -132 223 -26 14 -141 28 -162 20z m144 -56 c52 -26 87 -70 107 -135 15 -47 16 -60 4 -95 -21 -64 -47 -98 -97 -130 -39 -25 -57 -30 -108 -30 -50 0 -69 5 -108 30 -66 42 -101 101 -101 170 0 122 87 210 207 210 38 0 71 -7 96 -20z" />
    <path
       class="node"
       id="node70"
       d="M1364 935 c-10 -25 4 -45 30 -45 30 0 40 13 31 40 -8 24 -53 28 -61 5z" />
    <path
       class="node"
       id="node71"
       d="M1572 941 c-25 -16 -10 -46 23 -46 25 0 30 4 30 25 0 27 -28 38 -53 21z" />
    <path
       class="node"
       id="node72"
       d="M1421 792 c-38 -37 -39 -61 -5 -93 21 -19 36 -24 81 -24 48 0 58 4 79 28 30 35 30 49 2 82 -17 19 -36 27 -75 32 -48 5 -54 4 -82 -25z" />
    <path
       class="node"
       id="node73"
       d="M2040 1068 c-19 -7 -58 -35 -86 -63 -43 -43 -54 -61 -65 -109 -41 -185 111 -338 295 -297 106 24 186 125 186 236 0 89 -56 182 -134 222 -39 20 -150 26 -196 11z m167 -39 c30 -11 88 -62 104 -91 22 -41 28 -116 13 -167 -17 -59 -87 -127 -141 -137 -62 -12 -131 1 -176 33 -74 51 -101 130 -81 231 8 39 68 110 108 128 37 16 134 18 173 3z" />
    <path
       class="node"
       id="node74"
       d="M1980 948 c0 -6 7 -19 15 -28 14 -15 14 -18 0 -30 -15 -12 -21 -40 -8 -40 3 0 14 7 24 16 16 15 20 15 41 0 12 -9 26 -16 30 -16 14 0 9 27 -7 40 -14 12 -14 15 0 30 32 35 9 55 -27 23 -17 -15 -19 -15 -36 0 -22 20 -32 21 -32 5z" />
    <path
       class="node"
       id="node75"
       d="M2160 945 c0 -7 8 -18 17 -24 17 -9 16 -11 -1 -30 -15 -16 -17 -24 -8 -33 9 -9 16 -7 31 6 18 16 21 16 43 2 31 -21 41 -11 21 20 -14 23 -14 26 1 43 23 26 1 39 -25 15 -18 -16 -20 -16 -37 -1 -23 21 -42 22 -42 2z" />
    <path
       class="node"
       id="node76"
       d="M2035 770 c-3 -5 -17 -10 -31 -10 -14 0 -24 -6 -24 -14 0 -18 26 -28 54 -20 16 4 25 0 29 -11 6 -14 9 -14 30 0 21 14 26 14 37 1 10 -14 14 -14 35 0 20 13 23 13 28 0 5 -12 11 -12 41 2 46 21 47 42 2 42 -19 0 -36 6 -39 13 -3 9 -7 9 -18 1 -15 -13 -103 -14 -115 -1 -10 10 -22 9 -29 -3z" />
    <path
       class="node"
       id="node77"
       d="M2669 1066 c-200 -71 -214 -360 -21 -452 167 -79 366 55 349 236 -15 167 -174 271 -328 216z m172 -40 c73 -31 119 -106 119 -194 0 -51 -5 -67 -32 -108 -47 -69 -104 -97 -190 -92 -57 3 -73 8 -105 34 -45 36 -92 117 -93 158 0 76 55 166 122 199 41 20 134 22 179 3z" />
    <path
       class="node"
       id="node78"
       d="M2630 955 c0 -8 6 -15 13 -15 6 0 1 -9 -12 -19 -17 -13 -22 -23 -16 -39 8 -27 41 -29 55 -2 6 11 16 17 25 14 25 -10 17 10 -18 44 -37 36 -47 39 -47 17z" />
    <path
       class="node"
       id="node79"
       d="M2828 940 c-29 -30 -37 -56 -15 -47 7 3 19 -4 25 -14 14 -22 35 -25 51 -5 14 16 4 46 -15 46 -16 0 -19 16 -4 25 6 3 10 10 10 16 0 18 -25 8 -52 -21z" />
    <path
       class="node"
       id="node80"
       d="M2612 758 l3 -63 140 0 140 0 0 60 0 60 -143 3 -143 3 3 -63z m66 25 c2 -8 -5 -13 -17 -13 -21 0 -35 13 -24 24 10 10 36 3 41 -11z m62 2 c0 -8 -9 -15 -20 -15 -20 0 -26 11 -13 23 12 13 33 7 33 -8z m65 6 c3 -5 1 -13 -5 -16 -15 -9 -43 3 -35 15 8 13 32 13 40 1z m65 -6 c0 -8 -9 -15 -20 -15 -11 0 -20 7 -20 15 0 8 9 15 20 15 11 0 20 -7 20 -15z m-192 -53 c2 -7 -6 -12 -17 -12 -21 0 -27 11 -14 24 9 9 26 2 31 -12z m62 2 c0 -9 -7 -14 -17 -12 -25 5 -28 28 -4 28 12 0 21 -6 21 -16z m60 1 c0 -8 -7 -15 -15 -15 -8 0 -15 7 -15 15 0 8 7 15 15 15 8 0 15 -7 15 -15z m63 0 c1 -5 -6 -11 -15 -13 -11 -2 -18 3 -18 13 0 17 30 18 33 0z" />
    <path
       class="node"
       id="node81"
       d="M162 477 c-46 -14 -121 -84 -143 -132 -11 -24 -19 -64 -19 -101 0 -104 57 -189 155 -230 48 -20 141 -18 190 5 44 20 110 87 126 129 17 43 13 165 -6 203 -54 108 -188 163 -303 126z m193 -57 c45 -28 80 -80 96 -142 10 -43 9 -54 -10 -102 -37 -89 -105 -137 -195 -138 -66 -1 -117 23 -161 75 -46 54 -59 103 -45 171 13 63 58 121 114 148 55 25 150 20 201 -12z" />
    <path
       class="node"
       id="node82"
       d="M104 359 c-7 -12 62 -87 72 -77 11 12 -6 44 -36 66 -19 15 -31 18 -36 11z" />
    <path
       class="node"
       id="node83"
       d="M334 337 c-32 -29 -37 -38 -26 -49 10 -10 19 -6 47 22 24 24 32 39 26 49 -7 10 -17 6 -47 -22z" />
    <path
       class="node"
       id="node84"
       d="M102 153 c3 -16 18 -18 123 -21 133 -3 165 1 165 23 0 13 -24 15 -146 15 -133 0 -145 -1 -142 -17z" />
    <path
       class="node"
       id="node85"
       d="M782 472 c-48 -19 -105 -70 -130 -116 -11 -22 -17 -55 -17 -112 0 -72 3 -85 30 -129 77 -126 253 -154 363 -59 60 51 84 104 85 184 2 176 -169 296 -331 232z m199 -48 c17 -11 45 -39 63 -62 28 -40 31 -51 31 -116 0 -62 -4 -78 -27 -114 -99 -149 -327 -115 -377 57 -29 99 21 202 119 246 46 20 147 14 191 -11z" />
    <path
       class="node"
       id="node86"
       d="M704 346 c-3 -7 -4 -35 -2 -62 l3 -49 75 0 75 0 3 43 c4 47 22 58 22 13 0 -56 6 -61 79 -61 77 0 91 9 91 61 0 71 6 69 -176 69 -131 0 -166 -3 -170 -14z m116 -51 c0 -23 -4 -25 -45 -25 -41 0 -45 2 -45 25 0 23 4 25 45 25 41 0 45 -2 45 -25z m190 0 c0 -23 -4 -25 -45 -25 -41 0 -45 2 -45 25 0 23 4 25 45 25 41 0 45 -2 45 -25z" />
    <path
       class="node"
       id="node87"
       d="M773 298 c2 -7 10 -13 17 -13 7 0 15 6 18 13 2 7 -5 12 -18 12 -13 0 -20 -5 -17 -12z" />
    <path
       class="node"
       id="node88"
       d="M940 295 c0 -8 7 -15 15 -15 8 0 15 7 15 15 0 8 -7 15 -15 15 -8 0 -15 -7 -15 -15z" />
    <path
       class="node"
       id="node89"
       d="M730 140 c0 -19 7 -20 129 -20 137 0 161 4 161 26 0 11 -28 14 -145 14 -138 0 -145 -1 -145 -20z" />
    <path
       class="node"
       id="node90"
       d="M1417 476 c-99 -36 -160 -125 -161 -236 -1 -54 4 -73 27 -112 81 -138 245 -170 374 -72 83 63 110 208 56 305 -57 106 -184 155 -296 115z m161 -42 c75 -31 132 -112 132 -186 0 -64 -45 -145 -99 -180 -42 -27 -52 -29 -121 -26 -68 3 -80 6 -117 35 -80 64 -105 171 -59 261 49 96 164 138 264 96z" />
    <path
       class="node"
       id="node91"
       d="M1366 351 c-14 -16 -15 -23 -6 -41 16 -31 74 -25 78 8 7 48 -40 69 -72 33z" />
    <path
       class="node"
       id="node92"
       d="M1566 348 c-23 -32 -4 -60 37 -56 25 2 33 8 35 26 7 49 -44 70 -72 30z" />
    <path
       class="node"
       id="node93"
       d="M1405 180 c-3 -5 -17 -10 -31 -10 -26 0 -29 -7 -15 -29 6 -9 18 -12 36 -7 18 5 31 3 36 -5 6 -10 13 -10 34 -1 20 9 30 9 45 0 15 -10 22 -10 31 -1 8 8 16 9 29 1 12 -8 24 -7 46 3 35 17 34 33 -3 37 -15 2 -34 8 -40 14 -9 7 -18 7 -28 -2 -8 -7 -25 -10 -37 -7 -11 3 -30 2 -40 -4 -14 -7 -20 -6 -24 6 -7 17 -30 20 -39 5z" />
    <path
       class="node"
       id="node94"
       d="M2033 469 c-165 -63 -205 -280 -74 -402 53 -50 99 -67 176 -67 126 1 235 112 235 240 0 74 -27 135 -80 183 -76 68 -160 83 -257 46z m175 -34 c98 -41 151 -155 117 -253 -31 -91 -100 -143 -193 -143 -134 -1 -221 94 -210 227 12 137 157 222 286 169z" />
    <path
       class="node"
       id="node95"
       d="M1987 352 c-18 -20 -23 -52 -8 -52 5 0 15 10 24 23 l15 22 26 -24 c23 -21 26 -22 32 -7 8 22 -23 56 -51 56 -12 0 -29 -8 -38 -18z" />
    <path
       class="node"
       id="node96"
       d="M2185 350 c-11 -12 -15 -26 -10 -37 6 -17 8 -16 22 5 19 28 34 28 51 1 10 -15 17 -18 24 -11 17 17 -17 62 -46 62 -12 0 -31 -9 -41 -20z" />
    <path
       class="node"
       id="node97"
       d="M1967 261 c-5 -22 0 -31 20 -31 7 0 13 11 13 25 0 30 -25 34 -33 6z" />
    <path
       class="node"
       id="node98"
       d="M2257 273 c-15 -15 -7 -43 13 -43 21 0 24 8 14 34 -7 17 -16 20 -27 9z" />
    <path
       class="node"
       id="node99"
       d="M2050 236 c-32 -18 -70 -69 -70 -96 0 -19 6 -20 145 -20 125 0 145 2 145 16 0 23 -49 83 -81 100 -35 18 -106 18 -139 0z" />
    <path
       class="node"
       id="node100"
       d="M2665 474 c-44 -16 -109 -74 -131 -117 -9 -16 -18 -59 -21 -95 -4 -53 -1 -76 15 -112 25 -56 74 -107 127 -131 48 -22 142 -25 189 -5 53 22 112 82 136 138 39 90 13 205 -62 275 -60 57 -171 77 -253 47z m185 -46 c68 -35 103 -93 108 -176 4 -62 2 -70 -30 -117 -98 -147 -304 -126 -372 39 -9 21 -16 53 -16 70 0 39 40 124 71 153 61 56 163 69 239 31z" />
    <path
       class="node"
       id="node101"
       d="M2587 353 c-4 -3 -7 -33 -7 -65 l0 -58 80 0 80 0 0 45 c0 57 18 59 22 3 l3 -43 74 -3 c83 -3 91 1 91 60 0 70 5 68 -174 68 -90 0 -166 -3 -169 -7z m113 -63 c0 -28 -2 -30 -40 -30 -38 0 -40 2 -40 30 0 28 2 30 40 30 38 0 40 -2 40 -30z m188 3 c-3 -25 -7 -28 -43 -28 -36 0 -40 3 -43 28 -3 26 -2 27 43 27 45 0 46 -1 43 -27z" />
    <path
       class="node"
       id="node102"
       d="M2650 290 c0 -13 5 -20 13 -17 6 2 12 10 12 17 0 7 -6 15 -12 18 -8 2 -13 -5 -13 -18z" />
    <path
       class="node"
       id="node103"
       d="M2832 294 c4 -21 22 -23 26 -1 2 10 -3 17 -13 17 -10 0 -15 -6 -13 -16z" />
    <path
       class="node"
       id="node104"
       d="M2610 186 c0 -29 33 -72 70 -91 76 -39 191 5 214 82 7 23 -15 46 -22 24 -3 -8 -17 -27 -31 -44 -22 -24 -38 -31 -79 -35 -60 -5 -93 11 -117 58 -19 36 -35 39 -35 6z" />
  </g>
  <g
     transform="translate(0.000000,286.000000) scale(0.100000,-0.100000)"
     fill="#FFFFFF"
     stroke="none"
     id="g110">
    <path
       class="node"
       id="node107"
       d="M820 2222 c-115 -32 -181 -146 -150 -258 17 -61 80 -128 135 -143 90 -25 160 -5 220 61 66 74 74 168 20 249 -48 73 -146 113 -225 91z m194 -88 c37 -14 4 -94 -39 -94 -37 0 -55 10 -71 41 -19 38 -44 36 -69 -4 -21 -34 -42 -42 -79 -33 -26 6 -49 50 -41 77 6 17 18 19 145 19 76 0 145 -3 154 -6z m-249 -164 c24 -47 57 -63 115 -58 53 5 86 27 101 66 9 23 40 31 38 10 -1 -22 -34 -71 -61 -91 -15 -11 -49 -22 -76 -25 -75 -7 -135 32 -148 96 -8 41 10 42 31 2z" />
    <path
       class="node"
       id="node108"
       d="M1435 2220 c-43 -14 -102 -66 -125 -111 -67 -130 36 -297 185 -299 112 -1 215 98 215 208 0 57 -47 141 -96 174 -46 31 -129 44 -179 28z m11 -85 c18 -19 23 -31 19 -48 -15 -47 -61 -61 -95 -27 -26 26 -25 46 5 75 30 31 40 31 71 0z m164 15 c31 -17 43 -46 29 -72 -22 -42 -59 -50 -91 -21 -24 22 -23 58 4 83 25 23 32 24 58 10z m-222 -176 c4 -29 62 -64 106 -64 47 0 104 33 112 66 7 26 34 33 34 9 0 -56 -75 -115 -146 -115 -73 0 -134 52 -134 116 0 22 24 12 28 -12z" />
    <path
       class="node"
       id="node109"
       d="M1390 2115 c-17 -20 -5 -45 20 -45 11 0 23 7 26 15 6 15 -11 45 -26 45 -4 0 -13 -7 -20 -15z" />
    <path
       class="node"
       id="node110"
       d="M1562 2118 c-15 -15 3 -48 27 -48 23 0 35 28 20 46 -14 17 -31 18 -47 2z" />
    <path
       class="node"
       id="node111"
       d="M2068 2221 c-55 -18 -95 -51 -122 -102 -24 -44 -28 -59 -24 -114 5 -81 39 -134 111 -170 67 -33 119 -32 188 3 106 54 143 171 87 279 -41 81 -156 131 -240 104z m-4 -117 c28 -11 6 -24 -40 -24 -41 0 -53 7 -37 23 8 9 56 9 77 1z m204 -11 c2 -9 -10 -13 -42 -13 -43 0 -55 7 -39 24 12 11 76 2 81 -11z m-115 -155 c15 -23 1 -48 -28 -48 -14 0 -25 2 -25 4 0 2 -3 11 -6 19 -6 16 23 50 39 44 6 -2 15 -10 20 -19z" />
    <path
       class="node"
       id="node112"
       d="M806 1628 c-23 -6 -57 -28 -82 -53 -83 -84 -83 -207 2 -292 100 -99 266 -75 328 49 85 170 -64 347 -248 296z m-12 -81 c22 -16 18 -55 -6 -71 -40 -24 -80 44 -42 71 10 7 21 13 24 13 3 0 14 -6 24 -13z m211 -11 c19 -29 10 -54 -21 -62 -46 -12 -72 37 -38 70 22 22 41 20 59 -8z m18 -88 c7 -26 1 -38 -19 -38 -8 0 -14 10 -14 23 0 40 24 51 33 15z m-86 -34 c34 -17 83 -76 83 -101 0 -25 -27 -12 -51 25 -17 26 -37 42 -67 52 -40 14 -46 13 -80 -5 -21 -11 -44 -34 -52 -52 -15 -32 -33 -42 -44 -25 -9 15 30 76 64 100 40 27 97 29 147 6z" />
    <path
       class="node"
       id="node113"
       d="M1438 1631 c-91 -30 -149 -106 -151 -200 -1 -47 4 -65 29 -106 64 -104 187 -133 290 -69 53 32 103 114 103 169 1 35 -37 120 -68 152 -46 49 -141 74 -203 54z m-22 -73 c4 -6 2 -14 -5 -16 -9 -3 -8 -9 4 -22 23 -25 11 -60 -20 -60 -27 0 -43 19 -25 30 9 6 9 12 -1 28 -10 17 -10 23 0 36 16 19 37 21 47 4z m203 -2 c9 -11 9 -15 0 -18 -9 -3 -8 -9 2 -25 11 -18 11 -24 -1 -38 -15 -18 -51 -17 -58 3 -2 6 4 12 14 12 16 0 16 1 1 18 -20 22 -21 34 -5 50 16 16 33 15 47 -2z m-186 -185 c55 -21 134 -5 174 34 10 11 19 13 25 7 14 -14 3 -29 -43 -58 -21 -13 -39 -32 -39 -42 0 -29 -29 -62 -55 -62 -22 0 -65 44 -65 66 0 5 -19 25 -42 44 -27 24 -39 41 -34 49 6 9 13 8 30 -8 11 -11 34 -24 49 -30z" />
    <path
       class="node"
       id="node114"
       d="M1460 1310 c0 -25 34 -45 47 -27 16 20 23 47 12 47 -5 0 -14 -10 -19 -22 l-9 -23 -7 23 c-8 27 -24 29 -24 2z" />
    <path
       class="node"
       id="node115"
       d="M2073 1630 c-92 -21 -153 -101 -153 -199 0 -102 58 -178 154 -202 208 -52 348 199 195 350 -54 53 -119 70 -196 51z m11 -87 c8 -20 -8 -46 -39 -63 -25 -13 -29 -13 -46 9 -18 22 -25 52 -14 63 3 3 25 5 49 6 31 0 46 -4 50 -15z m151 7 c10 16 35 -1 35 -24 0 -11 -7 -30 -16 -41 -13 -17 -16 -18 -24 -5 -8 12 -10 11 -10 -5 -1 -17 -5 -15 -31 13 -29 32 -30 35 -13 53 12 14 21 16 35 9 11 -7 20 -7 24 0z m-47 -134 c35 -18 82 -74 82 -97 0 -34 -20 -30 -37 6 -19 39 -74 75 -115 75 -35 0 -83 -34 -98 -69 -7 -17 -19 -31 -26 -31 -38 0 10 89 61 115 38 19 98 19 133 1z" />
    <path
       class="node"
       id="node116"
       d="M785 1026 c-91 -42 -141 -148 -115 -244 13 -51 72 -119 117 -139 51 -21 133 -17 184 10 95 50 136 176 89 271 -25 50 -59 84 -103 104 -37 16 -134 15 -172 -2z m12 -88 c37 -36 42 -52 14 -43 -13 4 -20 0 -24 -15 -7 -27 -44 -26 -52 2 -6 15 -1 26 15 38 19 15 20 18 6 23 -9 4 -16 11 -16 17 0 19 24 10 57 -22z m203 24 c0 -4 -5 -13 -10 -18 -8 -8 -6 -15 5 -24 8 -7 15 -21 15 -32 0 -28 -30 -35 -49 -12 -9 11 -24 18 -33 16 -26 -5 -22 8 14 45 30 31 58 43 58 25z m-59 -148 c35 -18 79 -71 79 -95 0 -29 -28 -23 -45 11 -19 37 -70 70 -106 70 -44 0 -87 -28 -101 -66 -12 -33 -37 -43 -45 -18 -7 21 43 79 87 102 47 24 79 23 131 -4z" />
    <path
       class="node"
       id="node117"
       d="M1404 1023 c-55 -32 -71 -47 -95 -93 -51 -99 -20 -208 78 -270 39 -25 58 -30 108 -30 100 0 170 55 205 160 25 77 -28 188 -111 230 -50 26 -142 27 -185 3z m21 -93 c9 -27 -1 -40 -31 -40 -26 0 -40 20 -30 45 8 23 53 19 61 -5z m200 -10 c0 -21 -5 -25 -30 -25 -33 0 -48 30 -23 46 25 17 53 6 53 -21z m-47 -135 c28 -33 28 -47 -2 -82 -21 -24 -31 -28 -79 -28 -45 0 -60 5 -81 24 -34 32 -33 56 5 93 28 29 34 30 82 25 39 -5 58 -13 75 -32z" />
    <path
       class="node"
       id="node118"
       d="M2034 1026 c-40 -18 -100 -89 -108 -128 -20 -101 7 -180 81 -231 45 -32 114 -45 176 -33 54 10 124 78 141 137 15 51 9 126 -13 167 -16 29 -74 80 -104 91 -39 15 -136 13 -173 -3z m-22 -83 c17 -15 19 -15 36 0 36 32 59 12 27 -23 -14 -15 -14 -18 0 -30 16 -13 21 -40 7 -40 -4 0 -18 7 -30 16 -21 15 -25 15 -41 0 -10 -9 -21 -16 -24 -16 -13 0 -7 28 8 40 14 12 14 15 0 30 -15 17 -20 40 -8 40 3 0 15 -7 25 -17z m190 0 c17 -15 19 -15 37 1 26 24 48 11 25 -15 -15 -17 -15 -20 -1 -43 20 -31 10 -41 -21 -20 -22 14 -25 14 -43 -2 -15 -13 -22 -15 -31 -6 -9 9 -7 17 8 33 17 19 18 21 1 30 -19 11 -23 39 -5 39 6 0 20 -7 30 -17z m-138 -170 c12 -13 100 -12 115 1 11 8 15 8 18 -1 3 -7 20 -13 39 -13 45 0 44 -21 -2 -42 -30 -14 -36 -14 -41 -2 -5 13 -8 13 -28 0 -21 -14 -25 -14 -35 0 -11 13 -16 13 -37 -1 -21 -14 -24 -14 -30 0 -4 11 -13 15 -29 11 -28 -8 -54 2 -54 20 0 8 10 14 24 14 14 0 28 5 31 10 7 12 19 13 29 3z" />
    <path
       class="node"
       id="node120"
       d="M134 2788 c-78 -53 -116 -145 -94 -227 5 -21 28 -59 50 -84 108 -122 287 -86 351 71 20 49 21 59 10 101 -28 108 -106 171 -209 171 -51 0 -67 -5 -108 -32z m40 -64 c21 -21 20 -37 -3 -58 -25 -23 -59 -13 -67 20 -12 46 37 72 70 38z m200 0 c9 -8 16 -19 16 -22 0 -15 -32 -52 -45 -52 -17 0 -45 27 -45 45 0 18 27 45 45 45 7 0 21 -7 29 -16z m-244 -140 c0 -8 14 -29 30 -46 28 -28 35 -30 85 -26 58 5 90 25 106 66 9 24 39 31 39 8 0 -25 -45 -81 -80 -98 -43 -22 -89 -23 -135 -4 -52 22 -101 116 -60 116 8 0 15 -7 15 -16z" />
    <path
       class="node"
       id="node121"
       d="M785 2804 c-108 -59 -152 -184 -100 -284 24 -46 78 -90 130 -106 48 -15 56 -15 111 1 175 51 209 269 57 373 -48 33 -151 42 -198 16z m9 -70 c23 -9 21 -61 -3 -74 -26 -14 -50 -3 -57 26 -10 40 20 63 60 48z m224 -36 c-5 -14 -61 -23 -85 -14 -27 11 -2 26 43 26 32 0 44 -4 42 -12z m-258 -114 c0 -8 14 -29 30 -46 29 -28 35 -30 87 -26 46 4 61 10 80 32 13 15 23 34 23 42 0 8 9 14 20 14 26 0 25 -12 -6 -61 -65 -104 -237 -85 -260 29 -5 25 -3 32 10 32 9 0 16 -7 16 -16z" />
    <path
       class="node"
       id="node122"
       d="M1413 2804 c-105 -52 -149 -171 -104 -276 24 -57 67 -93 137 -115 53 -16 57 -16 111 2 30 11 67 28 81 39 33 26 72 112 72 159 0 73 -68 171 -137 198 -38 14 -124 10 -160 -7z m15 -76 c35 -35 -15 -99 -53 -68 -30 25 -12 80 25 80 9 0 21 -5 28 -12z m200 0 c17 -17 15 -44 -4 -62 -20 -21 -30 -20 -54 4 -28 28 -10 69 31 70 8 0 20 -5 27 -12z m12 -146 c0 -32 -40 -83 -77 -99 -24 -10 -55 -13 -87 -10 -41 4 -55 11 -83 41 -19 20 -33 46 -33 60 0 23 5 25 48 28 26 2 89 2 140 0 78 -3 92 -6 92 -20z" />
    <path
       class="node"
       id="node123"
       d="M2014 2788 c-69 -47 -97 -104 -92 -190 3 -56 8 -73 34 -105 33 -42 123 -93 164 -93 54 0 119 31 158 75 50 57 66 109 52 170 -26 117 -96 175 -208 175 -51 0 -67 -5 -108 -32z m46 -63 c15 -19 6 -61 -16 -69 -20 -8 -64 19 -64 39 0 37 56 58 80 30z m194 -1 c9 -8 16 -22 16 -29 0 -15 -27 -45 -41 -45 -12 0 -49 37 -49 49 0 14 30 41 45 41 7 0 21 -7 29 -16z m-226 -146 c20 -19 35 -23 92 -23 55 0 74 4 99 23 35 26 51 28 51 7 0 -8 -20 -26 -45 -41 -29 -17 -45 -33 -45 -46 0 -38 -19 -58 -56 -58 -31 0 -37 4 -53 43 -11 23 -35 55 -55 70 -20 15 -36 32 -36 37 0 17 23 11 48 -12z" />
    <path
       class="node"
       id="node124"
       d="M2092 2494 c2 -9 11 -22 21 -28 15 -9 21 -7 33 8 18 25 18 36 -1 36 -8 0 -15 -7 -15 -15 0 -8 -4 -15 -10 -15 -5 0 -10 7 -10 15 0 8 -5 15 -11 15 -6 0 -9 -7 -7 -16z" />
    <path
       class="node"
       id="node125"
       d="M2658 2800 c-66 -35 -118 -119 -118 -192 0 -108 134 -223 238 -203 199 37 251 280 83 386 -57 36 -144 40 -203 9z m22 -82 l23 -22 -27 -23 c-15 -13 -31 -23 -37 -23 -13 0 -11 24 4 39 10 11 10 14 0 18 -17 6 -17 33 0 33 7 0 24 -10 37 -22z m200 13 c0 -5 -7 -14 -16 -22 -14 -11 -14 -13 0 -21 19 -11 21 -38 3 -38 -8 0 -24 12 -38 26 l-24 26 24 19 c24 20 51 25 51 10z m-67 -130 c35 -14 88 -73 85 -95 -5 -32 -23 -29 -40 7 -39 83 -168 88 -206 9 -22 -45 -42 -53 -42 -17 0 18 13 40 39 66 35 35 44 39 89 39 28 0 62 -4 75 -9z" />
    <path
       class="node"
       id="node126"
       d="M188 2220 c-148 -45 -202 -222 -102 -338 61 -72 163 -91 250 -47 57 28 82 58 108 129 18 47 18 50 0 108 -34 114 -149 180 -256 148z m-11 -112 c41 -38 22 -68 -20 -31 -18 17 -19 17 -32 0 -14 -19 -35 -23 -35 -5 0 15 40 58 54 58 5 0 20 -10 33 -22z m203 -3 c18 -19 21 -28 12 -37 -9 -9 -17 -7 -33 8 -19 17 -21 18 -30 1 -11 -19 -39 -23 -39 -5 0 15 40 58 55 58 6 0 22 -11 35 -25z m6 -122 c-9 -39 -78 -103 -113 -105 -81 -4 -139 19 -149 59 -4 13 -10 23 -15 23 -5 0 -9 11 -9 25 l0 25 146 0 146 0 -6 -27z" />
    <path
       class="node"
       id="node127"
       d="M2700 2223 c-50 -10 -111 -63 -136 -120 -31 -68 -30 -101 2 -169 45 -95 134 -139 234 -116 99 23 160 100 160 201 0 135 -120 230 -260 204z m-10 -103 c15 -28 -4 -60 -34 -60 -32 0 -50 24 -42 55 5 20 13 25 36 25 19 0 33 -7 40 -20z m200 5 c19 -23 -3 -65 -34 -65 -32 0 -50 24 -42 55 5 19 13 25 35 25 16 0 34 -7 41 -15z m-77 -119 c35 -14 87 -75 87 -100 0 -27 -29 -18 -45 13 -21 42 -53 61 -102 61 -59 0 -90 -17 -103 -56 -13 -37 -40 -46 -40 -13 0 11 10 34 21 51 38 53 116 72 182 44z" />
    <path
       class="node"
       id="node128"
       d="M188 1631 c-53 -17 -98 -53 -125 -98 -55 -94 -27 -213 65 -278 39 -27 51 -30 116 -30 63 1 77 4 112 30 48 34 78 76 94 132 11 34 10 49 -5 93 -19 57 -63 113 -105 135 -35 18 -118 27 -152 16z m16 -88 c7 -17 -5 -42 -33 -67 -20 -18 -21 -18 -45 10 -24 28 -32 54 -20 67 13 13 93 5 98 -10z m177 -6 c3 -26 -4 -43 -24 -65 l-21 -22 -28 27 c-26 25 -35 52 -22 66 11 11 94 6 95 -6z m-251 -143 c0 -8 15 -28 32 -45 59 -53 162 -33 188 37 13 32 44 33 35 2 -25 -87 -122 -130 -210 -94 -52 22 -101 116 -60 116 8 0 15 -7 15 -16z" />
    <path
       class="node"
       id="node129"
       d="M2689 1626 c-86 -30 -136 -94 -145 -184 -6 -65 34 -146 94 -187 38 -26 53 -30 111 -30 58 0 75 4 116 30 153 96 114 335 -62 376 -50 11 -71 11 -114 -5z m-13 -92 c35 -36 44 -60 20 -51 -7 3 -21 -3 -30 -14 -13 -16 -20 -17 -36 -9 -26 14 -25 35 1 53 13 9 16 17 10 22 -12 7 -15 35 -5 35 4 0 22 -16 40 -36z m204 22 c0 -8 -5 -18 -10 -21 -6 -4 -2 -13 10 -23 14 -11 19 -23 15 -34 -10 -26 -34 -29 -54 -9 -11 11 -22 17 -25 14 -2 -3 -10 -2 -16 2 -8 5 1 20 26 46 41 42 54 48 54 25z m-76 -147 c33 -15 52 -69 35 -98 -35 -55 -145 -53 -171 3 -30 68 59 130 136 95z" />
    <path
       class="node"
       id="node130"
       d="M160 1029 c-31 -13 -76 -54 -100 -94 -59 -97 -15 -231 93 -286 85 -44 217 -8 266 71 39 65 46 106 27 165 -32 103 -101 155 -203 154 -32 0 -69 -5 -83 -10z m20 -88 c21 -41 -21 -81 -58 -55 -38 26 -22 74 25 74 12 0 27 -9 33 -19z m200 0 c21 -41 -21 -81 -58 -55 -38 26 -22 74 25 74 12 0 27 -9 33 -19z m-160 -156 c7 -8 18 -15 25 -15 7 0 15 7 19 15 3 8 12 15 21 15 19 0 19 -9 -2 -32 -15 -17 -15 -19 0 -36 10 -10 17 -24 17 -30 0 -17 -30 -15 -36 3 -4 8 -12 15 -19 15 -7 0 -18 -7 -25 -15 -7 -8 -16 -15 -21 -15 -15 0 -10 22 8 43 17 18 17 19 0 32 -18 13 -23 35 -8 35 5 0 14 -7 21 -15z" />
    <path
       class="node"
       id="node131"
       d="M2662 1023 c-67 -33 -122 -123 -122 -199 1 -41 48 -122 93 -158 32 -26 48 -31 105 -34 86 -5 143 23 190 92 27 41 32 57 32 108 0 88 -46 163 -119 194 -45 19 -138 17 -179 -3z m15 -85 c35 -34 43 -54 18 -44 -9 3 -19 -3 -25 -14 -14 -27 -47 -25 -55 2 -6 16 -1 26 16 39 13 10 18 19 12 19 -13 0 -19 30 -6 30 4 0 22 -14 40 -32z m203 23 c0 -6 -4 -13 -10 -16 -15 -9 -12 -25 4 -25 19 0 29 -30 15 -46 -16 -20 -37 -17 -51 5 -6 10 -18 17 -25 14 -22 -9 -14 17 15 47 27 29 52 39 52 21z m15 -206 l0 -60 -140 0 -140 0 -3 63 -3 63 143 -3 143 -3 0 -60z" />
    <path
       class="node"
       id="node132"
       d="M2637 794 c-11 -11 3 -24 24 -24 12 0 19 5 17 13 -5 14 -31 21 -41 11z" />
    <path
       class="node"
       id="node133"
       d="M2707 793 c-13 -12 -7 -23 13 -23 11 0 20 7 20 15 0 15 -21 21 -33 8z" />
    <path
       class="node"
       id="node134"
       d="M2765 790 c-8 -12 20 -24 35 -15 6 3 8 11 5 16 -8 12 -32 12 -40 -1z" />
    <path
       class="node"
       id="node135"
       d="M2830 785 c0 -8 9 -15 20 -15 11 0 20 7 20 15 0 8 -9 15 -20 15 -11 0 -20 -7 -20 -15z" />
    <path
       class="node"
       id="node136"
       d="M2647 744 c-13 -13 -7 -24 14 -24 11 0 19 5 17 12 -5 14 -22 21 -31 12z" />
    <path
       class="node"
       id="node137"
       d="M2702 738 c7 -19 38 -22 38 -4 0 10 -9 16 -21 16 -12 0 -19 -5 -17 -12z" />
    <path
       class="node"
       id="node138"
       d="M2770 735 c0 -8 7 -15 15 -15 8 0 15 7 15 15 0 8 -7 15 -15 15 -8 0 -15 -7 -15 -15z" />
    <path
       class="node"
       id="node139"
       d="M2830 735 c0 -10 7 -15 18 -13 21 4 19 22 -2 26 -10 2 -16 -3 -16 -13z" />
    <path
       class="node"
       id="node140"
       d="M154 432 c-56 -27 -101 -85 -114 -148 -14 -68 -1 -117 45 -171 44 -52 95 -76 161 -75 90 1 158 49 195 138 19 48 20 59 10 102 -27 105 -91 162 -194 169 -47 3 -72 -1 -103 -15z m22 -125 c11 -33 -6 -32 -43 5 -42 43 -37 69 7 36 17 -12 33 -30 36 -41z m179 3 c-28 -28 -37 -32 -47 -22 -11 11 -6 20 26 49 30 28 40 32 47 22 6 -10 -2 -25 -26 -49z m35 -155 c0 -22 -32 -26 -165 -23 -105 3 -120 5 -123 21 -3 16 9 17 142 17 122 0 146 -2 146 -15z" />
    <path
       class="node"
       id="node141"
       d="M790 435 c-98 -44 -148 -147 -119 -246 50 -172 278 -206 377 -57 23 36 27 52 27 114 0 65 -3 76 -31 116 -18 23 -46 51 -63 62 -44 25 -145 31 -191 11z m254 -91 c10 -27 7 -89 -6 -102 -7 -7 -40 -12 -79 -12 -73 0 -79 5 -79 61 0 45 -18 34 -22 -13 l-3 -43 -75 0 -75 0 -3 49 c-5 79 -13 76 172 76 140 0 165 -2 170 -16z m-24 -198 c0 -22 -24 -26 -161 -26 -122 0 -129 1 -129 20 0 19 7 20 145 20 117 0 145 -3 145 -14z" />
    <path
       class="node"
       id="node142"
       d="M730 295 c0 -23 4 -25 45 -25 41 0 45 2 45 25 0 23 -4 25 -45 25 -41 0 -45 -2 -45 -25z m78 3 c-3 -7 -11 -13 -18 -13 -7 0 -15 6 -17 13 -3 7 4 12 17 12 13 0 20 -5 18 -12z" />
    <path
       class="node"
       id="node143"
       d="M920 295 c0 -23 4 -25 45 -25 41 0 45 2 45 25 0 23 -4 25 -45 25 -41 0 -45 -2 -45 -25z m50 0 c0 -8 -7 -15 -15 -15 -8 0 -15 7 -15 15 0 8 7 15 15 15 8 0 15 -7 15 -15z" />
    <path
       class="node"
       id="node144"
       d="M1429 440 c-76 -22 -139 -112 -139 -195 0 -61 33 -128 83 -168 37 -29 49 -32 117 -35 69 -3 79 -1 121 26 54 35 99 116 99 180 0 74 -57 155 -132 186 -40 17 -106 20 -149 6z m1 -84 c6 -8 10 -25 8 -38 -4 -33 -62 -39 -78 -8 -22 40 40 81 70 46z m200 0 c6 -8 10 -25 8 -38 -4 -31 -62 -39 -77 -10 -21 40 39 83 69 48z m-186 -181 c4 -12 10 -13 24 -6 10 6 29 7 40 4 12 -3 29 0 37 7 10 9 19 9 28 2 6 -6 25 -12 40 -14 37 -4 38 -20 3 -37 -22 -10 -34 -11 -46 -3 -13 8 -21 7 -29 -1 -9 -9 -16 -9 -31 1 -15 9 -25 9 -45 0 -21 -9 -28 -9 -34 1 -5 8 -18 10 -36 5 -18 -5 -30 -2 -36 7 -14 22 -11 29 15 29 14 0 28 5 31 10 9 15 32 12 39 -5z" />
    <path
       class="node"
       id="node145"
       d="M2030 428 c-62 -32 -102 -92 -108 -162 -11 -133 76 -228 210 -227 156 0 250 158 178 301 -51 100 -177 140 -280 88z m35 -78 c10 -11 15 -26 11 -36 -6 -15 -9 -14 -32 7 l-26 24 -15 -22 c-9 -13 -19 -23 -24 -23 -15 0 -10 32 8 52 21 24 55 23 78 -2z m201 -6 c12 -18 14 -28 6 -36 -7 -7 -14 -4 -24 11 -17 27 -32 27 -51 -1 -14 -21 -16 -22 -22 -5 -10 23 21 57 51 57 14 0 30 -10 40 -26z m-266 -89 c0 -14 -6 -25 -13 -25 -20 0 -25 9 -20 31 8 28 33 24 33 -6z m284 9 c10 -26 7 -34 -14 -34 -13 0 -20 7 -20 18 0 33 23 44 34 16z m-95 -28 c32 -17 81 -77 81 -100 0 -14 -20 -16 -145 -16 -139 0 -145 1 -145 20 0 27 38 78 70 96 33 18 104 18 139 0z" />
    <path
       class="node"
       id="node146"
       d="M2670 434 c-50 -22 -79 -52 -106 -109 -28 -59 -30 -98 -8 -151 35 -85 108 -136 194 -136 78 0 134 30 178 97 32 47 34 55 30 117 -3 55 -9 75 -33 110 -55 79 -167 110 -255 72z m254 -90 c9 -23 7 -87 -3 -102 -5 -9 -29 -12 -82 -10 l-74 3 -3 43 c-4 56 -22 54 -22 -3 l0 -45 -80 0 -80 0 0 58 c0 32 3 62 7 65 3 4 79 7 169 7 138 0 163 -2 168 -16z m-279 -164 c24 -47 57 -63 117 -58 41 4 57 11 79 35 14 17 28 36 31 44 7 22 29 -1 22 -24 -23 -77 -138 -121 -214 -82 -37 19 -70 62 -70 91 0 33 16 30 35 -6z" />
    <path
       class="node"
       id="node147"
       d="M2620 290 c0 -28 2 -30 40 -30 38 0 40 2 40 30 0 28 -2 30 -40 30 -38 0 -40 -2 -40 -30z m55 0 c0 -7 -6 -15 -12 -17 -8 -3 -13 4 -13 17 0 13 5 20 13 18 6 -3 12 -11 12 -18z" />
    <path
       class="node"
       id="node148"
       d="M2802 293 c3 -25 7 -28 43 -28 36 0 40 3 43 28 3 26 2 27 -43 27 -45 0 -46 -1 -43 -27z m56 0 c-4 -22 -22 -20 -26 1 -2 10 3 16 13 16 10 0 15 -7 13 -17z" />
  </g>
</svg>


