<?xml version="1.0" encoding="ISO-8859-1" standalone="no"?>
<!DOCTYPE svg PUBLIC "-//W3C//DTD SVG 20010904//EN"
"http://www.w3.org/TR/2001/REC-SVG-20010904/DTD/svg10.dtd">
<svg xmlns="http://www.w3.org/2000/svg" width="300mm" height="300mm" xmlns:xlink="http://www.w3.org/1999/xlink">
<title>CncControl SerialEmulatorSVG output</title>
<desc>....</desc>
<g transform="translate(17.717,17.717) scale(2.000,2.000) rotate(15.000,0.000,0.000)"
  CncSvgPattern="#ltCncSvgPattern#gt#ltTemplate name='SVG Path' td='3.000' tc='0' cs='4630149532'/#gt#ltRefPoint x='0.000' y='0.000'/#gt#ltTransform tlX='5.000' tlY='5.000' scX='2.000' scY='2.000' roA='15.000' roX='0.000' roY='0.000' skX='0.000' skY='0.000'/#gt#ltCncParameterBlock reverse='no' depth='z-0.000' correction='none'/#gt#ltParameter idx='0' name='Path d [px]' type='string' value='M348.000,257.000 L 364.000,148.000 362.000,148.000 326.000,241.000 295.000,219.000 258.000,88.000 440.000,129.000 370.000,196.000 372.000,275.000 z'/#gt#ltParameter idx='1' name='Inlay Mode' type='list' value='Whole'/#gt#ltParameter idx='2' name='Reference Point(x/y)' type='list' value='top/left'/#gt#lt/CncSvgPattern#gt"
>
<!-- Config Block
<CncSvgPattern>
  <Template name="SVG Path" td="3.000" tc="0" cs="4630149532"/>
  <RefPoint x="0.000" y="0.000"/>
  <Transform tlX="5.000" tlY="5.000" scX="2.000" scY="2.000" roA="15.000" roX="0.000" roY="0.000" skX="0.000" skY="0.000"/>
  <CncParameterBlock reverse="no" depth="z-0.000" correction="none"/>
  <Parameter idx="0" name="Path d [px]" type="string" value="M348.000,257.000 L 364.000,148.000 362.000,148.000 326.000,241.000 295.000,219.000 258.000,88.000 440.000,129.000 370.000,196.000 372.000,275.000 z"/>
  <Parameter idx="1" name="Inlay Mode" type="list" value="Whole"/>
  <Parameter idx="2" name="Reference Point(x/y)" type="list" value="top/left"/>
</CncSvgPattern>
 -->

 <!-- SVG Path Generator: Generated Path Result: -->
 <CncParameterBlock reverse="no" depth="z-0.000" correction="none"/>
 <path d="M429.170000,132.008000 L 366.325000,192.160000 366.251000,192.232000 366.179000,192.306000 366.108000,192.381000 366.038000,192.457000 365.970000,192.534000 365.904000,192.613000 365.839000,192.693000 365.776000,192.775000 365.714000,192.857000 365.654000,192.941000 365.595000,193.026000 365.538000,193.112000 365.483000,193.199000 365.430000,193.287000 365.378000,193.376000 365.328000,193.466000 365.280000,193.557000 365.233000,193.649000 365.188000,193.742000 365.146000,193.836000 365.104000,193.931000 365.065000,194.026000 365.028000,194.122000 364.992000,194.219000 364.959000,194.316000 364.927000,194.414000 364.897000,194.513000 364.869000,194.612000 364.843000,194.712000 364.819000,194.812000 364.797000,194.913000 364.777000,195.014000 364.759000,195.116000 364.743000,195.218000 364.729000,195.320000 364.717000,195.422000 364.706000,195.525000 364.698000,195.627000 364.692000,195.730000 364.688000,195.833000 364.685000,195.936000 364.685000,196.040000 364.687000,196.135000 366.409000,264.163000 353.718000,254.645000 369.259000,148.772000 369.273000,148.670000 369.285000,148.567000 369.295000,148.465000 369.303000,148.362000 369.309000,148.259000 369.313000,148.156000 369.315000,148.053000 369.315000,147.950000 369.313000,147.847000 369.309000,147.744000 369.303000,147.641000 369.295000,147.538000 369.285000,147.435000 369.273000,147.333000 369.259000,147.231000 369.243000,147.129000 369.225000,147.027000 369.205000,146.926000 369.184000,146.825000 369.160000,146.725000 369.134000,146.625000 369.106000,146.526000 369.077000,146.427000 369.045000,146.329000 369.012000,146.231000 368.977000,146.135000 368.940000,146.038000 368.901000,145.943000 368.860000,145.848000 368.817000,145.754000 368.773000,145.661000 368.727000,145.569000 368.679000,145.478000 368.629000,145.388000 368.577000,145.298000 368.524000,145.210000 368.469000,145.123000 368.412000,145.037000 368.354000,144.952000 368.294000,144.868000 368.232000,144.785000 368.169000,144.704000 368.105000,144.623000 368.038000,144.544000 367.971000,144.467000 367.901000,144.390000 367.831000,144.315000 367.758000,144.242000 367.685000,144.170000 367.610000,144.099000 367.533000,144.030000 367.456000,143.962000 367.377000,143.896000 367.296000,143.831000 367.215000,143.768000 367.132000,143.706000 367.048000,143.646000 366.963000,143.588000 366.877000,143.531000 366.790000,143.476000 366.702000,143.423000 366.612000,143.371000 366.522000,143.322000 366.431000,143.274000 366.339000,143.227000 366.246000,143.183000 366.152000,143.140000 366.057000,143.099000 365.962000,143.060000 365.866000,143.023000 365.769000,142.988000 365.671000,142.955000 365.573000,142.923000 365.474000,142.894000 365.375000,142.866000 365.275000,142.840000 365.175000,142.816000 365.074000,142.795000 364.973000,142.775000 364.871000,142.757000 364.769000,142.741000 364.667000,142.727000 364.565000,142.715000 364.462000,142.705000 364.359000,142.697000 364.257000,142.691000 364.153000,142.687000 364.000000,142.685000 362.000000,142.685000 361.897000,142.686000 361.794000,142.689000 361.691000,142.694000 361.588000,142.701000 361.485000,142.710000 361.383000,142.721000 361.281000,142.734000 361.178000,142.749000 361.077000,142.766000 360.975000,142.785000 360.874000,142.806000 360.774000,142.828000 360.674000,142.853000 360.574000,142.880000 360.475000,142.908000 360.377000,142.939000 360.279000,142.971000 360.182000,143.006000 360.085000,143.042000 359.989000,143.080000 359.894000,143.120000 359.800000,143.162000 359.707000,143.205000 359.614000,143.251000 359.522000,143.298000 359.432000,143.347000 359.342000,143.398000 359.253000,143.450000 359.165000,143.504000 359.079000,143.560000 358.993000,143.617000 358.825000,143.737000 358.743000,143.800000 358.662000,143.864000 358.583000,143.929000 358.504000,143.996000 358.427000,144.065000 358.352000,144.135000 358.277000,144.206000 358.205000,144.279000 358.133000,144.354000 358.063000,144.429000 357.995000,144.506000 357.928000,144.585000 357.862000,144.664000 357.798000,144.745000 357.736000,144.827000 357.675000,144.911000 357.616000,144.995000 357.559000,145.081000 357.503000,145.167000 357.449000,145.255000 357.396000,145.344000 357.346000,145.434000 357.297000,145.525000 357.250000,145.616000 357.204000,145.709000 357.161000,145.802000 357.119000,145.897000 357.079000,145.992000 357.043000,146.081000 323.508000,232.714000 299.606000,215.752000 265.542000,95.147000 429.170000,132.008000 " 
   stroke="#000000" fill="none" stroke-width="1.0"
 />

 <path d="M407.511000,138.025000 L 377.341000,166.902000 379.776000,150.316000 379.790000,150.217000 379.804000,150.115000 379.832000,149.900000 379.844000,149.797000 379.864000,149.604000 379.874000,149.502000 379.893000,149.288000 379.901000,149.185000 379.915000,148.980000 379.921000,148.877000 379.931000,148.672000 379.935000,148.569000 379.941000,148.362000 379.943000,148.259000 379.945000,148.053000 379.945000,147.950000 379.943000,147.744000 379.941000,147.641000 379.935000,147.434000 379.931000,147.331000 379.921000,147.126000 379.915000,147.023000 379.901000,146.818000 379.893000,146.715000 379.875000,146.511000 379.865000,146.408000 379.842000,146.193000 379.830000,146.091000 379.804000,145.888000 379.790000,145.786000 379.761000,145.584000 379.745000,145.482000 379.711000,145.282000 379.693000,145.180000 379.667000,145.036000 379.652000,144.962000 379.632000,144.861000 379.612000,144.762000 379.591000,144.661000 379.561000,144.519000 379.520000,144.344000 379.496000,144.244000 379.448000,144.050000 379.422000,143.950000 379.384000,143.809000 379.363000,143.732000 379.335000,143.633000 379.307000,143.538000 379.278000,143.439000 379.236000,143.299000 379.182000,143.127000 379.150000,143.029000 379.119000,142.937000 379.086000,142.839000 379.039000,142.701000 378.999000,142.590000 378.964000,142.494000 378.909000,142.347000 378.872000,142.250000 378.819000,142.114000 378.774000,142.001000 378.735000,141.906000 378.661000,141.731000 378.620000,141.636000 378.561000,141.502000 378.527000,141.426000 378.484000,141.332000 378.426000,141.208000 378.382000,141.115000 378.319000,140.984000 378.281000,140.907000 378.235000,140.815000 378.169000,140.685000 378.129000,140.610000 378.081000,140.519000 378.012000,140.390000 377.971000,140.316000 377.921000,140.226000 377.833000,140.070000 377.781000,139.980000 377.683000,139.814000 377.630000,139.726000 377.554000,139.601000 377.509000,139.530000 377.454000,139.443000 377.375000,139.320000 377.329000,139.250000 377.272000,139.164000 377.193000,139.046000 377.135000,138.961000 377.052000,138.841000 377.004000,138.773000 376.944000,138.689000 376.858000,138.571000 376.810000,138.506000 376.748000,138.423000 376.623000,138.259000 376.560000,138.178000 376.510000,138.114000 376.446000,138.033000 376.354000,137.919000 376.262000,137.807000 376.212000,137.747000 376.145000,137.668000 376.057000,137.566000 375.990000,137.489000 375.894000,137.380000 375.837000,137.317000 375.767000,137.240000 375.672000,137.137000 375.602000,137.062000 375.502000,136.956000 375.400000,136.852000 375.222000,136.674000 375.149000,136.602000 374.993000,136.450000 374.918000,136.379000 374.811000,136.280000 374.704000,136.183000 374.627000,136.114000 374.569000,136.062000 374.492000,135.994000 374.382000,135.899000 374.271000,135.804000 374.192000,135.738000 374.030000,135.605000 373.949000,135.540000 373.822000,135.440000 373.741000,135.377000 373.577000,135.252000 373.494000,135.190000 373.376000,135.103000 373.311000,135.056000 373.227000,134.996000 373.107000,134.912000 373.039000,134.865000 372.954000,134.807000 372.836000,134.728000 372.750000,134.671000 372.628000,134.591000 372.557000,134.546000 372.470000,134.491000 372.346000,134.414000 372.274000,134.370000 372.186000,134.317000 372.020000,134.219000 371.930000,134.167000 371.803000,134.095000 371.695000,134.035000 371.605000,133.986000 371.481000,133.920000 371.390000,133.872000 371.267000,133.808000 371.175000,133.761000 371.045000,133.695000 370.885000,133.618000 370.792000,133.574000 370.668000,133.516000 370.574000,133.473000 370.441000,133.414000 370.364000,133.380000 370.269000,133.339000 370.094000,133.265000 369.999000,133.226000 369.864000,133.172000 369.785000,133.141000 369.689000,133.104000 369.552000,133.053000 369.474000,133.024000 369.377000,132.989000 369.239000,132.941000 369.161000,132.914000 369.063000,132.881000 368.971000,132.850000 368.873000,132.818000 368.734000,132.774000 368.561000,132.722000 368.462000,132.693000 368.367000,132.665000 368.268000,132.637000 368.127000,132.599000 368.050000,132.578000 367.950000,132.552000 367.756000,132.504000 367.656000,132.480000 367.514000,132.447000 367.339000,132.409000 367.238000,132.388000 367.139000,132.368000 367.038000,132.348000 366.895000,132.320000 366.820000,132.307000 366.718000,132.289000 366.518000,132.255000 366.416000,132.239000 366.214000,132.210000 366.112000,132.196000 365.909000,132.170000 365.807000,132.158000 365.592000,132.135000 365.489000,132.125000 365.285000,132.107000 365.182000,132.099000 364.983000,132.085000 364.881000,132.079000 364.666000,132.069000 364.562000,132.065000 364.416000,132.060000 364.292000,132.058000 364.139000,132.056000 364.000000,132.055000 362.000000,132.055000 361.794000,132.057000 361.588000,132.061000 361.485000,132.064000 361.279000,132.072000 361.176000,132.077000 360.970000,132.089000 360.867000,132.096000 360.663000,132.111000 360.560000,132.120000 360.345000,132.141000 360.243000,132.152000 360.039000,132.176000 359.937000,132.189000 359.749000,132.215000 359.646000,132.230000 359.502000,132.252000 359.414000,132.267000 359.313000,132.284000 359.130000,132.316000 359.028000,132.335000 358.885000,132.363000 358.811000,132.378000 358.710000,132.399000 358.590000,132.424000 358.490000,132.446000 358.348000,132.479000 358.196000,132.515000 358.096000,132.540000 357.903000,132.591000 357.803000,132.618000 357.681000,132.651000 357.582000,132.679000 357.442000,132.720000 357.269000,132.773000 357.171000,132.804000 357.077000,132.834000 356.979000,132.866000 356.841000,132.912000 356.671000,132.972000 356.574000,133.007000 356.483000,133.040000 356.386000,133.076000 356.250000,133.128000 356.173000,133.158000 356.077000,133.196000 355.941000,133.251000 355.864000,133.283000 355.769000,133.323000 355.635000,133.381000 355.558000,133.415000 355.464000,133.457000 355.339000,133.514000 355.246000,133.557000 355.114000,133.619000 354.994000,133.677000 354.901000,133.723000 354.778000,133.785000 354.686000,133.832000 354.557000,133.899000 354.439000,133.962000 354.349000,134.011000 354.191000,134.099000 354.101000,134.150000 353.979000,134.220000 353.890000,134.272000 353.765000,134.346000 353.693000,134.390000 353.605000,134.444000 353.482000,134.521000 353.365000,134.596000 353.279000,134.652000 353.206000,134.700000 353.120000,134.757000 352.999000,134.838000 352.880000,134.921000 352.814000,134.967000 352.646000,135.087000 352.528000,135.173000 352.412000,135.260000 352.349000,135.308000 352.267000,135.371000 352.153000,135.459000 352.072000,135.523000 351.908000,135.655000 351.829000,135.720000 351.707000,135.822000 351.628000,135.889000 351.518000,135.984000 351.410000,136.080000 351.333000,136.149000 351.174000,136.294000 351.099000,136.364000 351.044000,136.415000 350.969000,136.486000 350.864000,136.587000 350.709000,136.742000 350.637000,136.815000 350.537000,136.917000 350.465000,136.992000 350.362000,137.101000 350.292000,137.176000 350.193000,137.283000 350.095000,137.393000 350.027000,137.470000 349.888000,137.630000 349.821000,137.709000 349.770000,137.770000 349.704000,137.849000 349.612000,137.961000 349.521000,138.074000 349.457000,138.155000 349.368000,138.270000 349.319000,138.334000 349.257000,138.416000 349.135000,138.581000 349.074000,138.665000 348.976000,138.801000 348.917000,138.885000 348.834000,139.005000 348.756000,139.122000 348.699000,139.208000 348.651000,139.281000 348.595000,139.367000 348.516000,139.489000 348.443000,139.607000 348.389000,139.695000 348.316000,139.816000 348.263000,139.905000 348.189000,140.031000 348.104000,140.182000 348.054000,140.272000 347.987000,140.394000 347.938000,140.485000 347.852000,140.647000 347.805000,140.738000 347.722000,140.903000 347.676000,140.996000 347.612000,141.127000 347.556000,141.248000 347.513000,141.341000 347.439000,141.504000 347.397000,141.599000 347.322000,141.772000 347.282000,141.867000 347.225000,142.006000 347.189000,142.095000 347.130000,142.244000 318.524000,216.143000 308.817000,209.253000 280.625000,109.441000 407.511000,138.025000 339.644000,133.633000 339.576000,133.739000 339.466000,133.914000 339.383000,134.048000 339.329000,134.136000 339.183000,134.377000 339.130000,134.466000 339.025000,134.644000 338.922000,134.823000 338.812000,135.019000 338.762000,135.109000 338.627000,135.355000 338.578000,135.446000 338.481000,135.628000 338.408000,135.769000 338.361000,135.860000 338.267000,136.044000 338.194000,136.190000 338.148000,136.283000 338.057000,136.469000 337.969000,136.655000 337.907000,136.787000 337.864000,136.880000 337.778000,137.067000 337.717000,137.206000 337.675000,137.301000 337.592000,137.490000 337.525000,137.647000 337.485000,137.742000 337.370000,138.020000 337.334000,138.109000 337.258000,138.301000 337.217000,138.406000 315.614000,194.214000 295.708000,123.735000 339.644000,133.633000 324.748000,141.173000 317.192000,160.692000 310.791000,138.029000 324.748000,141.173000 " 
   stroke="#000000" fill="none" stroke-width="1.0"
 />

 <!-- Help Constructs -->
 <!--path d="M 348.000 257.000 L 364.000 148.000 362.000 148.000 326.000 241.000 295.000 219.000 258.000 88.000 440.000 129.000 370.000 196.000 372.000 275.000 348.000 257.000 "
   style="fill:none;stroke:gray;stroke-width:1px;stroke-dasharray:2,1"/-->

 <!-- Reference cross -->
  <!--line x1="-8.000000" y1="0.000000" x2="8.000000" y2="0.000000" stroke="#FF0000" fill="none" stroke-width="1"/-->
  <!--line x1="0.000000" y1="-8.000000" x2="0.000000" y2="8.000000" stroke="#FF0000" fill="none" stroke-width="1"/-->
</g>

</svg>



