<?xml version="1.0" encoding="UTF-8" standalone="no"?>
<svg
   xmlns:dc="http://purl.org/dc/elements/1.1/"
   xmlns:cc="http://creativecommons.org/ns#"
   xmlns:rdf="http://www.w3.org/1999/02/22-rdf-syntax-ns#"
   xmlns:svg="http://www.w3.org/2000/svg"
   xmlns="http://www.w3.org/2000/svg"
   xmlns:sodipodi="http://sodipodi.sourceforge.net/DTD/sodipodi-0.dtd"
   xmlns:inkscape="http://www.inkscape.org/namespaces/inkscape"
   width="44.5mm"
   height="21.011169mm"
   id="svg2"
   version="1.1"
   inkscape:version="0.91 r13725"
   sodipodi:docname="stefanx.svg">
  <metadata
     id="metadata52">
    <rdf:RDF>
      <cc:Work
         rdf:about="">
        <dc:format>image/svg+xml</dc:format>
        <dc:type
           rdf:resource="http://purl.org/dc/dcmitype/StillImage" />
        <dc:title></dc:title>
      </cc:Work>
    </rdf:RDF>
  </metadata>
  <defs
     id="defs50" />
  <sodipodi:namedview
     pagecolor="#ffffff"
     bordercolor="#666666"
     borderopacity="1"
     objecttolerance="10"
     gridtolerance="10"
     guidetolerance="10"
     inkscape:pageopacity="0"
     inkscape:pageshadow="2"
     inkscape:window-width="1600"
     inkscape:window-height="837"
     id="namedview48"
     showgrid="false"
     units="mm"
     inkscape:zoom="4.9322453"
     inkscape:cx="95.455227"
     inkscape:cy="35.500292"
     inkscape:window-x="-8"
     inkscape:window-y="-8"
     inkscape:window-maximized="1"
     inkscape:current-layer="svg2" />
  <g
     transform="matrix(1.5711658,-0.47102447,1.8477214,3.4152588,37.995849,50.698296)"
     font-size="0.2"
     id="g4"
     style="font-size:0.2px;stroke-width:0.05">
    <path
       d="M 0,-0.01116884 0,-3.0111688"
       id="path6"
       inkscape:connector-curvature="0"
       style="fill:none;stroke:#000000" />
    <path
       d="m 7,-9.0111688 0,3"
       id="path8"
       inkscape:connector-curvature="0"
       style="fill:none;stroke:#000000" />
    <path
       d="m 0,-2.0111688 0.03842944,0.3901806 0.11381149,0.3751862 0.18481985,0.34577362 0.24872566,0.3030731 0.30307309,0.24872566 0.34577357,0.18481984 0.3751863,0.1138115 L 2,-0.01116884 l 2.75,0 L 5.1889532,-0.05440196 5.6110377,-0.1824399 6.000033,-0.39036222 6.3409903,-0.67017859 6.6208066,-1.0111358 6.828729,-1.4001311 6.9567669,-1.8222156 7,-2.2611688 6.9567669,-2.7001221 6.828729,-3.1222066 6.6208066,-3.5112019 6.3409903,-3.8521591 6.000033,-4.1319755 5.6110377,-4.3398978 5.1889532,-4.4679357 4.75,-4.5111688 l -2.5,0 L 1.8110468,-4.554402 1.3889623,-4.6824399 0.99996698,-4.8903622 0.65900974,-5.1701786 0.37919337,-5.5111358 0.17127105,-5.9001311 0.04323312,-6.3222156 0,-6.7611688 0.04323312,-7.2001221 0.17127105,-7.6222066 0.37919337,-8.0112019 0.65900974,-8.3521591 0.99996698,-8.6319755 1.3889623,-8.8398978 1.8110468,-8.9679357 2.25,-9.0111688 l 2.75,0 0.3901806,0.038429 0.3751863,0.1138115 0.3457736,0.1848198 0.3030731,0.2487257 0.2487256,0.3030731 0.1848199,0.3457736 0.1138115,0.3751862 L 7,-7.0111688"
       id="path10"
       inkscape:connector-curvature="0"
       style="fill:none;stroke:#000000" />
    <path
       d="m 11.5,-6.0111688 5,0"
       id="path12"
       inkscape:connector-curvature="0"
       style="fill:none;stroke:#000000" />
    <path
       d="m 12.5,-8.0111688 0,6 0.03728,0.384348 0.110445,0.3700202 0.179495,0.34189864 0.241853,0.30103172 0.295196,0.24894285 0.337534,0.18757382 0.367289,0.11921237 0.383353,0.04640687 0.385126,-0.02812859 0.372542,-0.10161545"
       id="path14"
       inkscape:connector-curvature="0"
       style="fill:none;stroke:#000000" />
    <path
       d="m 17.5,-1.0111688 -2.289917,0.86969596"
       id="path16"
       inkscape:connector-curvature="0"
       style="fill:none;stroke:#000000" />
    <path
       d="m 22,-3.0111688 6,0 -0.05351,-0.5640864 -0.15862,-0.5439637 -0.258071,-0.5044363 -0.348317,-0.4469141 -0.426136,-0.3734492 -0.488755,-0.2866623 -0.533938,-0.1896492 -0.560074,-0.085871 -0.566231,0.020971 -0.552187,0.1270644 -0.518447,0.2286253 -0.466212,0.3220303 -0.397345,0.4039476 -0.314304,0.4714549 -0.22005,0.522144 -0.117948,0.5542066 -0.01164,0.5664991 0.09509,0.5585829 0.198422,0.5307404 0.294678,0.4839647 0.380421,0.41992465 0.452593,0.34090463 0.50862,0.24972352 0.546504,0.14963404 0.564892,0.04420666 0.563128,-0.0627977 0.541276,-0.16756188"
       id="path18"
       inkscape:connector-curvature="0"
       style="fill:none;stroke:#000000" />
    <path
       d="m 28,-1.0111688 -1.846191,0.76922996"
       id="path20"
       inkscape:connector-curvature="0"
       style="fill:none;stroke:#000000" />
    <path
       d="m 31.5,-0.01116884 4,0"
       id="path22"
       inkscape:connector-curvature="0"
       style="fill:none;stroke:#000000" />
    <path
       d="m 31.5,-6.0111688 5,0"
       id="path24"
       inkscape:connector-curvature="0"
       style="fill:none;stroke:#000000" />
    <path
       d="m 38.5,-8.0111688 -2.289917,-0.869694"
       id="path26"
       inkscape:connector-curvature="0"
       style="fill:none;stroke:#000000" />
    <path
       d="m 36.210111,-8.8808592 -0.372542,-0.1016155 -0.385125,-0.028129 -0.383353,0.046407 -0.36729,0.1192123 -0.337534,0.1875738 -0.295196,0.2489429 -0.241853,0.3010317 -0.179495,0.3418987 -0.110445,0.3700202 -0.03728,0.3843481 0,6.99999996"
       id="path28"
       inkscape:connector-curvature="0"
       style="fill:none;stroke:#000000" />
    <path
       d="m 43.799534,-3.9801254 -0.367966,0.098351 -0.342649,0.166325 -0.304904,0.2282669 -0.256101,0.2819302 -0.198009,0.3253682 -0.132737,0.3570059 -0.06265,0.3756957 0.0097,0.3807597 0.08172,0.3720142 0.15076,0.3497766 0.214335,0.31485325 0.270137,0.26851078 0.316142,0.21242994 0.350681,0.14864469 0.372501,0.07946838"
       id="path30"
       inkscape:connector-curvature="0"
       style="fill:none;stroke:#000000" />
    <path
       d="M 48.000001,-3.7547494 46.615867,-4.0349568 45.205678,-4.1105058 43.79953,-3.979783"
       id="path32"
       inkscape:connector-curvature="0"
       style="fill:none;stroke:#000000" />
    <path
       d="M 43.900481,-0.02162478 44.798916,0 l 0.887579,-0.1409167 0.847558,-0.29882799 0.779689,-0.44692049 0.686201,-0.58032822"
       id="path34"
       inkscape:connector-curvature="0"
       style="fill:none;stroke:#000000" />
    <path
       d="m 50,-0.01116884 -2,0 0,-4.58845896 -0.03843,-0.3901807 -0.113812,-0.3751862 -0.18482,-0.3457736 L 47.414214,-6.0138414 47.11114,-6.2625671 46.765367,-6.4473869 46.390181,-6.5611984 46,-6.5996278 l -0.812386,0.072148 -0.786957,0.2141873 -0.736893,0.3495214 -0.663763,0.4739146"
       id="path36"
       inkscape:connector-curvature="0"
       style="fill:none;stroke:#000000" />
    <path
       d="m 53.5,-6.0111688 1.5,0 0,5.99999996"
       id="path38"
       inkscape:connector-curvature="0"
       style="fill:none;stroke:#000000" />
    <path
       d="m 53.5,-0.01116884 3,0"
       id="path40"
       inkscape:connector-curvature="0"
       style="fill:none;stroke:#000000" />
    <path
       d="m 61.5,-0.01116884 -3,0"
       id="path42"
       inkscape:connector-curvature="0"
       style="fill:none;stroke:#000000" />
    <path
       d="m 55.84784,-5.3874326 0.386373,-0.2796082 0.432442,-0.2011464 0.46277,-0.115364 0.476258,-0.025383 0.472411,0.065522 0.451372,0.1540422 0.413904,0.236956 0.361375,0.3112461 0.295691,0.3742085 0.219247,0.4235518 0.134824,0.4574801 0.04549,0.4747587 0,3.49999996"
       id="path44"
       inkscape:connector-curvature="0"
       style="fill:none;stroke:#000000" />
    <path
       d="m 55,-4.6408608 0.8479,-0.746574"
       id="path46"
       inkscape:connector-curvature="0"
       style="fill:none;stroke:#000000" />
  </g>
</svg>
