<?xml version="1.0" encoding="UTF-8" standalone="no"?>
<!-- Created with Inkscape (http://www.inkscape.org/) -->

<svg
   xmlns:dc="http://purl.org/dc/elements/1.1/"
   xmlns:cc="http://creativecommons.org/ns#"
   xmlns:rdf="http://www.w3.org/1999/02/22-rdf-syntax-ns#"
   xmlns:svg="http://www.w3.org/2000/svg"
   xmlns="http://www.w3.org/2000/svg"
   xmlns:xlink="http://www.w3.org/1999/xlink"
   xmlns:sodipodi="http://sodipodi.sourceforge.net/DTD/sodipodi-0.dtd"
   xmlns:inkscape="http://www.inkscape.org/namespaces/inkscape"
   width="210mm"
   height="297mm"
   viewBox="0 0 744.09448819 1052.3622047"
   id="svg2"
   version="1.1"
   inkscape:version="0.91 r13725"
   sodipodi:docname="stefan.svg">
  <defs
     id="defs4" />
  <sodipodi:namedview
     id="base"
     pagecolor="#ffffff"
     bordercolor="#666666"
     borderopacity="1.0"
     inkscape:pageopacity="0.0"
     inkscape:pageshadow="2"
     inkscape:zoom="0.98994949"
     inkscape:cx="304.57354"
     inkscape:cy="808.75501"
     inkscape:document-units="px"
     inkscape:current-layer="svg2"
     showgrid="false"
     inkscape:window-width="1600"
     inkscape:window-height="837"
     inkscape:window-x="-8"
     inkscape:window-y="-8"
     inkscape:window-maximized="1" />
  <metadata
     id="metadata7">
    <rdf:RDF>
      <cc:Work
         rdf:about="">
        <dc:format>image/svg+xml</dc:format>
        <dc:type
           rdf:resource="http://purl.org/dc/dcmitype/StillImage" />
        <dc:title></dc:title>
      </cc:Work>
    </rdf:RDF>
  </metadata>
  <g
     inkscape:label="Ebene 1"
     inkscape:groupmode="layer"
     id="layer1" />
  <g
     style="font-style:italic;font-variant:normal;font-weight:normal;font-stretch:normal;font-size:80px;line-height:50%;font-family:sans-serif;-inkscape-font-specification:'sans-serif, Italic';text-align:start;letter-spacing:0px;word-spacing:0px;writing-mode:lr-tb;text-anchor:start;fill:#000000;fill-opacity:1;stroke:none;stroke-width:1px;stroke-linecap:butt;stroke-linejoin:miter;stroke-opacity:1"
     id="text3359">
    <path
       sodipodi:type="inkscape:offset"
       inkscape:radius="0"
       inkscape:original="M 153.07031 43.599609 C 145.62239 43.599609 139.54166 45.448568 134.82812 49.146484 C 130.14062 52.818359 127.79688 57.427734 127.79688 62.974609 C 127.79688 66.255859 128.91666 69.003256 131.15625 71.216797 C 133.39583 73.430339 136.5599 74.992839 140.64844 75.904297 C 142.75782 76.399089 144.97136 76.867839 147.28906 77.310547 C 149.63281 77.727214 151.65104 78.169922 153.34375 78.638672 C 155.375 79.211589 156.91146 80.097005 157.95312 81.294922 C 159.02083 82.492839 159.55469 83.990234 159.55469 85.787109 C 159.55469 89.198567 158.07031 92.011067 155.10156 94.224609 C 152.15886 96.412109 147.91407 97.505859 142.36719 97.505859 C 138.98177 97.505859 135.46615 96.880859 131.82031 95.630859 C 128.20052 94.354817 125.14062 92.531901 122.64062 90.162109 L 122.09375 90.162109 L 120.21875 99.029297 C 123.5 100.66992 126.84635 101.89388 130.25781 102.70117 C 133.66927 103.48243 137.26302 103.87305 141.03906 103.87305 C 145.41406 103.87305 149.20312 103.32618 152.40625 102.23242 C 155.63542 101.13868 158.44792 99.628257 160.84375 97.701172 C 163.08333 95.904297 164.82812 93.742839 166.07812 91.216797 C 167.32812 88.690756 167.95312 86.151693 167.95312 83.599609 C 167.95312 80.552734 166.98958 78.026692 165.0625 76.021484 C 163.16145 74.016276 160.36198 72.505859 156.66406 71.490234 C 154.78906 70.995442 152.47136 70.474609 149.71094 69.927734 C 146.95052 69.354818 144.73698 68.873047 143.07031 68.482422 C 140.46615 67.831381 138.65625 66.854818 137.64062 65.552734 C 136.625 64.250651 136.11719 62.740234 136.11719 61.021484 C 136.11719 57.818359 137.52344 55.17513 140.33594 53.091797 C 143.17448 51.008464 146.96354 49.966797 151.70312 49.966797 C 155.47916 49.966797 159.07291 50.578776 162.48438 51.802734 C 165.92188 53.026692 168.5651 54.485026 170.41406 56.177734 L 170.96094 56.177734 L 172.71875 47.857422 C 170.32292 46.711589 167.45833 45.722005 164.125 44.888672 C 160.81771 44.029297 157.13281 43.599609 153.07031 43.599609 z "
       xlink:href="#path3366"
       id="path3378"
       inkscape:href="#path3366"
       d="m 153.07031,43.599609 c -7.44792,0 -13.52865,1.848959 -18.24219,5.546875 -4.6875,3.671875 -7.03124,8.28125 -7.03124,13.828125 0,3.28125 1.11978,6.028647 3.35937,8.242188 2.23958,2.213542 5.40365,3.776042 9.49219,4.6875 2.10938,0.494792 4.32292,0.963542 6.64062,1.40625 2.34375,0.416667 4.36198,0.859375 6.05469,1.328125 2.03125,0.572917 3.56771,1.458333 4.60937,2.65625 1.06771,1.197917 1.60157,2.695312 1.60157,4.492187 0,3.411458 -1.48438,6.223958 -4.45313,8.4375 -2.9427,2.1875 -7.18749,3.28125 -12.73437,3.28125 -3.38542,0 -6.90104,-0.625 -10.54688,-1.875 -3.61979,-1.276042 -6.67969,-3.098958 -9.17969,-5.46875 l -0.54687,0 -1.875,8.867188 c 3.28125,1.640623 6.6276,2.864583 10.03906,3.671873 3.41146,0.78126 7.00521,1.17188 10.78125,1.17188 4.375,0 8.16406,-0.54687 11.36719,-1.64063 3.22917,-1.09374 6.04167,-2.604163 8.4375,-4.531248 2.23958,-1.796875 3.98437,-3.958333 5.23437,-6.484375 1.25,-2.526041 1.875,-5.065104 1.875,-7.617188 0,-3.046875 -0.96354,-5.572917 -2.89062,-7.578125 -1.90105,-2.005208 -4.70052,-3.515625 -8.39844,-4.53125 -1.875,-0.494792 -4.1927,-1.015625 -6.95312,-1.5625 -2.76042,-0.572916 -4.97396,-1.054687 -6.64063,-1.445312 -2.60416,-0.651041 -4.41406,-1.627604 -5.42969,-2.929688 -1.01562,-1.302083 -1.52343,-2.8125 -1.52343,-4.53125 0,-3.203125 1.40625,-5.846354 4.21875,-7.929687 2.83854,-2.083333 6.6276,-3.125 11.36718,-3.125 3.77604,0 7.36979,0.611979 10.78126,1.835937 3.4375,1.223958 6.08072,2.682292 7.92968,4.375 l 0.54688,0 1.75781,-8.320312 c -2.39583,-1.145833 -5.26042,-2.135417 -8.59375,-2.96875 -3.30729,-0.859375 -6.99219,-1.289063 -11.05469,-1.289063 z" />
    <path
       d="m 141.03943,103.8735 q -5.66406,0 -10.78125,-1.17188 -5.11719,-1.21094 -10.03906,-3.671873 l 1.875,-8.867187 0.54687,0 q 3.75,3.554687 9.17969,5.46875 5.46875,1.875 10.54687,1.875 8.32032,0 12.73438,-3.28125 4.45312,-3.320313 4.45312,-8.4375 0,-2.695313 -1.60156,-4.492188 -1.5625,-1.796875 -4.60937,-2.65625 -2.53907,-0.703125 -6.05469,-1.328125 -3.47656,-0.664062 -6.64063,-1.40625 -6.13281,-1.367187 -9.49218,-4.6875 -3.35938,-3.320312 -3.35938,-8.242187 0,-8.320313 7.03125,-13.828125 7.07031,-5.546875 18.24219,-5.546875 6.09375,0 11.05469,1.289062 5,1.25 8.59375,2.96875 l -1.75782,8.320313 -0.54687,0 q -2.77344,-2.539063 -7.92969,-4.375 -5.11719,-1.835938 -10.78125,-1.835938 -7.10937,0 -11.36719,3.125 -4.21875,3.125 -4.21875,7.929688 0,2.578125 1.52344,4.53125 1.52344,1.953125 5.42969,2.929687 2.5,0.585938 6.64062,1.445313 4.14063,0.820312 6.95313,1.5625 5.54687,1.523437 8.39844,4.53125 2.89062,3.007812 2.89062,7.578125 0,3.828125 -1.875,7.617187 -1.875,3.789063 -5.23437,6.484375 -3.59375,2.890628 -8.4375,4.531248 -4.80469,1.64063 -11.36719,1.64063 z"
       id="path3366"
       inkscape:connector-curvature="0" />
    <path
       d="m 207.79724,59.185997 -1.32812,5.9375 -15.15625,0 -4.6875,20.117188 q -0.39063,1.523437 -0.70313,3.515625 -0.3125,1.953125 -0.3125,3.125 0,2.851562 1.44531,4.257812 1.44532,1.367188 5.35157,1.367188 1.60156,0 3.78906,-0.546875 2.22656,-0.546875 3.00781,-0.859375 l 0.39063,0 -1.36719,6.32812 q -2.1875,0.54688 -4.6875,0.89844 -2.46094,0.35156 -4.375,0.35156 -5.39063,0 -8.35938,-2.34375 -2.92968,-2.382808 -2.92968,-7.499995 0,-1.25 0.15625,-2.460938 0.19531,-1.25 0.50781,-2.8125 l 5.42969,-23.4375 -4.96094,0 1.32812,-5.9375 4.96094,0 2.92969,-12.539062 7.34375,0 -2.92969,12.539062 15.15625,0 z"
       style=""
       id="path3368" />
    <path
       d="m 241.93787,76.25631 q 0.19531,-1.132813 0.27343,-1.914063 0.0781,-0.78125 0.0781,-1.71875 0,-4.179687 -2.30469,-6.523437 -2.26562,-2.34375 -7.30469,-2.34375 -5.54687,0 -9.84375,3.4375 -4.29687,3.4375 -5.82031,9.0625 l 24.92188,0 z m -14.6875,27.57812 q -9.0625,0 -14.21875,-4.257808 -5.15625,-4.257812 -5.15625,-12.460937 0,-11.992188 7.57812,-20.546875 7.57813,-8.59375 18.75,-8.59375 7.42188,0 11.36719,3.710937 3.94531,3.671875 3.94531,10.351563 0,1.171875 -0.35156,3.710937 -0.3125,2.539063 -1.05469,5.898438 l -32.14844,0 q -0.23437,1.132812 -0.35156,2.226562 -0.0781,1.09375 -0.0781,2.03125 0,5.507813 3.35937,8.671875 3.35938,3.125 9.53125,3.125 4.29688,0 8.82813,-1.679687 4.57031,-1.679688 7.65625,-3.789063 l 0.42968,0 -1.60156,7.929688 q -1.95312,0.70312 -3.51562,1.28906 -1.5625,0.58594 -3.98438,1.17188 -2.42187,0.58593 -4.29687,0.89843 -1.875,0.3125 -4.6875,0.3125 z"
       style=""
       id="path3370" />
    <path
       d="m 289.78943,48.873497 -0.39063,0 q -1.13281,-0.390625 -3.00781,-0.742187 -1.875,-0.351563 -3.35937,-0.351563 -4.80469,0 -7.22657,2.421875 -2.38281,2.421875 -3.59375,7.5 l -0.35156,1.484375 13.24219,0 -1.40625,5.859375 -13.00781,0 -8.51563,37.773438 -7.42187,0 8.51562,-37.773438 -4.96094,0 1.40625,-5.859375 4.96094,0 0.3125,-1.445312 q 1.60156,-7.65625 6.25,-11.875 4.6875,-4.21875 12.03125,-4.21875 2.46094,0 4.45313,0.234375 1.99218,0.234375 3.59375,0.546875 l -1.52344,6.445312 z"
       style=""
       id="path3372" />
    <path
       d="m 314.35974,79.810997 q -6.01562,0.234375 -10.70312,0.9375 -4.64844,0.664063 -7.69532,1.953125 -3.16406,1.289063 -4.80468,3.515625 -1.64063,2.1875 -1.64063,5.46875 0,2.8125 1.91406,4.296875 1.91407,1.484375 5.9375,1.484375 3.55469,0 7.22657,-1.5625 3.71093,-1.601562 6.91406,-3.828125 l 2.85156,-12.265625 z m -4.25781,18.359375 q -1.05469,0.625 -2.89063,1.796875 -1.79687,1.132813 -3.67187,1.953123 -1.99219,0.89844 -4.45313,1.48438 -2.46093,0.625 -5.66406,0.625 -5.19531,0 -8.4375,-3.00782 -3.24219,-3.04687 -3.24219,-7.929683 0,-5.195312 2.26563,-8.75 2.30469,-3.59375 6.79687,-5.859375 4.41407,-2.226562 10.625,-3.203125 6.25,-1.015625 14.21875,-1.25 0.23438,-1.09375 0.39063,-1.875 0.15625,-0.820312 0.15625,-1.679687 0,-1.875 -0.74219,-3.046875 -0.74219,-1.171875 -2.10937,-1.875 -1.36719,-0.703125 -3.20313,-0.9375 -1.79687,-0.273438 -3.98437,-0.273438 -3.32032,0 -7.57813,1.09375 -4.25781,1.054688 -6.91406,2.109375 l -0.39063,0 1.44532,-7.34375 q 2.22656,-0.585937 6.52343,-1.328125 4.29688,-0.742187 8.24219,-0.742187 8.125,0 12.1875,2.539062 4.0625,2.539063 4.0625,8.046875 0,1.054688 -0.19531,2.265625 -0.15625,1.171875 -0.39063,2.226563 l -6.83593,29.609375 -7.30469,0 1.09375,-4.648438 z"
       style=""
       id="path3374" />
    <path
       d="m 374.24255,69.146935 q 0,0.9375 -0.19531,2.539062 -0.15625,1.601563 -0.46875,2.8125 l -6.5625,28.320313 -7.34375,0 5.74219,-24.84375 q 0.46875,-2.070313 0.70312,-3.59375 0.27344,-1.5625 0.27344,-3.085938 0,-3.28125 -1.64062,-4.921875 -1.60157,-1.679687 -5.82032,-1.679687 -2.96875,0 -6.5625,1.640625 -3.55468,1.640625 -6.95312,3.90625 l -7.53906,32.578125 -7.34375,0 10.07812,-43.632813 7.34375,0 -1.13281,4.84375 q 4.17969,-2.929687 7.8125,-4.492187 3.67187,-1.5625 7.53906,-1.5625 5.70313,0 8.86719,2.890625 3.20312,2.851562 3.20312,8.28125 z"
       style=""
       id="path3376" />
  </g>
</svg>
