<?xml version="1.0" encoding="UTF-8" standalone="no"?>
<!--?xml version="1.0" standalone="no"?-->

<svg
   xmlns:dc="http://purl.org/dc/elements/1.1/"
   xmlns:cc="http://creativecommons.org/ns#"
   xmlns:rdf="http://www.w3.org/1999/02/22-rdf-syntax-ns#"
   xmlns:svg="http://www.w3.org/2000/svg"
   xmlns="http://www.w3.org/2000/svg"
   xmlns:sodipodi="http://sodipodi.sourceforge.net/DTD/sodipodi-0.dtd"
   xmlns:inkscape="http://www.inkscape.org/namespaces/inkscape"
   version="1.0"
   width="134.67878mm"
   height="174.76542mm"
   viewBox="0 0 381.76663 495.39799"
   preserveAspectRatio="xMidYMid meet"
   id="svg2"
   inkscape:version="0.91 r13725"
   sodipodi:docname="stickman-karate.svg">
  <defs
     id="defs25" />
  <sodipodi:namedview
     pagecolor="#ffffff"
     bordercolor="#666666"
     borderopacity="1"
     objecttolerance="10"
     gridtolerance="10"
     guidetolerance="10"
     inkscape:pageopacity="0"
     inkscape:pageshadow="2"
     inkscape:window-width="1600"
     inkscape:window-height="837"
     id="namedview23"
     showgrid="false"
     inkscape:zoom="1.0302829"
     inkscape:cx="41.570893"
     inkscape:cy="309.62376"
     inkscape:window-x="-8"
     inkscape:window-y="-8"
     inkscape:window-maximized="1"
     inkscape:current-layer="svg2"
     fit-margin-top="0"
     fit-margin-left="0"
     fit-margin-right="0"
     fit-margin-bottom="0"
     units="m"
     inkscape:document-units="mm" />
  <metadata
     id="metadata4">
    <rdf:rdf>
      <rdf:description
         dc:title="family sticker karate boy"
         dc:publisher="Hiox"
         dc:date="2015-05-21"
         dc:format="image/svg+xml"
         dc:language="en">
        <dc:creator>
          <rdf:bag>
            <rdf:li>svgimages.com</rdf:li>
          </rdf:bag>
        </dc:creator>
      </rdf:description>
    </rdf:rdf>
    <rdf:RDF>
      <cc:Work
         rdf:about="">
        <dc:format>image/svg+xml</dc:format>
        <dc:type
           rdf:resource="http://purl.org/dc/dcmitype/StillImage" />
        <dc:title></dc:title>
      </cc:Work>
    </rdf:RDF>
  </metadata>
  <g
     transformxxxxxx="matrix(0.18002634,0,0,-0.16517353,-79.100789,495.39795)"
     id="g6"
     style="fill:#242220;stroke:none">
    <path
       d="m 2060,2981 c -5,-11 -10,-45 -10,-75 0,-53 -1,-56 -25,-56 -14,0 -27,6 -29,13 -3,6 -12,38 -22,70 -12,41 -22,57 -34,57 -34,0 -40,-22 -24,-84 13,-49 13,-60 2,-67 -32,-20 -53,-8 -92,51 -39,61 -70,77 -83,44 -6,-17 2,-37 41,-100 l 25,-41 -44,-31 c -36,-25 -50,-29 -82,-25 -28,4 -44,0 -61,-14 -31,-25 -41,-93 -18,-127 12,-19 14,-31 6,-52 -6,-14 -15,-55 -20,-91 -24,-176 63,-353 210,-424 38,-18 49,-29 47,-44 -2,-16 -12,-21 -53,-26 -28,-4 -60,-11 -70,-17 -16,-9 -25,-4 -55,30 -45,53 -62,47 -97,-32 -18,-42 -30,-60 -41,-58 -12,3 -15,14 -14,38 4,48 -5,80 -21,80 -18,0 -46,-33 -46,-56 0,-11 -11,1 -28,31 -32,58 -58,67 -56,18 1,-23 -2,-30 -12,-26 -22,8 -44,-5 -38,-21 3,-8 16,-18 27,-22 21,-7 21,-8 -5,-16 -41,-14 -38,-48 4,-48 30,0 31,-1 13,-20 -23,-26 -13,-54 17,-44 13,3 35,15 50,25 32,23 34,23 63,1 16,-13 21,-23 14,-33 -17,-27 -9,-75 26,-159 19,-46 35,-88 35,-94 0,-5 -34,-7 -84,-3 -90,6 -106,0 -106,-41 0,-21 -3,-23 -32,-17 -18,3 -53,12 -78,20 -81,24 -264,64 -327,71 -75,8 -79,2 -85,-106 l -4,-75 -50,-3 c -48,-3 -51,-1 -66,30 -8,18 -37,57 -62,85 -82,91 -156,92 -203,4 -27,-52 -32,-170 -9,-225 40,-97 153,-102 255,-10 45,41 54,45 93,42 l 43,-3 3,-63 c 2,-42 8,-65 17,-68 13,-5 240,20 463,52 105,15 122,13 122,-10 0,-13 105,-106 120,-106 7,0 -1,-55 -39,-270 -74,-413 -75,-378 18,-407 31,-10 59,-22 63,-28 11,-14 10,-95 -1,-95 -5,0 -33,-20 -63,-44 C 1392,137 1429,0 1620,0 c 64,0 116,17 153,50 30,26 32,33 31,88 -1,68 -24,114 -80,160 -26,22 -35,38 -40,73 l -6,46 55,17 c 98,31 93,12 79,262 -17,313 -17,364 6,364 34,0 42,22 43,109 l 1,86 33,-133 c 18,-74 35,-135 37,-137 4,-4 130,29 145,38 10,6 7,20 -13,59 -14,27 -23,53 -20,56 4,3 20,-4 36,-16 16,-12 35,-22 42,-22 13,0 78,91 78,108 0,5 -41,28 -90,52 -90,43 -115,60 -86,60 8,0 31,14 51,31 32,28 35,36 35,83 0,48 2,53 33,69 32,18 33,18 80,-9 48,-26 77,-27 77,0 0,8 -10,22 -22,30 l -22,16 26,0 c 32,0 53,21 36,38 -7,7 -19,12 -27,12 -11,0 -9,6 7,21 28,25 19,43 -19,35 -27,-5 -29,-4 -19,15 9,15 8,24 -1,35 -22,27 -32,17 -63,-70 -6,-18 -9,-17 -26,12 -34,56 -61,35 -57,-43 3,-44 -33,-47 -63,-6 -12,17 -28,31 -36,31 -20,0 -17,14 6,35 12,11 37,45 56,77 28,45 36,69 36,105 0,64 -26,85 -99,82 -40,-2 -60,2 -79,17 -44,33 -24,51 60,56 122,8 258,88 322,190 20,32 29,37 48,32 28,-7 81,18 90,41 15,41 6,87 -25,117 -18,19 -29,39 -27,52 3,19 10,21 81,24 l 77,3 0,29 0,30 -85,0 c -83,0 -85,1 -85,24 0,21 9,27 69,45 71,22 93,43 68,68 -12,12 -25,11 -87,-6 -41,-12 -74,-20 -74,-18 -1,1 -12,17 -25,36 l -23,33 52,53 c 33,34 51,59 48,71 -6,34 -36,26 -87,-21 -43,-40 -52,-45 -70,-35 -21,11 -21,11 5,58 15,26 31,51 36,56 13,16 9,43 -7,50 -25,9 -39,-2 -70,-59 -16,-30 -31,-55 -32,-55 -2,0 -19,7 -38,14 -37,16 -38,16 -35,88 1,26 -1,57 -5,68 -8,25 -41,26 -55,1 z m 97,-242 c 65,-31 103,-71 144,-149 21,-39 24,-59 24,-145 0,-89 -3,-107 -28,-161 -36,-78 -113,-154 -192,-191 -112,-51 -258,-31 -346,49 -122,110 -143,310 -47,460 101,159 282,215 445,137 z m 243,-437 c 0,-13 -12,-22 -22,-16 -10,6 -1,24 13,24 5,0 9,-4 9,-8 z m -618,-566 c 42,-49 63,-44 113,24 46,62 84,90 125,90 30,0 32,-2 26,-27 -9,-39 -75,-131 -119,-167 -53,-42 -82,-38 -234,39 l -133,67 14,26 c 7,15 23,48 35,74 l 21,48 59,-68 c 32,-37 74,-84 93,-106 z m 92,148 c 9,-3 16,-11 16,-18 -1,-10 -55,-76 -63,-76 -2,0 -19,18 -37,41 -26,33 -30,43 -19,50 16,10 80,12 103,3 z m -153,-331 c 21,-23 39,-48 39,-54 0,-20 31,-49 52,-49 23,0 92,34 135,68 19,14 40,22 48,18 19,-7 58,-90 53,-114 -4,-20 -100,-57 -175,-67 -48,-7 -57,-5 -104,26 -31,20 -64,53 -84,83 -39,61 -95,171 -95,186 0,16 85,-47 131,-97 z m 127,-11 c 3,-9 -2,-13 -14,-10 -9,1 -19,9 -22,16 -3,9 2,13 14,10 9,-1 19,-9 22,-16 z M 607,1463 c 17,-16 42,-49 57,-76 l 27,-47 -27,-25 c -30,-28 -95,-49 -124,-40 -38,12 -53,116 -26,180 19,44 49,46 93,8 z m 1016,-36 c 9,-12 31,-39 47,-59 16,-20 52,-51 79,-68 l 49,-32 -1,-59 c -2,-63 -5,-66 -55,-48 -27,9 -31,16 -34,51 -5,62 -25,68 -85,24 -28,-20 -53,-36 -57,-36 -25,0 -57,54 -81,135 -14,50 -28,98 -31,109 -6,17 -1,18 72,12 64,-6 82,-11 97,-29 z m 74,-1199 c 47,-52 58,-114 23,-135 -26,-17 -118,-26 -154,-15 -66,19 -56,67 27,134 56,44 76,47 104,16 z"
       id="node1"
       class="node"
       inkscape:connector-curvature="0" />
    <path
       d="m 1952,2508 c -34,-85 -33,-111 4,-106 21,2 30,14 51,66 20,50 22,66 13,77 -24,30 -47,17 -68,-37 z"
       id="node2"
       class="node"
       inkscape:connector-curvature="0" />
    <path
       d="m 1705,2490 c -4,-12 -1,-28 5,-36 8,-8 10,-27 6,-44 -11,-57 12,-126 59,-178 60,-66 128,-96 220,-96 75,0 107,12 180,68 22,17 49,36 60,42 29,16 27,58 -4,62 -14,2 -34,10 -47,18 -19,13 -24,13 -38,-1 -19,-19 -20,-27 -4,-43 29,-29 -65,-82 -147,-82 -92,0 -181,53 -211,126 -22,53 -18,81 14,96 36,18 37,52 0,56 -14,2 -32,10 -38,18 -18,21 -48,17 -55,-6 z"
       id="node3"
       class="node"
       inkscape:connector-curvature="0" />
    <path
       d="m 2062,2493 c -5,-10 -17,-42 -28,-71 -16,-47 -16,-54 -3,-67 24,-25 43,-9 69,56 18,45 21,65 13,77 -15,24 -40,26 -51,5 z"
       id="node4"
       class="node"
       inkscape:connector-curvature="0" />
  </g>
</svg>










