<?xml version="1.0" encoding="UTF-8" standalone="no"?>
<svg
   xmlns:dc="http://purl.org/dc/elements/1.1/"
   xmlns:cc="http://creativecommons.org/ns#"
   xmlns:rdf="http://www.w3.org/1999/02/22-rdf-syntax-ns#"
   xmlns:svg="http://www.w3.org/2000/svg"
   xmlns="http://www.w3.org/2000/svg"
   xmlns:sodipodi="http://sodipodi.sourceforge.net/DTD/sodipodi-0.dtd"
   xmlns:inkscape="http://www.inkscape.org/namespaces/inkscape"
   width="100mm"
   height="100mm"
   id="svg2"
   version="1.1"
   inkscape:version="0.91 r13725"
   sodipodi:docname="wolfgang.svg">
  <metadata
     id="metadata12">
    <rdf:RDF>
      <cc:Work
         rdf:about="">
        <dc:format>image/svg+xml</dc:format>
        <dc:type
           rdf:resource="http://purl.org/dc/dcmitype/StillImage" />
      </cc:Work>
    </rdf:RDF>
  </metadata>
  <defs
     id="defs10" />
  <sodipodi:namedview
     pagecolor="#ffffff"
     bordercolor="#666666"
     borderopacity="1"
     objecttolerance="10"
     gridtolerance="10"
     guidetolerance="10"
     inkscape:pageopacity="0"
     inkscape:pageshadow="2"
     inkscape:window-width="1600"
     inkscape:window-height="837"
     id="namedview8"
     showgrid="false"
     inkscape:zoom="0.66604444"
     inkscape:cx="177.16535"
     inkscape:cy="177.16535"
     inkscape:window-x="-8"
     inkscape:window-y="-8"
     inkscape:window-maximized="1"
     inkscape:current-layer="svg2" />
  <title
     id="title4">CncControl SerialEmulatorSVG output</title>
  <desc
     id="desc6">....</desc>
  <!--samples start /-->
  <!--line x1="10" y1="0" x2="20" y2="0" stroke="blue" stroke-width="0.5"/-->
  <!--rect x="5" y="5" width="10" height="10" fill="none" stroke="blue" stroke-width="0.5"/-->
  <!--rect x="10" y="10" rx="5" ry="5" width="30" height="30" fill="none" stroke="blue" stroke-width="0.5"/-->
  <!--polyline fill="none" stroke="blue" stroke-width="0.5" points="10,10 15,15 20,10 25,15"/-->
  <!--polygon fill="none" stroke="blue" stroke-width="0.5" points="10 10 15 15 20 10"/-->
  <!--circle cx="50" cy="40" r="20" fill="none" stroke="blue" stroke-width="0.5"/-->
  <!--ellipse cx="50" cy="50" rx="40" ry="30" fill="none" stroke="blue" stroke-width="0.5"/-->
  <!--path d="M 20.5 20.5 l 10 0 0 10 -10 0z " stroke="black" fill="none" stroke-width="0.5"/-->
  <!--path d="M10,20 C10,10 25,10 25,20 S40,30 40,20" stroke="black" fill="none" stroke-width="0.5"/-->
  <!--path d="M40,40 Q40,5 60,30 T100,30"  stroke="black" fill="none" stroke-width="0.5" /-->
  <!--path d="M 10 20 a 5 5 0 1 0 10 0 a 5 5 0 1 0 -10 0 " fill="none" stroke="blue" stroke-width="0.5"/-->
  <!--path d="M 5,5" stroke="black" fill="none" stroke-width="0.5"/-->
  <!--samples end /-->
  <rect
     style="opacity:0.575;fill:#000000;fill-opacity:0;fill-rule:evenodd;stroke:#000000;stroke-width:0.29055119;stroke-linejoin:bevel;stroke-miterlimit:4;stroke-dasharray:none;stroke-opacity:1"
     id="rect3340"
     width="126.11771"
     height="105.09809"
     x="4.5042038"
     y="25.523823" />
  <ellipse
     style="opacity:0.575;fill:#000000;fill-opacity:0;fill-rule:evenodd;stroke:#000000;stroke-width:0.29055119;stroke-linejoin:bevel;stroke-miterlimit:4;stroke-dasharray:none;stroke-opacity:1"
     id="path3342"
     cx="246.98051"
     cy="130.62192"
     rx="48.795544"
     ry="57.053249" />
  <path
     sodipodi:type="star"
     style="opacity:0.575;fill:#000000;fill-opacity:0;fill-rule:evenodd;stroke:#000000;stroke-width:0.29055119;stroke-linejoin:bevel;stroke-miterlimit:4;stroke-dasharray:none;stroke-opacity:1"
     id="path3344"
     sodipodi:sides="5"
     sodipodi:cx="109.6023"
     sodipodi:cy="169.65836"
     sodipodi:r1="128.27979"
     sodipodi:r2="103.78053"
     sodipodi:arg1="1.0022718"
     sodipodi:arg2="1.6305903"
     inkscape:flatsided="true"
     inkscape:rounded="0"
     inkscape:randomized="0"
     d="M 178.66676,277.75925 28.134332,268.74757 -9.8121309,122.79796 117.26809,41.607823 233.75446,137.37917 Z"
     inkscape:transform-center-x="-2.3688592"
     inkscape:transform-center-y="-9.9748187" />
  <path
     sodipodi:type="star"
     style="opacity:0.575;fill:#000000;fill-opacity:0;fill-rule:evenodd;stroke:#000000;stroke-width:0.29055119;stroke-linejoin:bevel;stroke-miterlimit:4;stroke-dasharray:none;stroke-opacity:1"
     id="path3346"
     sodipodi:sides="5"
     sodipodi:cx="126.11771"
     sodipodi:cy="216.2018"
     sodipodi:r1="52.549046"
     sodipodi:r2="42.513069"
     sodipodi:arg1="0.64350111"
     sodipodi:arg2="1.2718196"
     inkscape:flatsided="true"
     inkscape:rounded="0"
     inkscape:randomized="0"
     d="m 168.15694,247.73122 -59.03466,18.1954 -35.547563,-50.52262 37.065063,-49.42009 58.45503,19.97933 z"
     inkscape:transform-center-x="4.7829417"
     inkscape:transform-center-y="-0.24653355" />
  <path
     sodipodi:type="star"
     style="opacity:0.575;fill:#000000;fill-opacity:0;fill-rule:evenodd;stroke:#000000;stroke-width:0.29055119;stroke-linejoin:bevel;stroke-miterlimit:4;stroke-dasharray:none;stroke-opacity:1"
     id="path3348"
     sodipodi:sides="5"
     sodipodi:cx="36.03363"
     sodipodi:cy="298.77887"
     sodipodi:r1="90.333961"
     sodipodi:r2="73.081711"
     sodipodi:arg1="0.26916749"
     sodipodi:arg2="0.89748602"
     inkscape:flatsided="true"
     inkscape:rounded="0"
     inkscape:randomized="0"
     d="M 123.1149,322.80129 40.096545,389.02142 -48.536623,330.52941 -20.296575,228.15924 85.789902,223.38299 Z"
     inkscape:transform-center-x="-1.2555095"
     inkscape:transform-center-y="7.4233363" />
  <g
     style="font-style:normal;font-weight:normal;font-size:80px;line-height:125%;font-family:sans-serif;text-align:start;letter-spacing:0px;word-spacing:0px;text-anchor:start;fill:#000000;fill-opacity:1;stroke:none;stroke-width:1px;stroke-linecap:butt;stroke-linejoin:miter;stroke-opacity:1"
     id="text3350">
    <path
       d="m 213.63673,236.1106 -15.11718,58.16406 -8.71094,0 -12.22656,-48.28125 -11.95313,48.28125 -8.51562,0 -15.39063,-58.16406 7.92969,0 12.22656,48.35937 12.03125,-48.35937 7.85156,0 12.14844,48.82812 12.14844,-48.82812 7.57812,0 z"
       style=""
       id="path3355" />
    <path
       d="m 257.69923,272.47778 q 0,10.66407 -5.46875,16.83594 -5.46875,6.17188 -14.64843,6.17188 -9.25782,0 -14.72657,-6.17188 -5.42968,-6.17187 -5.42968,-16.83594 0,-10.66406 5.42968,-16.83593 5.46875,-6.21094 14.72657,-6.21094 9.17968,0 14.64843,6.21094 5.46875,6.17187 5.46875,16.83593 z m -7.57812,0 q 0,-8.47656 -3.32031,-12.57812 -3.32032,-4.14063 -9.21875,-4.14063 -5.97657,0 -9.29688,4.14063 -3.28125,4.10156 -3.28125,12.57812 0,8.20313 3.32031,12.46094 3.32032,4.21875 9.25782,4.21875 5.85937,0 9.17968,-4.17969 3.35938,-4.21875 3.35938,-12.5 z"
       style=""
       id="path3357" />
    <path
       d="m 276.52736,294.27466 -7.34375,0 0,-60.78125 7.34375,0 0,60.78125 z"
       style=""
       id="path3359" />
    <path
       d="m 314.3008,240.60278 -0.39063,0 q -1.21094,-0.35156 -3.16406,-0.70312 -1.95313,-0.39063 -3.4375,-0.39063 -4.72656,0 -6.875,2.10938 -2.10938,2.07031 -2.10938,7.53906 l 0,1.48438 13.24219,0 0,6.17187 -13.00781,0 0,37.46094 -7.34375,0 0,-37.46094 -4.96094,0 0,-6.17187 4.96094,0 0,-1.44532 q 0,-7.77343 3.86719,-11.91406 3.86718,-4.17969 11.17187,-4.17969 2.46094,0 4.41406,0.23438 1.99219,0.23437 3.63282,0.54687 l 0,6.71875 z"
       style=""
       id="path3361" />
  </g>
</svg>
