<?xml version="1.0" encoding="UTF-8" standalone="no"?>
<svg
   xmlns:dc="http://purl.org/dc/elements/1.1/"
   xmlns:cc="http://creativecommons.org/ns#"
   xmlns:rdf="http://www.w3.org/1999/02/22-rdf-syntax-ns#"
   xmlns:svg="http://www.w3.org/2000/svg"
   xmlns="http://www.w3.org/2000/svg"
   xmlns:sodipodi="http://sodipodi.sourceforge.net/DTD/sodipodi-0.dtd"
   xmlns:inkscape="http://www.inkscape.org/namespaces/inkscape"
   width="160mm"
   height="100mm"
   id="svg2"
   version="1.1"
   inkscape:version="0.91 r13725"
   sodipodi:docname="x.svg">
  <metadata
     id="metadata12">
    <rdf:RDF>
      <cc:Work
         rdf:about="">
        <dc:format>image/svg+xml</dc:format>
        <dc:type
           rdf:resource="http://purl.org/dc/dcmitype/StillImage" />
        <dc:title>CncControl SerialEmulatorSVG output</dc:title>
      </cc:Work>
    </rdf:RDF>
  </metadata>
  <defs
     id="defs10" />
  <sodipodi:namedview
     pagecolor="#ffffff"
     bordercolor="#666666"
     borderopacity="1"
     objecttolerance="10"
     gridtolerance="10"
     guidetolerance="10"
     inkscape:pageopacity="0"
     inkscape:pageshadow="2"
     inkscape:window-width="1600"
     inkscape:window-height="837"
     id="namedview8"
     showgrid="false"
     inkscape:document-units="mm"
     inkscape:zoom="0.66604444"
     inkscape:cx="177.16535"
     inkscape:cy="177.16535"
     inkscape:window-x="-8"
     inkscape:window-y="-8"
     inkscape:window-maximized="1"
     inkscape:current-layer="g3342" />
  <title
     id="title4">CncControl SerialEmulatorSVG output</title>
  <desc
     id="desc6">....</desc>
  <!--samples start /-->
  <!--line x1="10" y1="0" x2="20" y2="0" stroke="blue" stroke-width="0.5"/-->
  <!--rect x="5" y="5" width="10" height="10" fill="none" stroke="blue" stroke-width="0.5"/-->
  <!--rect x="10" y="10" rx="5" ry="5" width="30" height="30" fill="none" stroke="blue" stroke-width="0.5"/-->
  <!--polyline fill="none" stroke="blue" stroke-width="0.5" points="10,10 15,15 20,10 25,15"/-->
  <!--polygon fill="none" stroke="blue" stroke-width="0.5" points="10 10 15 15 20 10"/-->
  <!--circle cx="50" cy="40" r="20" fill="none" stroke="blue" stroke-width="0.5"/-->
  <!--ellipse cx="50" cy="50" rx="40" ry="30" fill="none" stroke="blue" stroke-width="0.5"/-->
  <!--path d="M 20.5 20.5 l 10 0 0 10 -10 0z " stroke="black" fill="none" stroke-width="0.5"/-->
  <!--path d="M10,20 C10,10 25,10 25,20 S40,30 40,20" stroke="black" fill="none" stroke-width="0.5"/-->
  <!--path d="M40,40 Q40,5 60,30 T100,30"  stroke="black" fill="none" stroke-width="0.5" /-->
  <!--path d="M 10 20 a 5 5 0 1 0 10 0 a 5 5 0 1 0 -10 0 " fill="none" stroke="blue" stroke-width="0.5"/-->
  <!--path d="M 5,5" stroke="black" fill="none" stroke-width="0.5"/-->
  <!--samples end /-->
  <g
     id="g3342"
     font-size="0.2"
     transform="matrix(3.5433071,0,0,3.5433071,20.584153,96.329911)"
     style="font-size:0.2px;stroke-width:0.05">
    <path
       id="path3344"
       d="m 4,-12 -4,0 0,9 4,0"
       inkscape:connector-curvature="0"
       style="fill:none;stroke:#000000" />
    <path
       id="path3346"
       d="m 0,-8 3,0"
       inkscape:connector-curvature="0"
       style="fill:none;stroke:#000000" />
    <path
       id="path3348"
       d="M 11.000014,-8.4390859 10.408999,-8.6825016 9.7870896,-8.8300786 9.1497207,-8.8781542 8.5127108,-8.8255354 7.8918694,-8.673528"
       inkscape:connector-curvature="0"
       style="fill:none;stroke:#000000" />
    <path
       id="path3350"
       d="m 7.8919028,-8.6735377 -0.2056066,0.090001 -0.1852508,0.1267137 -0.1584146,0.1589938 -0.1260366,0.1857121 -0.08925,0.2059337 -0.049341,0.2189514 -0.00771,0.2243097 0.034199,0.2218212 0.074908,0.2115728 0.1129954,0.1939233 0.1471306,0.1694899 0.1761186,0.1391274 0.1989459,0.1038979"
       inkscape:connector-curvature="0"
       style="fill:none;stroke:#000000" />
    <path
       id="path3352"
       d="m 7.814575,-6.42309 2.37085,0.968"
       inkscape:connector-curvature="0"
       style="fill:none;stroke:#000000" />
    <path
       id="path3354"
       d="m 10.108101,-3.2046542 0.205605,-0.090002 0.185249,-0.1267141 0.158412,-0.158994 0.126035,-0.1857119 0.08925,-0.2059332 0.04934,-0.2189504 0.0077,-0.2243083 -0.0342,-0.2218195 -0.07491,-0.2115708 -0.112997,-0.1939209 -0.147131,-0.1694873 -0.176119,-0.1391246 -0.198946,-0.103895"
       inkscape:connector-curvature="0"
       style="fill:none;stroke:#000000" />
    <path
       id="path3356"
       d="m 6.9999946,-3.4390872 0.5910155,0.2434128 0.621909,0.1475746 0.6373681,0.048074 0.6370088,-0.05262 0.62084,-0.1520074"
       inkscape:connector-curvature="0"
       style="fill:none;stroke:#000000" />
    <path
       id="path3358"
       d="m 24.750029,-8.4390859 -0.591015,-0.2434157 -0.62191,-0.147577 -0.637369,-0.048076 -0.63701,0.052619 -0.620841,0.1520074"
       inkscape:connector-curvature="0"
       style="fill:none;stroke:#000000" />
    <path
       id="path3360"
       d="m 21.641917,-8.6735377 -0.205606,0.090001 -0.185251,0.1267137 -0.158415,0.1589938 -0.126036,0.1857121 -0.08925,0.2059337 -0.04934,0.2189514 -0.0077,0.2243097 0.0342,0.2218212 0.07491,0.2115728 0.112995,0.1939233 0.147131,0.1694899 0.176118,0.1391274 0.198946,0.1038979"
       inkscape:connector-curvature="0"
       style="fill:none;stroke:#000000" />
    <path
       id="path3362"
       d="m 21.564589,-6.42309 2.37085,0.968"
       inkscape:connector-curvature="0"
       style="fill:none;stroke:#000000" />
    <path
       id="path3364"
       d="m 23.858116,-3.2046542 0.205604,-0.090002 0.185249,-0.1267141 0.158413,-0.158994 0.126034,-0.1857119 0.08925,-0.2059332 0.04934,-0.2189504 0.0077,-0.2243083 -0.0342,-0.2218195 -0.07491,-0.2115708 -0.112996,-0.1939209 -0.147132,-0.1694873 -0.176119,-0.1391246 -0.198946,-0.103895"
       inkscape:connector-curvature="0"
       style="fill:none;stroke:#000000" />
    <path
       id="path3366"
       d="m 20.750009,-3.4390872 0.591016,0.2434128 0.621909,0.1475746 0.637368,0.048074 0.637008,-0.05262 0.620841,-0.1520074"
       inkscape:connector-curvature="0"
       style="fill:none;stroke:#000000" />
    <path
       id="path3368"
       d="m 27.750029,-9 3,0"
       inkscape:connector-curvature="0"
       style="fill:none;stroke:#000000" />
    <path
       id="path3370"
       d="m 28.750029,-12 0,9"
       inkscape:connector-curvature="0"
       style="fill:none;stroke:#000000" />
    <path
       id="path3372"
       d="m 33.750029,-6 4,0 0,-1 -0.03843,-0.3901806 -0.113811,-0.3751863 -0.18482,-0.3457736 L 37.164242,-8.4142136 36.861169,-8.6629392 36.515396,-8.8477591 36.14021,-8.9615706 35.750029,-9 35.359848,-8.961571 34.984662,-8.8477595 34.638888,-8.6629396 34.335815,-8.414214 34.08709,-8.1111409 33.90227,-7.7653673 33.788458,-7.390181 33.750029,-7 l 0,2.5 0.02882,0.2926355 0.08536,0.2813897 0.138614,0.2593302 0.186545,0.2273048 0.227305,0.1865442 0.25933,0.1386149 0.281389,0.085359 L 35.250029,-3 l 2.5,0"
       inkscape:connector-curvature="0"
       style="fill:none;stroke:#000000" />
    <path
       id="path3374"
       d="m 40.750029,-12 0,9"
       inkscape:connector-curvature="0"
       style="fill:none;stroke:#000000" />
    <path
       id="path3376"
       d="m 44.750029,-3 0,-4.5 -0.02882,-0.2926355 -0.08536,-0.2813897 -0.138615,-0.2593302 -0.186544,-0.2273048 -0.227305,-0.1865442 -0.25933,-0.1386149 -0.28139,-0.085359 L 43.250029,-9 l -2.5,0"
       inkscape:connector-curvature="0"
       style="fill:none;stroke:#000000" />
    <path
       id="path3378"
       d="m 47.750029,-9 3,0"
       inkscape:connector-curvature="0"
       style="fill:none;stroke:#000000" />
    <path
       id="path3380"
       d="m 48.750029,-12 0,9"
       inkscape:connector-curvature="0"
       style="fill:none;stroke:#000000" />
    <path
       id="path3382"
       d="m 64.500029,-6 -2.5,0 -0.292636,0.028822 -0.281389,0.085359 -0.25933,0.1386149 -0.227305,0.1865442 -0.186545,0.2273049 -0.138614,0.2593302 -0.08536,0.2813896 -0.02882,0.2926355 0.02882,0.2926355 0.08536,0.2813897 0.138614,0.2593302 0.186545,0.2273048 0.227305,0.1865442 0.25933,0.1386149 0.281389,0.085359 L 62.000029,-3 l 2.5,0 0,-4.5 -0.02882,-0.2926355 -0.08536,-0.2813897 -0.138615,-0.2593302 -0.186544,-0.2273048 -0.227305,-0.1865442 -0.25933,-0.1386149 -0.28139,-0.085359 L 63.000029,-9 l -2,0"
       inkscape:connector-curvature="0"
       style="fill:none;stroke:#000000" />
    <path
       id="path3384"
       d="m 71.500029,-3 0,-4.5 -0.02882,-0.2926355 -0.08536,-0.2813897 -0.138615,-0.2593302 -0.186544,-0.2273048 -0.227305,-0.1865442 -0.25933,-0.1386149 -0.28139,-0.085359 L 70.000029,-9 l -2.5,0 0,6"
       inkscape:connector-curvature="0"
       style="fill:none;stroke:#000000" />
    <path
       id="path3386"
       d="m 81.250029,0 0.5,0 0.292635,-0.02882208 0.28139,-0.08535862 0.25933,-0.13861488 0.227305,-0.18654425 0.186544,-0.22730482 0.138615,-0.2593302 0.08536,-0.28138965 0.02882,-0.2926355 0,-7.5"
       inkscape:connector-curvature="0"
       style="fill:none;stroke:#000000" />
    <path
       id="path3388"
       d="m 83.250029,-11.5 0,-0.5"
       inkscape:connector-curvature="0"
       style="fill:none;stroke:#000000" />
    <path
       id="path3390"
       d="m 86.250029,-6 4,0 0,-1 -0.03843,-0.3901806 -0.113811,-0.3751863 -0.18482,-0.3457736 L 89.664242,-8.4142136 89.361169,-8.6629392 89.015396,-8.8477591 88.64021,-8.9615706 88.250029,-9 87.859848,-8.961571 87.484662,-8.8477595 87.138888,-8.6629396 86.835815,-8.414214 86.58709,-8.1111409 86.40227,-7.7653673 86.288458,-7.390181 86.250029,-7 l 0,2.5 0.02882,0.2926355 0.08536,0.2813897 0.138614,0.2593302 0.186545,0.2273048 0.227305,0.1865442 0.25933,0.1386149 0.281389,0.085359 L 87.750029,-3 l 2.5,0"
       inkscape:connector-curvature="0"
       style="fill:none;stroke:#000000" />
    <path
       id="path3392"
       d="m 97.250029,-9 -2.5,0 -0.292636,0.028822 -0.281389,0.085359 -0.25933,0.1386149 -0.227305,0.1865442 -0.186545,0.2273048 -0.138614,0.2593302 -0.08536,0.2813897 -0.02882,0.2926355 0,3 0.02882,0.2926355 0.08536,0.2813897 0.138614,0.2593302 0.186545,0.2273048 0.227305,0.1865442 0.25933,0.1386149 0.281389,0.085359 L 94.750029,-3 l 2.5,0 0,-9"
       inkscape:connector-curvature="0"
       style="fill:none;stroke:#000000" />
    <path
       id="path3394"
       d="m 100.25003,-6 4,0 0,-1 -0.0384,-0.3901806 -0.11381,-0.3751863 -0.18482,-0.3457736 -0.24873,-0.3030731 -0.30307,-0.2487256 -0.34577,-0.1848199 -0.37519,-0.1138115 L 102.25003,-9 l -0.39018,0.038429 -0.37519,0.1138115 -0.34577,0.1848199 -0.30307,0.2487256 -0.24873,0.3030731 -0.18482,0.3457736 -0.11381,0.3751863 -0.0384,0.390181 0,2.5 0.0288,0.2926355 0.0854,0.2813897 0.13861,0.2593302 0.18655,0.2273048 0.2273,0.1865442 0.25933,0.1386149 0.28139,0.085359 0.29264,0.028822 2.5,0"
       inkscape:connector-curvature="0"
       style="fill:none;stroke:#000000" />
    <path
       id="path3396"
       d="m 110.25003,-8 -0.0192,-0.1950903 -0.0569,-0.1875931 -0.0924,-0.1728868 -0.12436,-0.1515366 -0.15154,-0.1243628 -0.17289,-0.09241 -0.18759,-0.056906 L 109.25003,-9 l -2,0 0,6"
       inkscape:connector-curvature="0"
       style="fill:none;stroke:#000000" />
    <path
       id="path3398"
       d="m 124.00003,-12 -4,0 0,9 4,0"
       inkscape:connector-curvature="0"
       style="fill:none;stroke:#000000" />
    <path
       id="path3400"
       d="m 120.00003,-8 3,0"
       inkscape:connector-curvature="0"
       style="fill:none;stroke:#000000" />
    <path
       id="path3402"
       d="m 130.00003,-9 -1.5,0 -0.29264,0.028822 -0.28139,0.085359 -0.25933,0.1386149 -0.2273,0.1865442 -0.18655,0.2273048 -0.13861,0.2593302 -0.0854,0.2813897 -0.0288,0.2926355 0,3 0.0288,0.2926355 0.0854,0.2813897 0.13861,0.2593302 0.18655,0.2273048 0.2273,0.1865442 0.25933,0.1386149 0.28139,0.085359 0.29264,0.028822 1.5,0"
       inkscape:connector-curvature="0"
       style="fill:none;stroke:#000000" />
    <path
       id="path3404"
       d="m 133.00003,-12 0,9"
       inkscape:connector-curvature="0"
       style="fill:none;stroke:#000000" />
    <path
       id="path3406"
       d="m 133.00003,-6.5 4,-2.5"
       inkscape:connector-curvature="0"
       style="fill:none;stroke:#000000" />
    <path
       id="path3408"
       d="M 134.32095,-7.32555 137.00003,-3"
       inkscape:connector-curvature="0"
       style="fill:none;stroke:#000000" />
    <path
       id="path3410"
       d="m 140.00003,-6 4,0 0,-1 -0.0384,-0.3901806 -0.11381,-0.3751863 -0.18482,-0.3457736 -0.24873,-0.3030731 -0.30307,-0.2487256 -0.34577,-0.1848199 -0.37519,-0.1138115 L 142.00003,-9 l -0.39018,0.038429 -0.37519,0.1138115 -0.34577,0.1848199 -0.30307,0.2487256 -0.24873,0.3030731 -0.18482,0.3457736 -0.11381,0.3751863 -0.0384,0.390181 0,2.5 0.0288,0.2926355 0.0854,0.2813897 0.13861,0.2593302 0.18655,0.2273048 0.2273,0.1865442 0.25933,0.1386149 0.28139,0.085359 0.29264,0.028822 2.5,0"
       inkscape:connector-curvature="0"
       style="fill:none;stroke:#000000" />
    <path
       id="path3412"
       d="m 19.614437,9.1864406 -4,0 0,9.0000004 4,0"
       inkscape:connector-curvature="0"
       style="fill:none;stroke:#000000" />
    <path
       id="path3414"
       d="m 15.614437,13.186441 3,0"
       inkscape:connector-curvature="0"
       style="fill:none;stroke:#000000" />
    <path
       id="path3416"
       d="m 22.614437,18.186441 0,-6"
       inkscape:connector-curvature="0"
       style="fill:none;stroke:#000000" />
    <path
       id="path3418"
       d="m 22.614437,9.6864406 0,-0.5"
       inkscape:connector-curvature="0"
       style="fill:none;stroke:#000000" />
    <path
       id="path3420"
       d="m 29.614437,18.186441 0,-4.5 -0.0288,-0.292636 -0.0854,-0.28139 -0.13862,-0.25933 -0.18654,-0.227305 -0.22731,-0.186544 -0.25933,-0.138615 -0.28139,-0.08536 -0.29261,-0.02882 -2.5,0 0,6"
       inkscape:connector-curvature="0"
       style="fill:none;stroke:#000000" />
    <path
       id="path3422"
       d="m 32.614437,12.186441 3,0"
       inkscape:connector-curvature="0"
       style="fill:none;stroke:#000000" />
    <path
       id="path3424"
       d="m 33.614437,9.1864406 0,9.0000004"
       inkscape:connector-curvature="0"
       style="fill:none;stroke:#000000" />
    <path
       id="path3426"
       d="m 41.614437,13.186441 -0.0192,-0.195091 -0.0569,-0.187593 -0.0924,-0.172887 -0.12436,-0.151536 -0.15154,-0.124363 -0.17289,-0.09241 -0.18759,-0.05691 -0.19512,-0.01921 -2,0 0,6"
       inkscape:connector-curvature="0"
       style="fill:none;stroke:#000000" />
    <path
       id="path3428"
       d="m 48.614437,15.186441 -2.5,0 -0.29264,0.02882 -0.28139,0.08536 -0.25933,0.138614 -0.2273,0.186545 -0.18655,0.227305 -0.13861,0.25933 -0.0854,0.281389 -0.0288,0.292636 0.0288,0.292635 0.0854,0.28139 0.13861,0.25933 0.18655,0.227305 0.2273,0.186544 0.25933,0.138615 0.28139,0.08536 0.29264,0.02882 2.5,0 0,-4.5 -0.0288,-0.292635 -0.0854,-0.28139 -0.13862,-0.25933 -0.18654,-0.227305 -0.22731,-0.186544 -0.25933,-0.138615 -0.28139,-0.08536 -0.29261,-0.02882 -2,0"
       inkscape:connector-curvature="0"
       style="fill:none;stroke:#000000" />
    <path
       id="path3430"
       d="m 54.614437,12.186441 -1.5,0 -0.29264,0.02882 -0.28139,0.08536 -0.25933,0.138614 -0.2273,0.186545 -0.18655,0.227304 -0.13861,0.259331 -0.0854,0.281389 -0.0288,0.292636 0,3 0.0288,0.292635 0.0854,0.28139 0.13861,0.25933 0.18655,0.227305 0.2273,0.186544 0.25933,0.138615 0.28139,0.08536 0.29264,0.02882 1.5,0"
       inkscape:connector-curvature="0"
       style="fill:none;stroke:#000000" />
    <path
       id="path3432"
       d="m 57.614437,9.1864406 0,9.0000004"
       inkscape:connector-curvature="0"
       style="fill:none;stroke:#000000" />
    <path
       id="path3434"
       d="m 61.614437,18.186441 0,-4.5 -0.0288,-0.292636 -0.0854,-0.28139 -0.13862,-0.25933 -0.18654,-0.227305 -0.22731,-0.186544 -0.25933,-0.138615 -0.28139,-0.08536 -0.29261,-0.02882 -2.5,0"
       inkscape:connector-curvature="0"
       style="fill:none;stroke:#000000" />
    <path
       id="path3436"
       d="m 64.614437,12.186441 3,0"
       inkscape:connector-curvature="0"
       style="fill:none;stroke:#000000" />
    <path
       id="path3438"
       d="m 65.614437,9.1864406 0,9.0000004"
       inkscape:connector-curvature="0"
       style="fill:none;stroke:#000000" />
    <path
       id="path3440"
       d="m 77.364437,12.186441 2,6 2,-6"
       inkscape:connector-curvature="0"
       style="fill:none;stroke:#000000" />
    <path
       id="path3442"
       d="m 84.364437,15.186441 4,0 0,-1 -0.0384,-0.390181 -0.11381,-0.375186 -0.18482,-0.345774 -0.24873,-0.303073 -0.30307,-0.248726 -0.34577,-0.18482 -0.37519,-0.113811 -0.39021,-0.03843 -0.39018,0.03843 -0.37519,0.113811 -0.34577,0.18482 -0.30307,0.248726 -0.24873,0.303073 -0.18482,0.345773 -0.11381,0.375187 -0.0384,0.390181 0,2.5 0.0288,0.292635 0.0854,0.28139 0.13861,0.25933 0.18655,0.227305 0.2273,0.186544 0.25933,0.138615 0.28139,0.08536 0.29264,0.02882 2.5,0"
       inkscape:connector-curvature="0"
       style="fill:none;stroke:#000000" />
    <path
       id="path3444"
       d="m 94.364437,13.186441 -0.0192,-0.195091 -0.0569,-0.187593 -0.0924,-0.172887 -0.12436,-0.151536 -0.15154,-0.124363 -0.17289,-0.09241 -0.18759,-0.05691 -0.19512,-0.01921 -2,0 0,6"
       inkscape:connector-curvature="0"
       style="fill:none;stroke:#000000" />
    <path
       id="path3446"
       d="m 100.36444,13.186441 -0.0192,-0.195091 -0.0569,-0.187593 -0.0924,-0.172887 -0.12436,-0.151536 -0.151543,-0.124363 -0.17289,-0.09241 -0.18759,-0.05691 -0.19512,-0.01921 -2,0 0,6"
       inkscape:connector-curvature="0"
       style="fill:none;stroke:#000000" />
    <path
       id="path3448"
       d="m 103.36444,15.186441 4,0 0,-1 -0.0384,-0.390181 -0.11381,-0.375186 -0.18482,-0.345774 -0.24873,-0.303073 -0.30307,-0.248726 -0.34577,-0.18482 -0.37519,-0.113811 -0.39021,-0.03843 -0.39018,0.03843 -0.37519,0.113811 -0.34577,0.18482 -0.30307,0.248726 -0.24873,0.303073 -0.18482,0.345773 -0.11381,0.375187 -0.0384,0.390181 0,2.5 0.0288,0.292635 0.0854,0.28139 0.13861,0.25933 0.18655,0.227305 0.2273,0.186544 0.25933,0.138615 0.28139,0.08536 0.29264,0.02882 2.5,0"
       inkscape:connector-curvature="0"
       style="fill:none;stroke:#000000" />
    <path
       id="path3450"
       d="m 113.36444,12.186441 -1.5,0 -0.29264,0.02882 -0.28139,0.08536 -0.25933,0.138614 -0.2273,0.186545 -0.18655,0.227304 -0.13861,0.259331 -0.0854,0.281389 -0.0288,0.292636 0,3 0.0288,0.292635 0.0854,0.28139 0.13861,0.25933 0.18655,0.227305 0.2273,0.186544 0.25933,0.138615 0.28139,0.08536 0.29264,0.02882 1.5,0"
       inkscape:connector-curvature="0"
       style="fill:none;stroke:#000000" />
    <path
       id="path3452"
       d="m 116.36444,9.1864406 0,9.0000004"
       inkscape:connector-curvature="0"
       style="fill:none;stroke:#000000" />
    <path
       id="path3454"
       d="m 116.36444,14.686441 4,-2.5"
       inkscape:connector-curvature="0"
       style="fill:none;stroke:#000000" />
    <path
       id="path3456"
       d="m 117.68536,13.860891 2.67908,4.32555"
       inkscape:connector-curvature="0"
       style="fill:none;stroke:#000000" />
    <path
       id="path3458"
       d="m 123.36444,15.186441 4,0 0,-1 -0.0384,-0.390181 -0.11381,-0.375186 -0.18482,-0.345774 -0.24873,-0.303073 -0.30307,-0.248726 -0.34577,-0.18482 -0.37519,-0.113811 -0.39021,-0.03843 -0.39018,0.03843 -0.37519,0.113811 -0.34577,0.18482 -0.30307,0.248726 -0.24873,0.303073 -0.18482,0.345773 -0.11381,0.375187 -0.0384,0.390181 0,2.5 0.0288,0.292635 0.0854,0.28139 0.13861,0.25933 0.18655,0.227305 0.2273,0.186544 0.25933,0.138615 0.28139,0.08536 0.29264,0.02882 2.5,0"
       inkscape:connector-curvature="0"
       style="fill:none;stroke:#000000" />
  </g>
</svg>


