<?xml version="1.0" encoding="ISO-8859-1" standalone="no"?>
<!DOCTYPE svg PUBLIC "-//W3C//DTD SVG 20010904//EN"
"http://www.w3.org/TR/2001/REC-SVG-20010904/DTD/svg10.dtd">
<svg xmlns="http://www.w3.org/2000/svg" width="53.845mm" height="25.4235mm" xmlns:xlink="http://www.w3.org/1999/xlink">
<title>CncControl SerialEmulatorSVG output</title>
<desc>Reconstructed move commands</desc>
<defs>
<script type="text/javascript">
<![CDATA[
]]>
</script>
<symbol id="Path_1_Crossing_1">
	<path class="CncPath_1" d="M 37.9752 50.6602 l 0 0 -5.52756 -10.2579" transform="scale(1,1) translate(0,0)" style="stroke:black; fill:none; stroke-width:0.5px; "/>
</symbol>
<symbol id="Path_2_Crossing_1">
	<path class="CncPath_2" d="M 32.3439 16.6257 l 0 0 5.52756 10.2579" transform="scale(1,1) translate(0,0)" style="stroke:black; fill:none; stroke-width:0.5px; "/>
</symbol>
<symbol id="Path_3_Crossing_1">
	<path class="CncPath_3" d="M 34.2798 43.8296 l 0 0 0.797244 1.32874 0.850394 1.22244 0.903543 1.11614 0.956693 0.903543 0.956693 0.690945 0.903543 0.478346 0.797244 0.212598 0.690945 -0.0531496 4.30512 -1.27559 0.584646 -0.372047 0.425197 -0.637795 0.212598 -0.903543 0 -1.11614 -0.212598 -1.27559 -0.372047 -1.43504 -0.584646 -1.48819 -0.744094 -1.54134 -0.903543 -1.48819 -0.956693 -1.38189 -1.06299 -1.22244 -1.06299 -1.00984 -1.06299 -0.797244 -1.00984 -0.531496 -0.903543 -0.212598 -0.744094 0.0531496 -3.93307 1.16929 -0.744094 0.0531496 -0.903543 -0.212598 -1.00984 -0.531496 -1.06299 -0.797244 -1.06299 -1.00984 -1.06299 -1.22244 -0.956693 -1.38189 -0.903543 -1.48819 -0.744094 -1.54134 -0.584646 -1.48819 -0.372047 -1.43504 -0.212598 -1.27559 0 -1.11614 0.212598 -0.903543 0.425197 -0.637795 0.584646 -0.372047 4.30512 -1.27559 0.690945 -0.0531496 0.797244 0.212598 0.903543 0.478346 0.956693 0.690945 0.956693 0.903543 0.903543 1.11614 0.850394 1.22244 0.797244 1.32874" transform="scale(1,1) translate(0,0)" style="stroke:black; fill:none; stroke-width:0.5px; "/>
</symbol>
<symbol id="Path_4_Crossing_1">
	<path class="CncPath_4" d="M 44.9573 24.7518 l 0 0 7.86614 -2.33858" transform="scale(1,1) translate(0,0)" style="stroke:black; fill:none; stroke-width:0.5px; "/>
</symbol>
<symbol id="Path_5_Crossing_1">
	<path class="CncPath_5" d="M 42.833 17.4503 l 0 0 11.1083 20.5157 0.744094 1.27559 0.850394 1.22244 0.903543 1.06299 0.956693 0.903543 0.903543 0.690945 0.850394 0.478346 0.797244 0.212598 0.690945 0 0.531496 -0.265748 0.372047 -0.531496" transform="scale(1,1) translate(0,0)" style="stroke:black; fill:none; stroke-width:0.5px; "/>
</symbol>
<symbol id="Path_6_Crossing_1">
	<path class="CncPath_6" d="M 63.6229 39.002 l 0 0 -1.96654 4.03937" transform="scale(1,1) translate(0,0)" style="stroke:black; fill:none; stroke-width:0.5px; "/>
</symbol>
<symbol id="Path_7_Crossing_1">
	<path class="CncPath_7" d="M 66.9977 30.0518 l 0 0 9.40748 -2.81693 -1.11614 -1.91339 -1.27559 -1.80709 -1.32874 -1.59449 -1.38189 -1.38189 -1.38189 -1.06299 -1.27559 -0.744094 -1.16929 -0.372047 -1.06299 -0.0531496 -0.850394 0.318898 -0.637795 0.690945 -0.372047 1.00984 -0.159449 1.32874 0.106299 1.54134 0.372047 1.75394 0.637795 1.91339 0.850394 1.96654 1.00984 1.96654 1.16929 1.86024 1.27559 1.70079 1.38189 1.48819 1.38189 1.27559 1.32874 0.956693 1.27559 0.637795 1.11614 0.265748 0.956693 -0.106299 0.744094 -0.478346 0.531496 -0.850394" transform="scale(1,1) translate(0,0)" style="stroke:black; fill:none; stroke-width:0.5px; "/>
</symbol>
<symbol id="Path_8_Crossing_1">
	<path class="CncPath_8" d="M 80.1201 34.0562 l 0 0 -1.48819 3.50787" transform="scale(1,1) translate(0,0)" style="stroke:black; fill:none; stroke-width:0.5px; "/>
</symbol>
<symbol id="Path_9_Crossing_1">
	<path class="CncPath_9" d="M 87.4669 35.8229 l 0 0 6.27165 -1.86024" transform="scale(1,1) translate(0,0)" style="stroke:black; fill:none; stroke-width:0.5px; "/>
</symbol>
<symbol id="Path_10_Crossing_1">
	<path class="CncPath_10" d="M 76.3806 15.3313 l 0 0 7.86614 -2.33858" transform="scale(1,1) translate(0,0)" style="stroke:black; fill:none; stroke-width:0.5px; "/>
</symbol>
<symbol id="Path_11_Crossing_1">
	<path class="CncPath_11" d="M 83.6833 5.20364 l 0 0 -5.20866 -1.91339" transform="scale(1,1) translate(0,0)" style="stroke:black; fill:none; stroke-width:0.5px; "/>
</symbol>
<symbol id="Path_12_Crossing_1">
	<path class="CncPath_12" d="M 78.4786 3.31202 l 0 0 -0.797244 -0.159449 -0.637795 0.106299 -0.531496 0.318898 -0.372047 0.584646 -0.159449 0.797244 0 1.00984 0.159449 1.11614 0.372047 1.27559 0.531496 1.32874 0.637795 1.32874 12.9154 23.9173" transform="scale(1,1) translate(0,0)" style="stroke:black; fill:none; stroke-width:0.5px; "/>
</symbol>
<symbol id="Path_13_Crossing_1">
	<path class="CncPath_13" d="M 99.458 16.4745 l 0 0 -0.372047 0.531496 -0.212598 0.744094 -0.0531496 0.903543 0.106299 1.06299 0.265748 1.22244 0.425197 1.27559 0.584646 1.32874 0.744094 1.27559 0.797244 1.22244 0.903543 1.11614 0.903543 0.956693 0.903543 0.797244 0.903543 0.584646 0.850394 0.318898 0.744094 0.106299" transform="scale(1,1) translate(0,0)" style="stroke:black; fill:none; stroke-width:0.5px; "/>
</symbol>
<symbol id="Path_14_Crossing_1">
	<path class="CncPath_14" d="M 106.474 15.2657 l 0 0 -2.71063 -0.318898 -2.33858 0.425197 -1.96654 1.11614" transform="scale(1,1) translate(0,0)" style="stroke:black; fill:none; stroke-width:0.5px; "/>
</symbol>
<symbol id="Path_15_Crossing_1">
	<path class="CncPath_15" d="M 106.931 29.9462 l 0 0 1.43504 -0.372047 1.11614 -0.903543 0.797244 -1.43504 0.425197 -1.91339 0 -2.28543" transform="scale(1,1) translate(0,0)" style="stroke:black; fill:none; stroke-width:0.5px; "/>
</symbol>
<symbol id="Path_16_Crossing_1">
	<path class="CncPath_16" d="M 116.534 27.1089 l 0 0 -3.13583 0.956693 -8.50394 -15.6791 -0.797244 -1.32874 -0.850394 -1.22244 -0.903543 -1.11614 -0.956693 -0.903543 -0.956693 -0.690945 -0.903543 -0.478346 -0.797244 -0.212598 -0.690945 0.0531496 -1.16929 0.637795 -0.850394 1.11614 -0.531496 1.54134 -0.159449 1.91339" transform="scale(1,1) translate(0,0)" style="stroke:black; fill:none; stroke-width:0.5px; "/>
</symbol>
<symbol id="Path_17_Crossing_1">
	<path class="CncPath_17" d="M 110.946 4.96879 l 0 0 2.33858 -0.690945 11.1083 20.5157" transform="scale(1,1) translate(0,0)" style="stroke:black; fill:none; stroke-width:0.5px; "/>
</symbol>
<symbol id="Path_18_Crossing_1">
	<path class="CncPath_18" d="M 122.033 25.4603 l 0 0 4.73031 -1.43504" transform="scale(1,1) translate(0,0)" style="stroke:black; fill:none; stroke-width:0.5px; "/>
</symbol>
<symbol id="Path_19_Crossing_1">
	<path class="CncPath_19" d="M 134.602 21.6921 l 0 0 -4.73031 1.43504" transform="scale(1,1) translate(0,0)" style="stroke:black; fill:none; stroke-width:0.5px; "/>
</symbol>
<symbol id="Path_20_Crossing_1">
	<path class="CncPath_20" d="M 115.788 5.99312 l 0 0 0.106299 -1.11614 0.318898 -0.903543 0.531496 -0.637795 0.690945 -0.318898 0.850394 0 1.00984 0.318898 1.06299 0.637795 1.16929 0.903543 1.16929 1.11614 1.11614 1.32874 1.06299 1.48819 0.956693 1.59449 6.48425 11.9587" transform="scale(1,1) translate(0,0)" style="stroke:black; fill:none; stroke-width:0.5px; "/>
</symbol>
<symbol id="Path_21_Crossing_1">
	<path class="CncPath_21" d="M 115.835 8.94221 l 0 0 -0.0531496 -2.92323" transform="scale(1,1) translate(0,0)" style="stroke:black; fill:none; stroke-width:0.5px; "/>
</symbol>
</defs>
<use xlink:href="#Path_1_Crossing_1"/>
<use xlink:href="#Path_2_Crossing_1"/>
<use xlink:href="#Path_3_Crossing_1"/>
<use xlink:href="#Path_4_Crossing_1"/>
<use xlink:href="#Path_5_Crossing_1"/>
<use xlink:href="#Path_6_Crossing_1"/>
<use xlink:href="#Path_7_Crossing_1"/>
<use xlink:href="#Path_8_Crossing_1"/>
<use xlink:href="#Path_9_Crossing_1"/>
<use xlink:href="#Path_10_Crossing_1"/>
<use xlink:href="#Path_11_Crossing_1"/>
<use xlink:href="#Path_12_Crossing_1"/>
<use xlink:href="#Path_13_Crossing_1"/>
<use xlink:href="#Path_14_Crossing_1"/>
<use xlink:href="#Path_15_Crossing_1"/>
<use xlink:href="#Path_16_Crossing_1"/>
<use xlink:href="#Path_17_Crossing_1"/>
<use xlink:href="#Path_18_Crossing_1"/>
<use xlink:href="#Path_19_Crossing_1"/>
<use xlink:href="#Path_20_Crossing_1"/>
<use xlink:href="#Path_21_Crossing_1"/>
</svg>
