<?xml version="1.0" encoding="ISO-8859-1" standalone="no"?>
<!DOCTYPE svg PUBLIC "-//W3C//DTD SVG 20010904//EN"
"http://www.w3.org/TR/2001/REC-SVG-20010904/DTD/svg10.dtd">
<svg xmlns="http://www.w3.org/2000/svg" width="200mm" height="200mm" xmlns:xlink="http://www.w3.org/1999/xlink">
<title>CncControl SerialEmulatorSVG output</title>
<desc>....</desc>
<g transform="translate(154.331,154.331) ">
	<path d=" M -134.646,0.000  a 134.646,134.646 0 0 1 269.291,0 a 134.646,134.646 0 0 1 -269.291,0  l 14.173,0.000  a 120.472,120.472 0 0 1 240.945,0 a 120.472,120.472 0 0 1 -240.945,0  l 14.173,0.000  a 106.299,106.299 0 0 1 212.598,0 a 106.299,106.299 0 0 1 -212.598,0  l 14.173,0.000  a 92.126,92.126 0 0 1 184.252,0 a 92.126,92.126 0 0 1 -184.252,0  l 14.173,0.000  a 77.953,77.953 0 0 1 155.906,0 a 77.953,77.953 0 0 1 -155.906,0  l 14.173,0.000  a 63.780,63.780 0 0 1 127.559,0 a 63.780,63.780 0 0 1 -127.559,0  l 14.173,0.000  a 49.606,49.606 0 0 1 99.213,0 a 49.606,49.606 0 0 1 -99.213,0  l 14.173,0.000  a 35.433,35.433 0 0 1 70.866,0 a 35.433,35.433 0 0 1 -70.866,0 " stroke="black" fill="none" stroke-width="1.0"/>
</g>

</svg>







