<?xml version="1.0" encoding="UTF-8" standalone="no"?>
<svg
   xmlns:dc="http://purl.org/dc/elements/1.1/"
   xmlns:cc="http://creativecommons.org/ns#"
   xmlns:rdf="http://www.w3.org/1999/02/22-rdf-syntax-ns#"
   xmlns:svg="http://www.w3.org/2000/svg"
   xmlns="http://www.w3.org/2000/svg"
   xmlns:sodipodi="http://sodipodi.sourceforge.net/DTD/sodipodi-0.dtd"
   xmlns:inkscape="http://www.inkscape.org/namespaces/inkscape"
   width="120.2mm"
   height="70.199997mm"
   id="svg2"
   version="1.1"
   inkscape:version="0.91 r13725"
   sodipodi:docname="bsm.svg">
  <metadata
     id="metadata12">
    <rdf:RDF>
      <cc:Work
         rdf:about="">
        <dc:format>image/svg+xml</dc:format>
        <dc:type
           rdf:resource="http://purl.org/dc/dcmitype/StillImage" />
        <dc:title>CncControl SerialEmulatorSVG output</dc:title>
      </cc:Work>
    </rdf:RDF>
  </metadata>
  <defs
     id="defs10" />
  <sodipodi:namedview
     pagecolor="#ffffff"
     bordercolor="#666666"
     borderopacity="1"
     objecttolerance="10"
     gridtolerance="10"
     guidetolerance="10"
     inkscape:pageopacity="0"
     inkscape:pageshadow="2"
     inkscape:window-width="1600"
     inkscape:window-height="837"
     id="namedview8"
     showgrid="false"
     inkscape:zoom="1.3320889"
     inkscape:cx="65.901806"
     inkscape:cy="133.35414"
     inkscape:window-x="-8"
     inkscape:window-y="-8"
     inkscape:window-maximized="1"
     inkscape:current-layer="svg2" />
  <title
     id="title4">CncControl SerialEmulatorSVG output</title>
  <desc
     id="desc6">....</desc>
 
<CncParameterBlock
 depth="z-3.0"
 reverse="no"
 correction="none"/>

   <g
     id="g3342"
     font-size="0.2"
     transform="matrix(6.5225683,0,0,7.0233621,29.797576,235.44892)"
     style="font-size:0.2px;stroke-width:0.05">
    <path
       id="path3344"
       d="M 0,-9 2,0 4,-6 6,0 8,-9"
       inkscape:connector-curvature="0"
       style="fill:none;stroke:#000000" />
    <path
       id="path3346"
       d="m 11,0 0,-0.5"
       inkscape:connector-curvature="0"
       style="fill:none;stroke:#000000" />
    <path
       id="path3348"
       d="M 25.749976,-2.6 25.703861,-3.0682168 25.567287,-3.5184402 25.345503,-3.9333686 25.047032,-4.2970563 24.683345,-4.5955271 24.268416,-4.8173109 23.818193,-4.9538847 23.349976,-5 20.75,-5"
       inkscape:connector-curvature="0"
       style="fill:none;stroke:#000000" />
    <path
       id="path3350"
       d="m 25.75,-2.6 0,0.2"
       inkscape:connector-curvature="0"
       style="fill:none;stroke:#000000" />
    <path
       id="path3352"
       d="m 23.25,-5 0.390181,-0.038429 0.375186,-0.1138115 0.345773,-0.1848199 0.303074,-0.2487256 0.248725,-0.3030731 0.18482,-0.3457736 L 25.211571,-6.609819 25.25,-7 25.211571,-7.3901806 25.097759,-7.7653669 24.912939,-8.1111405 24.664214,-8.4142136 24.36114,-8.6629392 24.015367,-8.8477591 23.640181,-8.9615706 23.25,-9 l -2.5,0 0,9 2.599976,0 0.468217,-0.04611533 0.450223,-0.13657379 0.414929,-0.22178381 0.363687,-0.2984708 0.298471,-0.36368767 0.221784,-0.4149284 0.136574,-0.4502234 L 25.749976,-2.4"
       inkscape:connector-curvature="0"
       style="fill:none;stroke:#000000" />
    <path
       id="path3354"
       d="m 28.75,-3 4,0 0,-1 -0.03843,-0.3901806 -0.113812,-0.3751863 -0.18482,-0.3457736 L 32.164214,-5.4142136 31.86114,-5.6629392 31.515367,-5.8477591 31.140181,-5.9615706 30.75,-6 l -0.390181,0.038429 -0.375186,0.1138115 -0.345773,0.1848199 -0.303074,0.2487256 -0.248725,0.3030731 -0.18482,0.3457736 L 28.788429,-4.390181 28.75,-4 l 0,2.5 0.02882,0.2926355 0.08536,0.28138965 0.138615,0.2593302 0.186544,0.22730482 0.227305,0.18654425 0.25933,0.13861488 0.28139,0.08535862 L 30.25,0 l 2.5,0"
       inkscape:connector-curvature="0"
       style="fill:none;stroke:#000000" />
    <path
       id="path3356"
       d="M 38.75,-5 38.730785,-5.1950903 38.67388,-5.3826834 38.58147,-5.5555702 38.457107,-5.7071068 38.30557,-5.8314696 38.132683,-5.9238795 37.94509,-5.9807853 37.75,-6 l -2,0 0,6"
       inkscape:connector-curvature="0"
       style="fill:none;stroke:#000000" />
    <path
       id="path3358"
       d="m 41.75,-9 0,9"
       inkscape:connector-curvature="0"
       style="fill:none;stroke:#000000" />
    <path
       id="path3360"
       d="m 41.75,-3.5 4,-2.5"
       inkscape:connector-curvature="0"
       style="fill:none;stroke:#000000" />
    <path
       id="path3362"
       d="M 43.070923,-4.32555 45.75,0"
       inkscape:connector-curvature="0"
       style="fill:none;stroke:#000000" />
    <path
       id="path3364"
       d="m 48.75,-3 4,0 0,-1 -0.03843,-0.3901806 -0.113812,-0.3751863 -0.18482,-0.3457736 L 52.164214,-5.4142136 51.86114,-5.6629392 51.515367,-5.8477591 51.140181,-5.9615706 50.75,-6 l -0.390181,0.038429 -0.375186,0.1138115 -0.345773,0.1848199 -0.303074,0.2487256 -0.248725,0.3030731 -0.18482,0.3457736 L 48.788429,-4.390181 48.75,-4 l 0,2.5 0.02882,0.2926355 0.08536,0.28138965 0.138615,0.2593302 0.186544,0.22730482 0.227305,0.18654425 0.25933,0.13861488 0.28139,0.08535862 L 50.25,0 l 2.5,0"
       inkscape:connector-curvature="0"
       style="fill:none;stroke:#000000" />
    <path
       id="path3366"
       d="m 55.75,-9 0,8 0.01922,0.19509032 0.05691,0.18759311 0.09241,0.1728868 0.124363,0.15153655 0.151537,0.12436283 0.172887,0.09240992 0.187593,0.05690575 L 56.75,0"
       inkscape:connector-curvature="0"
       style="fill:none;stroke:#000000" />
  </g>
  <g
     style="font-style:normal;font-variant:normal;font-weight:normal;font-stretch:normal;font-size:180px;line-height:125%;font-family:sans-serif;-inkscape-font-specification:'sans-serif, Normal';text-align:start;letter-spacing:0px;word-spacing:0px;writing-mode:lr-tb;text-anchor:start;fill:#000000;fill-opacity:1;stroke:none;stroke-width:1px;stroke-linecap:butt;stroke-linejoin:miter;stroke-opacity:1"
     id="text3387"
     transform="translate(0,4)">
    <path
       d="m 129.04121,105.64026 q 0,9.75586 -3.69141,17.22656 -3.6914,7.4707 -9.93164,12.30469 -7.38281,5.80078 -16.259763,8.26172 -8.789063,2.46094 -22.41211,2.46094 l -46.40625,0 0,-130.869146 38.759766,0 q 14.326172,0 21.445312,1.054688 7.119141,1.054687 13.623045,4.394531 7.20703,3.779297 10.45899,9.75586 3.25195,5.888671 3.25195,14.15039 0,9.316406 -4.74609,15.908203 -4.7461,6.503907 -12.65625,10.458985 l 0,0.703125 q 13.27148,2.724609 20.91796,11.689453 7.64649,8.876953 7.64649,22.500001 z M 99.773631,46.665649 q 0,-4.746093 -1.582031,-7.998046 Q 96.609569,35.415649 93.093944,33.394165 88.963084,31.021118 83.074412,30.493774 77.18574,29.87854 68.484569,29.87854 l -20.742188,0 0,37.792969 22.5,0 q 8.173828,0 13.007813,-0.791016 4.833984,-0.878906 8.964843,-3.515625 4.13086,-2.636719 5.800782,-6.767578 1.757812,-4.21875 1.757812,-9.931641 z m 11.162109,59.677731 q 0,-7.910152 -2.37305,-12.568356 -2.37304,-4.658203 -8.613278,-7.910156 -4.21875,-2.197265 -10.283203,-2.8125 -5.976562,-0.703125 -14.589844,-0.703125 l -27.333984,0 0,48.691407 23.027344,0 q 11.425781,0 18.720703,-1.14258 7.294922,-1.23047 11.953122,-4.39453 4.92188,-3.42773 7.20703,-7.82227 2.28516,-4.39453 2.28516,-11.33789 z"
       id="path3392"
       inkscape:connector-curvature="0" />
    <path
       d="m 248.83613,108.54065 q 0,7.64648 -3.60351,15.11719 -3.51563,7.4707 -9.93165,12.65625 -7.03125,5.625 -16.43554,8.78906 -9.31641,3.16406 -22.5,3.16406 -14.15039,0 -25.48828,-2.63672 -11.25,-2.63672 -22.93946,-7.82226 l 0,-21.79688 1.23047,0 q 9.93164,8.26172 22.93946,12.74414 13.00781,4.48243 24.43359,4.48243 16.17187,0 25.13672,-6.06446 9.05273,-6.06445 9.05273,-16.17187 0,-8.70117 -4.30664,-12.832034 -4.21875,-4.13086 -12.91992,-6.416016 -6.5918,-1.757812 -14.32617,-2.900391 -7.64649,-1.142578 -16.25977,-2.90039 -17.40234,-3.691406 -25.83984,-12.56836 -8.34961,-8.964843 -8.34961,-23.291015 0,-16.435547 13.88672,-26.894531 13.88672,-10.546875 35.24414,-10.546875 13.79883,0 25.3125,2.636718 11.51367,2.636719 20.39062,6.503907 l 0,20.566406 -1.23047,0 q -7.4707,-6.328125 -19.6875,-10.458985 -12.1289,-4.21875 -24.87304,-4.21875 -13.97461,0 -22.5,5.800782 -8.4375,5.800781 -8.4375,14.941406 0,8.173828 4.21875,12.832031 4.21875,4.658203 14.85351,7.119141 5.625,1.230469 15.9961,2.988281 10.37109,1.757813 17.57812,3.603516 14.58985,3.867187 21.97266,11.689453 7.38281,7.822265 7.38281,21.884766 z"
       id="path3394"
       inkscape:connector-curvature="0" />
    <path
       d="m 393.32832,145.89417 -17.40235,0 0,-112.763677 -36.38671,76.728517 -10.3711,0 -36.12304,-76.728517 0,112.763677 -16.25977,0 0,-130.869146 23.73047,0 34.89258,72.861329 33.75,-72.861329 24.16992,0 0,130.869146 z"
       id="path3396"
       inkscape:connector-curvature="0" />
  </g>
</svg>








